<svg width="164" height="134" viewBox="0 0 164 134" fill="none" xmlns="http://www.w3.org/2000/svg">
<path d="M125.077 55.5508H18.7667C14.6862 55.5508 11.3784 58.8587 11.3784 62.9392V125.18C11.3784 129.26 14.6862 132.568 18.7667 132.568H125.077C129.158 132.568 132.466 129.26 132.466 125.18V62.9392C132.466 58.8587 129.158 55.5508 125.077 55.5508Z" fill="#A9877D" stroke="#221F20" stroke-width="1.34086" stroke-miterlimit="10"/>
<path d="M22.3788 76.6214C22.3788 76.6214 5.37184 72.1473 2.73117 66.4282C0.0905062 60.709 -1.01775 55.5098 7.36944 45.1934C15.7566 34.877 24.3764 22.9461 28.5632 17.4322C32.7499 11.9183 43.3536 7.04743 62.5634 9.92069C81.7732 12.794 106.059 10.5774 123.737 5.0635C141.414 -0.450424 155.096 0.20632 159.734 10.5774C164.373 20.9485 164.592 33.9877 155.315 37.9555C146.039 41.9234 138.308 42.1559 141.4 47.8888C144.492 53.6216 152.004 61.9815 146.914 66.4145C141.824 70.8475 128.361 71.518 128.361 71.518L127.253 65.3336C127.253 65.3336 142.043 65.9903 141.387 58.4925C140.73 50.9946 130.345 49.4349 130.345 44.1399C130.345 38.8449 138.513 37.3125 148.898 33.112C159.283 28.9116 159.94 13.6696 149.336 11.6857C138.732 9.70177 127.691 20.5381 93.4715 18.9783C59.2523 17.4185 54.3815 12.1235 41.5749 17.87C28.7684 23.6166 12.1993 47.9025 12.1993 47.9025C12.1993 47.9025 5.35815 53.8816 8.45033 61.27C11.5425 68.6584 22.803 69.7666 22.803 69.7666L22.3651 76.6351L22.3788 76.6214Z" fill="#8F6156" stroke="#221F20" stroke-width="1.34086" stroke-miterlimit="10"/>
<path d="M125.543 41.9918H18.3015C14.478 41.9918 11.3784 45.0914 11.3784 48.915V102.494C11.3784 106.318 14.478 109.418 18.3015 109.418H125.543C129.366 109.418 132.466 106.318 132.466 102.494V48.915C132.466 45.0914 129.366 41.9918 125.543 41.9918Z" fill="#C79F96" stroke="#221F20" stroke-width="1.24508" stroke-miterlimit="10"/>
<path d="M73.3313 93.3684L75.7257 100.757C75.9309 101.372 76.4919 101.783 77.1487 101.783H84.9065C86.3568 101.783 86.9451 103.63 85.7821 104.478L79.502 109.048C78.9821 109.431 78.7632 110.102 78.9547 110.717L81.3491 118.106C81.8006 119.474 80.2272 120.623 79.0505 119.775L72.7704 115.205C72.2504 114.822 71.539 114.822 71.019 115.205L64.7389 119.775C63.5759 120.623 62.0025 119.488 62.4403 118.106L64.8347 110.717C65.0399 110.102 64.821 109.431 64.2874 109.048L58.0073 104.478C56.8443 103.63 57.4326 101.783 58.8829 101.783H66.6407C67.2838 101.783 67.8584 101.372 68.0637 100.757L70.4581 93.3684C70.9096 92.0002 72.8525 92.0002 73.2903 93.3684H73.3313Z" fill="#FCF6B5" stroke="#221F20" stroke-width="1.42295" stroke-miterlimit="10"/>
</svg>
