<svg width="58" height="68" viewBox="0 0 58 68" fill="none" xmlns="http://www.w3.org/2000/svg">
<path d="M28.8516 51.1831C42.7891 51.1831 54.0876 39.8794 54.0876 25.9355C54.0876 11.9917 42.7891 0.687988 28.8516 0.687988C14.9141 0.687988 3.6156 11.9917 3.6156 25.9355C3.6156 39.8794 14.9141 51.1831 28.8516 51.1831Z" fill="#AAE0FC"/>
<path d="M28.8516 51.8911C14.5593 51.8911 2.935 40.2614 2.935 25.9626C2.935 11.6639 14.5593 0.0341797 28.8516 0.0341797C43.1438 0.0341797 54.7682 11.6639 54.7682 25.9626C54.7682 40.2614 43.1438 51.8911 28.8516 51.8911ZM28.8516 1.36875C15.2944 1.36875 4.29616 12.3992 4.29616 25.9354C4.29616 39.4716 15.3216 50.502 28.8516 50.502C42.3816 50.502 53.407 39.4716 53.407 25.9354C53.407 12.3992 42.3816 1.36875 28.8516 1.36875Z" fill="#231F20"/>
<path d="M9.95858 44.5649L1.05658 62.6495C1.05658 62.6495 8.73356 66.9527 28.1983 66.9527C49.5686 66.9527 56.6193 62.6495 56.6193 62.6495L48.7246 44.5649L45.8662 45.0279C34.5957 46.8255 23.1075 46.7983 11.8642 44.8918L9.95858 44.5649Z" fill="#F4A9D4"/>
<path d="M28.1982 67.6335C8.78799 67.6335 1.05649 63.4392 0.729809 63.2486L0.158142 62.9218L9.55023 43.8022L11.9459 44.2108C23.1347 46.09 34.514 46.1445 45.73 44.347L49.1057 43.8022L57.4633 62.9218L56.9461 63.2214C56.6466 63.412 49.4596 67.6063 28.171 67.6063L28.1982 67.6335ZM1.98214 62.3226C4.10556 63.2486 12.1092 66.2445 28.1982 66.2445C45.9206 66.2445 53.7609 63.2486 55.7482 62.3226L48.3162 45.3002L45.9751 45.6815C34.5957 47.5063 23.0802 47.4518 11.7281 45.5453L10.3396 45.3002L1.98214 62.3226Z" fill="#231F20"/>
</svg>
