<svg width="187" height="146" viewBox="0 0 187 146" fill="none" xmlns="http://www.w3.org/2000/svg">
<path d="M38.2012 78.6303C59.0823 78.6303 76.0097 61.6552 76.0097 40.7153C76.0097 19.7754 59.0823 2.80029 38.2012 2.80029C17.3202 2.80029 0.392761 19.7754 0.392761 40.7153C0.392761 61.6552 17.3202 78.6303 38.2012 78.6303Z" fill="#C583FF"/>
<path d="M38.2013 79.0243C17.1328 79.0243 0 61.8353 0 40.7154C0 19.5955 17.1407 2.40649 38.2013 2.40649C59.2618 2.40649 76.4025 19.5955 76.4025 40.7154C76.4025 61.8353 59.2618 79.0243 38.2013 79.0243ZM38.2013 3.18638C17.5727 3.18638 0.785549 20.0209 0.785549 40.7154C0.785549 61.4099 17.5727 78.2365 38.2013 78.2365C58.8298 78.2365 75.617 61.402 75.617 40.7154C75.617 20.0287 58.8298 3.19426 38.2013 3.19426V3.18638Z" fill="#231F20"/>
<path d="M61.0058 67.578C53.1503 67.578 40.5894 62.1897 28.7826 53.0753C12.0818 40.1954 2.21528 24.8734 6.77146 18.9258L7.39205 19.4063C3.16579 24.9128 13.1815 40.0457 29.2539 52.453C45.0277 64.616 62.7026 70.28 67.0781 64.5687L67.6987 65.0493C66.3789 66.7666 64.038 67.578 60.9979 67.578H61.0058Z" fill="#231F20"/>
<path d="M35.2004 57.3372L34.7762 56.6755C38.3191 54.3989 41.854 51.7835 45.2633 48.9003C60.4166 36.1149 69.6468 20.0524 65.0199 14.5381L65.6248 14.0339C70.613 19.9737 61.5242 36.2252 45.7739 49.5069C42.3332 52.4058 38.7747 55.0449 35.2004 57.3372Z" fill="#231F20"/>
<path d="M41.3278 61.0161L40.9036 60.3544C44.4542 58.0777 47.9814 55.4624 51.3906 52.5792C58.9241 46.2219 64.9099 39.4865 68.2485 33.602C71.4771 27.9064 72.0663 23.3532 69.906 20.7693L70.5109 20.2651C72.899 23.1168 72.3412 27.9931 68.9398 33.988C65.5541 39.9513 59.5054 46.7655 51.9013 53.1779C48.4605 56.0768 44.9099 58.7158 41.3278 61.0082V61.0161Z" fill="#231F20"/>
<path d="M48.2798 64.3404L47.8557 63.6786C51.2257 61.5123 53.873 59.3302 57.5179 56.25C72.4198 43.6773 75.0278 32.2312 72.734 26.2599L73.4646 25.9763C74.2187 27.9457 75.0985 32.1996 72.514 38.5805C70.0396 44.6778 65.1692 50.8224 58.0207 56.8566C54.3443 59.9525 51.6813 62.1504 48.272 64.3404H48.2798Z" fill="#231F20"/>
<path d="M55.774 66.9163L55.3498 66.2545C58.7355 64.0803 60.1181 62.9144 63.4645 60.0942L63.6609 59.9288C77.7694 48.0257 76.0412 39.2264 75.1142 34.4998C75.0199 34.0114 74.9335 33.5781 74.8785 33.1921L75.6562 33.074C75.7112 33.4521 75.7976 33.8696 75.8841 34.3423C76.7717 38.8798 78.6256 48.3251 64.1637 60.5275L63.9673 60.6929C60.5973 63.5368 59.199 64.7105 55.774 66.9163Z" fill="#231F20"/>
<path d="M55.9311 72.5645C48.3348 72.5645 36.6773 67.5938 25.4832 58.952C8.79027 46.0721 -1.08408 30.7501 3.47996 24.8025L4.10054 25.283C-0.125711 30.7895 9.89004 45.9224 25.9624 58.3297C39.576 68.8305 57.4629 75.7707 62.3805 69.3583L63.001 69.8389C61.5792 71.6901 59.1126 72.5645 55.9311 72.5645Z" fill="#231F20"/>
<path d="M49.2775 75.4951C42.726 75.4951 33.5351 73.0924 23.268 65.1754C6.96782 52.5948 -0.102125 34.3503 1.20974 31.1125L1.9403 31.4119C0.926944 33.8933 7.28989 51.8465 23.7471 64.5452C40.2673 77.2912 53.7944 75.5424 57.7614 72.6985L58.217 73.3366C56.6067 74.4946 53.488 75.4872 49.2775 75.4872V75.4951Z" fill="#231F20"/>
<path d="M41.7441 78.5831C36.6459 78.5831 29.9452 76.7083 20.7856 69.642C4.71331 57.2427 -1.62607 39.1477 1.07622 32.1445L1.80678 32.4281C-0.746257 39.0532 5.71096 57.0299 21.257 69.0197C36.1353 80.4974 44.0065 78.0947 49.7488 76.3459C50.2359 76.1962 50.7072 76.0544 51.1628 75.9284L51.3749 76.6846C50.9272 76.8107 50.4558 76.9525 49.9767 77.1021C47.7614 77.7796 45.0984 78.591 41.7362 78.591L41.7441 78.5831Z" fill="#231F20"/>
<path d="M18.8846 43.9451L18.4604 43.2834C28.6411 36.745 41.6655 36.0911 52.4511 41.574L53.0953 41.9048L52.7418 42.6059L52.0976 42.2751C41.5634 36.9183 28.8375 37.5564 18.8846 43.9451Z" fill="#231F20"/>
<path d="M22.6552 47.3012L22.341 46.5764C31.6969 42.5352 42.9931 42.9527 49.3246 45.4578L49.034 46.1904C42.8595 43.7484 31.8147 43.3387 22.6552 47.3012Z" fill="#231F20"/>
<path d="M44.5878 50.2159C44.4935 50.1765 35.3026 46.4031 26.2374 50.1686L25.9388 49.4439C35.3104 45.5523 44.7999 49.4439 44.8863 49.4912L44.5799 50.2159H44.5878Z" fill="#231F20"/>
<path d="M15.4204 40.2033L14.9962 39.5415L18.4526 37.32C28.6333 30.7816 41.6577 30.1278 52.4433 35.6106L56.7402 37.8006L56.3867 38.5017L52.0898 36.3117C41.5556 30.9549 28.8297 31.593 18.8768 37.9818L15.4204 40.2033Z" fill="#231F20"/>
<path d="M12.2546 36.2724L11.8304 35.6107L16.6222 32.5305C27.4157 25.5982 42.1447 24.4087 52.4433 29.6473L60.0552 33.5152L59.7018 34.2163L52.0898 30.3484C42.0347 25.228 27.6278 26.4017 17.0464 33.1923L12.2546 36.2724Z" fill="#231F20"/>
<path d="M9.46588 32.1053L9.04169 31.4435L18.4604 25.3935C28.6411 18.8551 41.6655 18.2013 52.4511 23.6841L62.8754 28.9857L62.5219 29.6868L52.0976 24.3852C41.5634 19.0284 28.8375 19.6665 18.8846 26.0552L9.46588 32.1053Z" fill="#231F20"/>
<path d="M7.557 28.3004L7.07782 27.678L18.429 18.8551C28.3269 12.4978 41.3435 12.0725 52.4511 17.7207L65.1456 24.7003L64.7686 25.3935L52.0898 18.4218C41.2492 12.9075 28.5233 13.3171 18.8925 19.5089L7.57272 28.3082L7.557 28.3004Z" fill="#231F20"/>
<path d="M6.38653 24.3456L5.90735 23.7233L19.0653 13.4587C21.2491 11.7572 23.4801 10.418 25.711 9.48054C33.92 6.03014 42.6632 6.77064 52.4511 11.7493L66.5596 20.1705L66.159 20.848L52.0741 12.4347C42.5297 7.58204 33.9986 6.84942 26.0174 10.2053C23.8571 11.1191 21.6812 12.4189 19.5523 14.0732L6.39439 24.3377L6.38653 24.3456Z" fill="#231F20"/>
<path d="M90.2517 104.705C111.133 104.705 128.06 87.7301 128.06 66.7903C128.06 45.8504 111.133 28.8752 90.2517 28.8752C69.3707 28.8752 52.4432 45.8504 52.4432 66.7903C52.4432 87.7301 69.3707 104.705 90.2517 104.705Z" fill="#C5FFCC"/>
<path d="M90.2517 105.107C69.1833 105.107 52.0505 87.9181 52.0505 66.7982C52.0505 45.6782 69.1912 28.4893 90.2517 28.4893C111.312 28.4893 128.453 45.6782 128.453 66.7982C128.453 87.9181 111.312 105.107 90.2517 105.107ZM90.2517 29.2691C69.6232 29.2691 52.836 46.1036 52.836 66.7903C52.836 87.4769 69.6232 104.311 90.2517 104.311C110.88 104.311 127.667 87.4769 127.667 66.7903C127.667 46.1036 110.88 29.2691 90.2517 29.2691Z" fill="#231F20"/>
<path d="M113.119 93.6371C110.739 93.6371 107.872 93.133 104.604 92.1325C97.1332 89.8322 88.6885 85.2238 80.8252 79.1581C64.1244 66.2781 54.2579 50.9562 58.8219 45.0085L59.4425 45.4891C55.2163 50.9955 65.232 66.1285 81.3044 78.5357C89.097 84.5463 97.4474 89.1075 104.839 91.3841C111.902 93.5583 117.11 93.2905 119.129 90.6594L119.749 91.1399C118.469 92.81 116.198 93.645 113.111 93.645L113.119 93.6371Z" fill="#231F20"/>
<path d="M87.2431 83.42L86.8189 82.7583C90.3696 80.4817 93.8967 77.8663 97.306 74.9831C104.816 68.6495 111.022 61.4572 114.784 54.7297C118.374 48.3173 119.199 43.1732 117.063 40.6209L117.667 40.1167C120.063 42.9763 119.286 48.3016 115.476 55.1157C111.666 61.922 105.397 69.193 97.8166 75.5896C94.3759 78.4886 90.8252 81.1276 87.2431 83.42Z" fill="#231F20"/>
<path d="M93.3782 87.0908L92.954 86.4291C96.5047 84.1446 100.032 81.5292 103.441 78.6539C110.975 72.2966 116.96 65.5612 120.299 59.6767C123.528 53.9811 124.117 49.4279 121.957 46.844L122.561 46.3398C124.949 49.1915 124.392 54.0678 120.99 60.0627C117.605 66.026 111.556 72.8402 103.952 79.2526C100.519 82.1515 96.9603 84.7827 93.3782 87.0829V87.0908Z" fill="#231F20"/>
<path d="M100.33 90.4231L99.9061 89.7614C103.276 87.5951 105.923 85.413 109.568 82.3328C124.47 69.7601 127.078 58.3139 124.784 52.3427L125.515 52.0591C126.269 54.0285 127.149 58.2824 124.565 64.6633C122.09 70.7606 117.22 76.9051 110.071 82.9394C106.395 86.0353 103.732 88.2331 100.322 90.4231H100.33Z" fill="#231F20"/>
<path d="M107.817 92.999L107.392 92.3373C110.778 90.1631 112.161 88.9972 115.507 86.177L115.703 86.0116C129.812 74.1085 128.084 65.3092 127.157 60.5826C127.063 60.0942 126.976 59.6609 126.921 59.2749L127.699 59.1567C127.754 59.527 127.84 59.9524 127.927 60.425C128.814 64.9625 130.676 74.4078 116.214 86.6103L116.018 86.7757C112.648 89.6195 111.249 90.8012 107.824 92.999H107.817Z" fill="#231F20"/>
<path d="M107.982 98.6395C100.385 98.6395 88.7278 93.6608 77.5337 85.027C69.5839 78.8903 62.8911 71.9816 58.6884 65.5692C54.4071 59.0229 53.2838 53.8079 55.5226 50.8774L56.1432 51.358C54.1479 53.9576 55.3105 58.9835 59.3404 65.1359C63.4881 71.4774 70.1181 78.3231 78.005 84.4046C91.6186 94.9055 109.506 101.846 114.423 95.4333L115.044 95.9138C113.622 97.7651 111.155 98.6395 107.974 98.6395H107.982Z" fill="#231F20"/>
<path d="M101.328 101.57C94.7765 101.57 85.5855 99.1673 75.3184 91.2503C59.0183 78.6776 51.9405 60.4251 53.2602 57.1953L53.9908 57.4947C52.9774 59.9761 59.3403 77.9292 75.7976 90.628C92.3177 103.366 105.845 101.625 109.812 98.7813L110.267 99.4194C108.657 100.577 105.538 101.57 101.328 101.57Z" fill="#231F20"/>
<path d="M93.7946 104.666C88.6964 104.666 81.9956 102.791 72.8283 95.7249C56.7559 83.3255 50.4244 65.2306 53.1267 58.2195L53.8572 58.5031C51.3042 65.1282 57.7614 83.1049 73.3074 95.0946C88.1857 106.572 96.0569 104.17 101.799 102.421C102.286 102.271 102.758 102.129 103.213 102.003L103.425 102.76C102.978 102.886 102.506 103.027 102.027 103.177C99.8119 103.855 97.1489 104.666 93.7867 104.666H93.7946Z" fill="#231F20"/>
<path d="M70.9272 70.0201L70.5031 69.3584C80.6838 62.8199 93.7082 62.1661 104.494 67.6489L105.138 67.9798L104.784 68.6809L104.14 68.35C93.6061 62.9932 80.8802 63.6313 70.9272 70.0201Z" fill="#231F20"/>
<path d="M74.6979 73.3838L74.3837 72.6591C83.7396 68.61 95.0357 69.0353 101.367 71.5404L101.077 72.2731C94.8944 69.831 83.8574 69.4214 74.6979 73.3838Z" fill="#231F20"/>
<path d="M96.6304 76.2987C96.5361 76.2593 87.3452 72.4859 78.28 76.2514L77.9814 75.5267C87.3452 71.6351 96.8425 75.5267 96.9368 75.5739L96.6304 76.2987Z" fill="#231F20"/>
<path d="M67.4708 66.2782L67.0466 65.6165L70.503 63.395C80.6838 56.8566 93.7082 56.2027 104.494 61.6855L108.791 63.8755L108.437 64.5766L104.14 62.3867C93.6061 57.0299 80.8802 57.668 70.9272 64.0567L67.4708 66.2782Z" fill="#231F20"/>
<path d="M64.3051 62.3552L63.8809 61.6934L68.6727 58.6133C79.474 51.681 94.2031 50.4915 104.494 55.7301L112.106 59.598L111.752 60.2991L104.14 56.4312C94.0852 51.3186 79.6783 52.4845 69.0969 59.275L64.3051 62.3552Z" fill="#231F20"/>
<path d="M61.5085 58.18L61.0843 57.5182L70.503 51.4682C80.6837 44.9298 93.7081 44.276 104.494 49.7588L114.918 55.0604L114.564 55.7615L104.14 50.4599C93.606 45.1031 80.8801 45.7412 70.9272 52.13L61.5085 58.18Z" fill="#231F20"/>
<path d="M59.6075 54.3751L59.1283 53.7527L70.4795 44.9298C80.3774 38.5726 93.394 38.1472 104.502 43.7954L117.196 50.775L116.819 51.4682L104.14 44.4965C93.2997 38.9822 80.5738 39.3918 70.943 45.5836L59.6232 54.383L59.6075 54.3751Z" fill="#231F20"/>
<path d="M58.437 50.4284L57.9578 49.806L71.1158 39.5415C73.2996 37.8399 75.5306 36.5007 77.7615 35.5633C85.9627 32.1129 94.7137 32.8534 104.502 37.8321L118.61 46.2532L118.209 46.9307L104.125 38.5174C94.5801 33.6648 86.0491 32.9322 78.0679 36.288C75.9076 37.194 73.7317 38.5017 71.6028 40.156L58.4449 50.4205L58.437 50.4284Z" fill="#231F20"/>
<path d="M148.728 76.4089C169.609 76.4089 186.537 59.4338 186.537 38.4939C186.537 17.554 169.609 0.578857 148.728 0.578857C127.847 0.578857 110.92 17.554 110.92 38.4939C110.92 59.4338 127.847 76.4089 148.728 76.4089Z" fill="#F4A9D4"/>
<path d="M148.728 76.8028C127.66 76.8028 110.527 59.6139 110.527 38.4939C110.527 17.374 127.667 0.185059 148.728 0.185059C169.789 0.185059 186.929 17.374 186.929 38.4939C186.929 59.6139 169.789 76.8028 148.728 76.8028ZM148.728 0.972821C128.1 0.972821 111.312 17.8073 111.312 38.4939C111.312 59.1806 128.1 76.0151 148.728 76.0151C169.357 76.0151 186.144 59.1806 186.144 38.4939C186.144 17.8073 169.357 0.972821 148.728 0.972821Z" fill="#231F20"/>
<path d="M171.603 65.341C169.223 65.341 166.356 64.8368 163.088 63.8364C155.617 61.5361 147.165 56.9277 139.309 50.8619C131.36 44.7252 124.667 37.8166 120.464 31.4042C116.175 24.8579 115.052 19.6429 117.298 16.7124L117.919 17.1929C115.924 19.7926 117.086 24.8185 121.116 30.9709C125.264 37.3124 131.894 44.158 139.781 50.2396C147.573 56.2502 155.924 60.8113 163.316 63.088C170.378 65.2622 175.586 64.9944 177.605 62.3632L178.225 62.8438C176.945 64.5138 174.675 65.3567 171.588 65.3567L171.603 65.341Z" fill="#231F20"/>
<path d="M145.727 55.1236L145.303 54.4619C148.854 52.1774 152.381 49.5699 155.79 46.6867C163.3 40.3531 169.506 33.1608 173.269 26.4333C176.859 20.0209 177.683 14.8768 175.547 12.3245L176.152 11.8203C178.547 14.6799 177.77 20.0052 173.96 26.8193C170.15 33.6256 163.881 40.8966 156.301 47.2933C152.868 50.1922 149.309 52.8312 145.727 55.1236Z" fill="#231F20"/>
<path d="M151.855 58.7947L151.43 58.1329C154.981 55.8484 158.508 53.2409 161.917 50.3577C177.251 37.4148 185.036 24.0386 180.433 18.5479L181.038 18.0437C185.94 23.881 178.115 37.7299 162.428 50.9643C158.995 53.8633 155.437 56.5023 151.855 58.7947Z" fill="#231F20"/>
<path d="M158.807 62.1189L158.382 61.4572C161.752 59.2909 164.4 57.1087 168.045 54.0286C182.947 41.4559 185.555 30.0097 183.261 24.0385L183.991 23.7549C184.745 25.7243 185.625 29.9782 183.041 36.3591C180.566 42.4564 175.696 48.6009 168.547 54.6352C164.871 57.739 162.208 59.9289 158.799 62.1189H158.807Z" fill="#231F20"/>
<path d="M166.293 64.6948L165.869 64.0331C169.254 61.8589 170.645 60.6851 173.999 57.857L174.18 57.7074C188.288 45.8043 186.56 37.005 185.633 32.2784C185.539 31.79 185.452 31.3567 185.397 30.9707L186.175 30.8525C186.23 31.2228 186.317 31.6482 186.403 32.1208C187.291 36.6583 189.152 46.1036 174.683 58.3061L174.502 58.4557C171.124 61.3074 169.726 62.4891 166.293 64.6948Z" fill="#231F20"/>
<path d="M166.466 70.3433C164.345 70.3433 161.87 69.9573 159.097 69.1695C151.996 67.1528 143.795 62.7414 136.01 56.7386C128.06 50.6019 121.367 43.6933 117.165 37.2809C112.883 30.7346 111.76 25.5196 113.999 22.5891L114.62 23.0696C112.624 25.6693 113.787 30.6952 117.817 36.8476C121.964 43.1891 128.594 50.0348 136.481 56.1163C144.188 62.0639 152.294 66.4281 159.302 68.4133C165.892 70.2803 170.849 69.8155 172.899 67.145L173.52 67.6255C172.13 69.4373 169.71 70.3512 166.458 70.3512L166.466 70.3433Z" fill="#231F20"/>
<path d="M159.804 73.2736C153.253 73.2736 144.062 70.8709 133.795 62.9539C117.495 50.3812 110.417 32.1288 111.737 28.8989L112.467 29.1983C111.454 31.6797 117.817 49.6328 134.274 62.3316C150.794 75.0697 164.321 73.3287 168.288 70.4849L168.744 71.123C167.133 72.281 164.015 73.2736 159.804 73.2736Z" fill="#231F20"/>
<path d="M152.271 76.3696C147.173 76.3696 140.472 74.4947 131.312 67.4285C115.24 55.0291 108.909 36.9342 111.611 29.9231L112.341 30.2067C109.788 36.8318 116.246 54.8085 131.792 66.7983C146.67 78.276 154.541 75.8733 160.283 74.1245C160.771 73.9748 161.242 73.833 161.697 73.7069L161.91 74.4632C161.462 74.5892 160.998 74.731 160.511 74.8807C158.296 75.5582 155.633 76.3696 152.271 76.3696Z" fill="#231F20"/>
<path d="M129.404 41.7237L128.979 41.062C139.16 34.5236 152.184 33.8697 162.97 39.3525L163.614 39.6834L163.261 40.3845L162.617 40.0536C152.082 34.6969 139.356 35.335 129.404 41.7237Z" fill="#231F20"/>
<path d="M133.182 45.0797L132.868 44.355C142.224 40.3138 153.52 40.7313 159.851 43.2364L159.561 43.969C153.386 41.5269 142.334 41.1173 133.182 45.0797Z" fill="#231F20"/>
<path d="M155.115 48.0023C155.02 47.9629 145.829 44.1895 136.764 47.955L136.466 47.2303C145.829 43.3387 155.327 47.2303 155.421 47.2775L155.115 48.0023Z" fill="#231F20"/>
<path d="M125.947 37.9818L125.523 37.3201L128.979 35.0986C139.16 28.5602 152.185 27.9063 162.97 33.3892L167.267 35.5791L166.914 36.2802L162.617 34.0903C152.082 28.7335 139.356 29.3716 129.404 35.7603L125.947 37.9818Z" fill="#231F20"/>
<path d="M122.781 34.051L122.357 33.3893L127.149 30.3091C137.95 23.3768 152.679 22.1873 162.97 27.4259L170.582 31.2938L170.229 31.9949L162.617 28.127C152.562 23.0065 138.155 24.1803 127.573 30.9708L122.781 34.051Z" fill="#231F20"/>
<path d="M119.993 29.8838L119.568 29.2221L128.987 23.1721C139.168 16.6337 152.192 15.9798 162.978 21.4626L173.402 26.7643L173.049 27.4654L162.624 22.1638C152.09 16.7991 139.364 17.4451 129.411 23.8338L119.993 29.8838Z" fill="#231F20"/>
<path d="M118.084 26.0789L117.605 25.4566L128.956 16.6337C138.854 10.2764 151.878 9.85102 162.978 15.4993L175.672 22.4789L175.295 23.1721L162.617 16.2004C151.776 10.686 139.05 11.0957 129.419 17.2875L118.1 26.0868L118.084 26.0789Z" fill="#231F20"/>
<path d="M116.913 22.1242L116.434 21.5019L129.592 11.2373C131.776 9.53574 134.007 8.19654 136.238 7.25911C144.447 3.80871 153.19 4.5492 162.978 9.52786L177.086 17.949L176.686 18.6265L162.601 10.2132C153.056 5.3606 144.525 4.62798 136.544 7.98385C134.384 8.89765 132.208 10.1975 130.079 11.8518L116.921 22.1163L116.913 22.1242Z" fill="#231F20"/>
<path d="M92.8991 71.3043C52.7182 71.3043 18.0127 65.9239 1.71252 58.125L19.6623 126.802C19.6623 137.193 52.4511 145.614 92.9069 145.614C133.363 145.614 166.152 137.193 166.152 126.802L184.101 58.125C167.801 65.9239 133.096 71.3043 92.9148 71.3043H92.8991Z" fill="#FBE898"/>
<path d="M15.4125 110.543L63.221 116.884C79.9218 119.098 96.8739 118.68 113.441 115.632C139.404 110.858 161.069 92.9835 170.739 68.3502L173.151 62.2135L184.093 58.125L166.144 126.802L165.586 129.134C164.525 131.048 162.986 132.655 161.124 133.79L156.835 135.987L146.803 139.54L134.73 142.25L112.082 144.968L91.0294 145.622L69.0419 144.598L48.3663 141.738L36.9051 138.926L29.8352 136.373L26.0645 134.806C24.2735 133.805 22.6867 132.474 21.3905 130.891L19.9451 128.464L15.4125 110.551V110.543Z" fill="#F8C99D"/>
<path d="M92.8991 146C51.6734 146 19.3638 137.594 19.2617 126.849L1.11548 57.4001L1.87746 57.7625C18.5704 65.7426 54.2972 70.9024 92.8991 70.9024C131.501 70.9024 167.228 65.7426 183.921 57.7625L184.683 57.4001L166.536 126.849C166.434 137.594 134.125 146 92.8991 146ZM2.30166 58.8339L20.0472 126.747V126.794C20.0472 136.948 52.7261 145.212 92.8991 145.212C133.072 145.212 165.751 136.948 165.751 126.794L165.767 126.692L183.504 58.826C166.411 66.6485 131.045 71.6902 92.9069 71.6902C54.7685 71.6902 19.4031 66.6564 2.30951 58.826L2.30166 58.8339Z" fill="#231F20" stroke="black"/>
<path d="M93.4418 71.3042V71.1542H93.2918H92.5063H92.3563V71.3042V145.614V145.764H92.5063H93.2918H93.4418V145.614V71.3042Z" fill="black" stroke="black" stroke-width="0.3"/>
<path d="M100.292 71.3042V71.1542H100.142H99.3563H99.2063V71.3042V145.614V145.764H99.3563H100.142H100.292V145.614V71.3042Z" fill="black" stroke="black" stroke-width="0.3"/>
<path d="M107.142 71.3042V71.1542H106.992H106.206H106.056V71.3042V145.614V145.764H106.206H106.992H107.142V145.614V71.3042Z" fill="black" stroke="black" stroke-width="0.3"/>
<path d="M113.992 70.9497V70.7997H113.842H113.056H112.906V70.9497V145.259V145.409H113.056H113.842H113.992V145.259V70.9497Z" fill="black" stroke="black" stroke-width="0.3"/>
<path d="M120.842 70.4927V70.3427H120.692H119.906H119.756V70.4927V144.227V144.377H119.906H120.692H120.842V144.227V70.4927Z" fill="black" stroke="black" stroke-width="0.3"/>
<path d="M127.692 69.9333V69.7833H127.542H126.756H126.606V69.9333V143.432V143.582H126.756H127.542H127.692V143.432V69.9333Z" fill="black" stroke="black" stroke-width="0.3"/>
<path d="M134.534 69.4844V69.3344H134.384H133.598H133.448V69.4844V142.368V142.518H133.598H134.384H134.534V142.368V69.4844Z" fill="black" stroke="black" stroke-width="0.3"/>
<path d="M141.384 68.4839V68.3339H141.234H140.448H140.298V68.4839V140.871V141.021H140.448H141.234H141.384V140.871V68.4839Z" fill="black" stroke="black" stroke-width="0.3"/>
<path d="M148.234 67.5544V67.4044H148.084H147.298H147.148V67.5544V139.28V139.43H147.298H148.084H148.234V139.28V67.5544Z" fill="black" stroke="black" stroke-width="0.3"/>
<path d="M155.084 66.5854V66.4354H154.934H154.148H153.998V66.5854V136.964V137.114H154.148H154.934H155.084V136.964V66.5854Z" fill="black" stroke="black" stroke-width="0.3"/>
<path d="M161.934 64.9312V64.7812H161.784H160.998H160.848V64.9312V133.789V133.939H160.998H161.784H161.934V133.789V64.9312Z" fill="black" stroke="black" stroke-width="0.3"/>
<path d="M168.784 63.521V63.371H168.634H167.848H167.698V63.521V118.783V118.933H167.848H168.634H168.784V118.783V63.521Z" fill="black" stroke="black" stroke-width="0.3"/>
<path d="M175.634 61.6304V61.4804H175.484H174.698H174.548V61.6304V92.6603V92.8103H174.698H175.484H175.634V92.6603V61.6304Z" fill="black" stroke="black" stroke-width="0.3"/>
<path d="M86.9453 71.3042V71.1542H86.7953H86.0098H85.8598V71.3042V145.614V145.764H86.0098H86.7953H86.9453V145.614V71.3042Z" fill="black" stroke="black" stroke-width="0.3"/>
<path d="M80.0953 71.3042V71.1542H79.9453H79.1598H79.0098V71.3042V145.614V145.764H79.1598H79.9453H80.0953V145.614V71.3042Z" fill="black" stroke="black" stroke-width="0.3"/>
<path d="M73.2454 70.9497V70.7997H73.0954H72.3098H72.1598V70.9497V145.259V145.409H72.3098H73.0954H73.2454V145.259V70.9497Z" fill="black" stroke="black" stroke-width="0.3"/>
<path d="M66.3954 70.4927V70.3427H66.2454H65.4598H65.3098V70.4927V144.227V144.377H65.4598H66.2454H66.3954V144.227V70.4927Z" fill="black" stroke="black" stroke-width="0.3"/>
<path d="M59.5454 69.9333V69.7833H59.3954H58.6098H58.4598V69.9333V143.432V143.582H58.6098H59.3954H59.5454V143.432V69.9333Z" fill="black" stroke="black" stroke-width="0.3"/>
<path d="M52.6954 69.4844V69.3344H52.5454H51.7598H51.6098V69.4844V142.368V142.518H51.7598H52.5454H52.6954V142.368V69.4844Z" fill="black" stroke="black" stroke-width="0.3"/>
<path d="M19.8728 71.6648L19.8728 71.6648C43.9031 75.7547 68.1143 77.8036 92.3334 77.8036H92.3413C115.138 77.8036 137.943 75.9832 160.598 72.3583L160.574 72.2102L160.598 72.3583L181.478 69.0103L181.626 68.9865L181.602 68.8383L181.476 68.0584L181.453 67.9104L181.305 67.9342L160.425 71.2822C113.819 78.7475 66.5921 78.5192 20.0567 70.5892L20.0567 70.5892L4.51065 67.9423L4.36292 67.9171L4.33762 68.0648L4.20408 68.8447L4.17874 68.9927L4.32675 69.0179L19.8728 71.6648Z" fill="black" stroke="black" stroke-width="0.3"/>
<path d="M19.8728 78.0615L19.8728 78.0615C43.8536 82.1429 68.0144 84.1918 92.1835 84.2002V84.2081H92.3335C115.13 84.2081 137.943 82.3956 160.598 78.7628L160.6 78.7625L179.736 75.4145L179.883 75.3887L179.858 75.2414L179.724 74.4615L179.699 74.3132L179.551 74.3391L160.425 77.6788C160.424 77.6789 160.424 77.6789 160.424 77.679C113.818 85.1442 66.5918 84.9158 20.0567 76.9858C20.0567 76.9858 20.0567 76.9858 20.0567 76.9858L6.05823 74.5989L5.91047 74.5737L5.88517 74.7215L5.75163 75.5014L5.72629 75.6493L5.87426 75.6745L19.8728 78.0615Z" fill="black" stroke="black" stroke-width="0.3"/>
<path d="M7.69981 82.2366L7.67446 82.3846L7.82251 82.4098L19.865 84.4579C19.865 84.4579 19.865 84.4579 19.865 84.4579C43.8953 88.5478 68.1065 90.5967 92.3256 90.5967H92.3335C115.13 90.5967 137.943 88.7843 160.606 85.1515L160.61 85.1506L177.995 81.8026L178.142 81.7742L178.113 81.6268L177.964 80.8548L177.936 80.7077L177.789 80.736L160.417 84.0753C160.416 84.0754 160.415 84.0756 160.415 84.0757C113.809 91.5407 66.5835 91.3122 20.0489 83.3823L20.0488 83.3823L8.00635 81.3341L7.85864 81.309L7.83335 81.4567L7.69981 82.2366Z" fill="black" stroke="black" stroke-width="0.3"/>
<path d="M19.8727 90.8625L19.8728 90.8625C43.9031 94.9524 68.1143 97.0013 92.3334 97.0013C115.13 97.0013 137.943 95.1809 160.598 91.556L160.598 91.5559L176.364 89.0115L176.512 88.9876L176.488 88.8395L176.362 88.0596L176.339 87.9115L176.191 87.9354L160.425 90.4799C113.819 97.9453 66.5921 97.7169 20.0567 89.7869L9.76602 88.0302L9.61824 88.0049L9.59293 88.1527L9.45939 88.9326L9.43406 89.0805L9.582 89.1058L19.8727 90.8625Z" fill="black" stroke="black" stroke-width="0.3"/>
<path d="M19.8728 97.2591L19.8728 97.2591C43.9032 101.349 68.1144 103.398 92.3335 103.398C115.13 103.398 137.943 101.577 160.598 97.9525L160.574 97.8044L160.598 97.9525L174.494 95.7232L174.642 95.6994L174.619 95.5512L174.493 94.7713L174.469 94.6233L174.321 94.6471L160.425 96.8764C113.819 104.342 66.5922 104.113 20.0567 96.1834C20.0567 96.1834 20.0567 96.1834 20.0567 96.1834L11.51 94.7261L11.3622 94.7009L11.3369 94.8486L11.2033 95.6285L11.178 95.7765L11.326 95.8017L19.8728 97.2591Z" fill="black" stroke="black" stroke-width="0.3"/>
<path d="M19.858 103.653L19.8653 103.655L19.8728 103.656C43.8535 107.737 68.0144 109.786 92.1834 109.795V109.802H92.3335C115.13 109.802 137.943 107.982 160.598 104.357L172.758 102.411L172.906 102.388L172.883 102.239L172.757 101.46L172.733 101.312L172.585 101.335L160.425 103.281L160.448 103.429L160.425 103.281C113.821 110.746 66.5972 110.51 20.1035 102.597L13.1116 100.661L12.9675 100.621L12.9271 100.765L12.715 101.522L12.6744 101.667L12.8195 101.707L19.858 103.653Z" fill="black" stroke="black" stroke-width="0.3"/>
<path d="M19.8728 110.052L19.8728 110.052C43.9032 114.142 68.1144 116.191 92.3335 116.191C115.138 116.191 137.943 114.371 160.598 110.746L160.574 110.598L160.598 110.746L171.006 109.076L171.155 109.052L171.131 108.904L171.005 108.124L170.981 107.976L170.833 108L160.425 109.67C113.819 117.135 66.5922 116.907 20.0567 108.977L20.0567 108.977L15.0135 108.118L14.8657 108.093L14.8404 108.241L14.7069 109.02L14.6815 109.168L14.8296 109.194L19.8728 110.052Z" fill="black" stroke="black" stroke-width="0.3"/>
<path d="M16.4587 115.717L16.4333 115.865L16.5814 115.89L19.8728 116.449C19.8728 116.449 19.8728 116.449 19.8728 116.449C43.9032 120.539 68.1144 122.588 92.3335 122.588C115.138 122.588 137.943 120.768 160.598 117.143L169.262 115.756L169.411 115.732L169.387 115.584L169.261 114.804L169.237 114.656L169.089 114.68L160.425 116.066L160.448 116.215L160.425 116.066C113.819 123.532 66.5921 123.303 20.0567 115.373L20.0566 115.373L16.7652 114.814L16.6175 114.789L16.5922 114.937L16.4587 115.717Z" fill="black" stroke="black" stroke-width="0.3"/>
<path d="M18.2026 122.413L18.1772 122.561L18.3256 122.586L19.8728 122.846C19.8728 122.846 19.8729 122.846 19.8729 122.846C43.9032 126.936 68.1144 128.985 92.3334 128.985H92.3413C115.138 128.985 137.943 127.164 160.598 123.539L160.574 123.391L160.598 123.539L167.519 122.428L167.667 122.405L167.643 122.256L167.517 121.477L167.493 121.329L167.345 121.352L160.425 122.463C113.819 129.929 66.5921 129.7 20.0567 121.77L20.0563 121.77L18.5088 121.51L18.3613 121.485L18.3361 121.633L18.2026 122.413Z" fill="black" stroke="black" stroke-width="0.3"/>
<path d="M19.7422 129.069L19.7169 129.217L19.8649 129.242C43.8874 133.332 68.0908 135.381 92.3099 135.381C115.122 135.381 137.95 133.561 160.637 129.928L160.647 129.926L160.656 129.924L166.202 128.285L166.345 128.243L166.303 128.099L166.083 127.343L166.041 127.199L165.897 127.241L160.407 128.861C113.804 136.325 66.5811 136.096 20.0488 128.167L19.9011 128.142L19.8758 128.289L19.7422 129.069Z" fill="black" stroke="black" stroke-width="0.3"/>
<path d="M31.3998 137.325L31.3745 137.473L31.5225 137.498C54.1049 141.343 72.8725 143.267 92.0035 143.267H92.0114C111.134 143.267 130.624 141.343 154.636 137.498L154.784 137.475L154.76 137.326L154.634 136.546L154.61 136.399L154.462 136.422C106.567 144.093 76.7405 144.092 31.7064 136.422L31.5587 136.397L31.5334 136.545L31.3998 137.325Z" fill="black" stroke="black" stroke-width="0.3"/>
<path d="M45.8454 68.4839V68.3339H45.6954H44.9099H44.7599V68.4839V140.871V141.021H44.9099H45.6954H45.8454V140.871V68.4839Z" fill="black" stroke="black" stroke-width="0.3"/>
<path d="M39.0032 67.5544V67.4044H38.8532H38.0677H37.9177V67.5544V139.28V139.43H38.0677H38.8532H39.0032V139.28V67.5544Z" fill="black" stroke="black" stroke-width="0.3"/>
<path d="M32.1533 66.5854V66.4354H32.0033H31.2177H31.0677V66.5854V136.964V137.114H31.2177H32.0033H32.1533V136.964V66.5854Z" fill="black" stroke="black" stroke-width="0.3"/>
<path d="M25.3033 64.9312V64.7812H25.1533H24.3677H24.2177V64.9312V133.789V133.939H24.3677H25.1533H25.3033V133.789V64.9312Z" fill="black" stroke="black" stroke-width="0.3"/>
<path d="M18.4533 63.521V63.371H18.3033H17.5178H17.3678V63.521V120.295V120.445H17.5178H18.3033H18.4533V120.295V63.521Z" fill="black" stroke="black" stroke-width="0.3"/>
<path d="M11.6033 61.6304V61.4804H11.4533H10.6678H10.5178V61.6304V93.905V94.055H10.6678H11.4533H11.6033V93.905V61.6304Z" fill="black" stroke="black" stroke-width="0.3"/>
</svg>
