<svg width="1920" height="590" viewBox="0 0 1920 590" fill="none" xmlns="http://www.w3.org/2000/svg">
<rect width="1920" height="590" fill="#CDF4FC"/>
<g clip-path="url(#clip0_4_229192)">
<path opacity="0.27" d="M861.29 33.6895H438.469V261.064H861.29V33.6895Z" fill="#AAE0FC"/>
<path d="M284.666 0H435.318L434.74 393.362L284.666 538.655V0Z" fill="#ADABEB"/>
<path d="M1636.32 0H1485.64L1486.24 393.362L1636.32 538.655V0Z" fill="#ADABEB"/>
<path d="M435.318 0V382.48H1485.92V0H435.318ZM651.758 240.226H475.323V58.0015H651.758V240.226ZM844.785 240.226H668.35V58.0015H844.785V240.226Z" fill="#D3D2FA"/>
<path d="M434.74 191.254C486.075 279.646 569.842 344.507 668.205 372.031L711.938 384.274H435.318L434.74 191.254Z" fill="#ADABEB"/>
<path d="M1485.92 191.254C1434.59 279.646 1350.82 344.507 1252.46 372.031L1208.73 384.274H1485.35L1485.92 191.254Z" fill="#ADABEB"/>
<path d="M861.29 40.9832H460.726V58.0016H861.29V40.9832Z" fill="#091C45"/>
<path d="M861.29 240.833H460.726V257.852H861.29V240.833Z" fill="#091C45"/>
<path d="M669.506 257.823V45.1797H652.51V257.823H669.506Z" fill="#091C45"/>
<path d="M476.277 257.852V45.2087H459.281V257.852H476.277Z" fill="#091C45"/>
<path d="M862.157 257.823V45.1797H845.161V257.823H862.157Z" fill="#091C45"/>
<path d="M1126.43 243.872V5.93335L892.391 5.93335V243.872L1126.43 243.872Z" fill="#605A9A"/>
<path d="M976.331 16.0344C976.967 26.1644 983.037 34.8183 992.518 38.523C991.275 38.3494 989.974 38.1178 988.731 37.7994C979.655 35.3682 974.077 24.9199 976.331 16.0344Z" fill="#FAE690"/>
<path d="M977.748 24.5435C977.748 24.5435 976.331 20.6942 979.395 17.9446C979.395 17.9446 981.448 21.3019 977.748 24.5435Z" fill="#FAE690"/>
<path d="M980.234 30.0138C980.234 30.0138 978.413 26.3381 981.187 23.2991C981.187 23.2991 983.587 26.4249 980.234 30.0138Z" fill="#FAE690"/>
<path d="M983.702 34.0946C983.702 34.0946 982.083 31.1425 984.222 28.5376C984.222 28.5376 986.333 30.9977 983.702 34.0946Z" fill="#FAE690"/>
<path d="M988.5 37.1048C988.5 37.1048 986.246 35.3971 986.997 32.6765C986.997 32.6765 989.454 33.8342 988.5 37.1048Z" fill="#FAE690"/>
<path d="M976.331 18.3787C976.331 18.3787 973.614 15.3108 975.464 11.635C975.464 11.635 978.615 14.0083 976.331 18.3787Z" fill="#FAE690"/>
<path d="M976.794 22.5174C976.794 22.5174 972.718 22.1412 971.562 18.205C971.562 18.205 975.464 17.7708 976.794 22.5174Z" fill="#FAE690"/>
<path d="M978.702 27.4378C978.702 27.4378 974.915 29.0008 972.053 26.0775C972.053 26.0775 975.32 23.8779 978.702 27.4378Z" fill="#FAE690"/>
<path d="M981.679 31.8951C981.679 31.8951 978.846 33.7764 976.042 31.8083C976.042 31.8083 978.355 29.4928 981.679 31.8951Z" fill="#FAE690"/>
<path d="M985.899 35.7734C985.899 35.7734 983.586 38.031 980.638 36.7286C980.638 36.7286 982.372 34.1526 985.899 35.7734Z" fill="#FAE690"/>
<path d="M1042.47 16.0344C1041.83 26.1644 1035.76 34.8183 1026.28 38.523C1027.52 38.3494 1028.82 38.1178 1030.07 37.7994C1039.14 35.3682 1044.72 24.9199 1042.47 16.0344Z" fill="#FAE690"/>
<path d="M1041.02 24.5435C1041.02 24.5435 1042.44 20.6942 1039.37 17.9446C1039.37 17.9446 1037.32 21.3019 1041.02 24.5435Z" fill="#FAE690"/>
<path d="M1038.53 30.0138C1038.53 30.0138 1040.36 26.3381 1037.58 23.2991C1037.58 23.2991 1035.18 26.4249 1038.53 30.0138Z" fill="#FAE690"/>
<path d="M1035.07 34.0946C1035.07 34.0946 1036.68 31.1425 1034.55 28.5376C1034.55 28.5376 1032.44 30.9977 1035.07 34.0946Z" fill="#FAE690"/>
<path d="M1030.27 37.1048C1030.27 37.1048 1032.52 35.3971 1031.77 32.6765C1031.77 32.6765 1029.31 33.8342 1030.27 37.1048Z" fill="#FAE690"/>
<path d="M1042.44 18.3787C1042.44 18.3787 1045.15 15.3108 1043.3 11.635C1043.3 11.635 1040.15 14.0083 1042.44 18.3787Z" fill="#FAE690"/>
<path d="M1042 22.5174C1042 22.5174 1046.08 22.1412 1047.24 18.205C1047.24 18.205 1043.33 17.7708 1042 22.5174Z" fill="#FAE690"/>
<path d="M1040.1 27.4378C1040.1 27.4378 1043.88 29.0008 1046.74 26.0775C1046.74 26.0775 1043.48 23.8779 1040.1 27.4378Z" fill="#FAE690"/>
<path d="M1037.12 31.8951C1037.12 31.8951 1039.95 33.7764 1042.75 31.8083C1042.75 31.8083 1040.44 29.4928 1037.12 31.8951Z" fill="#FAE690"/>
<path d="M1032.9 35.7734C1032.9 35.7734 1035.21 38.031 1038.16 36.7286C1038.16 36.7286 1036.42 34.1526 1032.9 35.7734Z" fill="#FAE690"/>
<path d="M1021.05 17.8578C1021.05 24.1095 1015.84 29.1745 1009.4 29.1745C1002.98 29.1745 997.75 24.1095 997.75 17.8578C997.75 15.8318 998.299 13.9505 999.253 12.3008C996.854 14.732 995.38 18.0604 995.38 21.6783C995.38 29.2034 1001.65 35.3103 1009.4 35.3103C1017.15 35.3103 1023.42 29.2034 1023.42 21.6783C1023.42 18.0315 1021.94 14.732 1019.54 12.3008C1020.5 13.9505 1021.05 15.8318 1021.05 17.8578Z" fill="#FAE690"/>
<path d="M1021.05 17.8578C1021.05 24.1095 1015.84 29.1745 1009.4 29.1745C1002.98 29.1745 997.75 24.1095 997.75 17.8578C997.75 15.8318 998.299 13.9505 999.253 12.3008C996.854 14.732 995.38 18.0604 995.38 21.6783C995.38 29.2034 1001.65 35.3103 1009.4 35.3103C1017.15 35.3103 1023.42 29.2034 1023.42 21.6783C1023.42 18.0315 1021.94 14.732 1019.54 12.3008C1020.5 13.9505 1021.05 15.8318 1021.05 17.8578Z" fill="#FAE690"/>
<path d="M1105.65 229.662V44.3115L912.22 44.3115V229.662H1105.65Z" fill="#423C7B"/>
<path d="M961.619 158.809H912.683V169.576H961.619V158.809Z" fill="#F3A9D4"/>
<path d="M963.064 170.994H911.238V157.333H963.064V170.994ZM914.128 168.1H960.174V160.228H914.128V168.1Z" fill="black"/>
<path d="M961.619 147.695H912.683V158.462H961.619V147.695Z" fill="#C5FFCC"/>
<path d="M963.064 159.909H911.238V146.248H963.064V159.909ZM914.128 157.015H960.174V149.143H914.128V157.015Z" fill="black"/>
<path d="M961.619 136.986H912.683V147.753H961.619V136.986Z" fill="#AAE0FC"/>
<path d="M963.064 149.2H911.238V135.539H963.064V149.2ZM914.128 146.306H960.174V138.434H914.128V146.306Z" fill="black"/>
<path d="M1031.8 90.4463H982.864V101.213H1031.8V90.4463Z" fill="#AAE0FC"/>
<path d="M1033.24 102.66H981.418V88.9993H1033.24V102.66ZM984.309 99.766H1030.35V91.8936H984.309V99.766Z" fill="black"/>
<path d="M1031.8 79.5352H982.864V90.3019H1031.8V79.5352Z" fill="#F3A9D4"/>
<path d="M1033.24 91.7489H981.418V78.0879H1033.24V91.7489ZM984.309 88.8546H1030.35V80.9822H984.309V88.8546Z" fill="black"/>
<path d="M1016.39 169.576V120.576H1005.64V169.576H1016.39Z" fill="#AAE0FC"/>
<path d="M1017.84 170.994H1004.2V119.1H1017.84V170.994ZM1007.09 168.1H1014.95V121.994H1007.09V168.1Z" fill="black"/>
<path d="M1027.15 169.547V120.547H1016.39V169.547H1027.15Z" fill="#C5FFCC"/>
<path d="M1028.59 170.994H1014.95V119.1H1028.59V170.994ZM1017.84 168.1H1025.7V121.994H1017.84V168.1Z" fill="black"/>
<path d="M1041.08 102.313V53.3127H1030.33V102.313H1041.08Z" fill="#C5FFCC"/>
<path d="M1042.52 103.76H1028.88V51.8655H1042.52V103.76ZM1031.77 100.866H1039.63V54.7598H1031.77V100.866Z" fill="black"/>
<path d="M1037.87 169.547V120.547H1027.12V169.547H1037.87Z" fill="#F8C99D"/>
<path d="M1039.31 170.994H1025.67V119.1H1039.31V170.994ZM1028.59 168.1H1036.45V121.994H1028.59V168.1Z" fill="black"/>
<path d="M1048.62 169.576V120.576H1037.87V169.576H1048.62Z" fill="#FAE690"/>
<path d="M1050.07 170.994H1036.42V119.1H1050.07V170.994ZM1039.32 168.1H1047.18V121.994H1039.32V168.1Z" fill="black"/>
<path d="M967.661 167.3L1004.99 135.614L998.036 127.401L960.708 159.087L967.661 167.3Z" fill="#FAE690"/>
<path d="M967.486 169.374L958.67 158.954L998.212 125.38L1007.03 135.8L967.486 169.374ZM962.746 159.301L967.833 165.293L1002.95 135.481L997.865 129.49L962.746 159.301Z" fill="black"/>
<path d="M1090.56 86.8576C1078.97 82.1399 1086.55 74.4411 1089.81 71.7205C1090.27 71.4021 1091.11 70.7075 1091.11 70.7075C1093.25 68.8552 1094.81 66.4529 1095.54 63.7612H1070.45C1071.2 66.4529 1072.76 68.8552 1074.87 70.7075C1074.87 70.7075 1075.71 71.4021 1076.17 71.7205C1079.46 74.4701 1087.04 82.1689 1075.42 86.8576C1075.42 86.8576 1068.28 89.9256 1069.93 97.7691H1095.97C1097.65 89.9256 1090.48 86.8576 1090.48 86.8576H1090.56Z" fill="#020325"/>
<path d="M1069.35 62.9508L1096.63 63.1823C1095.71 66.1056 1095.13 67.5816 1093.05 69.8971C1093.05 69.8971 1092.01 70.6496 1091.46 70.9969C1087.38 73.978 1078.02 82.2846 1092.38 87.3786C1092.38 87.3786 1098.74 89.8676 1096.66 98.3768H1069.46C1067.38 89.8966 1073.68 87.3786 1073.68 87.3786C1088.02 82.2846 1078.65 73.9491 1074.61 70.9969C1074.06 70.6496 1073.02 69.8971 1073.02 69.8971C1070.39 67.9 1070.33 65.874 1069.4 62.9508M1068.62 62.4009L1068.86 63.0955C1069.03 63.6454 1069.17 64.1664 1069.32 64.6584C1069.93 66.8581 1070.39 68.5657 1072.67 70.3023C1072.73 70.3312 1073.74 71.0548 1074.29 71.4021C1076.43 72.965 1081.34 77.017 1080.79 80.8375C1080.45 83.2397 1077.99 85.2657 1073.51 86.8576C1073.42 86.8865 1066.8 89.6361 1068.94 98.4926L1069.03 98.8978H1069.46H1096.66H1097.1L1097.18 98.4926C1099.35 89.6361 1092.64 86.8865 1092.56 86.8576C1088.05 85.2657 1085.59 83.2397 1085.24 80.8375C1084.7 77.017 1089.58 72.994 1091.75 71.4021C1092.33 71.0548 1093.34 70.3312 1093.37 70.3023H1093.42L1093.45 70.2155C1095.59 67.8711 1096.2 66.366 1097.15 63.327L1097.38 62.6324H1096.66L1069.38 62.4009H1068.62Z" fill="#020325"/>
<path d="M1083.13 78.7826C1083.13 78.7826 1085.33 74.0938 1087.3 72.4441C1087.3 72.4441 1090.59 69.955 1091.89 68.3921L1074.81 68.942C1074.81 68.942 1077.44 71.3732 1079.2 72.8782C1080.68 74.1228 1083.08 78.7826 1083.08 78.7826H1083.13Z" fill="#9E6487"/>
<path d="M1083.48 78.0589C1083.48 78.0589 1083.28 82.9213 1083.92 83.7607C1083.92 83.7607 1083.19 85.1789 1082.27 83.9922C1082.27 83.9922 1082.64 77.8563 1082.12 76.9302C1081.57 76.0329 1083.51 78.0589 1083.51 78.0589H1083.48Z" fill="#9E6487"/>
<path d="M1084.26 84.9184C1084.26 85.2657 1083.97 85.5841 1083.6 85.5841C1083.22 85.5841 1082.93 85.2946 1082.93 84.9184C1082.93 84.5421 1083.22 84.2527 1083.6 84.2527C1083.97 84.2527 1084.26 84.5421 1084.26 84.9184Z" fill="#9E6487"/>
<path d="M1083.31 86.1339C1083.31 86.5102 1083.02 86.7996 1082.64 86.7996C1082.27 86.7996 1081.98 86.5102 1081.98 86.1339C1081.98 85.7577 1082.27 85.4683 1082.64 85.4683C1083.02 85.4683 1083.31 85.7577 1083.31 86.1339Z" fill="#9E6487"/>
<path d="M1081.78 86.0184C1081.78 86.2499 1081.57 86.4525 1081.34 86.4525C1081.11 86.4525 1080.91 86.2499 1080.91 86.0184C1080.91 85.7868 1081.11 85.5842 1081.34 85.5842C1081.57 85.5842 1081.78 85.7868 1081.78 86.0184Z" fill="#9E6487"/>
<path d="M1082.21 87.0892C1082.21 87.3207 1082.01 87.5233 1081.78 87.5233C1081.55 87.5233 1081.34 87.3207 1081.34 87.0892C1081.34 86.8576 1081.55 86.655 1081.78 86.655C1082.01 86.655 1082.21 86.8576 1082.21 87.0892Z" fill="#9E6487"/>
<path d="M1084.46 86.6551C1084.46 86.8866 1084.26 87.0892 1084.03 87.0892C1083.8 87.0892 1083.6 86.8866 1083.6 86.6551C1083.6 86.4235 1083.8 86.2209 1084.03 86.2209C1084.26 86.2209 1084.46 86.4235 1084.46 86.6551Z" fill="#9E6487"/>
<path d="M1083.19 87.5523C1083.19 87.7259 1083.05 87.8706 1082.87 87.8706C1082.7 87.8706 1082.56 87.7259 1082.56 87.5523C1082.56 87.3786 1082.7 87.2339 1082.87 87.2339C1083.05 87.2339 1083.19 87.3786 1083.19 87.5523Z" fill="#9E6487"/>
<path d="M1082.09 90.0413C1082.09 90.2149 1081.95 90.3596 1081.78 90.3596C1081.6 90.3596 1081.46 90.2149 1081.46 90.0413C1081.46 89.8676 1081.6 89.7229 1081.78 89.7229C1081.95 89.7229 1082.09 89.8676 1082.09 90.0413Z" fill="#9E6487"/>
<path d="M1081.78 94.5274C1081.78 94.701 1081.63 94.8457 1081.46 94.8457C1081.28 94.8457 1081.14 94.701 1081.14 94.5274C1081.14 94.3537 1081.28 94.209 1081.46 94.209C1081.63 94.209 1081.78 94.3537 1081.78 94.5274Z" fill="#9E6487"/>
<path d="M1082.87 92.1541C1082.87 92.3277 1082.73 92.4724 1082.56 92.4724C1082.38 92.4724 1082.24 92.3277 1082.24 92.1541C1082.24 91.9804 1082.38 91.8357 1082.56 91.8357C1082.73 91.8357 1082.87 91.9804 1082.87 92.1541Z" fill="#9E6487"/>
<path d="M1087.35 97.7691C1086.66 97.7691 1083.31 93.4277 1079.29 97.7691H1087.35Z" fill="#9E6487"/>
<path d="M1091.89 68.4209C1091.89 67.9578 1088.05 67.6684 1083.34 67.8131C1078.63 67.9578 1074.81 68.4499 1074.84 68.9129C1074.84 69.376 1078.68 69.6655 1083.39 69.5207C1088.11 69.376 1091.92 68.884 1091.89 68.4209Z" fill="#7C4B6D"/>
<path d="M1098.95 98.3767H1067.18V101.184H1098.95V98.3767Z" fill="#F29E26"/>
<path d="M1099.32 101.532H1066.83V98.0005H1099.32V101.532ZM1067.55 100.808H1098.6V98.7241H1067.55V100.808Z" fill="black"/>
<path d="M1098.77 60.1433H1067.01V62.9508H1098.77V60.1433Z" fill="#F29E26"/>
<path d="M1099.12 63.2981H1066.63V59.7671H1099.12V63.2981ZM1067.35 62.5745H1098.4V60.4907H1067.35V62.5745Z" fill="black"/>
<g style="mix-blend-mode:multiply" opacity="0.6">
<path d="M1097.73 60.1433V62.0246H1067.01V62.9508H1098.77V60.1433H1097.73Z" fill="#F29E26"/>
</g>
<g style="mix-blend-mode:multiply" opacity="0.6">
<path d="M1097.91 98.377V100.258H1067.18V101.184H1098.95V98.377H1097.91Z" fill="#F29E26"/>
</g>
<path d="M1087.21 72.01C1087.07 72.01 1086.92 71.9231 1086.81 71.8074C1086.66 71.6048 1086.72 71.3153 1086.95 71.1706C1086.95 71.1706 1086.95 71.1706 1087.01 71.1417C1088.08 70.5049 1091.63 68.1606 1093.37 64.8611C1093.48 64.6295 1093.77 64.5427 1094 64.6585C1094.23 64.7743 1094.32 65.0637 1094.21 65.2952C1092.38 68.8262 1088.63 71.2864 1087.5 71.9521H1087.47C1087.47 71.9521 1087.3 72.0389 1087.21 72.0389V72.01Z" fill="white"/>
<path d="M1084.46 75.9461C1084.46 75.9461 1084.41 75.9461 1084.38 75.9461C1084.12 75.8883 1083.97 75.6567 1084.03 75.3962C1084.32 74.007 1085.82 72.8493 1085.88 72.7914C1086.08 72.6467 1086.37 72.6756 1086.55 72.8782C1086.69 73.0808 1086.66 73.3702 1086.46 73.5149C1086.46 73.5149 1085.19 74.5279 1084.96 75.5699C1084.9 75.8014 1084.72 75.9461 1084.49 75.9461H1084.46Z" fill="white"/>
<path d="M1095.13 97.277C1095.13 97.277 1095.07 97.277 1095.04 97.277C1094.78 97.2191 1094.64 96.9876 1094.67 96.7271C1094.67 96.6982 1095.22 93.6302 1093.14 91.1701C1092.96 90.9675 1092.99 90.6781 1093.19 90.5044C1093.4 90.3307 1093.69 90.3597 1093.86 90.5623C1096.23 93.3698 1095.62 96.7561 1095.59 96.9008C1095.53 97.1323 1095.36 97.277 1095.13 97.277Z" fill="white"/>
<path d="M1092.64 90.1861C1092.5 90.1861 1092.33 90.0992 1092.24 89.9545C1092.24 89.9545 1091.52 88.8257 1089.78 88.3048C1089.55 88.2179 1089.41 87.9575 1089.46 87.7259C1089.55 87.4944 1089.81 87.3497 1090.04 87.4075C1092.15 88.0443 1092.99 89.4335 1093.02 89.4914C1093.16 89.723 1093.08 89.9834 1092.85 90.1282C1092.76 90.186 1092.7 90.1861 1092.62 90.1861H1092.64Z" fill="white"/>
<path d="M1074.52 88.9125C1074.38 88.9125 1074.2 88.8257 1074.12 88.7099C1073.97 88.5073 1074.06 88.2179 1074.26 88.0732C1076.05 86.9444 1079.26 85.4104 1079.41 85.3525C1079.64 85.2368 1079.93 85.3525 1080.01 85.5841C1080.13 85.8156 1080.01 86.1051 1079.78 86.1919C1079.75 86.1919 1076.46 87.7837 1074.72 88.8836C1074.64 88.9415 1074.55 88.9415 1074.46 88.9415L1074.52 88.9125Z" fill="white"/>
<path d="M1071.4 92.9356C1071.4 92.9356 1071.31 92.9356 1071.25 92.9356C1071.02 92.8487 1070.88 92.6172 1070.94 92.3567C1071.51 90.4175 1072.96 89.2019 1073.02 89.1441C1073.22 88.9704 1073.51 88.9993 1073.68 89.2019C1073.86 89.4045 1073.83 89.694 1073.62 89.8676C1073.62 89.8676 1072.32 90.9675 1071.83 92.6172C1071.78 92.8198 1071.6 92.9356 1071.4 92.9356Z" fill="white"/>
<path d="M953.179 101.011C944.97 102.689 936.529 102.718 928.291 101.155L927.511 101.011V100.576C927.511 95.8877 931.298 92.0962 935.98 92.0962H944.738C949.421 92.0962 953.207 95.8877 953.207 100.576V101.011H953.179Z" fill="#FAE690"/>
<path d="M940.345 103.76C936.211 103.76 932.107 103.355 928.002 102.573L926.066 102.197V100.576C926.066 95.1061 930.517 90.6489 935.98 90.6489H944.738C950.201 90.6489 954.653 95.1061 954.653 100.576V102.197L953.496 102.429C949.161 103.297 944.767 103.76 940.402 103.76H940.345ZM928.985 99.8238C936.529 101.213 944.16 101.213 951.675 99.8238C951.3 96.3217 948.322 93.5722 944.709 93.5722H935.951C932.338 93.5722 929.361 96.3217 928.985 99.8238Z" fill="black"/>
<path d="M939.853 95.3954C951.299 95.3954 960.578 86.1044 960.578 74.6434C960.578 63.1824 951.299 53.8914 939.853 53.8914C928.407 53.8914 919.128 63.1824 919.128 74.6434C919.128 86.1044 928.407 95.3954 939.853 95.3954Z" fill="url(#paint0_linear_4_229192)"/>
<path d="M939.853 56.7856C949.681 56.7856 957.688 64.8028 957.688 74.6434C957.688 84.4839 949.681 92.5011 939.853 92.5011C930.026 92.5011 922.019 84.4839 922.019 74.6434C922.019 64.8028 930.026 56.7856 939.853 56.7856ZM939.853 53.8914C928.407 53.8914 919.128 63.182 919.128 74.6434C919.128 86.1047 928.407 95.3954 939.853 95.3954C951.3 95.3954 960.578 86.1047 960.578 74.6434C960.578 63.182 951.3 53.8914 939.853 53.8914Z" fill="black"/>
<path style="mix-blend-mode:multiply" opacity="0.75" d="M957.114 72.7784C959.046 65.7508 953.712 58.152 945.201 55.8061C936.689 53.4602 928.223 57.2555 926.291 64.2831C924.36 71.3108 929.693 78.9095 938.205 81.2555C946.716 83.6014 955.182 79.8061 957.114 72.7784Z" fill="url(#paint1_linear_4_229192)"/>
<path d="M952.456 62.2269C951.964 62.8926 950.49 62.6032 949.161 61.5902C947.831 60.5772 947.166 59.2458 947.658 58.5801C948.149 57.9144 949.623 58.2039 950.953 59.2169C952.282 60.2299 952.947 61.5612 952.456 62.2269Z" fill="url(#paint2_linear_4_229192)"/>
<path d="M952.051 65.4687C951.82 65.787 951.097 65.6423 950.461 65.1792C949.825 64.6872 949.507 64.0505 949.739 63.7321C949.97 63.4137 950.692 63.5584 951.328 64.0215C951.964 64.5136 952.282 65.1503 952.051 65.4687Z" fill="url(#paint3_linear_4_229192)"/>
<path d="M944.015 84.2525C933.899 84.2525 925.719 76.0617 925.719 65.9317C925.719 64.7161 925.834 63.5294 926.066 62.4006C923.58 65.5265 922.077 69.4916 922.077 73.8041C922.077 83.9341 930.257 92.1249 940.373 92.1249C949.276 92.1249 956.676 85.7575 958.323 77.3641C954.97 81.5897 949.796 84.2814 944.015 84.2814V84.2525Z" fill="url(#paint4_radial_4_229192)"/>
<path d="M920.111 74.0647C920.256 75.425 920.487 76.7853 920.863 78.0878C921.21 79.4191 921.643 80.6926 922.192 81.9372C923.262 84.4262 924.765 86.7127 926.673 88.5651C927.627 89.5202 928.696 90.3306 929.823 91.0541C930.372 91.4304 930.979 91.7488 931.558 92.0671C931.847 92.2119 932.165 92.3566 932.483 92.5013C932.801 92.646 933.089 92.7907 933.407 92.9065C935.922 93.8905 938.61 94.4694 941.356 94.7588C938.61 94.8167 935.835 94.4694 933.176 93.5722C930.517 92.7039 928.06 91.2278 926.037 89.2597C924.042 87.2916 922.51 84.8604 921.528 82.2266C920.545 79.6217 920.053 76.8432 920.111 74.0936V74.0647Z" fill="url(#paint5_linear_4_229192)"/>
<path d="M952.918 75.3961C952.918 74.7883 952.398 74.2673 951.791 74.2384C952.398 74.2384 952.918 73.7174 952.947 73.1096C952.947 73.7174 953.468 74.2384 954.075 74.2673C953.468 74.2673 952.947 74.7883 952.918 75.3961Z" fill="white"/>
<path d="M929.13 66.2211C929.13 65.6133 928.609 65.0923 928.002 65.0633C928.609 65.0633 929.129 64.5424 929.158 63.9346C929.158 64.5424 929.679 65.0633 930.286 65.0923C929.679 65.0923 929.158 65.6133 929.13 66.2211Z" fill="white"/>
<path d="M931.933 80.0558C931.933 79.448 931.413 78.927 930.806 78.8981C931.413 78.8981 931.933 78.3771 931.962 77.7693C931.962 78.3771 932.482 78.8981 933.089 78.927C932.482 78.927 931.962 79.448 931.933 80.0558Z" fill="white"/>
<path d="M950.346 82.6027C950.346 81.1266 949.074 79.7952 947.571 79.7663C949.045 79.7663 950.375 78.4928 950.403 76.9878C950.403 78.4639 951.675 79.7952 953.178 79.8242C951.704 79.8242 950.375 81.0977 950.346 82.6027Z" fill="white"/>
<path style="mix-blend-mode:multiply" opacity="0.75" d="M937.223 97.1611C941.617 97.1611 945.663 95.8007 949.016 93.4853C947.658 92.617 946.039 92.125 944.305 92.125H936.414C933.523 92.125 930.98 93.5143 929.361 95.6271C931.789 96.6401 934.448 97.19 937.223 97.19V97.1611Z" fill="url(#paint6_linear_4_229192)"/>
<path d="M1129.01 382.48V271.802H888.865V382.48H1129.01Z" fill="#423C7B"/>
<path d="M1145.4 271.802V260.225H873.401V271.802H1145.4Z" fill="#423C7B"/>
<path d="M998.472 312.67V283.524H905.312V312.67H998.472Z" fill="#605A9A"/>
<path d="M1112.56 312.67V283.524H1019.4V312.67H1112.56Z" fill="#605A9A"/>
<path d="M1112.56 367.661V329.457H905.688V367.661H1112.56Z" fill="#605A9A"/>
<path d="M1106.09 113.253V102.313L912.654 102.313V113.253L1106.09 113.253Z" fill="#605A9A"/>
<path d="M1106.11 180.835V169.895H912.683V180.835H1106.11Z" fill="#605A9A"/>
<path d="M874.441 258.807L892.362 244.741H1126.43L1144.47 259.675L874.441 258.807Z" fill="#605A9A"/>
<path d="M435.318 384.245L284.666 538.655H1636.32L1485.35 384.245H435.318Z" fill="#F8C99D"/>
<path d="M644.156 514.17C791.565 514.17 911.064 486.789 911.064 453.013C911.064 419.238 791.565 391.857 644.156 391.857C496.747 391.857 377.249 419.238 377.249 453.013C377.249 486.789 496.747 514.17 644.156 514.17Z" fill="#E5A971"/>
<path d="M644.937 499.322C783.454 499.322 895.744 475.272 895.744 445.604C895.744 415.937 783.454 391.886 644.937 391.886C506.419 391.886 394.129 415.937 394.129 445.604C394.129 475.272 506.419 499.322 644.937 499.322Z" fill="#AAE0FC"/>
<path d="M400.054 245.464L385.4 257.07L383.926 266.187L393.377 429.975L397.684 432.724H414.709L416.588 426.415L421.907 425.199L457.055 430.062L459.049 432.724L460.206 437.847L475.323 440.51H483.011L491.221 436.371L492.435 425.431L513.998 410.41L516.194 410.149L517.871 412.725H521.513L529.028 405.779L529.577 350.064L523.449 340.252L489.053 324.97L487.607 279.848L485.584 247.143L478.155 240.052L457.778 234.958L434.972 235.218L409.564 240.833L400.054 245.464Z" fill="#F4A9D4"/>
<path d="M485.844 376.836L494.834 373.999L529.028 357.01V405.779L517.871 412.725L516.194 410.149L493.331 423.665L492.666 434.982L485.844 438.774V376.836Z" fill="#EC84C3"/>
<path d="M418.611 326.273C418.611 326.273 458.963 308.126 470.987 307.952C483.011 307.778 488.041 311.454 488.041 311.454L489.053 324.999C489.053 324.999 457.98 329.514 447.112 334.001C436.243 338.487 423.843 350.093 423.843 350.093L419.97 342.539L418.611 326.302V326.273Z" fill="#EC84C3"/>
<path d="M391.065 389.715C391.065 389.715 399.014 408.528 418.611 413.391C438.209 418.253 485.324 415.735 485.324 415.735L485.844 438.774L483.011 440.51L460.205 437.847L457.055 430.062L420.172 424.273L415.634 429.656L414.738 432.724L395.083 431.046L392.713 417.674L391.094 389.744L391.065 389.715Z" fill="#EC84C3"/>
<path d="M420.143 238.547C417.166 240.284 419.161 244.943 422.514 244.191C430.347 242.454 443.932 240.313 456.737 242.512C476.219 245.87 486.914 257.07 486.914 257.07L485.555 243.815C485.555 243.815 468.761 235.219 457.778 234.958C446.794 234.698 424.624 236 420.259 238.489C420.201 238.489 420.172 238.547 420.143 238.576V238.547Z" fill="#FFD9F1"/>
<path d="M841.461 245.464L856.116 257.07L857.59 266.187L848.109 429.975L843.831 432.724H826.806L824.927 426.415L819.609 425.199L784.461 430.062L782.466 432.724L781.31 437.847L766.193 440.51H758.504L750.295 436.371L749.081 425.431L727.518 410.41L725.321 410.149L723.645 412.725H720.003L712.487 405.779L711.938 350.064L718.066 340.252L752.463 324.97L753.908 279.848L755.931 247.143L763.36 240.052L783.738 234.958L806.544 235.218L831.951 240.833L841.461 245.464Z" fill="#F4A9D4"/>
<path d="M755.671 376.836L746.682 373.999L712.487 357.01V405.779L723.645 412.725L725.321 410.149L748.185 423.665L748.85 434.982L755.671 438.774V376.836Z" fill="#EC84C3"/>
<path d="M822.904 326.273C822.904 326.273 782.553 308.126 770.528 307.952C758.504 307.778 753.475 311.454 753.475 311.454L752.463 324.999C752.463 324.999 783.536 329.514 794.404 334.001C805.272 338.487 817.672 350.093 817.672 350.093L821.546 342.539L822.904 326.302V326.273Z" fill="#EC84C3"/>
<path d="M850.451 389.715C850.451 389.715 842.502 408.528 822.904 413.391C803.307 418.253 756.192 415.735 756.192 415.735L755.671 438.774L758.504 440.51L781.31 437.847L784.461 430.062L821.343 424.273L825.881 429.656L826.777 432.724L846.433 431.046L848.803 417.674L850.422 389.744L850.451 389.715Z" fill="#EC84C3"/>
<path d="M821.372 238.547C824.349 240.284 822.355 244.943 819.002 244.191C811.169 242.454 797.583 240.313 784.779 242.512C765.297 245.87 754.602 257.07 754.602 257.07L755.96 243.815C755.96 243.815 772.754 235.219 783.738 234.958C794.722 234.698 816.892 236 821.256 238.489C821.314 238.489 821.343 238.547 821.372 238.576V238.547Z" fill="#FFD9F1"/>
<path d="M620.83 355.042C701.207 355.042 766.366 337.095 766.366 314.956C766.366 292.817 701.207 274.87 620.83 274.87C540.453 274.87 475.294 292.817 475.294 314.956C475.294 337.095 540.453 355.042 620.83 355.042Z" fill="#C5FFCC"/>
<path d="M619.876 437.848C639.352 437.848 655.14 430.513 655.14 421.466C655.14 412.419 639.352 405.084 619.876 405.084C600.401 405.084 584.612 412.419 584.612 421.466C584.612 430.513 600.401 437.848 619.876 437.848Z" fill="#9AE2A3"/>
<path d="M569.379 355.042C569.379 355.042 584.67 363.059 590.249 370.729C595.827 378.399 603.689 400.453 603.689 400.453L607.389 415.127H633.317C633.317 415.127 636.467 397.501 640.254 386.792C644.041 376.083 653.637 367.632 653.637 367.632L672.31 353.363L622.882 356.287L569.35 355.042H569.379Z" fill="#9AE2A3"/>
<path d="M700.174 275.623C700.174 279.067 700.752 300.774 694.075 311.454C690.635 316.982 681.53 315.448 677.223 315.564C672.223 315.68 666.384 317.156 663.407 314.233C654.504 305.521 654.562 279.646 654.562 275.623C654.562 270.413 664.765 266.188 677.368 266.188C689.971 266.188 700.174 270.413 700.174 275.623Z" fill="white"/>
<path d="M1278.99 419.845L1317.44 408.76L1379.55 399.556L1497.26 397.906L1505.2 405.026L1581.69 482.825L1526.19 491.247C1526.19 491.247 1489.91 495.704 1477.74 495.733C1443.49 495.791 1361.43 490.986 1361.43 490.986C1361.43 490.986 1309.55 482.767 1292.75 477.991C1262.75 469.482 1248.93 452.637 1248.93 452.637V441.61L1254.48 433.506L1278.99 419.874V419.845Z" fill="#ADABEB"/>
<path d="M1272.38 421.205L1262.63 426.241L1261.74 327.025C1261.74 324.073 1264.05 323.407 1267.03 323.407L1269.6 324.131C1272.55 324.131 1272.38 324.015 1272.38 326.967V421.205Z" fill="#CADAE2"/>
<path d="M1309.26 411.249L1299.49 413.275L1298.59 317.069C1298.59 314.117 1300.9 313.451 1303.88 313.451L1306.45 314.175C1309.4 314.175 1309.23 314.059 1309.23 317.011V411.249H1309.26Z" fill="#CADAE2"/>
<path d="M1348.8 404.129L1338.1 404.968V309.949C1338.1 306.997 1340.48 306.331 1343.42 306.331L1346 307.055C1348.94 307.055 1348.77 306.939 1348.77 309.891V404.129H1348.8Z" fill="#CADAE2"/>
<path d="M1383.92 399.469L1377.68 400.077V305.694C1377.68 302.742 1380.31 301.671 1383.25 301.671C1383.25 301.671 1384.61 303.205 1384.61 306.158L1383.92 399.469Z" fill="#CADAE2"/>
<path d="M1450.46 397.964L1440.6 396.98L1439.79 303.755C1439.79 300.803 1442.1 300.137 1445.08 300.137L1447.65 300.861C1450.6 300.861 1450.43 300.745 1450.43 303.697V397.935L1450.46 397.964Z" fill="#CADAE2"/>
<path d="M1417.65 495.183L1383.25 492.984L1384.61 267.548C1384.61 264.595 1396.49 261.064 1399.44 261.064L1413.17 264.827C1416.12 264.827 1417.74 269.718 1417.74 272.671L1417.62 495.183H1417.65Z" fill="#CADAE2"/>
<path d="M1267.06 348.79L1298.85 341.699L1310.96 338.979L1348.8 333.277L1394.96 329.109H1445.14L1484.74 331.801V318.516L1443.55 317.561L1415.31 316.895L1349.09 322.279L1306.25 328.241L1272.11 337.589L1267.06 348.79Z" fill="#CADAE2"/>
<path d="M1440.77 361.93H1575.12V370.932H1566.57L1440.6 372.205L1440.77 361.93Z" fill="#CADAE2"/>
<path d="M1428.35 348.79L1428.09 494.778H1440.6V348.79L1438.06 342.539L1432.07 343.233L1428.35 346.706V348.79Z" fill="#CADAE2"/>
<path d="M1485.92 346.706L1485.64 494.083L1497.28 492.984L1496.88 347.227L1493.12 342.741H1489.28L1485.92 346.706Z" fill="#CADAE2"/>
<path d="M1525 348.79L1526.22 491.189L1537.52 490.002L1537.29 345.607L1531.25 342.539H1528.01L1525 348.79Z" fill="#CADAE2"/>
<path d="M1567.9 347.719L1567.93 485.603L1581.72 482.796L1580.56 345.607L1574.81 342.539L1570.38 343.986L1567.9 347.719Z" fill="#CADAE2"/>
<path d="M1275.18 470.466L1290.44 462.738L1306.14 466.616L1323.71 458.976L1330.3 462.738L1356.78 459.497L1362.59 463.404L1384.61 462.738L1430.31 473.389L1458.09 483.519L1485.64 494.083L1452.86 495.704L1388.17 493.678L1320.85 484.966L1275.18 470.466Z" fill="#CADAE2"/>
<path d="M284.666 0H247.812V578.51H284.666V0Z" fill="#465199"/>
<path d="M1655.36 577.063V540.16L275.59 540.16V577.063L1655.36 577.063Z" fill="#465199"/>
<path d="M1672.19 0H1638.54V578.51H1672.19V0Z" fill="#465199"/>
<path d="M255.877 453.013L245.616 460.075L158.872 578.51L255.877 577.062V453.013Z" fill="#465199"/>
<path d="M1664.04 458.976H1672.22L1760.52 578.51H1672.22L1664.04 458.976Z" fill="#465199"/>
<path d="M1673 411.162L1804.14 588.553H1767.83L1672.22 458.976L1673 411.162Z" fill="#736ADC"/>
<path d="M247.003 410.612L115.862 588.032H152.195L247.812 458.455L247.003 410.612Z" fill="#736ADC"/>
<path d="M1762.37 577.062H158.872V579.957H1762.37V577.062Z" fill="black"/>
<path d="M1638.57 538.453H286.487V541.347H1638.57V538.453Z" fill="black"/>
<path d="M1486.18 381.033H1451.18V383.927H1486.18V381.033Z" fill="black"/>
<path d="M1428.37 381.033H1417.65V383.927H1428.37V381.033Z" fill="black"/>
<path d="M1376.35 381.033H1348.83V383.927H1376.35V381.033Z" fill="black"/>
<path d="M1338.51 381.033H1309.32V383.927H1338.51V381.033Z" fill="black"/>
<path d="M1298.56 381.033H1272.38V383.927H1298.56V381.033Z" fill="black"/>
<path d="M1261.65 381.033H851.26V383.927H1261.65V381.033Z" fill="black"/>
<path d="M711.967 381.033H643.202V383.927H711.967V381.033Z" fill="black"/>
<path d="M596.723 381.033H529.028V383.927H596.723V381.033Z" fill="black"/>
<path d="M249.258 0H246.367V578.51H249.258V0Z" fill="black"/>
<path d="M1673.66 0H1670.77V578.51H1673.66V0Z" fill="black"/>
<path d="M1486.18 0H1483.29V383.84H1486.18V0Z" fill="black"/>
<path d="M1498.01 395.42L1495.94 397.435L1524.33 426.752L1526.41 424.737L1498.01 395.42Z" fill="black"/>
<path d="M1538.48 437.213L1536.41 439.228L1567.17 470.997L1569.25 468.982L1538.48 437.213Z" fill="black"/>
<path d="M1636.29 541.347C1635.65 541.347 1635.04 541.087 1634.58 540.623L1579.55 483.78L1581.63 481.754L1635.8 537.7V0H1638.69V538.974C1638.69 539.958 1638.11 540.826 1637.21 541.173C1636.92 541.289 1636.61 541.347 1636.32 541.347H1636.29Z" fill="black"/>
<path d="M436.764 0H433.873V235.219H436.764V0Z" fill="black"/>
<path d="M285.707 541.144C285.389 541.144 285.071 541.087 284.753 540.971C283.799 540.595 283.192 539.668 283.192 538.626V0H286.082V537.7L391.614 427.399L393.695 429.396L287.499 540.363C287.007 540.884 286.371 541.144 285.707 541.144Z" fill="black"/>
<path d="M152.918 590H113L246.627 409.223L248.969 410.931L118.723 587.106H151.444L246.627 456.226L248.969 457.934L152.918 590Z" fill="black"/>
<path d="M1807 590H1767.08L1671.03 457.934L1673.37 456.226L1768.56 587.106H1801.28L1671.06 410.931L1673.37 409.223L1807 590Z" fill="black"/>
<path d="M754.053 255.623H486.914V258.518H754.053V255.623Z" fill="black"/>
<path d="M862.735 258.517H855.595V255.623H859.844V42.6038H460.697V234.871H457.806V39.7095H862.735V258.517Z" fill="black"/>
<path d="M846.404 241.673H827.182V238.779H843.513V59.4487H669.968V238.779H762.435V241.673H667.078V56.5544H846.404V241.673Z" fill="black"/>
<path d="M653.203 241.673H478.531V238.779H650.313V59.4487H476.768V238.75H473.877V56.5544H653.203V241.673Z" fill="black"/>
<path d="M651.758 115.598H475.323V118.492H651.758V115.598Z" fill="black"/>
<path d="M651.758 179.735H475.323V182.629H651.758V179.735Z" fill="black"/>
<path d="M597.012 58.0015H594.122V240.226H597.012V58.0015Z" fill="black"/>
<path d="M532.959 58.0015H530.069V240.226H532.959V58.0015Z" fill="black"/>
<path d="M790.213 58.0015H787.322V234.292H790.213V58.0015Z" fill="black"/>
<path d="M726.13 58.0015H723.24V240.226H726.13V58.0015Z" fill="black"/>
<path d="M844.959 115.598H668.523V118.492H844.959V115.598Z" fill="black"/>
<path d="M844.959 179.735H668.523V182.629H844.959V179.735Z" fill="black"/>
<path d="M529.202 397.443L528.884 394.578C551.227 392.06 575.131 390.265 599.932 389.31L600.047 392.205C575.334 393.16 551.516 394.925 529.23 397.443H529.202Z" fill="black"/>
<path d="M644.561 500.769C502.898 500.769 391.932 476.11 391.932 444.591C391.932 440.366 393.898 436.169 397.8 432.175L399.881 434.201C396.528 437.645 394.823 441.147 394.823 444.591C394.823 473.476 509.199 497.875 644.561 497.875C779.922 497.875 894.299 473.476 894.299 444.591C894.299 433.911 877.968 423.087 848.311 414.085L849.15 411.307C880.598 420.829 897.19 432.348 897.19 444.591C897.19 476.081 786.224 500.769 644.561 500.769Z" fill="black"/>
<path d="M711.88 393.304C690.086 391.973 667.425 391.307 644.561 391.307H640.254V388.413H644.59C667.511 388.413 690.202 389.079 712.083 390.41L711.909 393.304H711.88Z" fill="black"/>
<path d="M619.963 357.734C537.035 357.734 472.085 339.21 472.085 315.564C472.085 291.917 537.035 273.394 619.963 273.394C631.38 273.394 642.74 273.77 653.724 274.465L653.521 277.359C642.595 276.636 631.294 276.288 619.934 276.288C541.342 276.288 474.947 294.262 474.947 315.564C474.947 336.866 541.342 354.839 619.934 354.839C698.526 354.839 764.921 336.866 764.921 315.564C764.921 302.742 739.976 290.239 699.856 282.916L700.376 280.08C743.242 287.894 767.84 300.832 767.84 315.593C767.84 339.239 702.891 357.762 619.963 357.762V357.734Z" fill="black"/>
<path d="M619.963 341.699C554.898 341.699 487.636 330.846 487.636 312.67C487.636 294.493 554.927 283.64 619.963 283.64C632.016 283.64 643.954 283.987 655.458 284.653L655.285 287.547C643.838 286.881 631.958 286.534 619.963 286.534C542.527 286.534 490.527 300.05 490.527 312.67C490.527 325.289 542.556 338.805 619.963 338.805C697.37 338.805 749.399 325.289 749.399 312.67C749.399 306.649 736.103 298.082 698.815 292.12L699.278 289.255C719.078 292.41 752.289 299.674 752.289 312.67C752.289 330.846 684.999 341.699 619.963 341.699Z" fill="black"/>
<path d="M677.224 286.534C662.945 286.534 652.192 281.846 652.192 275.623C652.192 269.4 662.945 264.711 677.224 264.711C691.503 264.711 702.255 269.4 702.255 275.623C702.255 281.846 691.503 286.534 677.224 286.534ZM677.224 267.635C664.187 267.635 655.082 271.86 655.082 275.652C655.082 279.443 664.159 283.669 677.224 283.669C690.289 283.669 699.365 279.443 699.365 275.652C699.365 271.86 690.289 267.635 677.224 267.635Z" fill="black"/>
<path d="M688.93 317.011H667.049C662.424 317.011 658.464 313.711 657.655 309.138L652.221 275.854L655.082 275.391L660.516 308.646C661.094 311.801 663.84 314.117 667.049 314.117H688.93C692.312 314.117 695.144 311.599 695.549 308.241L699.365 275.478L702.226 275.825L698.411 308.589C697.862 313.393 693.786 317.04 688.93 317.04V317.011Z" fill="black"/>
<path d="M481.133 442.392C480.988 442.392 480.815 442.392 480.67 442.392L463.241 441.002C460.206 440.771 457.806 438.195 457.806 435.127V434.085C457.806 432.58 456.679 431.306 455.176 431.104L420.664 426.762C419.797 426.647 418.958 426.907 418.322 427.486C417.658 428.065 417.311 428.875 417.311 429.744C417.311 431.393 416.617 432.956 415.403 434.085C414.189 435.185 412.57 435.764 410.952 435.619L397.106 434.49C394.187 434.259 391.874 431.885 391.701 428.933L382.48 263.814C382.22 259.328 384.041 255.073 387.452 252.15C390.198 249.806 393.695 248.59 397.309 248.735C404.304 249.024 410.027 254.263 410.894 261.238L420.808 340.339C422.022 349.919 429.855 357.386 439.51 358.052L473.126 360.368C480.93 360.917 487.029 367.459 487.029 375.273V436.458C487.029 438.108 486.336 439.671 485.15 440.8C484.052 441.813 482.636 442.363 481.162 442.363L481.133 442.392ZM420.317 423.839C420.548 423.839 420.808 423.839 421.039 423.897L455.552 428.239C458.5 428.615 460.697 431.133 460.697 434.085V435.127C460.697 436.69 461.911 437.992 463.443 438.108L480.873 439.497C481.74 439.584 482.52 439.295 483.156 438.716C483.763 438.137 484.11 437.356 484.11 436.516V375.331C484.11 369.021 479.196 363.725 472.895 363.32L439.278 361.004C428.266 360.252 419.276 351.743 417.918 340.773L408.003 261.672C407.31 256.115 402.743 251.948 397.164 251.716C394.302 251.6 391.499 252.555 389.302 254.437C386.585 256.781 385.14 260.167 385.342 263.727L394.563 428.846C394.649 430.322 395.834 431.538 397.309 431.654L411.154 432.783C411.992 432.869 412.802 432.58 413.437 432.001C414.044 431.422 414.391 430.641 414.391 429.801C414.391 428.123 415.114 426.502 416.386 425.373C417.455 424.418 418.843 423.897 420.288 423.897L420.317 423.839Z" fill="black"/>
<path d="M486.104 379.354L485.006 376.662C485.266 376.547 510.442 366.243 518.854 362.162C523.883 359.731 526.802 357.184 527.756 354.376C528.421 352.408 528.132 350.209 526.889 347.691L529.462 346.388C531.051 349.601 531.398 352.611 530.473 355.303C529.259 358.863 525.877 361.959 520.096 364.767C511.598 368.877 486.336 379.238 486.075 379.325L486.104 379.354Z" fill="black"/>
<path d="M487.261 296.462C486.307 252.15 484.11 246.188 483.474 245.407C480.092 241.615 463.183 231.977 431.156 237.303C401.008 242.339 388.521 255.189 388.377 255.334L386.267 253.337C386.787 252.787 399.447 239.647 430.665 234.437C464.137 228.851 481.653 239.068 485.613 243.467C486.567 244.538 489.082 247.346 490.151 296.404L487.261 296.462Z" fill="black"/>
<path d="M424.075 350.961L421.791 349.167C422.08 348.79 429.017 340.021 444.481 333.306C453.875 329.225 468.097 326.446 478.387 324.826L478.849 327.691C468.733 329.283 454.771 332.004 445.638 335.969C430.896 342.365 424.132 350.874 424.075 350.961Z" fill="black"/>
<path d="M485.064 440.742L483.821 438.137L490.556 434.953C490.758 434.866 490.874 434.664 490.874 434.461V425.72C490.874 424.563 491.452 423.492 492.434 422.826L513.708 408.818C514.778 408.123 516.108 408.065 517.235 408.673C518.362 409.281 519.027 410.439 519.027 411.712C519.027 412.03 519.229 412.146 519.345 412.204C519.461 412.262 519.692 412.32 519.923 412.117L527.352 405.981C527.352 405.981 527.554 405.721 527.554 405.547V351.25H530.444V405.547C530.444 406.589 529.982 407.544 529.202 408.21L521.773 414.346C520.732 415.214 519.345 415.388 518.102 414.809C516.859 414.23 516.136 413.043 516.136 411.683C516.136 411.394 515.963 411.249 515.847 411.191C515.732 411.133 515.529 411.046 515.269 411.191L493.995 425.199C493.851 425.315 493.735 425.489 493.735 425.663V434.403C493.735 435.735 492.955 436.95 491.77 437.529L485.035 440.713L485.064 440.742Z" fill="black"/>
<path d="M759.863 442.391C758.388 442.391 756.943 441.842 755.874 440.829C754.66 439.729 753.995 438.137 753.995 436.487V375.302C753.995 367.487 760.094 360.917 767.898 360.396L801.515 358.081C811.14 357.415 819.002 349.977 820.216 340.368L830.13 261.267C830.998 254.321 836.721 249.053 843.716 248.764C847.329 248.619 850.826 249.835 853.572 252.179C856.983 255.102 858.804 259.357 858.544 263.814L849.323 428.933C849.15 431.856 846.837 434.23 843.918 434.49L830.073 435.619C828.454 435.764 826.806 435.185 825.621 434.085C824.407 432.985 823.714 431.393 823.714 429.743C823.714 428.875 823.367 428.065 822.702 427.486C822.066 426.907 821.199 426.647 820.361 426.762L785.848 431.104C784.345 431.277 783.218 432.58 783.218 434.085V435.127C783.218 438.195 780.848 440.771 777.784 441.002L760.354 442.391C760.209 442.391 760.036 442.391 759.891 442.391H759.863ZM844.265 251.658C844.12 251.658 843.947 251.658 843.802 251.658C838.224 251.89 833.657 256.086 832.963 261.614L823.049 340.715C821.69 351.685 812.701 360.194 801.688 360.946L768.072 363.262C761.799 363.696 756.856 368.963 756.856 375.273V436.458C756.856 437.298 757.203 438.079 757.81 438.658C758.417 439.237 759.227 439.526 760.094 439.439L777.523 438.05C779.084 437.934 780.269 436.603 780.269 435.069V434.027C780.269 431.075 782.495 428.557 785.415 428.181L819.927 423.839C821.603 423.636 823.28 424.157 824.552 425.257C825.824 426.386 826.546 427.978 826.546 429.686C826.546 430.525 826.893 431.306 827.5 431.885C828.107 432.464 828.916 432.753 829.784 432.667L843.629 431.538C845.103 431.422 846.288 430.207 846.375 428.73L855.596 263.611C855.798 260.052 854.353 256.665 851.636 254.321C849.583 252.555 846.953 251.6 844.236 251.6L844.265 251.658Z" fill="black"/>
<path d="M754.862 379.354C754.602 379.238 729.339 368.906 720.841 364.796C715.465 362.191 712.256 359.152 711.042 355.534C710.059 352.611 710.406 349.398 712.141 345.925L714.713 347.227C713.326 350.006 713.037 352.408 713.759 354.608C714.713 357.415 717.517 359.962 722.084 362.191C730.495 366.272 755.671 376.576 755.931 376.691L754.833 379.383L754.862 379.354Z" fill="black"/>
<path d="M753.706 298.14L750.815 298.082C751.856 247.432 754.429 244.538 755.382 243.467C756.741 241.962 758.996 240.341 761.799 238.923C767.407 236.087 783.362 229.951 810.331 234.437C841.548 239.647 854.208 252.787 854.728 253.337L852.618 255.334C852.618 255.334 840.016 242.339 809.839 237.302C783.709 232.932 768.447 238.808 763.1 241.528C759.747 243.236 758.186 244.683 757.521 245.406C756.857 246.188 754.631 252.324 753.677 298.14H753.706Z" fill="black"/>
<path d="M816.892 350.961C816.892 350.961 810.07 342.394 795.329 335.969C780.414 329.486 761.452 327.575 761.25 327.546L761.539 324.652C762.319 324.739 781.137 326.62 796.485 333.277C811.949 339.992 818.915 348.761 819.175 349.138L816.892 350.932V350.961Z" fill="black"/>
<path d="M755.932 440.742L749.197 437.558C747.983 436.979 747.231 435.764 747.231 434.432V425.692C747.231 425.518 747.144 425.344 746.971 425.229L725.697 411.22C725.466 411.047 725.235 411.133 725.119 411.22C725.003 411.278 724.83 411.423 724.83 411.712C724.83 413.073 724.078 414.259 722.864 414.838C721.65 415.417 720.234 415.243 719.193 414.375L711.765 408.239C710.956 407.573 710.522 406.618 710.522 405.576V351.28H713.412V405.576C713.412 405.75 713.499 405.895 713.615 406.01L721.043 412.146C721.275 412.349 721.506 412.262 721.621 412.233C721.737 412.175 721.939 412.031 721.939 411.741C721.939 410.468 722.633 409.31 723.76 408.702C724.888 408.094 726.217 408.152 727.287 408.847L748.561 422.855C749.544 423.492 750.122 424.563 750.122 425.75V434.49C750.122 434.693 750.237 434.895 750.44 434.982L757.174 438.166L755.932 440.771V440.742Z" fill="black"/>
<path d="M625.137 421.639H614.76C609.759 421.639 605.424 418.079 604.441 413.217C602.764 404.882 599.845 392.899 595.394 383.088C593.92 379.846 592.388 377.038 590.798 374.752C580.652 360.136 565.073 354.81 564.928 354.752L565.853 352.003C566.518 352.234 582.473 357.676 593.197 373.102C594.873 375.533 596.521 378.486 598.053 381.901C602.62 391.973 605.597 404.187 607.303 412.667C608.025 416.198 611.176 418.774 614.789 418.774H625.166C628.779 418.774 631.929 416.198 632.652 412.667C634.704 402.537 639.242 383.927 646.758 373.102C657.481 357.676 673.437 352.234 674.102 352.003L675.027 354.752C674.882 354.81 659.302 360.136 649.157 374.752C641.931 385.142 637.508 403.319 635.514 413.217C634.531 418.108 630.195 421.639 625.195 421.639H625.137Z" fill="black"/>
<path d="M619.963 439.295C599.325 439.295 583.196 431.538 583.196 421.639C583.196 414.838 590.971 408.789 603.458 405.837L604.123 408.644C593.168 411.249 586.086 416.343 586.086 421.639C586.086 429.628 601.608 436.4 619.963 436.4C638.317 436.4 653.839 429.657 653.839 421.639C653.839 416.372 646.844 411.307 636.034 408.702L636.699 405.895C649.041 408.876 656.73 414.925 656.73 421.668C656.73 431.567 640.572 439.324 619.963 439.324V439.295Z" fill="black"/>
<path d="M1130.45 383.927H887.42V270.847H1130.45V383.927ZM890.31 381.033H1127.56V273.741H890.31V381.033Z" fill="black"/>
<path d="M1145.92 273.741H871.956V258.228H1145.92V273.741ZM874.846 270.847H1143.03V261.122H874.846V270.847Z" fill="black"/>
<path d="M1114.01 369.311H903.896V328.038H1114.01V369.311ZM906.757 366.417H1111.09V330.933H906.757V366.417Z" fill="black"/>
<path d="M999.918 314.724H903.867V280.225H999.918V314.724ZM906.757 311.83H997.027V283.119H906.757V311.83Z" fill="black"/>
<path d="M1126.95 245.869H890.946V4.48608H1126.95V245.841V245.869ZM893.808 242.975H1124.04V7.38037H893.808V242.946V242.975Z" fill="black"/>
<path d="M1107.1 231.109H910.775V43.7615H1107.1V231.137V231.109ZM913.665 228.214H1104.21V46.6558H913.665V228.243V228.214Z" fill="black"/>
<path d="M1107.1 182.629H910.775V168.1H1107.1V182.629ZM913.665 179.735H1104.21V170.994H913.665V179.735Z" fill="black"/>
<path d="M1107.1 115.366H910.775V100.837H1107.1V115.366ZM913.665 112.472H1104.21V103.731H913.665V112.472Z" fill="black"/>
<path d="M1114.01 314.724H1017.95V280.225H1114.01V314.724ZM1020.84 311.83H1111.11V283.119H1020.84V311.83Z" fill="black"/>
<path d="M891.447 243.232L872.485 258.509L874.297 260.764L893.259 245.487L891.447 243.232Z" fill="black"/>
<path d="M1126.42 243.312L1124.61 245.568L1143.58 260.838L1145.39 258.582L1126.42 243.312Z" fill="black"/>
<path d="M1484.68 399.325C1470.26 398.63 1455.29 398.312 1440.63 398.427V395.533C1455.34 395.417 1470.34 395.707 1484.83 396.43L1484.68 399.325Z" fill="black"/>
<path d="M1417.68 398.919L1417.56 396.025C1421.03 395.909 1424.53 395.793 1428.03 395.707L1428.09 398.601C1424.59 398.688 1421.09 398.774 1417.65 398.919H1417.68Z" fill="black"/>
<path d="M1446.64 497.151C1375.48 497.151 1309.2 487.6 1273.68 472.203C1272.95 471.884 1272.26 471.595 1271.59 471.276C1255 463.722 1246.59 455.329 1246.59 446.357C1246.59 423.984 1300.18 405.055 1383.11 398.109L1383.34 401.003C1304.52 407.602 1249.48 426.241 1249.48 446.357C1249.48 453.998 1257.55 461.696 1272.78 468.643C1273.44 468.932 1274.11 469.25 1274.8 469.54C1309.98 484.793 1375.83 494.257 1446.64 494.257C1496.24 494.257 1543.68 489.684 1580.24 481.377L1580.88 484.214C1544.11 492.549 1496.45 497.151 1446.64 497.151Z" fill="black"/>
<path d="M1400.45 277.012C1389.82 277.012 1381.81 273.278 1381.81 268.329C1381.81 263.38 1389.82 259.646 1400.45 259.646C1411.09 259.646 1419.1 263.38 1419.1 268.329C1419.1 273.278 1411.09 277.012 1400.45 277.012ZM1400.45 262.512C1391.43 262.512 1384.7 265.58 1384.7 268.3C1384.7 271.021 1391.43 274.089 1400.45 274.089C1409.47 274.089 1416.21 271.021 1416.21 268.3C1416.21 265.58 1409.47 262.512 1400.45 262.512Z" fill="black"/>
<path d="M1384.7 267.635H1381.81V492.984H1384.7V267.635Z" fill="black"/>
<path d="M1263.1 326.938H1260.21V428.383H1263.1V326.938Z" fill="black"/>
<path d="M1273.82 326.012H1270.93V423.318H1273.82V326.012Z" fill="black"/>
<path d="M1419.1 267.635H1416.21V495.183H1419.1V267.635Z" fill="black"/>
<path d="M1267.03 331.946C1263.21 331.946 1260.21 329.746 1260.21 326.938C1260.21 324.131 1263.18 321.931 1267.03 321.931C1270.87 321.931 1273.85 324.131 1273.85 326.938C1273.85 329.746 1270.84 331.946 1267.03 331.946ZM1267.03 324.855C1264.77 324.855 1263.1 325.954 1263.1 326.967C1263.1 327.98 1264.77 329.08 1267.03 329.08C1269.28 329.08 1270.96 327.98 1270.96 326.967C1270.96 325.954 1269.28 324.855 1267.03 324.855Z" fill="black"/>
<path d="M1429.53 346.706H1426.64V495.704H1429.53V346.706Z" fill="black"/>
<path d="M1442.05 345.606H1439.16V495.183H1442.05V345.606Z" fill="black"/>
<path d="M1434.33 352.292C1429.99 352.292 1426.61 349.832 1426.61 346.706C1426.61 343.581 1429.99 341.12 1434.33 341.12C1438.67 341.12 1442.05 343.581 1442.05 346.706C1442.05 349.832 1438.67 352.292 1434.33 352.292ZM1434.33 343.986C1431.5 343.986 1429.5 345.404 1429.5 346.677C1429.5 347.951 1431.47 349.369 1434.33 349.369C1437.19 349.369 1439.16 347.951 1439.16 346.677C1439.16 345.404 1437.19 343.986 1434.33 343.986Z" fill="black"/>
<path d="M1486.18 346.706H1483.29V494.807H1486.18V346.706Z" fill="black"/>
<path d="M1498.73 345.606H1495.84V494.083H1498.73V345.606Z" fill="black"/>
<path d="M1491.01 352.292C1486.68 352.292 1483.29 349.832 1483.29 346.706C1483.29 343.581 1486.68 341.12 1491.01 341.12C1495.35 341.12 1498.73 343.581 1498.73 346.706C1498.73 349.832 1495.35 352.292 1491.01 352.292ZM1491.01 343.986C1488.18 343.986 1486.18 345.404 1486.18 346.677C1486.18 347.951 1488.15 349.369 1491.01 349.369C1493.87 349.369 1495.84 347.951 1495.84 346.677C1495.84 345.404 1493.87 343.986 1491.01 343.986Z" fill="black"/>
<path d="M1526.45 346.706H1523.56V491.71H1526.45V346.706Z" fill="black"/>
<path d="M1538.96 345.606H1536.07V490.002H1538.96V345.606Z" fill="black"/>
<path d="M1531.25 352.292C1526.91 352.292 1523.53 349.832 1523.53 346.706C1523.53 343.581 1526.91 341.12 1531.25 341.12C1535.58 341.12 1538.96 343.581 1538.96 346.706C1538.96 349.832 1535.58 352.292 1531.25 352.292ZM1531.25 343.986C1528.41 343.986 1526.42 345.404 1526.42 346.677C1526.42 347.951 1528.39 349.369 1531.25 349.369C1534.11 349.369 1536.07 347.951 1536.07 346.677C1536.07 345.404 1534.11 343.986 1531.25 343.986Z" fill="black"/>
<path d="M1569.37 346.706H1566.48V485.429H1569.37V346.706Z" fill="black"/>
<path d="M1574.17 352.292C1569.84 352.292 1566.45 349.832 1566.45 346.706C1566.45 343.581 1569.84 341.12 1574.17 341.12C1578.51 341.12 1581.89 343.581 1581.89 346.706C1581.89 349.832 1578.51 352.292 1574.17 352.292ZM1574.17 343.986C1571.34 343.986 1569.34 345.404 1569.34 346.677C1569.34 347.951 1571.31 349.369 1574.17 349.369C1577.03 349.369 1579 347.951 1579 346.677C1579 345.404 1577 343.986 1574.17 343.986Z" fill="black"/>
<path d="M1300.01 316.461H1297.12V413.275H1300.01V316.461Z" fill="black"/>
<path d="M1310.76 315.535H1307.87V410.583H1310.76V315.535Z" fill="black"/>
<path d="M1303.94 321.468C1300.12 321.468 1297.12 319.269 1297.12 316.461C1297.12 313.654 1300.12 311.454 1303.94 311.454C1307.75 311.454 1310.76 313.654 1310.76 316.461C1310.76 319.269 1307.78 321.468 1303.94 321.468ZM1303.94 314.348C1301.68 314.348 1300.01 315.448 1300.01 316.461C1300.01 317.474 1301.68 318.574 1303.94 318.574C1306.19 318.574 1307.87 317.474 1307.87 316.461C1307.87 315.448 1306.19 314.348 1303.94 314.348Z" fill="black"/>
<path d="M1339.55 310.528H1336.66V404.968H1339.55V310.528Z" fill="black"/>
<path d="M1350.27 309.602H1347.38V403.347H1350.27V309.602Z" fill="black"/>
<path d="M1343.48 315.535C1339.67 315.535 1336.66 313.335 1336.66 310.528C1336.66 307.72 1339.67 305.521 1343.48 305.521C1347.3 305.521 1350.3 307.72 1350.3 310.528C1350.3 313.335 1347.33 315.535 1343.48 315.535ZM1343.48 308.415C1341.23 308.415 1339.55 309.515 1339.55 310.528C1339.55 311.541 1341.23 312.641 1343.48 312.641C1345.74 312.641 1347.41 311.541 1347.41 310.528C1347.41 309.515 1345.74 308.415 1343.48 308.415Z" fill="black"/>
<path d="M1378.34 305.434H1375.45V400.077H1378.34V305.434Z" fill="black"/>
<path d="M1382.24 310.441C1378.43 310.441 1375.42 308.241 1375.42 305.434C1375.42 302.626 1378.43 300.427 1382.24 300.427V303.321C1379.99 303.321 1378.31 304.421 1378.31 305.434C1378.31 306.447 1379.99 307.547 1382.24 307.547V310.441Z" fill="black"/>
<path d="M1441.01 302.598L1438.12 302.629L1439.17 397.875L1442.06 397.843L1441.01 302.598Z" fill="black"/>
<path d="M1451.73 301.671H1448.84V361.93H1451.73V301.671Z" fill="black"/>
<path d="M1451.73 372.205H1448.84V396.286H1451.73V372.205Z" fill="black"/>
<path d="M1444.94 307.605C1441.12 307.605 1438.12 305.405 1438.12 302.597C1438.12 299.79 1441.12 297.59 1444.94 297.59C1448.75 297.59 1451.76 299.79 1451.76 302.597C1451.76 305.405 1448.75 307.605 1444.94 307.605ZM1444.94 300.514C1442.68 300.514 1441.01 301.613 1441.01 302.626C1441.01 303.639 1442.68 304.739 1444.94 304.739C1447.19 304.739 1448.87 303.639 1448.87 302.626C1448.87 301.613 1447.19 300.514 1444.94 300.514Z" fill="black"/>
<path d="M1298.2 340.306L1272 347.414L1272.75 350.207L1298.95 343.1L1298.2 340.306Z" fill="black"/>
<path d="M1298.2 329.147L1272 336.254L1272.76 339.048L1298.95 331.941L1298.2 329.147Z" fill="black"/>
<path d="M1337.89 323.032L1309.09 326.839L1309.47 329.708L1338.27 325.901L1337.89 323.032Z" fill="black"/>
<path d="M1337.91 333.765L1309.11 337.571L1309.49 340.441L1338.29 336.634L1337.91 333.765Z" fill="black"/>
<path d="M1376.26 318.641L1348.72 320.908L1348.96 323.793L1376.5 321.526L1376.26 318.641Z" fill="black"/>
<path d="M1376.27 329.631L1348.73 331.899L1348.96 334.783L1376.5 332.516L1376.27 329.631Z" fill="black"/>
<path d="M1439.07 315.448H1417.65V318.342H1439.07V315.448Z" fill="black"/>
<path d="M1439.07 327.662H1417.65V330.556H1439.07V327.662Z" fill="black"/>
<path d="M1451.24 327.655L1451.08 330.545L1484.64 332.465L1484.8 329.575L1451.24 327.655Z" fill="black"/>
<path d="M1451.29 316.112L1451.13 319.002L1484.69 320.922L1484.85 318.032L1451.29 316.112Z" fill="black"/>
<path d="M1484.77 360.483H1440.77V363.377H1484.77V360.483Z" fill="black"/>
<path d="M1484.77 370.758H1440.77V373.652H1484.77V370.758Z" fill="black"/>
<path d="M1525 360.483H1497.28V363.377H1525V360.483Z" fill="black"/>
<path d="M1525 370.758H1497.28V373.652H1525V370.758Z" fill="black"/>
<path d="M1566.6 360.483H1538.88V363.377H1566.6V360.483Z" fill="black"/>
<path d="M1566.6 370.758H1538.88V373.652H1566.6V370.758Z" fill="black"/>
<path d="M1382.99 483.375L1290.93 465.604L1274.8 472.203L1273.7 469.511L1290.64 462.594L1302.78 464.938L1322 457.413L1383.77 480.596L1382.99 483.375ZM1308.07 465.98L1366.66 477.297L1322 460.539L1308.07 465.98Z" fill="black"/>
<path d="M1382.53 476.775L1355.65 461.002L1330.45 463.549L1330.16 460.654L1356.29 458.021L1383.98 474.286L1382.53 476.775Z" fill="black"/>
<path d="M1383.25 461.291H1361.46V464.185H1383.25V461.291Z" fill="black"/>
<path d="M1450 496.63L1447.8 494.749L1456.64 484.445L1440.17 476.833L1441.35 474.229L1461.33 483.403L1450 496.63Z" fill="black"/>
<path d="M1475.61 496.225L1473.58 494.199L1475.14 492.636L1457.6 486.327L1458.58 483.606L1480.4 491.449L1475.61 496.225Z" fill="black"/>
<path d="M1581.89 345.606H1579V482.796H1581.89V345.606Z" fill="black"/>
<path d="M1417.93 468.712L1417.51 471.575L1427.94 473.127L1428.37 470.264L1417.93 468.712Z" fill="black"/>
<path d="M684.999 261.036C684.999 268.677 683.958 274.87 676.848 274.87C671.616 274.87 666.731 269.748 672.107 264.335C682.311 254.003 676.848 247.23 676.848 247.23C681.357 247.23 684.999 253.424 684.999 261.065V261.036Z" fill="#F29E26"/>
<path d="M676.819 275.218C673.697 275.218 670.807 273.51 669.766 271.05C668.841 268.821 669.564 266.332 671.789 264.046C681.617 254.089 676.732 247.693 676.53 247.404L676.067 246.825H676.819C681.53 246.825 685.346 253.192 685.346 261.007C685.346 267.866 684.681 275.189 676.819 275.189V275.218ZM677.541 247.635C677.975 248.417 678.582 249.864 678.64 251.89C678.727 254.697 677.686 259.154 672.339 264.596C670.315 266.651 669.65 268.85 670.46 270.789C671.385 272.989 673.986 274.523 676.848 274.523C683.351 274.523 684.652 269.371 684.652 261.065C684.652 254.031 681.53 248.272 677.541 247.664V247.635Z" fill="black"/>
<path d="M678.495 270.5H675.605V284.422H678.495V270.5Z" fill="black"/>
<path d="M1012.4 21.6204L1009.4 20.0285L1006.36 21.6204L1006.94 18.2341L1004.51 15.8608L1007.9 15.3687L1009.4 12.3008L1010.9 15.3687L1014.28 15.8608L1011.83 18.2341L1012.4 21.6204Z" fill="#FAE690"/>
<path d="M954.826 28.4508L951.82 26.859L948.785 28.4508L949.363 25.0934L946.906 22.7201L950.288 22.2281L951.82 19.1602L953.323 22.2281L956.705 22.7201L954.248 25.0934L954.826 28.4508Z" fill="#FAE690"/>
<path d="M917.221 28.4508L914.215 26.859L911.18 28.4508L911.758 25.0934L909.33 22.7201L912.712 22.2281L914.215 19.1602L915.718 22.2281L919.1 22.7201L916.643 25.0934L917.221 28.4508Z" fill="#FAE690"/>
<path d="M1107.13 28.4508L1104.12 26.859L1101.08 28.4508L1101.66 25.0934L1099.21 22.7201L1102.59 22.2281L1104.12 19.1602L1105.62 22.2281L1109 22.7201L1106.55 25.0934L1107.13 28.4508Z" fill="#FAE690"/>
<path d="M1069.52 28.4508L1066.51 26.859L1063.48 28.4508L1064.06 25.0934L1061.63 22.7201L1065.01 22.2281L1066.51 19.1602L1068.02 22.2281L1071.4 22.7201L1068.94 25.0934L1069.52 28.4508Z" fill="#FAE690"/>
<path d="M1441.56 62.748H1185.26V232.035H1441.56V62.748Z" fill="#E5A971"/>
<path d="M1443 233.482H1183.81V61.301H1443V233.482ZM1186.7 230.588H1440.11V64.1953H1186.7V230.588Z" fill="#231F20"/>
<path d="M1427.88 74.0068H1198.9V220.747H1427.88V74.0068Z" fill="white"/>
<path d="M1429.33 222.194H1197.45V72.5598H1429.33V222.194ZM1200.34 219.3H1426.44V75.4541H1200.34V219.3Z" fill="#231F20"/>
<path d="M1254.19 150.908H1198.9V152.355H1254.19V150.908Z" fill="#231F20"/>
<path d="M1279.53 73.7795L1278.17 77.9006L1279.54 78.3557L1280.91 74.2346L1279.53 73.7795Z" fill="#231F20"/>
<path d="M1271.16 208.678L1268.59 200.516L1269.98 200.082L1272.55 208.244L1271.16 208.678ZM1265.99 192.325L1263.41 184.163L1264.8 183.729L1267.37 191.891L1265.99 192.325ZM1260.84 176.001L1258.27 167.84L1259.66 167.405L1262.23 175.567L1260.84 176.001ZM1255.7 159.678L1253.47 152.587L1253.96 151.082L1255.32 151.545L1254.97 152.616L1257.06 159.243L1255.67 159.678H1255.7ZM1258.04 143.383L1256.68 142.92L1259.37 134.787L1260.73 135.25L1258.04 143.383ZM1263.41 127.146L1262.06 126.683L1264.74 118.55L1266.1 119.013L1263.41 127.146ZM1268.79 110.88L1267.43 110.417L1270.12 102.284L1271.48 102.747L1268.79 110.88ZM1274.17 94.6141L1272.81 94.151L1275.5 86.0181L1276.86 86.4812L1274.17 94.6141Z" fill="#231F20"/>
<path d="M1275.09 216.373L1273.71 216.808L1275.01 220.949L1276.39 220.513L1275.09 216.373Z" fill="#231F20"/>
<path d="M1261.3 156.812C1258.91 156.812 1256.97 154.526 1256.97 151.718C1256.97 148.911 1258.91 146.653 1261.3 146.653C1263.7 146.653 1265.64 148.94 1265.64 151.718C1265.64 154.497 1263.7 156.812 1261.3 156.812ZM1261.3 148.1C1259.71 148.1 1258.41 149.721 1258.41 151.718C1258.41 153.715 1259.71 155.365 1261.3 155.365C1262.89 155.365 1264.19 153.744 1264.19 151.718C1264.19 149.692 1262.89 148.1 1261.3 148.1Z" fill="#231F20"/>
<path d="M1267.95 154.121H1266.51V158.52H1267.95V154.121Z" fill="#231F20"/>
<path d="M1343.51 141.589C1341.11 141.589 1339.17 139.302 1339.17 136.495C1339.17 133.687 1341.11 131.401 1343.51 131.401C1345.91 131.401 1347.85 133.687 1347.85 136.495C1347.85 139.302 1345.91 141.589 1343.51 141.589ZM1343.51 132.877C1341.92 132.877 1340.62 134.498 1340.62 136.524C1340.62 138.55 1341.92 140.17 1343.51 140.17C1345.1 140.17 1346.4 138.55 1346.4 136.524C1346.4 134.498 1345.1 132.877 1343.51 132.877Z" fill="#231F20"/>
<path d="M1347.5 146.422V145.988L1348.05 145.438C1349.38 144.164 1349.98 143.499 1349.98 142.717C1349.98 142.196 1349.72 141.704 1348.94 141.704C1348.48 141.704 1348.08 141.936 1347.85 142.138L1347.61 141.646C1347.96 141.328 1348.48 141.125 1349.09 141.125C1350.22 141.125 1350.68 141.907 1350.68 142.63C1350.68 143.585 1349.98 144.367 1348.89 145.438L1348.48 145.814H1350.82V146.393H1347.5V146.422Z" fill="black"/>
<path d="M1388.66 87.1181C1386.26 87.1181 1384.32 84.8316 1384.32 82.0241C1384.32 79.2167 1386.26 76.9302 1388.66 76.9302C1391.06 76.9302 1393 79.2167 1393 82.0241C1393 84.8316 1391.06 87.1181 1388.66 87.1181ZM1388.66 78.4063C1387.07 78.4063 1385.77 80.0271 1385.77 82.0531C1385.77 84.0791 1387.07 85.6999 1388.66 85.6999C1390.25 85.6999 1391.55 84.0791 1391.55 82.0531C1391.55 80.0271 1390.25 78.4063 1388.66 78.4063Z" fill="#231F20"/>
<path d="M1392.82 91.112C1393.02 91.2278 1393.49 91.4304 1393.98 91.4304C1394.87 91.4304 1395.16 90.8515 1395.16 90.4174C1395.16 89.6938 1394.5 89.3754 1393.8 89.3754H1393.4V88.8545H1393.8C1394.32 88.8545 1394.96 88.594 1394.96 87.9572C1394.96 87.552 1394.7 87.1758 1394.04 87.1758C1393.63 87.1758 1393.23 87.3494 1393 87.5231L1392.82 87.0021C1393.08 86.7995 1393.63 86.5969 1394.18 86.5969C1395.22 86.5969 1395.68 87.2047 1395.68 87.8415C1395.68 88.3914 1395.37 88.8255 1394.73 89.0571C1395.37 89.2018 1395.89 89.6938 1395.89 90.4174C1395.89 91.2567 1395.25 91.9803 1393.98 91.9803C1393.4 91.9803 1392.88 91.8066 1392.62 91.633L1392.82 91.0831V91.112Z" fill="black"/>
<path d="M1427.88 201.963C1424.96 201.963 1422.02 201.732 1419.13 201.269L1419.36 199.85C1422.16 200.313 1425.02 200.516 1427.88 200.516V201.963ZM1410.63 199.156C1407.85 198.229 1405.14 197.072 1402.56 195.711L1403.23 194.438C1405.74 195.769 1408.4 196.898 1411.09 197.795L1410.63 199.156ZM1395.13 190.994C1392.79 189.228 1390.6 187.26 1388.57 185.147L1389.61 184.134C1391.58 186.189 1393.72 188.1 1396 189.807L1395.13 190.965V190.994ZM1383.02 178.375C1381.38 175.972 1379.87 173.397 1378.63 170.763L1379.93 170.155C1381.14 172.731 1382.59 175.22 1384.21 177.564L1383.02 178.375ZM1375.51 162.543C1374.7 159.736 1374.12 156.841 1373.77 153.918L1375.22 153.744C1375.57 156.581 1376.11 159.388 1376.92 162.138L1375.54 162.543H1375.51ZM1374.87 145.206L1373.43 145.148C1373.54 142.225 1373.89 139.302 1374.47 136.437L1375.88 136.726C1375.31 139.504 1374.99 142.37 1374.87 145.206ZM1378.28 128.506L1376.92 127.985C1377.96 125.236 1379.24 122.573 1380.71 120.055L1381.95 120.778C1380.54 123.239 1379.29 125.843 1378.28 128.506ZM1386.84 113.745L1385.71 112.819C1387.56 110.562 1389.61 108.42 1391.81 106.481L1392.76 107.552C1390.63 109.433 1388.63 111.517 1386.84 113.716V113.745ZM1399.59 102.429L1398.81 101.213C1401.26 99.6502 1403.89 98.2898 1406.58 97.1321L1407.16 98.4635C1404.56 99.5633 1402.01 100.924 1399.59 102.429ZM1415.25 95.7718L1414.91 94.3536C1417.74 93.659 1420.66 93.1959 1423.58 92.9644L1423.69 94.4115C1420.86 94.643 1418.03 95.0772 1415.25 95.7718Z" fill="#231F20"/>
<path d="M1429.07 155.163L1349.26 135.163L1349.61 133.745L1426.73 153.079L1398.92 80.4612L1400.28 79.9402L1429.07 155.163Z" fill="#231F20"/>
</g>
<defs>
<linearGradient id="paint0_linear_4_229192" x1="965.116" y1="45.8742" x2="944.534" y2="69.2622" gradientUnits="userSpaceOnUse">
<stop offset="0.13" stop-color="#757487"/>
<stop offset="1" stop-color="#9497AD"/>
</linearGradient>
<linearGradient id="paint1_linear_4_229192" x1="920.771" y1="100.013" x2="953.293" y2="49.907" gradientUnits="userSpaceOnUse">
<stop offset="0.46" stop-color="#9497AD" stop-opacity="0"/>
<stop offset="0.47" stop-color="#9497AD" stop-opacity="0.06"/>
<stop offset="0.52" stop-color="#9497AD" stop-opacity="0.4"/>
<stop offset="0.56" stop-color="#9497AD" stop-opacity="0.66"/>
<stop offset="0.6" stop-color="#9497AD" stop-opacity="0.84"/>
<stop offset="0.63" stop-color="#9497AD" stop-opacity="0.96"/>
<stop offset="0.66" stop-color="#9497AD"/>
</linearGradient>
<linearGradient id="paint2_linear_4_229192" x1="955.057" y1="55.5701" x2="948.893" y2="61.4953" gradientUnits="userSpaceOnUse">
<stop offset="0.3" stop-color="#A7DAF5" stop-opacity="0"/>
<stop offset="0.38" stop-color="#A7DAF5" stop-opacity="0.12"/>
<stop offset="0.81" stop-color="#A7DAF5" stop-opacity="0.75"/>
<stop offset="1" stop-color="#A7DAF5"/>
</linearGradient>
<linearGradient id="paint3_linear_4_229192" x1="957.543" y1="58.1751" x2="951.407" y2="64.1002" gradientUnits="userSpaceOnUse">
<stop offset="0.3" stop-color="#A7DAF5" stop-opacity="0"/>
<stop offset="0.38" stop-color="#A7DAF5" stop-opacity="0.12"/>
<stop offset="0.81" stop-color="#A7DAF5" stop-opacity="0.75"/>
<stop offset="1" stop-color="#A7DAF5"/>
</linearGradient>
<radialGradient id="paint4_radial_4_229192" cx="0" cy="0" r="1" gradientUnits="userSpaceOnUse" gradientTransform="translate(942.859 68.0155) scale(28.3268 28.364)">
<stop offset="0.64" stop-color="#DEA3D7" stop-opacity="0"/>
<stop offset="0.77" stop-color="#DEA3D7"/>
</radialGradient>
<linearGradient id="paint5_linear_4_229192" x1="934.419" y1="79.5638" x2="927.036" y2="89.2214" gradientUnits="userSpaceOnUse">
<stop offset="0.3" stop-color="#A7DAF5" stop-opacity="0"/>
<stop offset="0.38" stop-color="#A7DAF5" stop-opacity="0.12"/>
<stop offset="0.81" stop-color="#A7DAF5" stop-opacity="0.75"/>
<stop offset="1" stop-color="#A7DAF5"/>
</linearGradient>
<linearGradient id="paint6_linear_4_229192" x1="926.875" y1="94.643" x2="946.53" y2="94.643" gradientUnits="userSpaceOnUse">
<stop stop-color="#9497AD" stop-opacity="0"/>
<stop offset="0.04" stop-color="#9497AD" stop-opacity="0.06"/>
<stop offset="0.29" stop-color="#9497AD" stop-opacity="0.4"/>
<stop offset="0.52" stop-color="#9497AD" stop-opacity="0.66"/>
<stop offset="0.72" stop-color="#9497AD" stop-opacity="0.84"/>
<stop offset="0.89" stop-color="#9497AD" stop-opacity="0.96"/>
<stop offset="1" stop-color="#9497AD"/>
</linearGradient>
<clipPath id="clip0_4_229192">
<rect width="1694" height="590" fill="white" transform="translate(113)"/>
</clipPath>
</defs>
</svg>
