<svg width="109" height="167" viewBox="0 0 109 167" fill="none" xmlns="http://www.w3.org/2000/svg">
<path d="M47.311 129.253V164.197L53.7006 154.291L58.982 164.197V129.253" fill="#D788B4"/>
<path d="M47.311 129.253V164.197L53.7006 154.291L58.982 164.197V129.253" stroke="#221F20" stroke-width="1.36822" stroke-miterlimit="10"/>
<path d="M71.0222 126.79H61.0479V149.38H71.0222V126.79Z" fill="#FBD861" stroke="#221F20" stroke-width="1.36822" stroke-miterlimit="10"/>
<path d="M81.6123 126.79H74.7849V163.007H81.6123V126.79Z" fill="#4D667F" stroke="#221F20" stroke-width="1.54609" stroke-miterlimit="10"/>
<path d="M103.545 0.982361H8.05673V129.239H103.545V0.982361Z" fill="#B7DFF7" stroke="#221F20" stroke-width="1.36822" stroke-miterlimit="10"/>
<path d="M97.4425 78.1226C98.0993 79.0256 99.0297 79.5319 99.9874 79.5319H106.008C106.774 79.5319 107.39 78.7383 107.39 77.7669V52.4822C107.39 51.5107 106.774 50.7172 106.008 50.7172H99.9874C99.0297 50.7172 98.0993 51.2234 97.4425 52.1264L90.1636 62.046C88.8912 63.7837 88.8912 66.4927 90.1636 68.2167L97.4425 78.1363V78.1226Z" fill="#FCF6B5" stroke="#221F20" stroke-width="1.42295" stroke-miterlimit="10"/>
<path d="M5.97708 6.00372H13.5433V124.218H5.97708C3.18591 124.218 0.928345 121.947 0.928345 119.169V11.0661C0.928345 8.27496 3.19959 6.01741 5.97708 6.01741V6.00372Z" fill="#FCF6B5" stroke="#221F20" stroke-width="1.42295" stroke-miterlimit="10"/>
<path d="M55.8077 91.2165C70.2254 91.2165 81.9133 79.5286 81.9133 65.1108C81.9133 50.6931 70.2254 39.0052 55.8077 39.0052C41.3899 39.0052 29.7021 50.6931 29.7021 65.1108C29.7021 79.5286 41.3899 91.2165 55.8077 91.2165Z" fill="#FCF6B5" stroke="#221F20" stroke-width="1.42295" stroke-miterlimit="10"/>
<path d="M55.8076 87.0023C67.898 87.0023 77.6992 77.2012 77.6992 65.1108C77.6992 53.0205 67.898 43.2193 55.8076 43.2193C43.7173 43.2193 33.9161 53.0205 33.9161 65.1108C33.9161 77.2012 43.7173 87.0023 55.8076 87.0023Z" fill="#2E4660" stroke="#221F20" stroke-width="1.54609" stroke-miterlimit="10"/>
<path d="M63.196 62.7712L51.7987 68.3398V78.6152H48.4055V52.1948H51.7987V56.4089L61.732 51.6202L63.1823 54.6713L51.785 60.1716V64.6046L61.7046 59.7474L63.1686 62.7712H63.196Z" fill="white"/>
</svg>
