<svg width="26" height="65" viewBox="0 0 26 65" fill="none" xmlns="http://www.w3.org/2000/svg">
<path d="M14.5122 0.881348V11.9391C14.5122 13.6277 13.2326 15.0439 11.5992 15.2073C11.9804 15.3708 12.3888 15.4525 12.8243 15.4525H13.3687C15.1927 15.4525 16.6627 13.9817 16.6627 12.1569V0.881348H14.5122Z" fill="#E5A971"/>
<path d="M14.5121 11.9391V0.881348H9.50305V12.157C9.50305 13.546 10.3741 14.7444 11.572 15.2346C13.2054 15.044 14.4849 13.6549 14.4849 11.9663L14.5121 11.9391Z" fill="#F8C99D"/>
<path opacity="0.6" d="M1.091 59.3022L5.36509 62.3527V29.125L1.33609 26.1836L1.091 59.3022Z" fill="#BBBDBF"/>
<path opacity="0.6" d="M24.6393 59.3019L20.3379 62.3523L20.2835 29.1247L24.1764 26.2104L24.6393 59.3019Z" fill="#BBBDBF"/>
<path d="M20.1746 64.1501H5.22898C5.03841 64.1501 4.87506 63.9867 4.87506 63.7961V28.3623C4.87506 28.1717 5.03841 28.0083 5.22898 28.0083H20.1746C20.3651 28.0083 20.5285 28.1717 20.5285 28.3623V63.7961C20.5285 63.9867 20.3651 64.1501 20.1746 64.1501ZM5.58289 63.4148H19.7935V28.7164H5.58289V63.4148Z" fill="#231F20"/>
<path opacity="0.6" d="M19.5212 61.9986H5.69171L5.82788 29.125H19.4667L19.5212 61.9986Z" fill="#BBBDBF"/>
<path d="M1.33609 36.0702L1.091 59.3023L5.69175 62.5978H20.0385L22.7608 60.6369H22.9786C22.9786 60.6369 23.1964 60.5007 23.3053 60.2556L24.6664 59.2751L24.4214 36.043H1.36325L1.33609 36.0702Z" fill="#EC84C3"/>
<path d="M24.4214 36.2332L20.3379 39.4471H5.03839L1.33606 36.0698L24.4214 36.2332Z" fill="#F4A9D4"/>
<path d="M20.3379 64.1499C20.3379 64.1499 20.229 64.1499 20.1746 64.1227C20.0385 64.0682 19.9568 63.932 19.9568 63.7958V28.3621C19.9568 28.3621 20.0113 28.1442 20.0929 28.0898L24.5576 24.5219C24.5576 24.5219 24.8298 24.4129 24.9387 24.4674C25.0748 24.5219 25.1565 24.658 25.1565 24.7942L25.4832 59.9828C25.4832 59.9828 25.4287 60.2007 25.347 60.2824L20.5558 64.0954C20.5558 64.0954 20.4196 64.1771 20.3379 64.1771V64.1499ZM20.7191 28.5255V63.006L24.7753 59.7649L24.4487 25.5024L20.6918 28.4983L20.7191 28.5255Z" fill="#231F20"/>
<path d="M5.22899 64.1503C5.22899 64.1503 5.06561 64.1503 5.01116 64.0686L0.219907 60.2556C0.219907 60.2556 0.0837402 60.0922 0.0837402 59.956L0.410407 24.7674C0.410407 24.6312 0.492124 24.495 0.62824 24.4406C0.764357 24.3861 0.900431 24.3861 1.00932 24.495L5.47399 28.0629C5.47399 28.0629 5.61007 28.2263 5.61007 28.3353V63.769C5.61007 63.9052 5.52844 64.0414 5.39232 64.0958C5.33788 64.0958 5.28344 64.1231 5.22899 64.1231V64.1503ZM0.791574 59.7926L4.84783 63.0336V28.5532L1.09099 25.5572L0.764324 59.8198L0.791574 59.7926Z" fill="#231F20"/>
<path d="M20.1746 28.7161H5.44674C5.44674 28.7161 5.28343 28.7161 5.22898 28.6344L0.546567 25.0666C0.546567 25.0666 0.4104 24.9031 0.4104 24.7942C0.4104 24.6852 0.464897 24.5763 0.546567 24.4946L7.70632 18.6661L8.11465 9.32429C8.11465 9.13364 8.27801 8.97021 8.46857 8.97021H17.7245C17.9151 8.97021 18.0784 9.13364 18.0784 9.32429V18.9657L25.0203 24.4946C25.0203 24.4946 25.1565 24.658 25.1565 24.7942C25.1565 24.9304 25.102 25.0121 25.0203 25.0938L20.3652 28.6617C20.3652 28.6617 20.229 28.7434 20.1473 28.7434L20.1746 28.7161ZM5.55565 28.008H20.0385L24.2308 24.7942L17.5067 19.456C17.5067 19.456 17.3706 19.2926 17.3706 19.1564V9.70559H8.82249L8.41407 18.8568C8.41407 18.8568 8.35966 19.0474 8.27799 19.1291L1.33607 24.767L5.5284 27.9808L5.55565 28.008Z" fill="#231F20"/>
<path opacity="0.6" d="M1.79883 24.7943L8.68633 19.1565L8.90416 11.3398H17.1256L16.8533 19.2655L23.7408 24.7943L20.0112 27.6541H5.69175L1.79883 24.7943Z" fill="#BBBDBF"/>
<path d="M13.3144 20.3552C12.1438 20.3552 10.7009 20.1373 8.9042 19.4836C8.71363 19.4019 8.60469 19.2113 8.68636 19.0206C8.76803 18.83 8.95863 18.721 9.1492 18.8027C14.1038 20.5731 16.3361 18.8845 16.3361 18.8572C16.4995 18.721 16.7172 18.7483 16.8534 18.9117C16.9895 19.0751 16.9623 19.293 16.7989 19.4292C16.7445 19.4836 15.6283 20.3552 13.3144 20.3552Z" fill="#231F20"/>
<path d="M20.3379 28.58C20.3379 28.58 20.0929 28.5256 20.0112 28.3894L15.6555 21.0902C15.5466 20.9268 15.6011 20.6817 15.7916 20.6C15.955 20.491 16.2 20.5455 16.2816 20.7361L20.6374 28.0353C20.7463 28.1987 20.6918 28.4439 20.5012 28.5256C20.4468 28.5528 20.3652 28.58 20.3107 28.58H20.3379Z" fill="#231F20"/>
<path d="M5.47402 28.5803C5.47402 28.5803 5.36513 28.5803 5.31068 28.5531C5.12012 28.4714 5.06568 28.2535 5.14735 28.0628L8.93135 20.5185C9.01302 20.3279 9.23087 20.2734 9.42143 20.3551C9.612 20.4368 9.66644 20.6547 9.58477 20.8454L5.80068 28.3897C5.80068 28.3897 5.61013 28.5803 5.47402 28.5803Z" fill="#231F20"/>
<path d="M18.514 7.93555H7.37964V11.7758H18.514V7.93555Z" fill="#BBBDBF"/>
<path d="M18.6228 11.912H7.24347V7.82666H18.6228V11.912ZM7.48847 11.6669H18.4051V8.07177H7.48847V11.6669Z" fill="#231F20"/>
</svg>
