<svg width="559" height="873" viewBox="0 0 559 873" fill="none" xmlns="http://www.w3.org/2000/svg">
<path d="M374.961 25.3668H338.799C336.377 25.3668 334.407 23.3966 334.407 20.9748V13.778C334.407 6.47168 328.482 0.560974 321.19 0.560974H237.879C230.572 0.560974 224.662 6.48537 224.662 13.778V20.9748C224.662 23.3966 222.691 25.3668 220.27 25.3668H184.108C181.686 25.3668 179.716 27.337 179.716 29.7588V54.1815C179.716 56.6033 181.686 58.5735 184.108 58.5735H374.974C377.396 58.5735 379.366 56.6033 379.366 54.1815V29.7588C379.366 27.337 377.396 25.3668 374.974 25.3668H374.961ZM279.527 21.6452C275.518 21.6452 272.262 18.3889 272.262 14.38C272.262 10.3711 275.518 7.11475 279.527 7.11475C283.536 7.11475 286.793 10.3711 286.793 14.38C286.793 18.3889 283.536 21.6452 279.527 21.6452Z" fill="#B7DFF7" stroke="#221F20" stroke-width="1.12194" stroke-miterlimit="10"/>
<path d="M559 91.5L465.66 100.003L467 773.5L559 872.5V91.5Z" fill="#9AA960"/>
<path d="M94 99.5L1 89V872.5L94 774V99.5Z" fill="#9AA960"/>
<path d="M467 100H94V774H467V100Z" fill="#C7D898" stroke="#221F20" stroke-width="1.36822" stroke-miterlimit="10"/>
<path d="M469.19 52.0334H280.827H277.749H89.3858L1.69653 89.0711L25.4078 100.003H280.827H533.182L556.893 89.0711L469.19 52.0334Z" fill="#F4F1A3" stroke="#221F20" stroke-width="1.36822" stroke-miterlimit="10"/>
<path d="M94 774L467.5 773.5L559 872.5H1L94 774Z" fill="#F4F1A3"/>
</svg>
