<svg width="558" height="785" viewBox="0 0 558 785" fill="none" xmlns="http://www.w3.org/2000/svg">
<path opacity="0.1" d="M545.727 18.4202H25.7761V685.455H545.727V18.4202Z" fill="#B7DFF7"/>
<path opacity="0.4" d="M541.663 189.708L68.6697 662.701L4.60968 598.641L549.654 53.5971L541.663 189.708Z" fill="white"/>
<path opacity="0.4" d="M553.923 207.358L80.929 680.365L46.8466 646.283L554.36 138.769L553.923 207.358Z" fill="white"/>
<path d="M0.696594 1.07114V783.734H557.316V1.07114H0.696594ZM527.516 520.557C527.516 526.55 522.7 531.421 516.707 531.489L433.547 532.433C430.236 532.474 427.185 534.239 425.515 537.099L411.765 560.632C411.491 561.097 411.34 561.631 411.34 562.178L411.19 593.059C411.19 595.631 407.605 596.247 406.73 593.825L398.753 571.687C398.301 570.442 397.125 569.635 395.811 569.649L387.78 569.744C386.056 569.758 384.647 568.363 384.66 566.625L384.893 536.141C384.893 534.417 383.497 533.008 381.773 533.021L362.687 533.24C361.004 533.254 359.649 534.609 359.635 536.291L359.211 568.253C359.184 569.922 357.843 571.277 356.16 571.304L351.536 571.359C349.825 571.386 348.416 570.004 348.402 568.294L348.197 536.524C348.197 534.814 346.788 533.432 345.078 533.459L292.579 534.061C290.882 534.075 289.514 535.471 289.528 537.167L289.788 580.95L299.53 581.032L291.457 609.97C290.144 614.677 285.861 617.947 280.963 617.96L41.4559 618.768C35.4083 618.781 30.4964 613.883 30.4964 607.836V41.5978C30.4964 35.564 35.3947 30.6657 41.4285 30.6657H516.611C522.645 30.6657 527.543 35.564 527.543 41.5978V520.557H527.516Z" fill="#E4EBAB" stroke="#221F20" stroke-width="1.36822" stroke-miterlimit="10"/>
<path d="M454.836 565.092L441.688 544.583H432.945L419.796 565.092V620.656H428.211V600.885H446.408V620.656H454.823V565.092H454.836ZM446.422 592.457H428.224V565.079L437.323 550.179L446.422 565.079V592.457Z" fill="white" stroke="#221F20" stroke-width="1.36822" stroke-miterlimit="10"/>
<path d="M490.205 544.583H481.79H466.138V552.997H481.79V620.656H490.205V552.997H505.857V544.583H490.205Z" fill="white" stroke="#221F20" stroke-width="1.36822" stroke-miterlimit="10"/>
<path d="M333.434 572.686H339.235V544.583H330.821V564.272H307.93V544.583H299.516V572.686H305.317H307.93H310.954L299.516 620.656H307.93L319.369 572.686L330.821 620.656H339.235L327.783 572.686H330.821H333.434Z" fill="white" stroke="#221F20" stroke-width="1.36822" stroke-miterlimit="10"/>
<path d="M376.588 612.241V594.058C383.018 594.017 390.899 591.089 391.323 580.909L391.405 577.338H384.003V578.2C383.88 581.183 380.624 585.93 376.574 583.345V544.597H368.159V578.487C360.251 576.969 352.753 583.386 352.302 592.607C352.274 593.086 352.261 593.565 352.261 594.071H359.663C359.663 591.485 360.949 589.296 362.892 588.434C364.246 587.832 365.902 587.75 368.159 588.995V620.656H407.879V612.241H376.574H376.588Z" fill="white" stroke="#221F20" stroke-width="1.36822" stroke-miterlimit="10"/>
</svg>
