<svg width="1920" height="168" viewBox="0 0 1920 168" fill="none" xmlns="http://www.w3.org/2000/svg">
<line y1="54.5" x2="1920" y2="54.5" stroke="black" stroke-width="3"/>
<line y1="110.5" x2="1920" y2="110.5" stroke="black" stroke-width="3"/>
<line x1="1351" y1="166.5" x2="1920" y2="166.5" stroke="black" stroke-width="3"/>
<line x1="1711.5" y1="112" x2="1711.5" y2="168" stroke="black" stroke-width="3"/>
<line x1="1711.5" y1="6.55671e-08" x2="1711.5" y2="56" stroke="black" stroke-width="3"/>
<line x1="1492.5" y1="112" x2="1492.5" y2="168" stroke="black" stroke-width="3"/>
<line x1="1492.5" y1="6.55671e-08" x2="1492.5" y2="56" stroke="black" stroke-width="3"/>
<line x1="1266.5" y1="6.55671e-08" x2="1266.5" y2="56" stroke="black" stroke-width="3"/>
<line x1="1040.5" y1="6.55671e-08" x2="1040.5" y2="56" stroke="black" stroke-width="3"/>
<line x1="814.5" y1="6.55671e-08" x2="814.5" y2="56" stroke="black" stroke-width="3"/>
<line x1="588.5" y1="6.55671e-08" x2="588.5" y2="56" stroke="black" stroke-width="3"/>
<line x1="362.5" y1="6.55671e-08" x2="362.5" y2="56" stroke="black" stroke-width="3"/>
<line x1="136.5" y1="6.55671e-08" x2="136.5" y2="56" stroke="black" stroke-width="3"/>
<line x1="1821.5" y1="56" x2="1821.5" y2="112" stroke="black" stroke-width="3"/>
<line x1="1599.5" y1="56" x2="1599.5" y2="112" stroke="black" stroke-width="3"/>
<line x1="1373.5" y1="56" x2="1373.5" y2="112" stroke="black" stroke-width="3"/>
<line x1="1147.5" y1="56" x2="1147.5" y2="112" stroke="black" stroke-width="3"/>
<line x1="921.5" y1="56" x2="921.5" y2="112" stroke="black" stroke-width="3"/>
<line x1="695.5" y1="56" x2="695.5" y2="112" stroke="black" stroke-width="3"/>
<line x1="469.5" y1="56" x2="469.5" y2="112" stroke="black" stroke-width="3"/>
<line x1="243.5" y1="56" x2="243.5" y2="112" stroke="black" stroke-width="3"/>
<line x1="17.5" y1="56" x2="17.5" y2="112" stroke="black" stroke-width="3"/>
</svg>
