<svg width="406" height="181" viewBox="0 0 406 181" fill="none" xmlns="http://www.w3.org/2000/svg">
<rect x="1.5" y="1.5" width="403" height="177.445" rx="11.3109" fill="#94A5FF" stroke="black" stroke-width="3"/>
<rect x="204.5" y="1.5" width="200" height="177.445" rx="11.3109" fill="white" stroke="black" stroke-width="3"/>
<path d="M277.278 45.7044C280.88 44.7473 284.656 44.2375 288.551 44.2375C313.312 44.2375 333.452 64.8418 333.452 90.3379C333.452 115.834 313.312 136.438 288.551 136.438C284.657 136.438 280.881 135.928 277.28 134.971C293.769 127.202 305.197 110.129 305.197 90.3379C305.197 70.5458 293.768 53.4729 277.278 45.7044Z" fill="#A9E0FC" stroke="black" stroke-width="3"/>
<path d="M138.185 106.563L147.974 116.627L136.942 114.791L134.069 114.313L135.348 116.93L144.136 134.907L122.939 124.831L120.576 123.708L120.8 126.314L122.096 141.348L113.058 130.568L111.119 128.255L110.446 131.197L105.536 152.669L97.2653 132.084L96.2137 129.466L94.6315 131.802L86.9021 143.211L86.6961 128.561L86.6558 125.691L84.3228 127.363L64.7143 141.409L71.1744 120.301L71.9751 117.685L69.3388 118.417L58.704 121.37L66.9349 110.957L68.6005 108.85L65.9328 108.537L40.3601 105.539L59.8257 92.7605L62.0476 91.302L59.6505 90.1538L50.7503 85.8905L62.0395 83.6648L64.7217 83.136L62.8348 81.1578L44.4064 61.8384L69.5196 65.249L72.1802 65.6103L71.093 63.1553L66.8032 53.4677L75.5466 58.4978L77.9034 59.8536L77.7934 57.1382L77.7934 57.1369L77.7932 57.1311L77.792 57.0946C77.7908 57.0644 77.7881 57.0064 77.7799 56.9365C77.7796 56.9342 77.7793 56.9319 77.779 56.9295L74.8439 31.3226L91.5546 50.1214L93.114 51.8756L94.051 49.7237L98.9854 38.3916L102.065 46.7354L103.113 49.5742L104.738 47.0213L116.951 27.832L117.991 52.4611L118.08 54.5507L120.03 53.797L133.541 48.5776L130.723 56.9326L129.785 59.7135L132.589 58.8447L151.459 52.9966L137.504 71.7347L136.308 73.3415L138.186 74.0373L153.56 79.73L144.973 85.0124L142.545 86.5064L145.152 87.6614L162.867 95.511L138.757 104.104L136.556 104.888L138.185 106.563Z" fill="#FAE690" stroke="black" stroke-width="3"/>
</svg>
