<svg width="37" height="54" viewBox="0 0 37 54" fill="none" xmlns="http://www.w3.org/2000/svg">
<path d="M1.77527 24.0986L6.72994 47.6031C6.72994 50.3267 12.3107 52.5328 19.2254 52.5328C26.1402 52.5328 31.7209 50.3267 31.7209 47.6031L35.8317 24.0986H1.77527Z" fill="white"/>
<path d="M19.2254 53.2139C11.7118 53.2139 6.04934 50.7899 6.04934 47.6033L0.931335 23.418H36.6212L32.3743 47.7123C32.3743 50.7899 26.7118 53.2139 19.2254 53.2139ZM2.592 24.7798L7.38325 47.4671C7.38325 49.6188 12.2563 51.8521 19.1983 51.8521C26.1402 51.8521 31.0132 49.6188 31.0132 47.6033L34.9878 24.7798H2.592Z" fill="#231F20"/>
<path d="M18.7899 28.4565C28.1868 28.4565 35.8044 26.2494 35.8044 23.5268C35.8044 20.8043 28.1868 18.5972 18.7899 18.5972C9.39296 18.5972 1.77527 20.8043 1.77527 23.5268C1.77527 26.2494 9.39296 28.4565 18.7899 28.4565Z" fill="white"/>
<path d="M18.7898 29.1376C10.2145 29.1376 1.09467 27.1767 1.09467 23.5271C1.09467 19.8775 10.2145 17.9165 18.7898 17.9165C27.3652 17.9165 36.485 19.8775 36.485 23.5271C36.485 27.1767 27.3652 29.1376 18.7898 29.1376ZM18.7898 19.2783C8.66275 19.2783 2.45583 21.7567 2.45583 23.5271C2.45583 25.2974 8.66275 27.7758 18.7898 27.7758C28.9169 27.7758 35.1238 25.2974 35.1238 23.5271C35.1238 21.7567 28.9169 19.2783 18.7898 19.2783Z" fill="#231F20"/>
<path d="M19.4704 13.3408H18.1093V28.4567H19.4704V13.3408Z" fill="#231F20"/>
<path d="M24.3707 16.5001C24.3707 20.8306 22.0295 24.344 19.1166 24.344C16.2037 24.344 11.4668 20.1225 13.8625 16.5001C17.4832 10.9985 15.7954 2.36475 15.7954 2.36475C15.7954 2.36475 24.3707 12.1696 24.3707 16.5001Z" fill="#F29E26"/>
<path d="M19.1166 24.9976C17.0204 24.9976 14.3797 23.2001 13.1819 21.0212C12.2835 19.3326 12.3108 17.5895 13.2908 16.1188C16.7209 10.9168 15.142 2.58263 15.142 2.50093L14.652 0.0224609L16.3125 1.92896C16.6664 2.33749 25.0513 11.979 25.0513 16.5001C25.0513 21.0212 22.3834 24.9976 19.1166 24.9976ZM16.7754 4.57083C17.0204 7.594 17.0204 12.9322 14.4342 16.8542C13.5631 18.1887 13.9169 19.496 14.3797 20.3676C15.4142 22.3013 17.701 23.6359 19.1166 23.6359C21.6484 23.6359 23.6901 20.4221 23.6901 16.5001C23.6901 13.7493 19.5249 8.00256 16.7754 4.59809V4.57083Z" fill="#231F20"/>
</svg>
