<svg width="90" height="98" viewBox="0 0 90 98" fill="none" xmlns="http://www.w3.org/2000/svg">
<path d="M87.8435 12.7224L85.8796 0L65.0783 17.3465C62.8866 19.1741 60.1136 20.1825 57.2621 20.1825H32.3052C29.4536 20.1825 26.6806 19.182 24.4889 17.3465L3.6876 0L1.72373 12.7224C-0.546512 27.4456 0.341162 42.5313 4.68525 56.7819C5.33725 58.9168 6.01282 60.8625 6.71196 62.4696C10.8911 72.1039 14.0569 77.1062 23.2792 84.8814C32.5015 92.6566 44.5833 97.0839 44.5833 97.0839H44.9839C44.9839 97.0839 57.0735 92.6566 66.288 84.8814C75.5104 77.1062 78.6761 72.096 82.8552 62.4696C83.5544 60.8625 84.23 58.9168 84.882 56.7819C89.2261 42.5313 90.1137 27.4535 87.8435 12.7224Z" fill="black"/>
<path d="M76.0131 42.7124C76.0131 42.7124 75.1962 51.7244 69.2417 56.1674C63.2872 60.6104 54.442 58.8064 54.442 58.8064C54.442 58.8064 55.2589 49.7944 61.2134 45.3514C67.1679 40.9084 76.0131 42.7124 76.0131 42.7124Z" fill="#FAE690"/>
<path d="M63.7115 55.3639C66.7831 55.3639 69.2732 52.8669 69.2732 49.7866C69.2732 46.7063 66.7831 44.2092 63.7115 44.2092C60.6398 44.2092 58.1498 46.7063 58.1498 49.7866C58.1498 52.8669 60.6398 55.3639 63.7115 55.3639Z" fill="black"/>
<path d="M13.7112 42.7124C13.7112 42.7124 14.5281 51.7244 20.4826 56.1674C26.4371 60.6104 35.2824 58.8064 35.2824 58.8064C35.2824 58.8064 34.4654 49.7944 28.5109 45.3514C22.5565 40.9084 13.7112 42.7124 13.7112 42.7124Z" fill="#FAE690"/>
<path d="M26.0129 55.3639C29.0845 55.3639 31.5745 52.8669 31.5745 49.7866C31.5745 46.7063 29.0845 44.2092 26.0129 44.2092C22.9412 44.2092 20.4512 46.7063 20.4512 49.7866C20.4512 52.8669 22.9412 55.3639 26.0129 55.3639Z" fill="black"/>
<path d="M44.7876 66.8811L40.1214 62.832H49.4537L44.7876 66.8811Z" fill="#F4A9D4"/>
</svg>
