<svg width="98" height="98" viewBox="0 0 98 98" fill="none" xmlns="http://www.w3.org/2000/svg">
<g clip-path="url(#clip0_2_958)">
<path d="M48.63 96.76C75.2115 96.76 96.76 75.2115 96.76 48.63C96.76 22.0485 75.2115 0.5 48.63 0.5C22.0485 0.5 0.5 22.0485 0.5 48.63C0.5 75.2115 22.0485 96.76 48.63 96.76Z" fill="#AAE0FC"/>
<path d="M48.63 97.26C21.82 97.26 0 75.45 0 48.63C0 21.81 21.82 0 48.63 0C75.44 0 97.26 21.82 97.26 48.63C97.26 75.44 75.44 97.26 48.63 97.26ZM48.63 1C22.37 1 1 22.37 1 48.63C1 74.89 22.37 96.26 48.63 96.26C74.89 96.26 96.26 74.89 96.26 48.63C96.26 22.37 74.9 1 48.63 1Z" fill="#231F20"/>
<path d="M77.66 82.73C67.66 82.73 51.67 75.89 36.64 64.32C15.38 47.98 2.81998 28.53 8.61998 20.98L9.40998 21.59C4.02998 28.58 16.78 47.79 37.24 63.54C57.32 78.98 79.82 86.17 85.39 78.92L86.18 79.53C84.5 81.71 81.52 82.74 77.65 82.74L77.66 82.73Z" fill="#231F20"/>
<path d="M44.81 69.74L44.27 68.9C48.78 66.01 53.28 62.69 57.62 59.03C76.91 42.8 88.66 22.41 82.77 15.41L83.54 14.77C89.89 22.31 78.32 42.94 58.27 59.8C53.89 63.48 49.36 66.83 44.81 69.74Z" fill="#231F20"/>
<path d="M52.61 74.3999L52.07 73.5599C56.59 70.6699 61.08 67.3499 65.42 63.6899C75.01 55.6199 82.63 47.0699 86.88 39.5999C90.99 32.3699 91.74 26.5899 88.99 23.3099L89.76 22.6699C92.8 26.2899 92.09 32.4799 87.76 40.0899C83.45 47.6599 75.75 56.3099 66.07 64.4499C61.69 68.1299 57.17 71.4799 52.61 74.3899V74.3999Z" fill="#231F20"/>
<path d="M61.46 78.6299L60.92 77.7899C65.21 75.0399 68.58 72.2699 73.22 68.3599C92.19 52.3999 95.51 37.8699 92.59 30.2899L93.52 29.9299C94.48 32.4299 95.6 37.8299 92.31 45.9299C89.16 53.6699 82.96 61.4699 73.86 69.1299C69.18 73.0599 65.79 75.8499 61.45 78.6299H61.46Z" fill="#231F20"/>
<path d="M71 81.8899L70.46 81.0499C74.77 78.2899 76.53 76.7999 80.79 73.2199L81.03 73.0199C98.99 57.9099 96.79 46.7399 95.61 40.7399C95.49 40.1199 95.38 39.5699 95.31 39.0799L96.3 38.9299C96.37 39.3999 96.48 39.9399 96.59 40.5399C97.72 46.2999 100.08 58.2899 81.67 73.7799L81.43 73.9799C77.13 77.5999 75.36 79.0899 70.99 81.8899H71Z" fill="#231F20"/>
<path d="M71.2 89.0599C61.53 89.0599 46.69 82.7499 32.44 71.7799C11.19 55.4399 -1.38 35.9899 4.43 28.4399L5.22 29.0499C-0.160002 36.0399 12.59 55.2499 33.05 70.9999C50.38 84.3299 73.15 93.1399 79.41 84.9999L80.2 85.6099C78.39 87.9599 75.25 89.0699 71.2 89.0699V89.0599Z" fill="#231F20"/>
<path d="M62.73 92.79C54.39 92.79 42.69 89.74 29.62 79.69C8.87 63.72 -0.129999 40.55 1.54 36.45L2.47 36.83C1.18 39.98 9.28 62.7699 30.23 78.8899C51.26 95.06 68.48 92.8499 73.53 89.2399L74.11 90.05C72.06 91.52 68.09 92.7799 62.73 92.7799V92.79Z" fill="#231F20"/>
<path d="M53.14 96.71C46.65 96.71 38.12 94.33 26.46 85.36C5.99 69.62 -2.07 46.65 1.37 37.75L2.3 38.11C-0.950004 46.52 7.26 69.34 27.06 84.56C46 99.13 56.02 96.08 63.33 93.86C63.95 93.67 64.55 93.49 65.13 93.33L65.4 94.29C64.83 94.45 64.24 94.63 63.62 94.82C60.8 95.68 57.41 96.71 53.13 96.71H53.14Z" fill="#231F20"/>
<path d="M24.04 52.7301L23.5 51.8901C36.46 43.5901 53.04 42.7601 66.77 49.7201L67.59 50.1401L67.14 51.0301L66.32 50.6101C52.91 43.8101 36.71 44.6201 24.04 52.7301Z" fill="#231F20"/>
<path d="M28.84 57.0001L28.44 56.0801C40.35 50.9501 54.73 51.4801 62.79 54.6601L62.42 55.5901C54.56 52.4901 40.5 51.9701 28.84 57.0001Z" fill="#231F20"/>
<path d="M56.76 60.7C56.64 60.65 44.93 55.86 33.4 60.64L33.02 59.72C44.95 54.77 57.02 59.72 57.14 59.78L56.75 60.7H56.76Z" fill="#231F20"/>
<path d="M19.63 47.98L19.09 47.14L23.49 44.32C36.45 36.02 53.03 35.19 66.76 42.15L72.23 44.93L71.78 45.82L66.31 43.04C52.9 36.24 36.7 37.05 24.03 45.16L19.63 47.98Z" fill="#231F20"/>
<path d="M15.6 43L15.06 42.16L21.16 38.25C34.9 29.45 53.65 27.94 66.76 34.59L76.45 39.5L76 40.39L66.31 35.48C53.51 28.98 35.16 30.47 21.7 39.09L15.6 43Z" fill="#231F20"/>
<path d="M12.05 37.6999L11.51 36.8599L23.5 29.1799C36.46 20.8799 53.04 20.0499 66.77 27.0099L80.04 33.7399L79.59 34.6299L66.32 27.8999C52.91 21.0999 36.71 21.9099 24.04 30.0199L12.05 37.6999Z" fill="#231F20"/>
<path d="M9.62001 32.87L9.01001 32.08L23.46 20.88C36.06 12.81 52.63 12.27 66.77 19.44L82.93 28.3L82.45 29.18L66.31 20.33C52.51 13.33 36.31 13.85 24.05 21.71L9.64001 32.88L9.62001 32.87Z" fill="#231F20"/>
<path d="M8.13002 27.8599L7.52002 27.0699L24.27 14.0399C27.05 11.8799 29.89 10.1799 32.73 8.98995C43.17 4.60995 54.31 5.54995 66.77 11.8699L84.73 22.5599L84.22 23.4199L66.29 12.7399C54.14 6.57995 43.28 5.64995 33.12 9.90995C30.37 11.0699 27.6 12.7199 24.89 14.8199L8.14002 27.8499L8.13002 27.8599Z" fill="#231F20"/>
</g>
<defs>
<clipPath id="clip0_2_958">
<rect width="97.35" height="97.26" fill="white"/>
</clipPath>
</defs>
</svg>
