<svg width="608" height="372" viewBox="0 0 608 372" fill="none" xmlns="http://www.w3.org/2000/svg">
<path d="M403.891 74.0626L405.192 76.263L407.571 75.3276C423.242 69.1658 440.221 65.6253 457.987 65.3221H460.477C540.295 65.3221 605 129.997 605 209.772C605 255.574 583.652 296.365 550.386 322.831L550.117 323.046L549.903 323.315C545.701 328.617 537.333 333.983 524.922 339.072L524.821 339.113L524.724 339.161C509.281 346.837 492.28 351.849 474.321 353.555L474.161 353.57L474.003 353.603C427.511 363.129 364.625 369 295.322 369C196.448 369 110.807 357.043 67.202 339.676L67.1617 339.66L67.1209 339.645C29.7064 325.985 3 290.094 3 247.993C3 194.124 46.6941 150.45 100.593 150.45C111.25 150.45 121.492 152.18 131.077 155.332L135.176 156.68L135.012 152.368C134.948 150.681 134.887 149.061 134.887 147.45C134.887 67.675 199.592 3 279.409 3C332.415 3 378.745 31.5351 403.891 74.0626Z" fill="#E6FDFF" stroke="#115B84" stroke-width="6"/>
</svg>
