<svg width="289" height="671" viewBox="0 0 289 671" fill="none" xmlns="http://www.w3.org/2000/svg">
<path d="M122.045 571.491L94.6142 577.007L103.777 622.574L131.208 617.057L122.045 571.491Z" fill="#E8E8E8" stroke="#221F20" stroke-width="1.54609" stroke-miterlimit="10"/>
<path d="M157.857 617.033L185.288 622.549L194.451 576.983L167.02 571.467L157.857 617.033Z" fill="#E8E8E8" stroke="#221F20" stroke-width="1.54609" stroke-miterlimit="10"/>
<path d="M211.831 380.916L219.124 353.771C219.124 353.771 212.597 348.831 206.577 336.928C200.557 325.024 194.085 301.983 194.085 301.983L144.679 313.832H144.446L95.0399 301.983C95.0399 301.983 88.5545 325.024 82.548 336.928C76.5415 348.831 70.0014 353.771 70.0014 353.771L77.294 380.916C77.294 380.916 75.3785 401.439 74.9954 431.376C74.6123 461.326 86.8989 578.815 86.8989 578.815L111.855 588.803L132.584 581.128L144.556 381.983L156.528 581.128L177.256 588.803L202.213 578.815C202.213 578.815 214.499 461.326 214.116 431.376C213.733 401.426 211.817 380.916 211.817 380.916H211.831Z" fill="#B7DFF7"/>
<path d="M70.0015 353.771L99.3087 380.916H77.3078L70.0015 353.771Z" fill="#8CAFC1"/>
<path d="M219.124 353.771L189.83 380.916H211.831L219.124 353.771Z" fill="#8CAFC1"/>
<path d="M78.375 488.581C78.375 488.581 88.8829 562.985 101.512 569.019C114.14 575.053 134.062 556.719 134.062 556.719L132.598 581.114L111.869 588.79L86.9126 578.802L78.3886 488.581H78.375Z" fill="#8CAFC1"/>
<path d="M210.873 488.581C210.873 488.581 200.365 562.985 187.737 569.019C175.122 575.053 155.187 556.719 155.187 556.719L156.651 581.114L177.379 588.79L202.336 578.802L210.86 488.581H210.873Z" fill="#8CAFC1"/>
<path d="M90.0595 318.115L114.879 325.708C133.925 331.537 154.27 331.646 173.398 326.037L199.23 318.443L194.085 301.97L144.446 313.819L95.0398 301.97L90.0595 318.101V318.115Z" fill="#8CAFC1"/>
<path d="M113.347 369.861L144.569 381.97L176.394 369.861L154.845 373.35C148.236 374.417 141.505 374.417 134.896 373.35L113.347 369.861Z" fill="#8CAFC1"/>
<path d="M211.831 380.916L219.124 353.771C219.124 353.771 212.597 348.831 206.577 336.928C200.557 325.024 194.085 301.983 194.085 301.983L144.679 313.832H144.446L95.0399 301.983C95.0399 301.983 88.5545 325.024 82.548 336.928C76.5415 348.831 70.0014 353.771 70.0014 353.771L77.294 380.916C77.294 380.916 75.3785 401.439 74.9954 431.376C74.6123 461.326 86.8989 578.815 86.8989 578.815L111.855 588.803L132.584 581.128L144.556 381.983L156.528 581.128L177.256 588.803L202.213 578.815C202.213 578.815 214.499 461.326 214.116 431.376C213.733 401.426 211.817 380.916 211.817 380.916H211.831Z" stroke="#221F20" stroke-width="1.36822" stroke-miterlimit="10"/>
<path d="M113.347 369.861L144.569 381.97" stroke="#221F20" stroke-width="1.36822" stroke-miterlimit="10" stroke-linecap="round"/>
<path d="M175.779 369.861L144.569 381.97" stroke="#221F20" stroke-width="1.36822" stroke-miterlimit="10" stroke-linecap="round"/>
<path d="M108.654 460.615L111.855 588.79" stroke="#221F20" stroke-width="1.36822" stroke-miterlimit="10" stroke-linecap="round"/>
<path d="M180.677 460.615L177.461 588.79" stroke="#221F20" stroke-width="1.36822" stroke-miterlimit="10" stroke-linecap="round"/>
<path d="M31.787 330.648L11.5237 335.847C11.5237 335.847 2.91759 351.622 2.01457 352.703C1.11154 353.784 -0.311407 356.466 5.24357 355.755C10.7985 355.043 16.463 347.326 16.463 347.326C16.463 347.326 9.71764 358.436 6.31078 363.28C2.90391 368.123 2.90391 371.352 4.87415 371.886C6.84439 372.419 10.0734 369.738 10.0734 369.738C10.0734 369.738 7.37799 374.759 7.37799 377.441C7.37799 380.123 9.88183 381.559 13.4802 380.492C17.0787 379.425 17.968 377.441 17.968 377.441C17.968 377.441 17.2565 380.67 17.7901 382.106C18.3237 383.543 22.6336 382.818 24.7817 381.203C26.9299 379.589 29.0916 376.182 29.0916 376.182C29.0916 376.182 28.0107 379.589 30.3504 380.3C32.6901 381.012 36.0833 378.864 38.0535 375.635C40.0237 372.406 44.1557 361.296 44.3336 354.838C44.5115 348.38 43.4306 334.397 43.4306 334.397L31.7734 330.634L31.787 330.648Z" fill="#FAE5CA"/>
<path d="M2.01458 352.703C2.01458 352.703 8.73255 350.514 11.6195 348.311C14.5064 346.109 18.6111 341.922 18.6111 341.922L16.463 347.326C16.463 347.326 10.6344 354.838 6.44761 355.672C-0.407174 357.054 1.1526 353.798 1.1526 353.798L2.01458 352.703Z" fill="#E4C0A4"/>
<path d="M4.88779 371.886C4.88779 371.886 8.11679 372.091 10.8532 369.533C13.5897 366.974 20.8823 351.759 20.8823 351.759C20.8823 351.759 15.1358 362.965 11.1269 366.892C7.118 370.819 5.72241 370.572 4.88779 370.394C4.05318 370.217 3.56062 369.601 3.56062 369.601C3.56062 369.601 3.4238 370.613 3.87531 371.12C4.32683 371.626 4.88779 371.886 4.88779 371.886Z" fill="#E4C0A4"/>
<path d="M8.08949 379.562C8.08949 379.562 8.6915 381.34 11.9342 380.807C15.1769 380.273 16.504 379.493 17.9817 377.441C19.4594 375.389 21.9359 372.023 24.5492 364.032C27.1625 356.042 28.5444 348.065 28.5444 348.065C28.5444 348.065 22.3463 368.287 18.6932 373.104C15.04 377.92 13.4666 378.891 11.1953 379.233C8.92409 379.575 8.10317 379.548 8.10317 379.548L8.08949 379.562Z" fill="#E4C0A4"/>
<path d="M17.4207 380.601C17.2292 381.71 17.9544 382.832 19.0763 382.968C19.7194 383.051 20.8413 383.256 22.0316 382.886C26.3142 381.518 27.2856 378.877 28.5307 377.03C29.7758 375.183 31.6092 369.793 33.1963 363.293C34.7835 356.794 34.8656 353.771 34.8656 353.771C34.8656 353.771 31.6913 366.618 29.3927 371.462C27.0941 376.305 25.8763 378.44 22.7568 380.027C19.6373 381.614 17.5576 376.442 17.5576 376.442L17.4207 380.615V380.601Z" fill="#E4C0A4"/>
<path d="M29.8852 374.239C29.8852 374.239 28.257 377.4 32.1154 377.304C35.9738 377.208 39.2302 371.53 41.0636 366.331C42.897 361.132 44.3473 348.954 44.3473 348.954C44.3473 348.954 46.0576 361.843 40.9678 371.886C35.878 381.929 32.1154 380.902 32.1154 380.902C32.1154 380.902 30.7062 381.108 29.5432 380.451C28.3802 379.794 28.2297 378.604 28.2571 377.988C28.2844 377.372 29.8716 374.225 29.8716 374.225L29.8852 374.239Z" fill="#E4C0A4"/>
<path d="M31.787 330.648L11.5237 335.847C11.5237 335.847 2.91759 351.622 2.01457 352.703C1.11154 353.784 -0.311407 356.466 5.24357 355.755C8.39047 355.344 11.5784 352.69 13.7539 350.473C14.0412 350.186 14.5064 350.542 14.2875 350.884C12.0163 354.564 8.48625 360.201 6.32446 363.28C2.91759 368.123 2.91759 371.352 4.88783 371.886C6.85806 372.419 10.0871 369.738 10.0871 369.738C10.0871 369.738 7.39167 374.759 7.39167 377.441C7.39167 380.123 9.89551 381.559 13.4939 380.492C15.7378 379.822 17.065 378.604 17.7354 377.797C17.8586 377.646 18.1048 377.769 18.0638 377.961C17.7901 379.165 17.4344 381.149 17.7901 382.106C18.3237 383.543 22.6336 382.818 24.7817 381.203C26.9299 379.589 29.0916 376.182 29.0916 376.182C29.0916 376.182 28.0107 379.589 30.3504 380.3C32.6901 381.012 36.0833 378.864 38.0535 375.635C40.0237 372.406 44.1557 361.296 44.3336 354.838C44.5115 348.38 43.4306 334.397 43.4306 334.397L31.7734 330.634L31.787 330.648Z" stroke="#221F20" stroke-width="1.36822" stroke-miterlimit="10"/>
<path d="M8.45885 370.832C10.5796 368.246 14.0001 364.853 15.6146 361.966C17.1744 359.052 19.3362 354.756 20.8823 351.773C18.4879 356.794 16.6545 362.869 13.015 367.138L9.52606 371.694L8.45885 370.832Z" fill="#221F20"/>
<path d="M16.9692 378.44L24.084 364.196C25.89 360.01 27.2035 353.401 28.5444 348.968C27.3677 353.579 26.3963 360.064 24.727 364.47C23.6598 366.933 22.5516 369.327 21.4707 371.763L18.2143 379.028L16.9829 378.44H16.9692Z" fill="#221F20"/>
<path d="M27.6276 377.769L32.088 366.18C32.8269 363.499 33.6478 359.832 34.2772 356.904C34.4824 355.864 34.7561 354.797 34.8655 353.771C34.8245 354.81 34.6329 355.891 34.5098 356.945C34.0583 360.051 33.5794 363.444 32.9637 366.509L28.9138 378.248L27.6276 377.783V377.769Z" fill="#221F20"/>
<path d="M45.0451 344.932L43.5401 344.836C34.2635 344.289 25.5617 340.198 19.2268 333.411L37.3968 292.666L63.2151 304.186L45.0451 344.932Z" fill="#8F8CBF" stroke="#221F20" stroke-width="1.28613" stroke-miterlimit="10"/>
<path d="M257.352 330.648L277.615 335.847C277.615 335.847 286.221 351.622 287.124 352.703C288.027 353.784 289.45 356.466 283.895 355.755C278.34 355.043 272.676 347.326 272.676 347.326C272.676 347.326 279.421 358.436 282.828 363.28C286.235 368.123 286.235 371.352 284.265 371.886C282.294 372.419 279.065 369.738 279.065 369.738C279.065 369.738 281.761 374.759 281.761 377.441C281.761 380.123 279.257 381.559 275.659 380.492C272.06 379.425 271.171 377.441 271.171 377.441C271.171 377.441 271.882 380.67 271.349 382.106C270.815 383.543 266.505 382.818 264.357 381.203C262.209 379.589 260.047 376.182 260.047 376.182C260.047 376.182 261.128 379.589 258.788 380.3C256.449 381.012 253.056 378.864 251.085 375.635C249.115 372.406 244.983 361.296 244.805 354.838C244.627 348.38 245.708 334.397 245.708 334.397L257.365 330.634L257.352 330.648Z" fill="#FAE5CA"/>
<path d="M287.111 352.703C287.111 352.703 280.393 350.514 277.506 348.311C274.619 346.109 270.514 341.922 270.514 341.922L272.662 347.326C272.662 347.326 278.491 354.838 282.678 355.672C289.532 357.054 287.973 353.798 287.973 353.798L287.111 352.703Z" fill="#E4C0A4"/>
<path d="M284.237 371.886C284.237 371.886 281.008 372.091 278.272 369.533C275.535 366.974 268.243 351.759 268.243 351.759C268.243 351.759 273.989 362.965 277.998 366.892C282.007 370.805 283.403 370.572 284.237 370.394C285.072 370.217 285.565 369.601 285.565 369.601C285.565 369.601 285.701 370.613 285.25 371.12C284.798 371.626 284.237 371.886 284.237 371.886Z" fill="#E4C0A4"/>
<path d="M281.036 379.562C281.036 379.562 280.434 381.34 277.191 380.807C273.948 380.273 272.621 379.493 271.143 377.441C269.666 375.389 267.189 372.023 264.576 364.032C261.963 356.042 260.581 348.065 260.581 348.065C260.581 348.065 266.779 368.287 270.432 373.104C274.085 377.92 275.659 378.891 277.93 379.233C280.201 379.575 281.022 379.548 281.022 379.548L281.036 379.562Z" fill="#E4C0A4"/>
<path d="M271.704 380.601C271.896 381.71 271.171 382.832 270.049 382.968C269.406 383.051 268.284 383.256 267.094 382.886C262.811 381.518 261.84 378.877 260.594 377.03C259.349 375.183 257.516 369.793 255.929 363.293C254.342 356.794 254.26 353.771 254.26 353.771C254.26 353.771 257.434 366.618 259.732 371.462C262.031 376.305 263.249 378.44 266.368 380.027C269.488 381.614 271.568 376.442 271.568 376.442L271.704 380.615V380.601Z" fill="#E4C0A4"/>
<path d="M259.24 374.239C259.24 374.239 260.868 377.4 257.01 377.304C253.151 377.208 249.895 371.53 248.062 366.331C246.228 361.132 244.778 348.954 244.778 348.954C244.778 348.954 243.068 361.843 248.157 371.886C253.247 381.929 257.01 380.902 257.01 380.902C257.01 380.902 258.419 381.108 259.582 380.451C260.745 379.794 260.895 378.604 260.868 377.988C260.841 377.372 259.254 374.225 259.254 374.225L259.24 374.239Z" fill="#E4C0A4"/>
<path d="M257.352 330.648L277.615 335.847C277.615 335.847 286.221 351.622 287.124 352.703C288.027 353.784 289.45 356.466 283.895 355.755C280.748 355.344 277.56 352.69 275.385 350.473C275.098 350.186 274.632 350.542 274.851 350.884C277.123 354.564 280.653 360.201 282.814 363.28C286.221 368.123 286.221 371.352 284.251 371.886C282.281 372.419 279.052 369.738 279.052 369.738C279.052 369.738 281.747 374.759 281.747 377.441C281.747 380.123 279.243 381.559 275.645 380.492C273.401 379.822 272.074 378.604 271.403 377.797C271.28 377.646 271.034 377.769 271.075 377.961C271.349 379.165 271.704 381.149 271.349 382.106C270.815 383.543 266.505 382.818 264.357 381.203C262.209 379.589 260.047 376.182 260.047 376.182C260.047 376.182 261.128 379.589 258.788 380.3C256.449 381.012 253.056 378.864 251.085 375.635C249.115 372.406 244.983 361.296 244.805 354.838C244.627 348.38 245.708 334.397 245.708 334.397L257.365 330.634L257.352 330.648Z" stroke="#221F20" stroke-width="1.36822" stroke-miterlimit="10"/>
<path d="M279.613 371.694C277.601 368.917 274.414 365.373 272.908 362.295C271.499 359.244 269.638 354.879 268.243 351.773C269.803 354.769 271.937 359.038 273.51 361.966C275.111 364.84 278.559 368.26 280.666 370.832L279.599 371.694H279.613Z" fill="#221F20"/>
<path d="M270.938 379.028C269.023 374.704 266.3 368.753 264.426 364.47C262.756 360.078 261.771 353.552 260.608 348.968C261.963 353.442 263.263 359.996 265.069 364.196L272.183 378.44L270.952 379.028H270.938Z" fill="#221F20"/>
<path d="M260.225 378.234C260.225 378.234 256.175 366.495 256.175 366.468C255.423 362.322 254.67 357.957 254.273 353.771C254.506 355.563 255.176 358.217 255.559 360.023C256.011 362.021 256.586 364.415 257.064 366.18L261.525 377.769L260.239 378.234H260.225Z" fill="#221F20"/>
<path d="M244.08 344.932L245.585 344.836C254.862 344.289 263.564 340.198 269.898 333.411L251.728 292.666L225.91 304.186L244.08 344.932Z" fill="#8F8CBF" stroke="#221F20" stroke-width="1.28613" stroke-miterlimit="10"/>
<path d="M166.05 107.847C149.481 105.658 145.513 105.849 144.569 106.041C143.625 105.849 139.658 105.658 123.088 107.847C101.717 110.665 78.3065 129.998 78.3065 129.998L144.569 168.582L210.832 129.998C210.832 129.998 187.422 110.665 166.05 107.847Z" fill="#8F8CBF" stroke="#221F20" stroke-width="1.36822" stroke-miterlimit="10"/>
<path d="M127.631 110.323V143.899H161.508V110.775L127.631 110.323Z" fill="#E4C0A4" stroke="#221F20" stroke-width="1.36822" stroke-miterlimit="10"/>
<path d="M190.076 143.899L161.604 130.395C161.604 130.395 159.524 132.228 155.159 133.309C151.547 134.199 146.252 134.459 144.556 134.513C142.859 134.459 137.564 134.199 133.952 133.309C129.601 132.242 127.508 130.395 127.508 130.395L99.035 143.899L144.542 190.692L190.049 143.899H190.076Z" fill="#FEFEFF" stroke="#221F20" stroke-width="1.43663" stroke-miterlimit="10"/>
<path d="M262.674 268.913C259.007 260.855 222.736 162.302 222.736 162.302L190.076 143.899C190.076 143.899 185.37 144.72 174.643 152.41C164.299 159.839 145.828 181.265 144.556 182.729C143.297 181.252 124.826 159.839 114.469 152.41C103.755 144.72 99.0351 143.899 99.0351 143.899L66.3757 162.302C66.3757 162.302 31.5134 253.959 26.4373 268.913C23.5914 277.301 35.235 303.721 35.235 303.721C35.235 303.721 46.5912 312.874 53.186 312.874C59.7809 312.874 74.0651 307.374 74.0651 307.374L85.1887 291.626L82.8627 305.472C82.8627 305.472 94.0137 314.708 104.563 317.636C114.688 320.454 142.326 323.601 144.474 323.848C144.474 323.848 144.501 323.848 144.542 323.848C144.583 323.848 144.61 323.848 144.61 323.848C146.759 323.588 174.397 320.441 184.521 317.622C195.057 314.694 206.221 305.459 206.221 305.459L203.895 291.612L215.019 307.36C215.019 307.36 229.303 312.861 235.898 312.861C242.493 312.861 253.849 303.707 253.849 303.707C253.849 303.707 266.3 276.959 262.647 268.9L262.674 268.913Z" fill="#D3D2E7"/>
<path d="M76.2405 177.188C76.2405 177.188 85.5991 220.396 79.4011 249.95C73.203 279.504 61.4637 294.061 51.9819 292.666C42.5002 291.27 26.3552 278.135 26.3552 278.135C26.3552 278.135 24.2481 300.725 43.5126 310.904C56.757 317.896 69.9193 310.631 74.0924 307.402C77.253 304.952 83.3415 295.115 85.216 291.653C86.981 288.411 86.3379 280.297 87.6104 275.741C92.9191 256.791 95.1629 211.311 95.1629 211.311L76.2405 177.202V177.188Z" fill="#8F8CBF"/>
<path d="M213.063 177.188C213.063 177.188 203.704 220.396 209.902 249.95C216.1 279.504 227.839 294.061 237.321 292.666C246.803 291.27 262.948 278.135 262.948 278.135C262.948 278.135 265.055 300.725 245.79 310.904C232.546 317.896 219.384 310.631 215.211 307.402C212.05 304.952 205.961 295.115 204.087 291.653C202.322 288.411 202.965 280.297 201.693 275.741C196.384 256.791 194.14 211.311 194.14 211.311L213.063 177.202V177.188Z" fill="#8F8CBF"/>
<path d="M204.087 289.943L203.759 277.219C194.181 282.774 183.892 287.042 173.179 289.902L170.894 290.518C153.928 295.06 136.059 295.06 119.093 290.518L116.808 289.902C106.081 287.029 95.7924 282.76 86.2285 277.219L85.9001 289.943C85.9001 289.943 81.686 303.639 82.9037 305.486C95.8061 325.147 140.506 323.697 145.007 323.492C149.495 323.683 194.208 325.147 207.111 305.486L204.114 289.943H204.087Z" fill="#8F8CBF"/>
<path d="M98.5836 143.899C98.5836 143.899 123.294 183.181 125.51 194.263C127.727 205.346 134.691 214.267 134.691 214.267L144.091 212.023C144.091 212.023 139.439 188.722 133.843 180.157C128.247 171.592 114.496 153.573 114.496 153.573L98.5836 143.886V143.899Z" fill="#8F8CBF"/>
<path d="M190.555 143.899C190.555 143.899 165.845 183.181 163.629 194.263C161.412 205.332 154.448 214.267 154.448 214.267L145.048 212.023C145.048 212.023 149.7 188.722 155.296 180.157C160.892 171.592 174.643 153.573 174.643 153.573L190.555 143.886V143.899Z" fill="#8F8CBF"/>
<path d="M262.674 268.913C259.828 260.526 222.736 162.302 222.736 162.302L190.076 143.899C190.076 143.899 185.37 144.72 174.643 152.41C164.299 159.839 145.828 181.265 144.556 182.729C143.297 181.252 124.826 159.839 114.469 152.41C103.755 144.72 99.035 143.899 99.035 143.899L66.3756 162.302C66.3756 162.302 28.3391 260.266 26.4373 268.913C22.7294 285.797 33.0458 301.983 33.0458 301.983C33.0458 301.983 46.7691 311.369 53.186 312.888C62.011 314.968 74.065 307.388 74.065 307.388L85.1887 291.64L82.8627 305.486C82.8627 305.486 92.7139 315.871 103.263 318.799C113.388 321.617 142.339 323.615 144.474 323.861C144.474 323.861 144.501 323.861 144.542 323.861C144.583 323.861 144.61 323.861 144.61 323.861C158.32 322.78 175.587 322.301 185.602 319.113C202.158 313.832 207.056 305.486 207.056 305.486L204.306 293.09L215.019 307.388C215.019 307.388 228.099 313.832 234.694 313.832C241.289 313.832 256.339 303.051 256.339 303.051C256.339 303.051 266.327 279.818 262.647 268.913H262.674Z" stroke="#221F20" stroke-width="1.28613" stroke-miterlimit="10"/>
<path d="M66.3893 162.302L84.9013 192.799" stroke="#221F20" stroke-width="1.28613" stroke-miterlimit="10" stroke-linecap="round"/>
<path d="M84.9698 293.09C84.9698 293.09 91.7698 255.697 93.398 238.416C95.163 219.712 95.163 211.394 95.163 211.394" stroke="#221F20" stroke-width="1.28613" stroke-miterlimit="10" stroke-linecap="round"/>
<path d="M222.9 162.302L204.402 192.799" stroke="#221F20" stroke-width="1.28613" stroke-miterlimit="10" stroke-linecap="round"/>
<path d="M204.333 293.09C204.333 293.09 197.533 255.697 195.905 238.416C194.14 219.712 194.14 211.394 194.14 211.394" stroke="#221F20" stroke-width="1.28613" stroke-miterlimit="10" stroke-linecap="round"/>
<path d="M209.45 130.162C206.167 131.12 196.617 134.623 180.075 146.143C166.228 155.789 154.995 167.939 148.961 175.067C146.663 177.79 142.476 177.79 140.177 175.067C134.157 167.939 122.911 155.789 109.064 146.143C92.5223 134.623 82.9722 131.12 79.6884 130.162C79.4422 130.094 79.278 130.422 79.4969 130.559C84.9561 134.171 108.914 150.412 117 162.288C120.284 167.118 122.869 171.141 124.84 174.342C128.096 179.624 130.299 185.493 131.339 191.609L135.17 214.253H153.969L157.8 191.609C158.84 185.479 161.043 179.624 164.299 174.342C166.269 171.154 168.855 167.118 172.139 162.288C180.225 150.398 204.183 134.171 209.642 130.559C209.861 130.422 209.697 130.08 209.45 130.162Z" fill="#D4D3E8" stroke="#221F20" stroke-width="1.36822" stroke-miterlimit="10"/>
<path d="M184.22 207.932L176.435 199.586L168.636 207.918V187.778L176.435 196.124L184.22 187.792V207.946V207.932ZM174.821 197.848L171.003 193.771V201.925L174.821 197.848ZM181.867 201.925V193.757L178.05 197.835L181.867 201.925Z" fill="white"/>
<path d="M107.682 72.136C107.682 72.136 102.442 63.571 97.5027 65.1718C92.5634 66.7726 92.8644 75.5566 94.3831 79.3876C95.9018 83.2186 101.744 87.4601 104.371 88.4589C106.998 89.4577 109.31 88.4589 109.31 88.4589L107.696 72.1223L107.682 72.136Z" fill="#E4C0A4" stroke="#221F20" stroke-width="1.36822" stroke-miterlimit="10"/>
<path d="M181.443 72.136C181.443 72.136 186.683 63.571 191.623 65.1718C196.562 66.7726 196.261 75.5566 194.742 79.3876C193.223 83.2186 187.381 87.4601 184.754 88.4589C182.127 89.4577 179.815 88.4589 179.815 88.4589L181.429 72.1223L181.443 72.136Z" fill="#E4C0A4" stroke="#221F20" stroke-width="1.36822" stroke-miterlimit="10"/>
<path d="M146.909 15.1223L100.362 56.6067C100.362 56.6067 109.707 97.8449 110.856 101.731C112.006 105.616 127.672 118.546 133.131 121.132C138.59 123.718 144.569 123.718 144.569 123.718C144.569 123.718 150.549 123.718 156.008 121.132C161.467 118.546 177.133 105.616 178.282 101.731C179.432 97.8449 189.584 51.9138 189.584 51.9138L146.909 15.1223Z" fill="#FAE5CA"/>
<path d="M126.988 67.9767C126.988 67.9767 132.83 47.385 144.569 46.523C149.714 46.1399 155.502 47.3302 160.619 48.9721C161.125 49.1363 161.864 69.3312 162.343 69.5091C168.24 71.5614 174.164 55.2933 174.164 55.2933C176.887 57.633 181.58 69.0713 181.58 69.0713C181.58 69.0713 184.563 46.8103 176.422 37.5748C168.281 28.3393 149.919 26.5196 143.803 27.4226C137.687 28.3257 103.838 65.5686 103.838 65.5686L126.974 67.9767H126.988Z" fill="#E4C0A4"/>
<path d="M149.481 15.1223L100.362 56.6067C100.362 56.6067 109.707 97.8449 110.856 101.731C112.006 105.616 127.672 118.546 133.131 121.132C138.59 123.718 144.569 123.718 144.569 123.718C144.569 123.718 150.549 123.718 156.008 121.132C161.467 118.546 177.133 105.616 178.282 101.731C179.432 97.8449 189.584 51.9138 189.584 51.9138L149.481 15.1223Z" stroke="#221F20" stroke-width="1.36822" stroke-miterlimit="10"/>
<path d="M144.569 88.2126L141.012 95.6968H148.113L144.569 88.2126Z" fill="#E4C0A4"/>
<path d="M141.149 101.703L135.402 103.961L144.569 105.028L154.845 103.947L148.031 101.58C145.801 100.8 143.352 100.855 141.149 101.717V101.703Z" fill="#E4C0A4"/>
<path d="M155.064 102.128C154.12 102.128 153.34 102.743 153.162 103.55C147.47 104.659 141.682 104.686 135.977 103.646C135.854 102.798 135.047 102.128 134.061 102.128C132.994 102.128 132.132 102.907 132.132 103.865C132.132 104.823 132.994 105.603 134.061 105.603C134.677 105.603 135.211 105.343 135.567 104.946C138.467 105.48 141.381 105.767 144.296 105.767C147.361 105.767 150.439 105.466 153.477 104.864C153.832 105.302 154.407 105.603 155.05 105.603C156.117 105.603 156.979 104.823 156.979 103.865C156.979 102.907 156.117 102.128 155.05 102.128H155.064Z" fill="#221F20"/>
<path d="M169.649 103.947C173.238 103.947 176.148 101.037 176.148 97.4481C176.148 93.8588 173.238 90.9491 169.649 90.9491C166.059 90.9491 163.15 93.8588 163.15 97.4481C163.15 101.037 166.059 103.947 169.649 103.947Z" fill="#E99A7E"/>
<path d="M119.49 103.947C123.079 103.947 125.989 101.037 125.989 97.4481C125.989 93.8588 123.079 90.9491 119.49 90.9491C115.901 90.9491 112.991 93.8588 112.991 97.4481C112.991 101.037 115.901 103.947 119.49 103.947Z" fill="#E99A7E"/>
<path d="M141.012 110.323L141.354 110.405C143.461 110.911 145.65 110.884 147.744 110.323" stroke="#221F20" stroke-width="1.36822" stroke-miterlimit="10" stroke-linecap="round"/>
<path d="M146.704 101.402L146.485 101.361C145.144 101.101 143.762 101.129 142.435 101.402" stroke="#221F20" stroke-width="1.36822" stroke-miterlimit="10" stroke-linecap="round"/>
<path d="M154.817 69.427C154.817 69.427 155.365 71.794 158.662 72.0129C161.959 72.2319 168.226 71.2467 171.195 72.0129L174.164 72.7792C174.164 72.7792 164.162 67.7167 160.304 67.7167C156.446 67.7167 154.804 69.4133 154.804 69.4133L154.817 69.427Z" fill="#5B3E36"/>
<path d="M134.321 69.427C134.321 69.427 133.774 71.794 130.477 72.0129C127.179 72.2319 120.913 71.2467 117.944 72.0129L114.975 72.7792C114.975 72.7792 124.976 67.7167 128.835 67.7167C132.693 67.7167 134.335 69.4133 134.335 69.4133L134.321 69.427Z" fill="#5B3E36"/>
<path d="M99.5413 58.6317L105.001 76.9522L108.161 63.0511L99.5413 58.6317Z" fill="#5B3E36" stroke="#221F20" stroke-width="1.36822" stroke-miterlimit="10"/>
<path d="M178.474 58.6317L183.933 76.9522L190.446 48.3017L178.474 58.6317Z" fill="#5B3E36" stroke="#221F20" stroke-width="1.36822" stroke-miterlimit="10"/>
<path d="M149.345 20.2258C149.345 20.2258 150.603 21.6488 152.806 26.3691C155.009 31.0895 155.173 37.0823 155.173 37.0823C155.173 37.0823 148.25 30.9389 145.568 31.4178C142.887 31.8967 137.072 39.2851 135.813 47.4807C134.554 55.6764 135.813 69.5228 135.813 69.5228L119.121 65.4318V64.173C119.121 62.9143 118.327 48.9037 118.327 48.9037C118.327 48.9037 116.439 52.0506 115.495 55.9911C114.551 59.9315 114.236 65.2813 114.236 65.2813C114.236 65.2813 112.184 65.2813 109.351 64.4877C106.519 63.6941 95.4914 58.5086 95.4914 58.5086C95.4914 58.5086 92.9738 35.5225 103.988 20.2532C115.002 4.98382 127.768 0.728652 136.894 1.04334C146.02 1.35803 151.698 4.98382 151.698 4.98382C151.698 4.98382 159.1 1.67272 166.817 3.24618C174.533 4.81963 183.974 11.907 189.967 23.7148C195.96 35.5225 195.166 47.6449 195.166 47.6449L176.435 65.596C176.435 65.596 178.173 49.6973 177.229 45.7568L176.285 41.8163C176.285 41.8163 172.823 55.3617 169.047 61.0261C165.271 66.6905 163.382 67.4841 163.382 67.4841C163.382 67.4841 164.641 41.1869 162.438 36.4666C160.236 31.7462 155.2 37.096 155.2 37.096" fill="#75594F"/>
<path d="M103.249 21.3204C103.249 21.3204 100.595 42.9657 101.361 48.2744C102.127 53.5831 110.665 57.031 110.665 57.031L114.975 58.1803L114.25 65.254L107.751 63.6258L95.505 58.495C95.505 58.495 94.4378 49.1637 96.066 41.5017C97.6942 33.8396 101.361 24.5221 101.361 24.5221L103.249 21.3341V21.3204Z" fill="#5B3E36"/>
<path d="M151.711 4.94275C151.711 4.94275 162.616 12.6869 165.339 28.8456C166.133 33.5659 164.491 46.5093 164.491 46.5093L162.137 36.015C161.809 34.8931 159.469 34.51 158.375 34.9205L155.187 37.0549L155.378 27.4226C155.324 25.9586 152.738 10.5935 152.478 9.15686L151.711 4.94275Z" fill="#5B3E36"/>
<path d="M151.711 4.94275C151.711 4.94275 149.892 26.2322 149.043 28.2298C148.195 30.2274 147.155 31.6367 147.155 31.6367L155.488 37.5611C155.488 37.5611 155.967 32.7997 155.488 26.1228C155.009 19.4459 151.711 4.94275 151.711 4.94275Z" fill="#5B3E36"/>
<path d="M185.52 16.5179C185.52 16.5179 189.146 28.052 187.778 38.9431C186.41 49.8341 176.422 65.5686 176.422 65.5686L195.152 47.6176C195.152 47.6176 194.783 36.193 192.909 31.0895C191.034 25.986 185.507 16.5179 185.507 16.5179H185.52Z" fill="#5B3E36"/>
<path d="M151.712 4.94279C151.712 4.94279 153.901 14.2193 155.283 25.0283C155.953 30.2001 155.173 37.0549 155.173 37.0549C155.173 37.0549 148.25 30.9116 145.568 31.3905C142.887 31.8694 137.072 39.2577 135.813 47.4534C134.554 55.649 135.813 69.4954 135.813 69.4954L119.121 65.4044V64.1457C119.121 62.8869 118.327 48.8763 118.327 48.8763C118.327 48.8763 116.439 52.0232 115.495 55.9637C114.551 59.9042 114.236 65.2539 114.236 65.2539C114.236 65.2539 112.184 65.2539 109.351 64.4604C106.519 63.6668 95.4914 58.4812 95.4914 58.4812C95.4914 58.4812 92.9738 35.4951 103.988 20.2258C115.002 4.95647 127.768 0.701308 136.894 1.016C146.02 1.33069 151.698 4.95647 151.698 4.95647C151.698 4.95647 159.1 1.64538 166.817 3.21883C174.533 4.79229 183.974 11.8797 189.967 23.6874C195.96 35.4951 195.166 47.6176 195.166 47.6176L176.435 65.5686C176.435 65.5686 178.173 49.6699 177.229 45.7294L176.285 41.789C176.285 41.789 172.823 55.3343 169.047 60.9988C165.271 66.6632 163.382 67.4568 163.382 67.4568C163.382 67.4568 164.641 41.1596 162.438 36.4392C160.236 31.7188 155.2 37.0686 155.2 37.0686" stroke="#221F20" stroke-width="1.36822" stroke-miterlimit="10"/>
<path d="M52.844 647.746C52.844 646.583 54.2806 646.036 55.0331 646.912C58.3579 650.77 65.3221 657.529 75.0502 657.365C104.152 656.9 113.005 637.485 121.529 634.379C130.053 631.273 136.251 624.829 136.251 624.829V638.251C136.251 638.251 131.544 638.689 118.696 649.101C100.184 664.083 102.428 668.475 80.742 669.241C59.0557 670.007 52.8577 659.171 52.8577 659.171V647.733L52.844 647.746Z" fill="#2E4660" stroke="#221F20" stroke-width="1.54609" stroke-miterlimit="10"/>
<path d="M55.2247 640.823C55.2247 640.823 55.4299 628.619 72.3137 621.299C89.1976 613.979 92.0024 614.471 96.5176 611.735C101.033 608.998 100.225 604.976 100.225 604.976C100.225 604.976 101.867 614.184 111.801 613.979C121.734 613.773 128.206 602.185 128.206 602.185C128.206 602.185 131.01 603.594 134.007 609.901C137.003 616.209 136.251 624.829 136.251 624.829C136.251 624.829 110.049 650.592 92.796 654.998C78.8128 658.569 72.9021 658.049 63.7624 654.314C54.6227 650.579 55.0331 646.912 55.0331 646.912L55.2247 640.823Z" fill="#4D667F" stroke="#221F20" stroke-width="1.54609" stroke-miterlimit="10"/>
<path d="M236.295 647.746C236.295 646.583 234.858 646.036 234.106 646.912C230.781 650.77 223.817 657.529 214.089 657.365C184.987 656.9 176.134 637.485 167.61 634.379C159.086 631.273 152.888 624.829 152.888 624.829V638.251C152.888 638.251 157.595 638.689 170.442 649.101C188.955 664.083 186.711 668.475 208.397 669.241C230.083 670.007 236.281 659.171 236.281 659.171V647.733L236.295 647.746Z" fill="#2E4660" stroke="#221F20" stroke-width="1.54609" stroke-miterlimit="10"/>
<path d="M233.914 640.823C233.914 640.823 233.709 628.619 216.825 621.299C199.941 613.979 197.137 614.471 192.621 611.735C188.106 608.998 188.913 604.976 188.913 604.976C188.913 604.976 187.272 614.184 177.338 613.979C167.405 613.773 160.933 602.185 160.933 602.185C160.933 602.185 158.129 603.594 155.132 609.901C152.136 616.209 152.888 624.829 152.888 624.829C152.888 624.829 179.09 650.592 196.343 654.998C210.326 658.569 216.237 658.049 225.377 654.314C234.516 650.579 234.106 646.912 234.106 646.912L233.914 640.823Z" fill="#4D667F" stroke="#221F20" stroke-width="1.54609" stroke-miterlimit="10"/>
</svg>
