<svg width="772" height="483" viewBox="0 0 772 483" fill="none" xmlns="http://www.w3.org/2000/svg">
<g clip-path="url(#clip0_25_2)">
<g opacity="0.3">
<path d="M470.747 383.821C465.281 383.646 460.926 383.88 456.746 383.821C414.804 383.353 372.54 383.295 330.628 383.821C325.396 383.88 321.011 383.499 313.821 383.821C241.54 387.067 156.048 403.148 86.8073 424.522C74.853 428.206 33.8753 446.656 26.5975 445.72C9.84984 443.615 21.5995 408.85 19.7581 402.3C18.9398 399.376 8.15462 402.943 5.69946 387.827C0.876838 358.149 20.3719 305.694 33.0569 278.063C58.0469 223.65 99.6091 182.393 135.793 136.751C150.378 118.36 175.017 109.149 189.135 94.7346C193.899 89.8809 194.746 83.4775 199.043 79.4133C244.288 36.4903 397.15 7.66064 456.805 23.1281C591.838 58.1857 729.035 200.404 755.866 338.325C761.244 365.985 752.885 378.704 754.171 396.599C754.463 400.78 758.906 403.733 759.549 410.37C759.783 412.739 759.461 439.2 759.169 441.597C758.73 445.048 758.117 446.334 755.223 448.381C716.379 435.282 676.132 416.744 636.177 407.651C589.296 396.949 518.155 385.283 470.776 383.821H470.747Z" fill="#AAE0FC"/>
<path d="M330.598 383.821C325.834 388.148 318.673 388.207 313.792 383.821C320.982 383.499 325.396 383.88 330.598 383.821Z" fill="#AAE0FC"/>
<path d="M470.747 383.821C466.684 387.973 460.809 387.973 456.746 383.821C460.955 383.88 465.281 383.646 470.747 383.821Z" fill="#AAE0FC"/>
</g>
<path d="M83.4167 277.274L85.7842 294.671C85.7842 294.671 100.252 300.49 118.14 295.724C136.027 290.958 140.558 286.104 140.558 286.104L136.992 268.736C136.992 268.736 101.567 276.952 95.9556 276.952C90.3438 276.952 83.4167 277.216 83.4167 277.216" fill="#FBE790"/>
<path d="M83.4169 284.321C83.4169 284.321 103.087 290.402 117.584 290.081C132.082 289.759 140.558 286.133 140.558 286.133C140.558 286.133 128.925 295.373 114.165 297.157C92.6238 299.73 85.7552 294.671 85.7552 294.671L83.3877 284.291L83.4169 284.321Z" fill="#F8C99D"/>
<path d="M16.3384 455.895L27.0651 442.241L68.1304 427.826L195.185 399.259L251.946 390.605L298.038 386.131L327.909 382.622L451.251 383.704L495.883 387.184L553.754 395.4L625.392 408.528L713.222 431.832L750.78 444.375L16.3384 455.895Z" fill="#F8C99D"/>
<path d="M259.34 416.54C259.34 416.54 229.469 437.826 280.911 437.826C366.87 437.826 369.413 439.551 366.724 421.598C364.035 403.645 259.34 416.569 259.34 416.569V416.54Z" fill="#E5A971"/>
<path d="M337.496 412.68C337.496 412.68 305.988 437.796 357.43 437.796C443.389 437.796 445.932 439.522 443.243 421.569C440.554 403.616 337.496 412.709 337.496 412.709V412.68Z" fill="#E5A971"/>
<path d="M539.666 443.001C571.676 443.001 597.626 433.759 597.626 422.358C597.626 410.958 571.676 401.715 539.666 401.715C507.656 401.715 481.707 410.958 481.707 422.358C481.707 433.759 507.656 443.001 539.666 443.001Z" fill="#E5A971"/>
<path d="M539.842 437.796C568.575 437.796 591.868 429.719 591.868 419.756C591.868 409.792 568.575 401.715 539.842 401.715C511.109 401.715 487.816 409.792 487.816 419.756C487.816 429.719 511.109 437.796 539.842 437.796Z" fill="#F8C99D"/>
<path d="M85.7843 294.671L80.3187 344.875L64.0679 434.463L80.6402 438.498L97.8847 439.522L132.461 432.066L141.142 435.896L150.495 433.381L161.836 428.674L167.038 432.066L172.884 432.621L201.82 422.914L155.084 325.46L143.071 297.303L140.967 289.35L122.465 295.519L105.046 297.303L85.7843 294.671Z" fill="#0F275E"/>
<path d="M147.368 319.378C144.036 319.7 141.96 323.238 143.422 326.249C150.875 341.658 163.063 365.693 168.295 376.307C173.001 385.868 179.255 399.815 182.324 404.873C183.552 406.891 186.036 407.768 188.258 406.891C190.917 405.867 192.116 402.797 190.888 400.224C184.166 386.248 173.264 363.558 170.604 357.945C168.236 352.974 154.645 326.249 152.073 321.747C151.109 320.08 149.297 319.174 147.397 319.349L147.368 319.378Z" fill="#526A9E"/>
<path d="M140.236 313.647C142.335 313.647 144.036 311.946 144.036 309.846C144.036 307.747 142.335 306.045 140.236 306.045C138.138 306.045 136.437 307.747 136.437 309.846C136.437 311.946 138.138 313.647 140.236 313.647Z" fill="#526A9E"/>
<path d="M138.19 366.365C138.19 366.365 152.892 394.903 162.8 406.54C172.708 418.177 199.218 417.505 199.218 417.505L201.82 422.914C201.82 422.914 180.016 431.188 173.907 432.066C167.798 432.943 162.8 430.838 162.8 430.838L145.673 397.096L138.453 377.798L138.19 366.365Z" fill="#091C45"/>
<path d="M86.0767 302.887C86.0767 302.887 94.8159 308.121 97.5049 317.098C100.194 326.074 91.7762 370.78 87.8888 389.961C84.0015 409.142 84.4984 439.054 84.4984 439.054H91.2501C91.2501 439.054 89.9933 398.704 95.1082 380.371C100.223 362.038 103.409 332.682 104.344 324.29C105.28 315.899 104.344 306.016 104.344 306.016H118.169C118.169 306.016 117.263 344.085 118.169 368.061C119.075 392.037 122.553 433.352 122.553 433.352L132.491 432.007L121.296 315.84L119.28 295.49L103 297.098L85.8721 294.642L86.1351 302.858L86.0767 302.887Z" fill="#091C45"/>
<path d="M108.465 395.224C109.967 395.224 111.183 394.007 111.183 392.505C111.183 391.003 109.967 389.786 108.465 389.786C106.964 389.786 105.747 391.003 105.747 392.505C105.747 394.007 106.964 395.224 108.465 395.224Z" fill="#AFB6C7"/>
<path d="M145.643 350.839C147.144 350.839 148.361 349.622 148.361 348.12C148.361 346.618 147.144 345.401 145.643 345.401C144.142 345.401 142.925 346.618 142.925 348.12C142.925 349.622 144.142 350.839 145.643 350.839Z" fill="#AFB6C7"/>
<path d="M141.142 341.424L133.397 332.682L134.478 331.717L142.224 340.46L141.142 341.424ZM146.374 339.67H144.913V327.975H146.374V339.67ZM125.651 323.91L117.906 315.168L118.987 314.203L126.733 322.945L125.651 323.91ZM146.374 316.279H144.913V304.876H146.374V316.279ZM110.131 306.396L102.386 297.654L103.467 296.689L111.213 305.431L110.131 306.396Z" fill="#AFB6C7"/>
<path d="M101.012 429.522L99.5798 429.171L102.298 417.797L103.73 418.148L101.012 429.522ZM106.448 406.774L105.016 406.423L107.734 395.049L109.167 395.4L106.448 406.774Z" fill="#AFB6C7"/>
<path d="M145.994 419.259V417.154H147.426V419.259H145.994ZM145.789 405.487L145.614 393.792H147.075L147.251 405.458H145.789V405.487ZM107.208 391.131L103.321 380.108L104.695 379.611L108.582 390.634L107.208 391.131ZM115.422 385.312L114.311 384.377L121.822 375.43L122.933 376.365L115.422 385.312ZM145.439 382.096L145.263 370.4H146.725L146.9 382.067H145.439V382.096ZM99.4338 369.055L95.5464 358.032L96.9202 357.535L100.808 368.558L99.4338 369.055ZM130.445 367.389L129.334 366.453L136.846 357.506L137.956 358.442L130.445 367.389ZM145.088 358.705L144.942 349.027L144.357 348.559L146.345 346.191L146.52 358.705H145.059H145.088ZM91.6884 347.009L87.801 335.986L89.1747 335.489L93.0621 346.512L91.6884 347.009Z" fill="#AFB6C7"/>
<path d="M146.725 421.978C148.226 421.978 149.443 420.761 149.443 419.259C149.443 417.757 148.226 416.54 146.725 416.54C145.224 416.54 144.007 417.757 144.007 419.259C144.007 420.761 145.224 421.978 146.725 421.978Z" fill="#AFB6C7"/>
<path d="M88.5024 338.442C90.0036 338.442 91.2206 337.225 91.2206 335.723C91.2206 334.221 90.0036 333.004 88.5024 333.004C87.0012 333.004 85.7842 334.221 85.7842 335.723C85.7842 337.225 87.0012 338.442 88.5024 338.442Z" fill="#AFB6C7"/>
<path d="M83.5338 205.141C83.5338 205.141 78.8281 231.281 78.8281 237.48C78.8281 243.678 80.5818 267.274 82.5401 271.543C84.4984 275.812 81.0787 275.666 92.5653 276.426C104.052 277.186 123.313 274.993 135.004 268.181C146.696 261.368 185.13 224.585 185.13 224.585C185.13 224.585 206.496 201.545 212.108 192.715C217.72 183.884 236.572 152.95 242.067 140.903C247.562 128.857 267.495 78.0975 269.892 72.7176C272.288 67.3376 278.426 51.8701 283.717 45.6422C289.007 39.4143 293.42 32.6308 293.42 32.6308C293.42 32.6308 253.466 47.7474 240.05 54.2385C226.634 60.7295 202.58 74.8812 174.287 96.5181C145.994 118.155 118.578 151.4 108.261 166.078C97.9433 180.756 83.5631 205.2 83.5631 205.2" fill="#0F275E"/>
<path d="M122.524 218.036C129.597 205.521 135.384 195.229 137.986 190.639C138.775 189.235 140.587 188.767 141.961 189.645C143.188 190.405 143.656 191.984 143.013 193.299C139.915 199.644 131.059 217.568 124.716 227.626" fill="#526A9E"/>
<path d="M145.994 186.107C147.883 186.107 149.414 184.575 149.414 182.686C149.414 180.796 147.883 179.265 145.994 179.265C144.106 179.265 142.574 180.796 142.574 182.686C142.574 184.575 144.106 186.107 145.994 186.107Z" fill="#526A9E"/>
<path d="M219.035 78.2437C217.954 78.5654 217.135 79.4425 216.931 80.5536C215.469 88.302 208.834 120.026 193.987 150.113C185.072 168.154 181.155 176.165 179.46 179.674C178.759 181.107 179.46 182.803 181.009 183.329C182.149 183.709 183.406 183.329 184.078 182.335C187.03 178.037 195.185 165.259 204.684 142.833C216.638 114.646 219.853 100.758 221.753 88.799L222.922 81.6062C223.273 79.3841 221.198 77.5712 219.064 78.2145L219.035 78.2437Z" fill="#526A9E"/>
<path d="M79.2079 252.45C79.2079 252.45 100.369 267.303 136.787 249.585C173.205 231.866 197.961 201.516 215.937 170.756C233.912 139.997 251.098 88.8575 257.879 71.2556C264.66 53.6537 270.681 40.2622 270.681 40.2622L295.232 32.0753C295.232 32.0753 286.025 40.8177 281.671 48.5076C277.316 56.1975 269.95 75.1151 256.914 105.67C243.879 136.225 231.866 161.517 221.782 177.101C211.699 192.685 186.738 227.041 158.153 249.555C129.568 272.069 122.232 277.04 108.319 276.982C94.4065 276.923 84.469 275.812 84.469 275.812L79.1787 252.421L79.2079 252.45Z" fill="#091C45"/>
<path d="M124.745 227.626C118.374 237.743 106.975 254.789 103.058 260.637C102.269 261.836 100.72 262.304 99.4046 261.748C97.6509 261.017 96.9786 258.883 98.0308 257.274C102.824 250.052 114.954 231.486 122.553 218.036" fill="#526A9E"/>
<path d="M99.463 198.972C101.384 198.972 102.941 197.414 102.941 195.492C102.941 193.571 101.384 192.013 99.463 192.013C97.5421 192.013 95.9849 193.571 95.9849 195.492C95.9849 197.414 97.5421 198.972 99.463 198.972Z" fill="#AFB6C7"/>
<path d="M167.038 156.634C168.959 156.634 170.516 155.076 170.516 153.154C170.516 151.233 168.959 149.675 167.038 149.675C165.117 149.675 163.56 151.233 163.56 153.154C163.56 155.076 165.117 156.634 167.038 156.634Z" fill="#AFB6C7"/>
<path d="M150.349 233.971C152.27 233.971 153.827 232.413 153.827 230.492C153.827 228.57 152.27 227.012 150.349 227.012C148.428 227.012 146.871 228.57 146.871 230.492C146.871 232.413 148.428 233.971 150.349 233.971Z" fill="#AFB6C7"/>
<path d="M228.534 137.745C230.455 137.745 232.012 136.187 232.012 134.266C232.012 132.344 230.455 130.786 228.534 130.786C226.613 130.786 225.056 132.344 225.056 134.266C225.056 136.187 226.613 137.745 228.534 137.745Z" fill="#AFB6C7"/>
<path d="M188.053 217.977L186.738 217.334L191.911 206.837L193.226 207.48L188.053 217.977ZM198.4 196.984L197.085 196.34L202.258 185.843L203.573 186.487L198.4 196.984ZM208.746 176.019L207.431 175.376L212.605 164.879L213.92 165.522L208.746 176.019ZM219.093 155.025L217.778 154.382L222.951 143.885L224.267 144.529L219.093 155.025ZM227.569 134.266L220.116 125.26L221.256 124.324L228.709 133.33L227.569 134.266ZM212.692 116.254L205.239 107.249L206.379 106.313L213.832 115.319L212.692 116.254ZM197.786 98.214L190.333 89.2084L191.473 88.2727L198.926 97.2783L197.786 98.214Z" fill="#AFB6C7"/>
<path d="M170.692 144.149L169.318 143.652L173.205 132.628L174.579 133.125L170.692 144.149ZM178.437 122.102L177.064 121.605L180.951 110.582L182.325 111.079L178.437 122.102ZM186.183 100.027L184.809 99.5298L188.696 88.5067L190.07 89.0037L186.183 100.027Z" fill="#AFB6C7"/>
<path d="M100.837 196.326L99.6042 197.112L102.744 202.044L103.977 201.259L100.837 196.326Z" fill="#AFB6C7"/>
<path d="M109.313 209.7L108.08 210.485L113.433 218.896L114.665 218.111L109.313 209.7Z" fill="#AFB6C7"/>
<path d="M122.144 232.538L118.783 227.246L120.01 226.486L122.904 231.047L128.34 230.784L128.399 232.246L122.144 232.538Z" fill="#AFB6C7"/>
<path d="M144.533 231.486L144.474 230.024L149.735 229.79L150.875 224.614L152.278 224.936L150.934 231.193L144.533 231.486Z" fill="#AFB6C7"/>
<path d="M154.938 212.626L153.506 212.305L156.165 199.995L157.598 200.317L154.938 212.626ZM160.257 188.007L158.825 187.686L161.485 175.376L162.917 175.698L160.257 188.007ZM165.577 163.417L164.145 163.095L166.307 153.125L166.015 151.02L167.477 150.815L167.798 153.183L165.577 163.417ZM164.262 138.535L162.537 126.079L163.998 125.874L165.723 138.33L164.262 138.535Z" fill="#AFB6C7"/>
<path d="M161.46 107.624L160.013 107.825L160.817 113.617L162.265 113.416L161.46 107.624Z" fill="#AFB6C7"/>
<path d="M189.369 92.22C191.289 92.22 192.847 90.6622 192.847 88.7406C192.847 86.8189 191.289 85.2611 189.369 85.2611C187.448 85.2611 185.89 86.8189 185.89 88.7406C185.89 90.6622 187.448 92.22 189.369 92.22Z" fill="#AFB6C7"/>
<path d="M770.539 444.375H1.46143V481.538H770.539V444.375Z" fill="#465199"/>
<path d="M385.985 1.46198C173.615 1.46198 1.46143 202.89 1.46143 444.375H21.1903C21.1903 202.89 184.517 19.2101 385.985 19.2101C587.454 19.2101 750.78 202.89 750.78 444.375H770.509C770.539 202.89 598.356 1.46198 385.985 1.46198Z" fill="#AAE0FC"/>
<path d="M124.745 271.543C124.745 271.543 132.432 264.555 142.078 250.462C153.447 233.825 155.756 227.626 155.756 227.626" fill="#0F275E"/>
<path d="M353.309 321.366L249.754 252.45C249.754 252.45 230.463 260.052 225.465 277.011C220.467 293.969 229.411 311.191 229.411 311.191L288.627 333.004L343.985 353.383" fill="#0F275E"/>
<path d="M299.003 341.629L294.122 354.407L293.742 395.166L293.362 433.381L308.473 431.89L301.604 354.407L299.003 341.629Z" fill="#F8C99D"/>
<path d="M338.665 384.435V418.966H348.311L349.012 384.435H338.665Z" fill="#7181E5"/>
<path d="M423.251 384.435V418.966H432.896L433.598 384.435H423.251Z" fill="#7181E5"/>
<path d="M325.396 434.726L338.227 436.773L339.016 384.435H433.598V435.954H448.592V369.436H325.396V434.726Z" fill="#95A4FF"/>
<path d="M576.669 203.562V402.71L603.413 395.868L663.798 418.586V210.112L576.669 203.562Z" fill="#7181E5"/>
<path d="M663.798 210.112V435.954H703.519L699.602 224.117L692.12 210.112H663.798Z" fill="#95A4FF"/>
<path d="M576.669 258.678L663.798 265.958V260.959L576.669 253.678V258.678Z" fill="#95A4FF"/>
<path d="M576.669 295.841L663.798 307.244V301.484L577.224 290.987L576.669 295.841Z" fill="#95A4FF"/>
<path d="M576.669 331.834L663.798 349.407V342.974L576.669 325.401V331.834Z" fill="#95A4FF"/>
<path d="M576.669 364.728L663.798 391.54V382.622L577.224 359.845L576.669 364.728Z" fill="#95A4FF"/>
<path d="M643.777 376.57L651.376 379.348V348.062L644.332 346.98L643.777 376.57Z" fill="#EC84C3"/>
<path d="M577.809 324.817L607.212 330.811L607.125 322.361L577.809 317.156V324.817Z" fill="#C5FFCC"/>
<path d="M577.809 305.607L607.855 311.688L620.482 307.478L588.039 303.18L577.809 305.607Z" fill="#F4A9D4"/>
<path d="M577.809 317.156L607.446 321.864V312.507L577.809 307.536V317.156Z" fill="#F4A9D4"/>
<path d="M635.534 374.348L642.345 376.365L643.104 345.84L636.09 344.787L635.534 374.348Z" fill="#C5FFCC"/>
<path d="M620.043 369.874L626.854 371.892L627.087 343.062L620.043 342.009V369.874Z" fill="#F4A9D4"/>
<path d="M609.025 330.811L623.551 326.396L622.294 308.618L608.265 312.829L609.025 330.811Z" fill="#FBE790"/>
<path d="M603.91 364.728L610.72 367.096L610.954 339.553L603.91 338.501V364.728Z" fill="#FBE790"/>
<path d="M596.369 362.711L602.945 364.728L603.413 338.559L596.369 337.506V362.711Z" fill="#EC84C3"/>
<path d="M576.669 357.038L585.963 359.845L586.694 333.355L576.669 331.834V357.038Z" fill="#F4A9D4"/>
<path d="M609.024 330.811L663.798 342.302V333.355L623.551 326.396L609.024 330.811Z" fill="#C2CBFF"/>
<path d="M576.669 402.71L663.798 435.954V418.586L602.653 397.096L576.669 402.71Z" fill="#C2CBFF"/>
<path d="M325.396 369.436L446.137 368.588L416.266 339.553L354.828 340.752L325.396 369.436Z" fill="#C2CBFF"/>
<path d="M299.178 392.008C295.817 392.242 293.245 395.049 293.245 398.411L293.362 433.381L308.473 431.89L306.047 397.914C305.784 394.376 302.715 391.716 299.178 391.979V392.008Z" fill="#FBE790"/>
<path d="M325.396 422.914L316.423 424.171L299.938 339.319C299.821 338.676 298.915 338.588 298.681 339.232L293.216 354.407L266.794 427.826H255.336L288.598 332.974L312.097 341.629L325.337 422.914" fill="#FBE790"/>
<path d="M361.139 342.701C364.739 334.3 362.893 325.448 357.018 322.929C351.143 320.41 343.462 325.178 339.863 333.579C336.263 341.979 338.109 350.832 343.984 353.351C349.859 355.87 357.54 351.102 361.139 342.701Z" fill="#AAE0FC"/>
<path d="M665.259 438.089L575.237 403.704V201.983L665.259 208.767V438.089ZM578.13 401.686L662.307 433.82V211.457L578.13 205.112V401.686Z" fill="black"/>
<path d="M577.082 364.108L576.247 366.91L663.358 392.889L664.193 390.087L577.082 364.108Z" fill="black"/>
<path d="M577.081 356.414L576.246 359.216L663.357 385.195L664.192 382.393L577.081 356.414Z" fill="black"/>
<path d="M576.948 330.364L576.37 333.23L663.47 350.799L664.048 347.933L576.948 330.364Z" fill="black"/>
<path d="M623.899 325.001L623.333 327.869L662.791 335.656L663.356 332.788L623.899 325.001Z" fill="black"/>
<path d="M576.929 323.917L576.351 326.783L663.451 344.353L664.029 341.486L576.929 323.917Z" fill="black"/>
<path d="M576.886 294.221L576.501 297.119L663.624 308.702L664.009 305.803L576.886 294.221Z" fill="black"/>
<path d="M576.878 288.429L576.493 291.327L663.616 302.91L664.001 300.012L576.878 288.429Z" fill="black"/>
<path d="M576.801 257.215L576.557 260.128L663.674 267.416L663.918 264.502L576.801 257.215Z" fill="black"/>
<path d="M576.818 252.207L576.575 255.121L663.692 262.409L663.935 259.495L576.818 252.207Z" fill="black"/>
<path d="M577.049 404.113L576.318 401.277L601.951 394.727V373.529H604.874V397.008L577.049 404.113Z" fill="black"/>
<path d="M577.438 315.7L576.949 318.583L607.608 323.792L608.098 320.91L577.438 315.7Z" fill="black"/>
<path d="M577.438 305.375L576.948 308.258L607.608 313.467L608.097 310.585L577.438 305.375Z" fill="black"/>
<path d="M623.025 308.94L588.594 303.94L576.991 306.396L576.377 303.531L588.506 300.958L623.434 306.045L623.025 308.94Z" fill="black"/>
<path d="M623.721 315.703L608.593 320.408L609.461 323.2L624.588 318.495L623.721 315.703Z" fill="black"/>
<path d="M609.258 332.653C608.674 332.653 608.089 332.477 607.592 332.126C606.832 331.6 606.394 330.723 606.394 329.787V310.928L623.639 305.958L624.954 306.864L625.012 307.741V327.448L610.164 332.507C609.872 332.624 609.551 332.653 609.229 332.653H609.258ZM609.317 313.121V329.787L622.089 325.343V309.437L609.317 313.121Z" fill="black"/>
<path d="M588.156 333.354H585.233V360.459H588.156V333.354Z" fill="black"/>
<path d="M597.275 335.694H594.352V363.558H597.275V335.694Z" fill="black"/>
<path d="M604.874 337.214H601.951V365.81H604.874V337.214Z" fill="black"/>
<path d="M653.042 346.483H650.119V379.845H653.042V346.483Z" fill="black"/>
<path d="M645.004 345.898H642.081V378.003H645.004V345.898Z" fill="black"/>
<path d="M636.996 344.231H634.073V375.488H636.996V344.231Z" fill="black"/>
<path d="M628.958 341.044H626.035V373.003H628.958V341.044Z" fill="black"/>
<path d="M620.92 339.758H617.998V370.605H620.92V339.758Z" fill="black"/>
<path d="M612.912 338.5H609.989V367.096H612.912V338.5Z" fill="black"/>
<path d="M604.874 260.929H601.951V293.443H604.874V260.929Z" fill="black"/>
<path d="M604.874 205.551H601.951V255.9H604.874V205.551Z" fill="black"/>
<path d="M603.876 394.444L602.847 397.181L663.229 419.886L664.257 417.149L603.876 394.444Z" fill="black"/>
<path d="M772 483H0V442.913H772V483ZM2.9228 480.076H769.077V445.837H2.9228V480.076Z" fill="black"/>
<path d="M772 444.375H769.077C769.077 327.594 729.21 217.129 656.812 133.33C584.151 49.2386 487.991 2.92391 385.985 2.92391C283.98 2.92391 187.819 49.2386 115.188 133.33C42.7898 217.129 2.9228 327.594 2.9228 444.375H0C0 326.893 40.1301 215.755 112.996 131.4C186.212 46.6655 283.161 0 385.985 0C488.81 0 585.788 46.6655 659.004 131.4C731.87 215.726 772 326.863 772 444.375Z" fill="black"/>
<path d="M752.242 444.375H749.319C749.319 206.779 589.734 20.672 385.985 20.672C182.237 20.672 22.6518 206.779 22.6518 444.375H19.729C19.729 205.141 180.629 17.7481 385.985 17.7481C591.342 17.7481 752.242 205.141 752.242 444.375Z" fill="black"/>
<path d="M750.283 445.749C750.108 445.691 732.805 439.083 703.109 430.34L703.928 427.533C733.74 436.334 751.131 442.972 751.306 443.03L750.254 445.749H750.283Z" fill="black"/>
<path d="M576.435 400.663C533.412 393.031 490.359 387.885 448.504 385.283L448.68 382.359C490.651 384.932 533.792 390.137 576.932 397.768L576.435 400.634V400.663Z" fill="black"/>
<path d="M320.105 385.517L319.93 382.593L325.308 382.242L325.483 385.166L320.105 385.517Z" fill="black"/>
<path d="M305.258 386.57L305.024 383.675L309.291 383.324L309.496 386.248L305.258 386.57Z" fill="black"/>
<path d="M282.226 388.646L281.934 385.722C285.646 385.342 289.387 384.991 293.157 384.669L293.42 387.593C289.679 387.944 285.938 388.295 282.226 388.646Z" fill="black"/>
<path d="M191.794 401.335L191.268 398.47C216.96 393.85 242.856 390.049 268.284 387.184L268.606 390.078C243.236 392.914 217.398 396.716 191.765 401.335H191.794Z" fill="black"/>
<path d="M21.7165 445.749L20.6643 443.03C20.8104 442.972 36.8859 436.861 64.5648 428.586L65.4124 431.393C37.8796 439.639 21.8919 445.72 21.7457 445.779L21.7165 445.749Z" fill="black"/>
<path d="M96.3357 441.013C94.9035 441.013 93.559 440.954 92.1853 440.896C90.7824 440.837 89.3502 440.75 87.655 440.75C79.8219 440.75 64.3018 436.071 63.6295 435.867L62.3435 435.487L62.6066 434.171C62.7527 433.469 77.0744 363.997 80.611 330.723C84.1184 297.858 84.2938 285.519 78.9743 261.339C73.6548 237.158 83.4169 201.808 83.8553 200.317L86.6612 201.106C86.5735 201.457 76.6652 237.275 81.8386 260.725C87.2458 285.315 87.0704 297.829 83.5338 331.045C80.2603 361.892 67.7507 423.645 65.734 433.469C69.6213 434.58 81.4879 437.855 87.6258 437.855C89.3502 437.855 90.8408 437.913 92.3022 438.001C97.2418 438.235 101.509 438.44 113.288 435.487C128.457 431.685 131.994 430.691 132.023 430.691L133.017 430.399L133.631 431.247C133.631 431.247 135.794 434.083 141.23 434.492C146.053 434.902 157.218 429.522 161.134 427.446L163.297 426.305V428.732C163.297 428.732 163.531 431.598 169.552 431.598C175.573 431.598 194.483 424.317 199.832 422.183C193.87 409.873 150.904 320.811 145.088 307.419C138.833 292.946 135.472 268.561 135.355 267.537L135.238 266.689L135.91 266.163C136.29 265.871 174.111 236.515 198.312 208.065C223.039 178.943 248.526 125.962 255.833 104.471C263.199 82.805 275.504 53.8291 282.547 44.765C289.27 36.1102 294.005 31.2858 294.209 31.0811L296.285 33.1278C296.285 33.1278 291.462 38.0693 284.857 46.5486C278.017 55.3495 265.888 83.9453 258.61 105.378C251.244 127.044 225.524 180.522 200.534 209.936C177.94 236.515 143.597 263.824 138.366 267.917C139.009 272.362 142.311 293.56 147.777 306.221C153.944 320.489 202.638 421.276 203.135 422.27L203.807 423.674L202.375 424.259C201.352 424.668 177.443 434.492 169.552 434.492C164.057 434.492 161.865 432.446 160.988 430.779C157.013 432.797 146.491 437.796 141.025 437.358C136.027 436.978 133.192 434.873 131.994 433.703C130.24 434.171 125.447 435.457 114.048 438.293C105.104 440.545 100.311 441.013 96.3649 441.013H96.3357Z" fill="black"/>
<path d="M100.837 278.59C92.2144 278.59 84.6735 277.332 84.2351 277.245L84.732 274.35C84.732 274.35 98.703 276.689 110.014 275.052C121.296 273.414 135.998 266.017 136.144 265.929L137.459 268.531C136.846 268.853 122.202 276.221 110.423 277.917C107.267 278.385 103.993 278.531 100.837 278.531V278.59Z" fill="black"/>
<path d="M102.152 298.765C89.7886 298.765 84.1768 295.548 83.8845 295.402L85.3751 292.888C85.3751 292.888 93.6174 297.478 112.148 295.197C130.854 292.888 139.622 286.601 139.71 286.543L141.435 288.911C141.055 289.174 132.052 295.695 112.499 298.121C108.611 298.589 105.192 298.794 102.152 298.794V298.765Z" fill="black"/>
<path d="M132.461 433.527C131.789 433.527 131.175 433.06 131.029 432.358C130.971 432.036 123.898 399.025 121.676 380.751L119.455 362.36C119.367 361.57 119.923 360.839 120.741 360.722C121.559 360.635 122.261 361.19 122.378 362.009L124.599 380.4C126.791 398.528 133.835 431.393 133.894 431.744C134.069 432.533 133.572 433.323 132.783 433.469C132.666 433.469 132.578 433.498 132.461 433.498V433.527Z" fill="black"/>
<path d="M162.8 429.288C162.333 429.288 161.894 429.083 161.602 428.674C161.485 428.498 149.589 411.569 142.954 394.289C136.787 378.266 136.729 366.862 136.729 366.365C136.729 365.547 137.372 364.903 138.19 364.903C139.009 364.903 139.652 365.547 139.652 366.365C139.652 366.482 139.739 377.739 145.673 393.236C152.161 410.166 163.882 426.803 163.999 426.978C164.466 427.65 164.32 428.557 163.648 429.025C163.385 429.2 163.092 429.288 162.8 429.288Z" fill="black"/>
<path d="M95.9849 278.473C95.6341 278.473 95.3126 278.356 95.0203 278.122C94.4065 277.596 94.3481 276.66 94.8742 276.046C95.0496 275.871 111.271 257.216 120.77 243.327C131.965 226.983 151.986 183.826 152.161 183.387C152.512 182.656 153.359 182.335 154.09 182.686C154.821 183.037 155.142 183.884 154.792 184.615C153.973 186.399 134.478 228.416 123.138 244.965C113.551 259 97.1832 277.771 97.0371 277.946C96.7448 278.268 96.3356 278.444 95.9264 278.444L95.9849 278.473Z" fill="black"/>
<path d="M124.745 273.005C124.336 273.005 123.956 272.83 123.664 272.537C123.108 271.952 123.167 271.017 123.751 270.461C123.839 270.403 131.438 263.415 140.85 249.643C151.927 233.445 154.353 227.158 154.382 227.1C154.675 226.34 155.493 225.959 156.253 226.252C157.013 226.544 157.393 227.363 157.101 228.123C157.013 228.386 154.616 234.673 143.246 251.28C133.601 265.374 126.002 272.333 125.68 272.625C125.388 272.888 125.037 273.005 124.687 273.005H124.745Z" fill="black"/>
<path d="M125.71 333.062C125.242 333.062 124.804 332.857 124.511 332.419C124.307 332.126 123.284 330.431 121.589 324.027C119.397 315.84 118.14 307.127 117.789 298.121V297.186C117.731 296.367 118.344 295.695 119.163 295.665C119.981 295.636 120.653 296.25 120.683 297.069V298.004C121.063 306.776 122.29 315.285 124.424 323.267C126.002 329.203 126.908 330.723 126.967 330.781C127.376 331.454 127.2 332.36 126.528 332.799C126.265 332.974 126.002 333.033 125.71 333.033V333.062Z" fill="black"/>
<path d="M104.139 315.168H104.11C103.292 315.168 102.678 314.466 102.678 313.677C102.678 313.063 102.707 312.449 102.736 311.776C102.824 309.378 102.97 306.104 102.736 299.349V298.414C102.678 297.595 103.292 296.923 104.11 296.893C104.87 296.806 105.601 297.478 105.63 298.297V299.233C105.922 306.104 105.805 309.437 105.688 311.893C105.688 312.536 105.63 313.15 105.63 313.735C105.63 314.525 104.958 315.168 104.169 315.168H104.139Z" fill="black"/>
<path d="M185.89 191.282C185.656 191.282 185.393 191.223 185.16 191.077C184.458 190.668 184.224 189.791 184.633 189.089C184.809 188.797 201.966 158.973 216.667 123.301C224.179 105.027 232.187 58.098 232.275 57.6302C232.421 56.8408 233.181 56.3145 233.97 56.4314C234.76 56.5776 235.315 57.3086 235.169 58.1273C234.847 60.0571 227.043 105.816 219.386 124.412C204.625 160.289 187.352 190.259 187.176 190.551C186.913 191.019 186.416 191.282 185.92 191.282H185.89Z" fill="black"/>
<path d="M92.156 441.013C91.4253 441.013 90.7823 440.457 90.6946 439.726C90.6946 439.609 89.3501 427.797 89.9054 409.376C90.4608 390.458 97.4463 362.126 97.5047 361.863C97.7093 361.073 98.4985 360.605 99.2876 360.781C100.077 360.985 100.544 361.775 100.369 362.564C100.311 362.857 93.4128 390.868 92.8575 409.464C92.3021 427.65 93.6174 439.288 93.6466 439.405C93.7343 440.194 93.1498 440.925 92.3606 441.013C92.3021 441.013 92.2437 441.013 92.1852 441.013H92.156Z" fill="black"/>
<path d="M88.0349 289.496C85.5213 289.496 84.2937 289.116 84.1768 289.087C83.4169 288.853 82.9784 288.005 83.2415 287.244C83.4753 286.484 84.2937 286.075 85.0536 286.309C85.1705 286.338 91.9222 288.18 108.261 281.748C125.038 275.14 132.52 267.801 132.608 267.742C133.192 267.157 134.098 267.186 134.683 267.742C135.267 268.298 135.267 269.233 134.683 269.818C134.361 270.14 126.762 277.654 109.342 284.496C98.7031 288.677 91.8638 289.525 88.0349 289.525V289.496Z" fill="black"/>
<path d="M97.8847 298.618C97.1832 298.618 96.5694 298.121 96.4525 297.39C96.3356 296.601 96.8617 295.841 97.6509 295.724C97.797 295.724 112.645 293.239 124.921 284.818L137.635 276.075C138.307 275.607 139.213 275.783 139.681 276.455C140.148 277.128 139.973 278.034 139.301 278.502L126.587 287.244C113.756 296.045 98.7615 298.531 98.1478 298.648C98.0601 298.648 98.0016 298.648 97.9139 298.648L97.8847 298.618Z" fill="black"/>
<path d="M347.258 355.488C345.943 355.488 344.628 355.225 343.4 354.699C336.794 351.863 334.602 342.126 338.519 333.004C342.436 323.881 350.999 318.735 357.605 321.571C360.908 322.975 363.187 326.074 364.064 330.314C364.912 334.349 364.327 338.939 362.486 343.296C359.3 350.723 353.045 355.518 347.258 355.518V355.488ZM353.659 323.706C349.07 323.706 343.926 327.828 341.208 334.173C337.934 341.834 339.425 349.845 344.569 352.038C349.684 354.231 356.523 349.787 359.797 342.155C361.434 338.354 361.931 334.378 361.2 330.928C360.528 327.682 358.832 325.314 356.436 324.29C355.559 323.91 354.594 323.735 353.63 323.735L353.659 323.706Z" fill="black"/>
<path d="M343.985 354.816C343.809 354.816 343.634 354.816 343.488 354.728L228.388 312.361L228.125 311.864C227.745 311.133 218.976 293.911 224.091 276.572C229.206 259.117 248.438 251.397 249.227 251.076L249.929 250.783L354.127 320.138C354.799 320.577 354.975 321.483 354.536 322.156C354.098 322.828 353.192 323.004 352.519 322.565L249.607 254.087C246.188 255.608 231.077 263.122 226.868 277.42C222.572 292.04 229.089 307.127 230.463 310.022L344.482 351.98C345.242 352.272 345.622 353.091 345.358 353.851C345.154 354.436 344.569 354.816 343.985 354.816Z" fill="black"/>
<path d="M267.846 429.288H253.319L287.253 332.507C287.516 331.746 288.364 331.337 289.124 331.6C289.884 331.863 290.293 332.711 290.03 333.472L257.47 426.364H265.829L297.366 338.735C297.687 337.828 298.506 337.273 299.5 337.331C300.464 337.39 301.224 338.091 301.399 339.027L317.621 422.534L325.22 421.481C326.009 421.364 326.769 421.92 326.857 422.738C326.945 423.557 326.419 424.288 325.6 424.376L315.254 425.808L299.09 342.477L267.875 429.288H267.846Z" fill="black"/>
<path d="M325.396 415.429C324.694 415.429 324.08 414.932 323.963 414.23L310.723 341.892C310.577 341.103 311.103 340.343 311.892 340.197C312.711 340.05 313.441 340.577 313.587 341.366L326.828 413.704C326.974 414.493 326.448 415.253 325.659 415.399C325.571 415.399 325.483 415.399 325.396 415.399V415.429Z" fill="black"/>
<path d="M291.9 434.99L291.754 354.407C291.754 353.588 292.397 352.945 293.216 352.945C294.034 352.945 294.677 353.588 294.677 354.407L294.794 431.773L306.865 430.574L301.487 354.991C301.429 354.173 302.042 353.5 302.832 353.442C303.621 353.354 304.322 353.997 304.381 354.787L309.963 433.206L291.842 434.99H291.9Z" fill="black"/>
<path d="M450.053 437.416H432.137V385.897H340.477V437.416H323.934V367.974H450.053V437.416ZM435.059 434.492H447.13V370.897H326.857V434.492H337.555V382.973H435.059V434.492Z" fill="black"/>
<path d="M350.123 420.428H339.045C338.227 420.428 337.584 419.785 337.584 418.966C337.584 418.148 338.227 417.504 339.045 417.504H347.2V384.435C347.2 383.616 347.843 382.973 348.661 382.973C349.48 382.973 350.123 383.616 350.123 384.435V420.428Z" fill="black"/>
<path d="M432.896 420.428H421.819V384.435C421.819 383.616 422.462 382.973 423.28 382.973C424.099 382.973 424.742 383.616 424.742 384.435V417.504H432.896C433.715 417.504 434.358 418.148 434.358 418.966C434.358 419.785 433.715 420.428 432.896 420.428Z" fill="black"/>
<path d="M448.592 370.897C448.241 370.897 447.89 370.78 447.598 370.517L415.681 341.015H362.223C361.405 341.015 360.762 340.372 360.762 339.553C360.762 338.734 361.405 338.091 362.223 338.091H416.821L449.586 368.383C450.17 368.938 450.2 369.845 449.673 370.459C449.381 370.78 449.001 370.927 448.592 370.927V370.897Z" fill="black"/>
<path d="M325.396 370.897C325.045 370.897 324.665 370.78 324.402 370.488C323.817 369.933 323.788 369.026 324.343 368.412L339.396 352.331C339.951 351.746 340.857 351.717 341.471 352.272C342.056 352.828 342.085 353.734 341.53 354.348L326.477 370.43C326.185 370.722 325.805 370.897 325.425 370.897H325.396Z" fill="black"/>
<path d="M539.842 439.258C509.854 439.258 486.354 430.691 486.354 419.756C486.354 408.82 509.854 400.253 539.842 400.253C569.83 400.253 593.329 408.82 593.329 419.756C593.329 430.691 569.83 439.258 539.842 439.258ZM539.842 403.177C509.591 403.177 489.277 411.744 489.277 419.756C489.277 427.767 509.591 436.334 539.842 436.334C570.093 436.334 590.406 427.767 590.406 419.756C590.406 411.744 570.093 403.177 539.842 403.177Z" fill="black"/>
<path d="M705.009 437.416H663.798V434.492H702.028L698.141 224.147L701.064 224.088L705.009 437.416Z" fill="black"/>
<path d="M692.12 208.65H663.798V211.574H692.12V208.65Z" fill="black"/>
</g>
<defs>
<clipPath id="clip0_25_2">
<rect width="772" height="483" fill="white"/>
</clipPath>
</defs>
</svg>
