<svg width="467" height="332" viewBox="0 0 467 332" fill="none" xmlns="http://www.w3.org/2000/svg">
<path d="M2.19241 329.797C2.19241 329.797 175.741 321.061 294.081 211.62C412.421 102.179 463.492 2.04736 463.492 2.04736L1.70239 3.4123L2.16519 329.77L2.19241 329.797Z" fill="#736ADC"/>
<path d="M0.831329 331.216L0.341309 2.07461L465.724 0.682373L464.717 2.67519C464.2 3.68524 412.176 104.254 295.034 212.603C177.674 321.143 3.98924 331.08 2.24694 331.162L0.831329 331.244V331.216ZM3.06364 4.77719L3.52644 328.323C20.4049 327.149 182.193 313.199 293.156 210.583C354.19 154.156 396.904 100.296 422.004 65.0257C444.844 32.9496 457.612 10.0732 461.205 3.41225L3.06364 4.77719Z" fill="#231F20"/>
<path d="M2.19241 289.859C2.19241 289.859 175.741 281.123 294.081 171.682C412.421 62.2412 463.492 2.04736 463.492 2.04736L1.70239 4.77724L2.16519 289.859H2.19241Z" fill="#958EEE"/>
<path d="M0.831329 291.305L0.341309 3.43955L466.459 0.682373L464.526 2.94817C464.009 3.54875 412.067 64.4251 295.007 172.692C177.674 281.205 3.98924 291.142 2.24694 291.224L0.831329 291.305ZM3.06364 6.14213L3.52644 288.412C20.4049 287.238 182.193 273.288 293.156 170.672C397.503 74.1981 450.044 15.3964 460.497 3.43955L3.06364 6.14213Z" fill="#231F20"/>
</svg>
