<svg width="737" height="327" viewBox="0 0 737 327" fill="none" xmlns="http://www.w3.org/2000/svg">
<path d="M0.771973 2.42959C0.771973 2.42959 221.717 24.9784 307.851 159.043C393.986 293.107 511.074 328.978 581.092 325.265C651.11 321.553 734.931 253.606 734.931 253.606L735.394 145.939C735.394 145.939 632.19 231.876 550.166 212.166C485.021 196.524 507.643 107.093 438.877 51.4582C364.449 -8.76291 305.401 2.04741 305.401 2.04741L0.771973 2.42959Z" fill="#F4A9D4"/>
<path d="M571.346 326.876C545.293 326.876 501.491 321.744 449.903 295.045C393.931 266.081 345.746 220.574 306.708 159.78C282.261 121.753 230.319 68.6564 121.643 31.7757C56.5252 9.69097 1.18021 3.84902 0.635742 3.79442L0.771867 1.06454L305.401 0.68236C305.755 0.600464 365.673 -9.52739 439.721 50.4208C472.743 77.1463 484.857 111.515 495.529 141.817C507.072 174.548 517.035 202.83 550.466 210.856C573.605 216.398 613.624 216.479 672.834 185.277C708.361 166.55 734.25 145.12 734.495 144.902L736.728 143.046L736.238 254.261L735.748 254.67C734.904 255.353 650.784 322.917 581.146 326.63C578.233 326.794 574.939 326.876 571.319 326.876H571.346ZM20.1277 3.76713C41.988 7.31597 80.1551 14.8231 122.433 29.155C182.869 49.6564 264.267 88.6937 308.967 158.306C347.761 218.663 395.565 263.87 451.128 292.616C509.331 322.754 557.489 325.129 581.01 323.9C647 320.379 726.492 258.547 733.543 252.951L734.005 148.806C726.954 154.402 703.896 171.955 674.168 187.652C614.195 219.291 573.442 219.182 549.839 213.504C514.966 205.123 504.785 176.214 492.97 142.718C482.407 112.744 470.429 78.7569 438.006 52.5228C364.993 -6.55182 306.245 3.30305 305.646 3.41224L20.1277 3.79442V3.76713Z" fill="#231F20"/>
<path d="M142.85 3.46675C142.85 3.46675 327.098 86.1275 383.314 163.41C439.53 240.693 455.728 264.853 523.161 278.966C624.459 300.177 707.299 241.949 733.624 216.916L733.815 206.215L669.758 239.274C664.776 241.813 659.577 243.833 654.159 245.28C630.366 251.64 563.233 266.982 530.729 247.272C455.129 201.41 463.242 158.742 405.991 105.537C345.719 49.5198 302.298 18.8906 266.826 3.43945H142.823L142.85 3.46675Z" fill="#EC84C3"/>
</svg>
