<svg width="851" height="213" viewBox="0 0 851 213" fill="none" xmlns="http://www.w3.org/2000/svg">
<path d="M1.90722 210.864C1.90722 210.864 223.379 218.466 385.023 181.294C571.378 138.398 844.656 1.49023 844.656 1.49023L1.40234 2.89298L1.87917 210.864H1.90722Z" fill="#EC84C3"/>
<path d="M49.5899 212.855C20.4755 212.855 2.46828 212.266 1.85121 212.266L0.504875 212.21L0 1.49014H1.40243L850.602 0.0874023L845.273 2.75261C842.524 4.1273 569.723 140.221 385.304 182.64C270.388 209.068 123.835 212.855 49.5619 212.855H49.5899ZM3.28169 209.489C22.1023 210.05 231.597 215.128 384.687 179.919C480.865 157.784 600.605 110.119 684.133 74.04C760.145 41.1878 820.73 11.7302 838.625 2.92094L2.80486 4.29563L3.28169 209.489Z" fill="#231F20"/>
</svg>
