<svg width="715" height="229" viewBox="0 0 715 229" fill="none" xmlns="http://www.w3.org/2000/svg">
<path d="M2.9314 2.61243C2.9314 2.61243 47.6128 128.775 186.313 192.544C325.013 256.312 461.049 218.999 524.776 184.548C588.502 150.097 711.972 1.49023 711.972 1.49023H640.672C640.672 1.49023 493.221 141.849 345.685 138.398C198.15 134.947 165.697 33.8094 165.697 33.8094L161.406 2.61243H2.9314Z" fill="#72B8DC"/>
<path d="M346.274 228.566C295.002 228.566 239.97 218.747 185.752 193.806C48.0896 130.542 2.06188 4.35174 1.61311 3.08927L0.939941 1.2096H162.612L167.072 33.6129C167.352 34.3704 200.926 133.628 345.685 136.995C347.452 137.023 349.219 137.051 350.958 137.051C494.483 137.051 638.232 1.85486 639.663 0.480171L640.083 0.0874023H714.945L713.038 2.3879C711.804 3.87481 588.698 151.584 525.449 185.782C481.413 209.601 417.49 228.566 346.274 228.566ZM4.97894 4.01508C11.2618 19.9222 59.5615 132.731 186.902 191.281C315.533 250.421 448.96 223.937 524.131 183.314C582.584 151.724 693.039 21.858 708.971 2.89289H641.205C632.426 11.0849 488.369 143.111 345.629 139.801C198.795 136.378 164.688 35.2401 164.351 34.2301L160.172 4.01508H4.97894Z" fill="#231F20"/>
</svg>
