<svg width="1142" height="317" viewBox="0 0 1142 317" fill="none" xmlns="http://www.w3.org/2000/svg">
<path d="M12.5391 3.03311C12.5391 3.03311 197.099 33.9215 338.492 146.842C479.885 259.763 576.484 312.113 683.378 314.666C869.144 319.099 953.542 183.762 1003.19 108.351C1052.83 32.9396 1140.43 27.5531 1140.43 27.5531L1136.95 1.63037L1004.62 3.03311C1004.62 3.03311 903.98 143.448 779.276 184.548C654.572 225.648 585.881 169.398 460.868 99.2051C260.461 -13.2948 12.5391 3.03311 12.5391 3.03311Z" fill="#F4A9D4"/>
<path d="M692.325 316.181C689.352 316.181 686.378 316.153 683.349 316.069C581.701 313.628 487.991 268.067 337.622 147.936C198.164 36.5305 14.1377 4.71627 12.3145 4.40767L0.421875 2.41577L12.4547 1.63024C14.923 1.46191 263.097 -13.4352 461.541 97.9706C477.304 106.836 492.086 115.421 506.391 123.697C605.15 181.041 670.419 218.915 778.799 183.173C901.651 142.69 1002.46 3.59408 1003.44 2.19133L1003.86 1.60218L1138.16 0.171387L1142 28.8154L1140.49 28.8995C1139.62 28.9557 1053 35.1277 1004.34 109.08L1000.8 114.439C951.045 190.187 868.33 316.125 692.297 316.125L692.325 316.181ZM24.5437 3.95879C67.5702 12.9924 219.762 50.1932 339.361 145.748C489.197 265.43 582.458 310.851 683.405 313.263C864.094 317.5 948.212 189.485 998.475 112.952L1002.01 107.593C1047.9 37.8771 1126.97 27.4687 1138.83 26.2904L1135.72 3.06104L1005.32 4.43572C998.054 14.3391 899.351 146.449 779.696 185.866C670.11 221.973 604.42 183.846 504.988 126.138C490.711 117.833 475.93 109.277 460.166 100.411C287.275 3.36964 76.4055 2.49994 24.5437 3.95879Z" fill="#231F20"/>
</svg>
