<svg width="562" height="214" viewBox="0 0 562 214" fill="none" xmlns="http://www.w3.org/2000/svg">
<path d="M2.19241 205.778C2.19241 205.778 76.131 232.75 226.921 176.159C377.657 119.541 556.977 2.04736 556.977 2.04736L1.70239 3.4123L2.16519 205.778H2.19241Z" fill="#0F275E"/>
<path d="M55.3052 213.422C19.9693 213.422 2.0836 207.198 1.7297 207.061L0.831329 206.734L0.341309 2.07461H1.70248L561.578 0.682373L557.739 3.19386C555.942 4.36771 376.568 121.425 227.384 177.415C150.315 206.352 92.9007 213.395 55.3052 213.395V213.422ZM3.55366 204.796C12.4012 207.525 86.721 227.344 226.431 174.876C363.12 123.554 525.316 20.8289 552.349 3.43955L3.06364 4.77719L3.52644 204.768L3.55366 204.796Z" fill="#231F20"/>
</svg>
