<svg width="1018" height="294" viewBox="0 0 1018 294" fill="none" xmlns="http://www.w3.org/2000/svg">
<path d="M1016.64 205.778C1016.64 205.778 877.201 424.141 529.994 165.922C400.683 69.7484 0.963135 2.04736 0.963135 2.04736L1016.15 3.4123L1016.61 205.778H1016.64Z" fill="#C5FFCC"/>
<path d="M833.807 293.462C744.405 293.462 642.209 251.094 529.178 167.014C401.609 72.1507 4.71997 4.09477 0.745361 3.4123L0.963153 0.709717L1017.51 2.07466L1018 206.188L1017.78 206.515C1017.37 207.171 975.014 272.005 881.72 289.176C866.203 292.043 850.223 293.462 833.807 293.462ZM16.5349 3.4396C91.1813 17.0617 417.126 80.2857 530.811 164.83C663.933 263.843 781.81 304.764 881.175 286.501C969.896 270.204 1011.96 210.337 1015.3 205.369L1014.84 4.77724L16.5621 3.4396H16.5349Z" fill="#231F20"/>
</svg>
