<svg width="617" height="404" viewBox="0 0 617 404" fill="none" xmlns="http://www.w3.org/2000/svg">
<path d="M1.8791 402.787C1.8791 402.787 31.9191 197.201 181.446 119.124C330.973 41.0476 453.293 14.2832 494.469 11.6741C535.644 9.06504 616.284 1.49023 616.284 1.49023H459.885C459.885 1.49023 215.525 33.5569 123.526 84.1959C31.5265 134.835 1.823 178.685 1.823 178.685L1.8791 402.787Z" fill="#FAE690"/>
<path d="M3.25356 403.011L0.476751 402.815L0.420654 178.264L0.673092 177.899C0.981626 177.45 31.6388 133.208 122.881 82.9614C214.039 32.7713 457.276 0.42406 459.716 0.0874023H616.284L616.424 2.86483C615.611 2.949 535.308 10.4677 494.553 13.0487C445.636 16.1348 322.026 47.2756 182.091 120.359C34.9204 197.201 3.5621 400.963 3.25356 403.011ZM3.22551 179.133L3.28161 387.861C13.6035 339.242 55.6764 183.201 180.801 117.862C337.705 35.9415 460.362 12.4315 494.385 10.2713C519.039 8.70024 558.223 5.33366 585.458 2.89289H459.885C457.613 3.20149 214.936 35.4926 124.199 85.4302C37.8936 132.955 6.25476 174.925 3.22551 179.133Z" fill="#231F20"/>
</svg>
