<svg width="734" height="262" viewBox="0 0 734 262" fill="none" xmlns="http://www.w3.org/2000/svg">
<path d="M2.40356 1.49023C2.40356 1.49023 58.0801 138.398 191.311 228.398C266.145 278.953 420.384 278.223 512.131 158.205C603.878 38.186 724.459 1.63051 724.459 1.63051L2.40356 1.49023Z" fill="#091C45"/>
<path d="M306.955 261.531C263.003 261.531 221.295 250.337 190.554 229.576C58.4727 140.362 1.67421 3.39787 1.11324 2.02319L0.327881 0.0874023H2.40345L733.911 0.227677L724.879 2.97705C723.673 3.34176 603.681 40.795 513.281 159.046C471.797 213.332 412.25 248.709 345.606 258.641C332.676 260.577 319.717 261.531 306.955 261.531ZM4.53517 2.89289C11.94 19.8661 69.3275 144.289 192.124 227.247C231.224 253.647 288.443 264.364 345.185 255.891C411.072 246.044 469.974 211.06 511.037 157.363C588.591 55.9165 687.827 13.5818 716.184 3.03316L4.53517 2.89289Z" fill="#231F20"/>
</svg>
