<svg width="95" height="66" viewBox="0 0 95 66" fill="none" xmlns="http://www.w3.org/2000/svg">
<path d="M85.4586 31.1069C84.1178 23.3217 84.925 17.4794 80.6699 13.58C76.4147 9.68059 68.3833 3.5236 62.3357 1.56705C57.1912 -0.0884975 49.5018 1.07451 47.3126 1.45761C45.1235 1.07451 37.4341 -0.0884975 32.2896 1.56705C26.242 3.50992 18.2106 9.68059 13.9554 13.58C9.70027 17.4794 10.5075 23.3217 9.16667 31.1069C7.82581 38.8921 2.81815 49.2769 2.81815 49.2769H91.8208C91.8208 49.2769 86.8131 38.8921 85.4723 31.1069H85.4586Z" fill="#CEE4C6"/>
<path d="M85.4586 33.2413L54.7831 36.3062C49.9944 36.7851 45.1645 36.7851 40.3758 36.3062L9.70031 33.2413L3.35175 49.2769H91.8072L85.4586 33.2413Z" fill="#A4C995"/>
<path d="M85.4586 31.1069C84.1178 23.3217 84.925 17.4794 80.6699 13.58C76.4147 9.68059 68.3833 3.5236 62.3357 1.56705C57.1912 -0.0884975 49.5018 1.07451 47.3126 1.45761C45.1235 1.07451 37.4341 -0.0884975 32.2896 1.56705C26.242 3.50992 18.2106 9.68059 13.9554 13.58C9.70027 17.4794 10.5075 23.3217 9.16667 31.1069C7.82581 38.8921 2.81815 49.2769 2.81815 49.2769H91.8208C91.8208 49.2769 86.8131 38.8921 85.4723 31.1069H85.4586Z" stroke="#221F20" stroke-width="1.31349" stroke-miterlimit="10"/>
<path d="M90.0422 45.6648H4.88417C2.94971 45.6648 1.38153 47.233 1.38153 49.1674V61.3993C1.38153 63.3338 2.94971 64.902 4.88417 64.902H90.0422C91.9767 64.902 93.5449 63.3338 93.5449 61.3993V49.1674C93.5449 47.233 91.9767 45.6648 90.0422 45.6648Z" fill="#CEE4C6" stroke="#221F20" stroke-width="1.27244" stroke-miterlimit="10"/>
<path d="M6.32086 45.6648V64.902" stroke="#221F20" stroke-width="1.27244" stroke-miterlimit="10"/>
<path d="M11.1644 45.6648V64.902" stroke="#221F20" stroke-width="1.27244" stroke-miterlimit="10"/>
<path d="M16.0078 45.6648V64.902" stroke="#221F20" stroke-width="1.27244" stroke-miterlimit="10"/>
<path d="M20.8377 45.6648V64.902" stroke="#221F20" stroke-width="1.27244" stroke-miterlimit="10"/>
<path d="M25.6812 45.6648V64.902" stroke="#221F20" stroke-width="1.27244" stroke-miterlimit="10"/>
<path d="M30.5247 45.6648V64.902" stroke="#221F20" stroke-width="1.27244" stroke-miterlimit="10"/>
<path d="M35.3682 45.6648V64.902" stroke="#221F20" stroke-width="1.27244" stroke-miterlimit="10"/>
<path d="M40.198 45.6648V64.902" stroke="#221F20" stroke-width="1.27244" stroke-miterlimit="10"/>
<path d="M45.0415 45.6648V64.902" stroke="#221F20" stroke-width="1.27244" stroke-miterlimit="10"/>
<path d="M49.885 45.6648V64.902" stroke="#221F20" stroke-width="1.27244" stroke-miterlimit="10"/>
<path d="M54.7285 45.6648V64.902" stroke="#221F20" stroke-width="1.27244" stroke-miterlimit="10"/>
<path d="M59.572 45.6648V64.902" stroke="#221F20" stroke-width="1.27244" stroke-miterlimit="10"/>
<path d="M64.4018 45.6648V64.902" stroke="#221F20" stroke-width="1.27244" stroke-miterlimit="10"/>
<path d="M69.2453 45.6648V64.902" stroke="#221F20" stroke-width="1.27244" stroke-miterlimit="10"/>
<path d="M74.0889 45.6648V64.902" stroke="#221F20" stroke-width="1.27244" stroke-miterlimit="10"/>
<path d="M78.9323 45.6648V64.902" stroke="#221F20" stroke-width="1.27244" stroke-miterlimit="10"/>
<path d="M83.7758 45.6648V64.902" stroke="#221F20" stroke-width="1.27244" stroke-miterlimit="10"/>
<path d="M88.6057 45.6648V64.902" stroke="#221F20" stroke-width="1.27244" stroke-miterlimit="10"/>
</svg>
