<svg width="104" height="125" viewBox="0 0 104 125" fill="none" xmlns="http://www.w3.org/2000/svg">
<path d="M15.119 72.1257C15.119 72.1257 9.87869 63.5606 4.93942 65.1614C0.000143933 66.7622 0.301154 75.5462 1.81988 79.3772C3.3386 83.2083 9.18091 87.4497 11.8079 88.4485C14.4349 89.4473 16.7472 88.4485 16.7472 88.4485L15.1327 72.112L15.119 72.1257Z" fill="#E4C0A4" stroke="#221F20" stroke-width="1.36822" stroke-miterlimit="10"/>
<path d="M88.8798 72.1257C88.8798 72.1257 94.12 63.5606 99.0593 65.1614C103.999 66.7622 103.698 75.5462 102.179 79.3772C100.66 83.2083 94.8178 87.4497 92.1909 88.4485C89.5639 89.4473 87.2516 88.4485 87.2516 88.4485L88.8661 72.112L88.8798 72.1257Z" fill="#E4C0A4" stroke="#221F20" stroke-width="1.36822" stroke-miterlimit="10"/>
<path d="M54.3459 15.1119L7.79901 56.5964C7.79901 56.5964 17.144 97.8345 18.2933 101.72C19.4426 105.606 35.1087 118.536 40.5679 121.122C46.0271 123.708 52.0062 123.708 52.0062 123.708C52.0062 123.708 57.9853 123.708 63.4445 121.122C68.9037 118.536 84.5698 105.606 85.7191 101.72C86.8684 97.8345 97.0207 51.9034 97.0207 51.9034L54.3459 15.1119Z" fill="#FAE5CA"/>
<path d="M34.4246 67.9663C34.4246 67.9663 40.2669 47.3746 52.0063 46.5126C57.1508 46.1295 62.9383 47.3199 68.0555 48.9617C68.5617 49.1259 69.3006 69.3209 69.7794 69.4987C75.6765 71.5511 81.6009 55.2829 81.6009 55.2829C84.3236 57.6226 89.0166 69.0609 89.0166 69.0609C89.0166 69.0609 91.9993 46.7999 83.8584 37.5645C75.7175 28.329 57.356 26.5092 51.2401 27.4123C45.1241 28.3153 11.2744 65.5582 11.2744 65.5582L34.4109 67.9663H34.4246Z" fill="#E4C0A4"/>
<path d="M56.9181 15.1119L7.79901 56.5964C7.79901 56.5964 17.144 97.8345 18.2933 101.72C19.4426 105.606 35.1087 118.536 40.5679 121.122C46.0271 123.708 52.0062 123.708 52.0062 123.708C52.0062 123.708 57.9853 123.708 63.4445 121.122C68.9037 118.536 84.5698 105.606 85.7191 101.72C86.8684 97.8345 97.0207 51.9034 97.0207 51.9034L56.9181 15.1119Z" stroke="#221F20" stroke-width="1.36822" stroke-miterlimit="10"/>
<path d="M68.0554 85.329C70.3148 85.329 72.1464 83.1115 72.1464 80.3761C72.1464 77.6406 70.3148 75.4231 68.0554 75.4231C65.796 75.4231 63.9644 77.6406 63.9644 80.3761C63.9644 83.1115 65.796 85.329 68.0554 85.329Z" fill="#221F20"/>
<path d="M35.957 85.329C38.2163 85.329 40.0479 83.1115 40.0479 80.3761C40.0479 77.6406 38.2163 75.4231 35.957 75.4231C33.6976 75.4231 31.866 77.6406 31.866 80.3761C31.866 83.1115 33.6976 85.329 35.957 85.329Z" fill="#221F20"/>
<path d="M52.0062 88.2023L48.4489 95.6864H55.5499L52.0062 88.2023Z" fill="#E4C0A4"/>
<path d="M48.5856 101.693L42.8391 103.95L52.0062 105.018L62.2815 103.937L55.4678 101.57C53.2376 100.79 50.7885 100.845 48.5856 101.707V101.693Z" fill="#E4C0A4"/>
<path d="M62.5004 102.117C61.5563 102.117 60.7764 102.733 60.5986 103.54C54.9068 104.648 49.1192 104.676 43.4137 103.636C43.2906 102.788 42.4833 102.117 41.4982 102.117C40.431 102.117 39.569 102.897 39.569 103.855C39.569 104.813 40.431 105.592 41.4982 105.592C42.1139 105.592 42.6475 105.332 43.0033 104.936C45.9039 105.469 48.8182 105.757 51.7325 105.757C54.7973 105.757 57.8758 105.456 60.9133 104.854C61.269 105.291 61.8437 105.592 62.4867 105.592C63.5539 105.592 64.4159 104.813 64.4159 103.855C64.4159 102.897 63.5539 102.117 62.4867 102.117H62.5004Z" fill="#221F20"/>
<path d="M77.0856 103.937C80.6749 103.937 83.5846 101.027 83.5846 97.4378C83.5846 93.8484 80.6749 90.9387 77.0856 90.9387C73.4963 90.9387 70.5865 93.8484 70.5865 97.4378C70.5865 101.027 73.4963 103.937 77.0856 103.937Z" fill="#E99A7E"/>
<path d="M26.9267 103.937C30.516 103.937 33.4258 101.027 33.4258 97.4378C33.4258 93.8484 30.516 90.9387 26.9267 90.9387C23.3374 90.9387 20.4277 93.8484 20.4277 97.4378C20.4277 101.027 23.3374 103.937 26.9267 103.937Z" fill="#E99A7E"/>
<path d="M48.4489 110.313L48.7909 110.395C50.898 110.901 53.0871 110.874 55.1805 110.313" stroke="#221F20" stroke-width="1.36822" stroke-miterlimit="10" stroke-linecap="round"/>
<path d="M54.1406 101.392L53.9217 101.351C52.5809 101.091 51.1989 101.118 49.8718 101.392" stroke="#221F20" stroke-width="1.36822" stroke-miterlimit="10" stroke-linecap="round"/>
<path d="M62.2542 69.4166C62.2542 69.4166 62.8014 71.7837 66.0988 72.0026C69.3963 72.2215 75.6627 71.2364 78.6317 72.0026L81.6008 72.7688C81.6008 72.7688 71.5991 67.7064 67.7407 67.7064C63.8823 67.7064 62.2405 69.403 62.2405 69.403L62.2542 69.4166Z" fill="#5B3E36"/>
<path d="M41.7582 69.4166C41.7582 69.4166 41.2109 71.7837 37.9135 72.0026C34.6161 72.2215 28.3496 71.2364 25.3806 72.0026L22.4116 72.7688C22.4116 72.7688 32.4132 67.7064 36.2716 67.7064C40.13 67.7064 41.7719 69.403 41.7719 69.403L41.7582 69.4166Z" fill="#5B3E36"/>
<path d="M6.97809 58.6213L12.4373 76.9418L15.5979 63.0407L6.97809 58.6213Z" fill="#5B3E36" stroke="#221F20" stroke-width="1.36822" stroke-miterlimit="10"/>
<path d="M85.9106 58.6214L91.3699 76.9418L97.8826 48.2913L85.9106 58.6214Z" fill="#5B3E36" stroke="#221F20" stroke-width="1.36822" stroke-miterlimit="10"/>
<path d="M56.7813 20.2154C56.7813 20.2154 58.04 21.6384 60.2429 26.3587C62.4457 31.0791 62.6099 37.0719 62.6099 37.0719C62.6099 37.0719 55.6867 30.9286 53.005 31.4074C50.3233 31.8863 44.5084 39.2747 43.2496 47.4704C41.9908 55.666 43.2496 69.5124 43.2496 69.5124L26.5573 65.4214V64.1626C26.5573 62.9039 25.7637 48.8933 25.7637 48.8933C25.7637 48.8933 23.8756 52.0402 22.9315 55.9807C21.9874 59.9212 21.6728 65.2709 21.6728 65.2709C21.6728 65.2709 19.6204 65.2709 16.7882 64.4773C13.956 63.6838 2.92814 58.4982 2.92814 58.4982C2.92814 58.4982 0.410625 35.5121 11.4248 20.2428C22.439 4.97344 35.2044 0.718276 44.3305 1.03297C53.4565 1.34766 59.1346 4.97345 59.1346 4.97345C59.1346 4.97345 66.5367 1.66235 74.2535 3.2358C81.9702 4.80925 91.4109 11.8966 97.4037 23.7044C103.397 35.5121 102.603 47.6345 102.603 47.6345L83.872 65.5856C83.872 65.5856 85.6097 49.6869 84.6656 45.7464L83.7215 41.8059C83.7215 41.8059 80.2599 55.3513 76.4836 61.0157C72.7074 66.6802 70.8192 67.4737 70.8192 67.4737C70.8192 67.4737 72.078 41.1765 69.8752 36.4562C67.6723 31.7358 62.6373 37.0856 62.6373 37.0856" fill="#75594F"/>
<path d="M10.6859 21.3101C10.6859 21.3101 8.03161 42.9553 8.79781 48.264C9.56402 53.5727 18.1017 57.0206 18.1017 57.0206L22.4116 58.1699L21.6864 65.2436L15.1874 63.6154L2.94181 58.4846C2.94181 58.4846 1.87461 49.1533 3.50279 41.4913C5.13097 33.8293 8.79781 24.5117 8.79781 24.5117L10.6859 21.3237V21.3101Z" fill="#5B3E36"/>
<path d="M59.1483 4.93237C59.1483 4.93237 70.053 12.6765 72.7757 28.8352C73.5693 33.5555 71.9274 46.4989 71.9274 46.4989L69.5741 36.0046C69.2457 34.8827 66.9061 34.4996 65.8115 34.9101L62.6235 37.0445L62.8151 27.4122C62.7604 25.9482 60.1744 10.5831 59.9145 9.14648L59.1483 4.93237Z" fill="#5B3E36"/>
<path d="M59.1482 4.93237C59.1482 4.93237 57.3285 26.2219 56.4802 28.2195C55.6319 30.2171 54.592 31.6263 54.592 31.6263L62.9245 37.5507C62.9245 37.5507 63.4034 32.7893 62.9245 26.1124C62.4456 19.4355 59.1482 4.93237 59.1482 4.93237Z" fill="#5B3E36"/>
<path d="M92.957 16.5076C92.957 16.5076 96.5828 28.0417 95.2146 38.9327C93.8463 49.8237 83.8583 65.5583 83.8583 65.5583L102.589 47.6072C102.589 47.6072 102.22 36.1826 100.345 31.0791C98.4709 25.9757 92.9433 16.5076 92.9433 16.5076H92.957Z" fill="#5B3E36"/>
<path d="M59.1483 4.93242C59.1483 4.93242 61.3375 14.2089 62.7194 25.0179C63.3898 30.1898 62.6099 37.0445 62.6099 37.0445C62.6099 37.0445 55.6867 30.9012 53.005 31.3801C50.3233 31.859 44.5084 39.2474 43.2496 47.443C41.9908 55.6386 43.2496 69.485 43.2496 69.485L26.5573 65.3941V64.1353C26.5573 62.8765 25.7637 48.866 25.7637 48.866C25.7637 48.866 23.8756 52.0129 22.9315 55.9533C21.9874 59.8938 21.6728 65.2436 21.6728 65.2436C21.6728 65.2436 19.6204 65.2436 16.7882 64.45C13.956 63.6564 2.92814 58.4709 2.92814 58.4709C2.92814 58.4709 0.410625 35.4848 11.4248 20.2154C22.439 4.9461 35.2044 0.690932 44.3305 1.00562C53.4565 1.32031 59.1346 4.94609 59.1346 4.94609C59.1346 4.94609 66.5367 1.635 74.2535 3.20846C81.9702 4.78191 91.4109 11.8693 97.4037 23.677C103.397 35.4848 102.603 47.6072 102.603 47.6072L83.872 65.5582C83.872 65.5582 85.6097 49.6595 84.6656 45.7191L83.7215 41.7786C83.7215 41.7786 80.2599 55.324 76.4836 60.9884C72.7074 66.6528 70.8192 67.4464 70.8192 67.4464C70.8192 67.4464 72.078 41.1492 69.8752 36.4288C67.6723 31.7085 62.6373 37.0582 62.6373 37.0582" stroke="#221F20" stroke-width="1.36822" stroke-miterlimit="10"/>
</svg>
