<svg width="1683" height="580" viewBox="0 0 1683 580" fill="none" xmlns="http://www.w3.org/2000/svg">
<path opacity="0.27" d="M742.29 33.6895H319.469V261.064H742.29V33.6895Z" fill="#AAE0FC"/>
<path d="M165.666 0H316.318L315.74 393.362L165.666 538.655V0Z" fill="#ADABEB"/>
<path d="M1517.32 0H1366.64L1367.24 393.362L1517.32 538.655V0Z" fill="#ADABEB"/>
<path d="M316.318 0V382.48H1366.92V0H316.318ZM532.758 240.226H356.323V58.0015H532.758V240.226ZM725.785 240.226H549.35V58.0015H725.785V240.226Z" fill="#D3D2FA"/>
<path d="M315.74 191.254C367.075 279.646 450.842 344.507 549.205 372.031L592.938 384.274H316.318L315.74 191.254Z" fill="#ADABEB"/>
<path d="M1366.92 191.254C1315.59 279.646 1231.82 344.507 1133.46 372.031L1089.73 384.274H1366.35L1366.92 191.254Z" fill="#ADABEB"/>
<path d="M742.29 40.9832H341.726V58.0016H742.29V40.9832Z" fill="#091C45"/>
<path d="M742.29 240.833H341.726V257.852H742.29V240.833Z" fill="#091C45"/>
<path d="M550.506 257.823V45.1797H533.51V257.823H550.506Z" fill="#091C45"/>
<path d="M357.277 257.852V45.2087H340.281V257.852H357.277Z" fill="#091C45"/>
<path d="M743.157 257.823V45.1797H726.161V257.823H743.157Z" fill="#091C45"/>
<path d="M1007.43 243.872V5.93335L773.391 5.93335V243.872L1007.43 243.872Z" fill="#605A9A"/>
<path d="M857.331 16.0344C857.967 26.1644 864.037 34.8183 873.518 38.523C872.275 38.3494 870.974 38.1178 869.731 37.7994C860.655 35.3682 855.077 24.9199 857.331 16.0344Z" fill="#FAE690"/>
<path d="M858.748 24.5435C858.748 24.5435 857.331 20.6942 860.395 17.9446C860.395 17.9446 862.448 21.3019 858.748 24.5435Z" fill="#FAE690"/>
<path d="M861.234 30.0138C861.234 30.0138 859.413 26.3381 862.187 23.2991C862.187 23.2991 864.587 26.4249 861.234 30.0138Z" fill="#FAE690"/>
<path d="M864.702 34.0946C864.702 34.0946 863.083 31.1425 865.222 28.5376C865.222 28.5376 867.333 30.9977 864.702 34.0946Z" fill="#FAE690"/>
<path d="M869.5 37.1048C869.5 37.1048 867.246 35.3971 867.997 32.6765C867.997 32.6765 870.454 33.8342 869.5 37.1048Z" fill="#FAE690"/>
<path d="M857.331 18.3787C857.331 18.3787 854.614 15.3108 856.464 11.635C856.464 11.635 859.615 14.0083 857.331 18.3787Z" fill="#FAE690"/>
<path d="M857.794 22.5174C857.794 22.5174 853.718 22.1412 852.562 18.205C852.562 18.205 856.464 17.7708 857.794 22.5174Z" fill="#FAE690"/>
<path d="M859.702 27.4378C859.702 27.4378 855.915 29.0008 853.053 26.0775C853.053 26.0775 856.32 23.8779 859.702 27.4378Z" fill="#FAE690"/>
<path d="M862.679 31.8951C862.679 31.8951 859.846 33.7764 857.042 31.8083C857.042 31.8083 859.355 29.4928 862.679 31.8951Z" fill="#FAE690"/>
<path d="M866.899 35.7734C866.899 35.7734 864.586 38.031 861.638 36.7286C861.638 36.7286 863.372 34.1526 866.899 35.7734Z" fill="#FAE690"/>
<path d="M923.466 16.0344C922.83 26.1644 916.76 34.8183 907.279 38.523C908.522 38.3494 909.823 38.1178 911.066 37.7994C920.142 35.3682 925.72 24.9199 923.466 16.0344Z" fill="#FAE690"/>
<path d="M922.021 24.5435C922.021 24.5435 923.437 20.6942 920.373 17.9446C920.373 17.9446 918.321 21.3019 922.021 24.5435Z" fill="#FAE690"/>
<path d="M919.535 30.0138C919.535 30.0138 921.356 26.3381 918.581 23.2991C918.581 23.2991 916.182 26.4249 919.535 30.0138Z" fill="#FAE690"/>
<path d="M916.066 34.0946C916.066 34.0946 917.685 31.1425 915.546 28.5376C915.546 28.5376 913.436 30.9977 916.066 34.0946Z" fill="#FAE690"/>
<path d="M911.268 37.1048C911.268 37.1048 913.522 35.3971 912.771 32.6765C912.771 32.6765 910.314 33.8342 911.268 37.1048Z" fill="#FAE690"/>
<path d="M923.437 18.3787C923.437 18.3787 926.154 15.3108 924.304 11.635C924.304 11.635 921.153 14.0083 923.437 18.3787Z" fill="#FAE690"/>
<path d="M923.003 22.5174C923.003 22.5174 927.079 22.1412 928.235 18.205C928.235 18.205 924.333 17.7708 923.003 22.5174Z" fill="#FAE690"/>
<path d="M921.096 27.4378C921.096 27.4378 924.882 29.0008 927.744 26.0775C927.744 26.0775 924.478 23.8779 921.096 27.4378Z" fill="#FAE690"/>
<path d="M918.118 31.8951C918.118 31.8951 920.951 33.7764 923.755 31.8083C923.755 31.8083 921.442 29.4928 918.118 31.8951Z" fill="#FAE690"/>
<path d="M913.898 35.7734C913.898 35.7734 916.211 38.031 919.159 36.7286C919.159 36.7286 917.425 34.1526 913.898 35.7734Z" fill="#FAE690"/>
<path d="M902.047 17.8578C902.047 24.1095 896.844 29.1745 890.399 29.1745C883.982 29.1745 878.75 24.1095 878.75 17.8578C878.75 15.8318 879.299 13.9505 880.253 12.3008C877.854 14.732 876.38 18.0604 876.38 21.6783C876.38 29.2034 882.652 35.3103 890.399 35.3103C898.145 35.3103 904.417 29.2034 904.417 21.6783C904.417 18.0315 902.943 14.732 900.544 12.3008C901.498 13.9505 902.047 15.8318 902.047 17.8578Z" fill="#FAE690"/>
<path d="M902.047 17.8578C902.047 24.1095 896.844 29.1745 890.399 29.1745C883.982 29.1745 878.75 24.1095 878.75 17.8578C878.75 15.8318 879.299 13.9505 880.253 12.3008C877.854 14.732 876.38 18.0604 876.38 21.6783C876.38 29.2034 882.652 35.3103 890.399 35.3103C898.145 35.3103 904.417 29.2034 904.417 21.6783C904.417 18.0315 902.943 14.732 900.544 12.3008C901.498 13.9505 902.047 15.8318 902.047 17.8578Z" fill="#FAE690"/>
<path d="M986.652 229.662V44.3115L793.22 44.3115V229.662H986.652Z" fill="#423C7B"/>
<path d="M842.619 158.809H793.683V169.576H842.619V158.809Z" fill="#F3A9D4"/>
<path d="M844.064 170.994H792.238V157.333H844.064V170.994ZM795.128 168.1H841.174V160.228H795.128V168.1Z" fill="black"/>
<path d="M842.619 147.695H793.683V158.462H842.619V147.695Z" fill="#C5FFCC"/>
<path d="M844.064 159.909H792.238V146.248H844.064V159.909ZM795.128 157.015H841.174V149.143H795.128V157.015Z" fill="black"/>
<path d="M842.619 136.986H793.683V147.753H842.619V136.986Z" fill="#AAE0FC"/>
<path d="M844.064 149.2H792.238V135.539H844.064V149.2ZM795.128 146.306H841.174V138.434H795.128V146.306Z" fill="black"/>
<path d="M912.8 90.4463H863.864V101.213H912.8V90.4463Z" fill="#AAE0FC"/>
<path d="M914.245 102.66H862.418V88.9993H914.245V102.66ZM865.309 99.766H911.354V91.8936H865.309V99.766Z" fill="black"/>
<path d="M912.8 79.5352H863.864V90.3019H912.8V79.5352Z" fill="#F3A9D4"/>
<path d="M914.245 91.7489H862.418V78.0879H914.245V91.7489ZM865.309 88.8546H911.354V80.9822H865.309V88.8546Z" fill="black"/>
<path d="M897.393 169.576V120.576H886.641V169.576H897.393Z" fill="#AAE0FC"/>
<path d="M898.839 170.994H885.196V119.1H898.839V170.994ZM888.086 168.1H895.948V121.994H888.086V168.1Z" fill="black"/>
<path d="M908.146 169.547V120.547H897.394V169.547H908.146Z" fill="#C5FFCC"/>
<path d="M909.591 170.994H895.948V119.1H909.591V170.994ZM898.839 168.1H906.701V121.994H898.839V168.1Z" fill="black"/>
<path d="M922.078 102.313V53.3127H911.326V102.313H922.078Z" fill="#C5FFCC"/>
<path d="M923.523 103.76H909.88V51.8655H923.523V103.76ZM912.771 100.866H920.633V54.7598H912.771V100.866Z" fill="black"/>
<path d="M918.87 169.547V120.547H908.117V169.547H918.87Z" fill="#F8C99D"/>
<path d="M920.315 170.994H906.672V119.1H920.315V170.994ZM909.591 168.1H917.453V121.994H909.591V168.1Z" fill="black"/>
<path d="M929.622 169.576V120.576H918.87V169.576H929.622Z" fill="#FAE690"/>
<path d="M931.068 170.994H917.425V119.1H931.068V170.994ZM920.315 168.1H928.177V121.994H920.315V168.1Z" fill="black"/>
<path d="M848.661 167.3L885.989 135.614L879.036 127.401L841.708 159.087L848.661 167.3Z" fill="#FAE690"/>
<path d="M848.486 169.374L839.67 158.954L879.212 125.38L888.028 135.8L848.486 169.374ZM843.746 159.301L848.833 165.293L883.953 135.481L878.865 129.49L843.746 159.301Z" fill="black"/>
<path d="M971.563 86.8576C959.973 82.1399 967.546 74.4411 970.812 71.7205C971.274 71.4021 972.113 70.7075 972.113 70.7075C974.252 68.8552 975.812 66.4529 976.535 63.7612H951.446C952.197 66.4529 953.758 68.8552 955.868 70.7075C955.868 70.7075 956.706 71.4021 957.169 71.7205C960.464 74.4701 968.037 82.1689 956.417 86.8576C956.417 86.8576 949.278 89.9256 950.925 97.7691H976.969C978.645 89.9256 971.477 86.8576 971.477 86.8576H971.563Z" fill="#020325"/>
<path d="M950.347 62.9508L977.633 63.1823C976.708 66.1056 976.13 67.5816 974.049 69.8971C974.049 69.8971 973.009 70.6496 972.459 70.9969C968.384 73.978 959.019 82.2846 973.384 87.3786C973.384 87.3786 979.743 89.8676 977.662 98.3768H950.463C948.382 89.8966 954.683 87.3786 954.683 87.3786C969.02 82.2846 959.654 73.9491 955.608 70.9969C955.059 70.6496 954.018 69.8971 954.018 69.8971C951.388 67.9 951.33 65.874 950.405 62.9508M949.624 62.4009L949.856 63.0955C950.029 63.6454 950.174 64.1664 950.318 64.6584C950.925 66.8581 951.388 68.5657 953.671 70.3023C953.729 70.3312 954.741 71.0548 955.29 71.4021C957.429 72.965 962.343 77.017 961.793 80.8375C961.447 83.2397 958.99 85.2657 954.509 86.8576C954.423 86.8865 947.803 89.6361 949.942 98.4926L950.029 98.8978H950.463H977.662H978.096L978.182 98.4926C980.35 89.6361 973.645 86.8865 973.558 86.8576C969.049 85.2657 966.592 83.2397 966.245 80.8375C965.696 77.017 970.58 72.994 972.748 71.4021C973.326 71.0548 974.338 70.3312 974.367 70.3023H974.425L974.454 70.2155C976.593 67.8711 977.2 66.366 978.154 63.327L978.385 62.6324H977.662L950.376 62.4009H949.624Z" fill="#020325"/>
<path d="M964.135 78.7826C964.135 78.7826 966.331 74.0938 968.297 72.4441C968.297 72.4441 971.592 69.955 972.893 68.3921L955.81 68.942C955.81 68.942 958.44 71.3732 960.204 72.8782C961.678 74.1228 964.077 78.7826 964.077 78.7826H964.135Z" fill="#9E6487"/>
<path d="M964.482 78.0589C964.482 78.0589 964.279 82.9213 964.915 83.7607C964.915 83.7607 964.192 85.1789 963.267 83.9922C963.267 83.9922 963.643 77.8563 963.123 76.9302C962.574 76.0329 964.51 78.0589 964.51 78.0589H964.482Z" fill="#9E6487"/>
<path d="M965.262 84.9184C965.262 85.2657 964.973 85.5841 964.597 85.5841C964.221 85.5841 963.932 85.2946 963.932 84.9184C963.932 84.5421 964.221 84.2527 964.597 84.2527C964.973 84.2527 965.262 84.5421 965.262 84.9184Z" fill="#9E6487"/>
<path d="M964.308 86.1339C964.308 86.5102 964.019 86.7996 963.643 86.7996C963.268 86.7996 962.979 86.5102 962.979 86.1339C962.979 85.7577 963.268 85.4683 963.643 85.4683C964.019 85.4683 964.308 85.7577 964.308 86.1339Z" fill="#9E6487"/>
<path d="M962.776 86.0184C962.776 86.2499 962.574 86.4525 962.343 86.4525C962.111 86.4525 961.909 86.2499 961.909 86.0184C961.909 85.7868 962.111 85.5842 962.343 85.5842C962.574 85.5842 962.776 85.7868 962.776 86.0184Z" fill="#9E6487"/>
<path d="M963.21 87.0892C963.21 87.3207 963.008 87.5233 962.776 87.5233C962.545 87.5233 962.343 87.3207 962.343 87.0892C962.343 86.8576 962.545 86.655 962.776 86.655C963.008 86.655 963.21 86.8576 963.21 87.0892Z" fill="#9E6487"/>
<path d="M965.464 86.6551C965.464 86.8866 965.262 87.0892 965.031 87.0892C964.799 87.0892 964.597 86.8866 964.597 86.6551C964.597 86.4235 964.799 86.2209 965.031 86.2209C965.262 86.2209 965.464 86.4235 965.464 86.6551Z" fill="#9E6487"/>
<path d="M964.193 87.5523C964.193 87.7259 964.048 87.8706 963.875 87.8706C963.701 87.8706 963.557 87.7259 963.557 87.5523C963.557 87.3786 963.701 87.2339 963.875 87.2339C964.048 87.2339 964.193 87.3786 964.193 87.5523Z" fill="#9E6487"/>
<path d="M963.094 90.0413C963.094 90.2149 962.95 90.3596 962.776 90.3596C962.603 90.3596 962.458 90.2149 962.458 90.0413C962.458 89.8676 962.603 89.7229 962.776 89.7229C962.95 89.7229 963.094 89.8676 963.094 90.0413Z" fill="#9E6487"/>
<path d="M962.776 94.5274C962.776 94.701 962.632 94.8457 962.458 94.8457C962.285 94.8457 962.14 94.701 962.14 94.5274C962.14 94.3537 962.285 94.209 962.458 94.209C962.632 94.209 962.776 94.3537 962.776 94.5274Z" fill="#9E6487"/>
<path d="M963.875 92.1541C963.875 92.3277 963.73 92.4724 963.557 92.4724C963.383 92.4724 963.239 92.3277 963.239 92.1541C963.239 91.9804 963.383 91.8357 963.557 91.8357C963.73 91.8357 963.875 91.9804 963.875 92.1541Z" fill="#9E6487"/>
<path d="M968.355 97.7691C967.661 97.7691 964.308 93.4277 960.29 97.7691H968.355Z" fill="#9E6487"/>
<path d="M972.893 68.4209C972.893 67.9578 969.049 67.6684 964.337 67.8131C959.626 67.9578 955.81 68.4499 955.839 68.9129C955.839 69.376 959.683 69.6655 964.395 69.5207C969.106 69.376 972.922 68.884 972.893 68.4209Z" fill="#7C4B6D"/>
<path d="M979.946 98.3767H948.179V101.184H979.946V98.3767Z" fill="#F29E26"/>
<path d="M980.321 101.532H947.832V98.0005H980.321V101.532ZM948.555 100.808H979.599V98.7241H948.555V100.808Z" fill="black"/>
<path d="M979.772 60.1433H948.006V62.9508H979.772V60.1433Z" fill="#F29E26"/>
<path d="M980.119 63.2981H947.63V59.7671H980.119V63.2981ZM948.353 62.5745H979.397V60.4907H948.353V62.5745Z" fill="black"/>
<g style="mix-blend-mode:multiply" opacity="0.6">
<path d="M978.732 60.1433V62.0246H948.006V62.9508H979.772V60.1433H978.732Z" fill="#F29E26"/>
</g>
<g style="mix-blend-mode:multiply" opacity="0.6">
<path d="M978.905 98.377V100.258H948.179V101.184H979.946V98.377H978.905Z" fill="#F29E26"/>
</g>
<path d="M968.21 72.01C968.066 72.01 967.921 71.9231 967.806 71.8074C967.661 71.6048 967.719 71.3153 967.95 71.1706C967.95 71.1706 967.95 71.1706 968.008 71.1417C969.077 70.5049 972.633 68.1606 974.367 64.8611C974.483 64.6295 974.772 64.5427 975.003 64.6585C975.234 64.7743 975.321 65.0637 975.205 65.2952C973.384 68.8262 969.627 71.2864 968.499 71.9521H968.47C968.47 71.9521 968.297 72.0389 968.21 72.0389V72.01Z" fill="white"/>
<path d="M965.465 75.9461C965.465 75.9461 965.407 75.9461 965.378 75.9461C965.118 75.8883 964.973 75.6567 965.031 75.3962C965.32 74.007 966.823 72.8493 966.881 72.7914C967.083 72.6467 967.372 72.6756 967.546 72.8782C967.69 73.0808 967.661 73.3702 967.459 73.5149C967.459 73.5149 966.187 74.5279 965.956 75.5699C965.898 75.8014 965.725 75.9461 965.493 75.9461H965.465Z" fill="white"/>
<path d="M976.13 97.277C976.13 97.277 976.073 97.277 976.044 97.277C975.783 97.2191 975.639 96.9876 975.668 96.7271C975.668 96.6982 976.217 93.6302 974.136 91.1701C973.962 90.9675 973.991 90.6781 974.194 90.5044C974.396 90.3307 974.685 90.3597 974.858 90.5623C977.229 93.3698 976.622 96.7561 976.593 96.9008C976.535 97.1323 976.362 97.277 976.13 97.277Z" fill="white"/>
<path d="M973.644 90.1861C973.5 90.1861 973.326 90.0992 973.24 89.9545C973.24 89.9545 972.517 88.8257 970.783 88.3048C970.552 88.2179 970.407 87.9575 970.465 87.7259C970.552 87.4944 970.812 87.3497 971.043 87.4075C973.153 88.0443 973.991 89.4335 974.02 89.4914C974.165 89.723 974.078 89.9834 973.847 90.1282C973.76 90.186 973.702 90.1861 973.616 90.1861H973.644Z" fill="white"/>
<path d="M955.521 88.9125C955.377 88.9125 955.203 88.8257 955.116 88.7099C954.972 88.5073 955.059 88.2179 955.261 88.0732C957.053 86.9444 960.261 85.4104 960.406 85.3525C960.637 85.2368 960.926 85.3525 961.013 85.5841C961.129 85.8156 961.013 86.1051 960.782 86.1919C960.753 86.1919 957.458 87.7837 955.723 88.8836C955.637 88.9415 955.55 88.9415 955.463 88.9415L955.521 88.9125Z" fill="white"/>
<path d="M952.399 92.9356C952.399 92.9356 952.313 92.9356 952.255 92.9356C952.023 92.8487 951.879 92.6172 951.937 92.3567C952.515 90.4175 953.96 89.2019 954.018 89.1441C954.22 88.9704 954.509 88.9993 954.683 89.2019C954.856 89.4045 954.827 89.694 954.625 89.8676C954.625 89.8676 953.324 90.9675 952.833 92.6172C952.775 92.8198 952.602 92.9356 952.399 92.9356Z" fill="white"/>
<path d="M834.179 101.011C825.97 102.689 817.529 102.718 809.291 101.155L808.511 101.011V100.576C808.511 95.8877 812.298 92.0962 816.98 92.0962H825.738C830.421 92.0962 834.207 95.8877 834.207 100.576V101.011H834.179Z" fill="#FAE690"/>
<path d="M821.345 103.76C817.211 103.76 813.107 103.355 809.002 102.573L807.066 102.197V100.576C807.066 95.1061 811.517 90.6489 816.98 90.6489H825.738C831.201 90.6489 835.653 95.1061 835.653 100.576V102.197L834.496 102.429C830.161 103.297 825.767 103.76 821.402 103.76H821.345ZM809.985 99.8238C817.529 101.213 825.16 101.213 832.675 99.8238C832.3 96.3217 829.322 93.5722 825.709 93.5722H816.951C813.338 93.5722 810.361 96.3217 809.985 99.8238Z" fill="black"/>
<path d="M820.853 95.3954C832.299 95.3954 841.578 86.1044 841.578 74.6434C841.578 63.1824 832.299 53.8914 820.853 53.8914C809.407 53.8914 800.128 63.1824 800.128 74.6434C800.128 86.1044 809.407 95.3954 820.853 95.3954Z" fill="url(#paint0_linear_4_229194)"/>
<path d="M820.853 56.7856C830.681 56.7856 838.688 64.8028 838.688 74.6434C838.688 84.4839 830.681 92.5011 820.853 92.5011C811.026 92.5011 803.019 84.4839 803.019 74.6434C803.019 64.8028 811.026 56.7856 820.853 56.7856ZM820.853 53.8914C809.407 53.8914 800.128 63.182 800.128 74.6434C800.128 86.1047 809.407 95.3954 820.853 95.3954C832.3 95.3954 841.578 86.1047 841.578 74.6434C841.578 63.182 832.3 53.8914 820.853 53.8914Z" fill="black"/>
<path style="mix-blend-mode:multiply" opacity="0.75" d="M838.114 72.7784C840.046 65.7508 834.712 58.152 826.201 55.8061C817.689 53.4602 809.223 57.2555 807.291 64.2831C805.36 71.3108 810.693 78.9095 819.205 81.2555C827.716 83.6014 836.182 79.8061 838.114 72.7784Z" fill="url(#paint1_linear_4_229194)"/>
<path d="M833.456 62.2269C832.964 62.8926 831.49 62.6032 830.161 61.5902C828.831 60.5772 828.166 59.2458 828.658 58.5801C829.149 57.9144 830.623 58.2039 831.953 59.2169C833.282 60.2299 833.947 61.5612 833.456 62.2269Z" fill="url(#paint2_linear_4_229194)"/>
<path d="M833.051 65.4687C832.82 65.787 832.097 65.6423 831.461 65.1792C830.825 64.6872 830.507 64.0505 830.739 63.7321C830.97 63.4137 831.692 63.5584 832.328 64.0215C832.964 64.5136 833.282 65.1503 833.051 65.4687Z" fill="url(#paint3_linear_4_229194)"/>
<path d="M825.015 84.2525C814.899 84.2525 806.719 76.0617 806.719 65.9317C806.719 64.7161 806.834 63.5294 807.066 62.4006C804.58 65.5265 803.077 69.4916 803.077 73.8041C803.077 83.9341 811.257 92.1249 821.373 92.1249C830.276 92.1249 837.676 85.7575 839.323 77.3641C835.97 81.5897 830.796 84.2814 825.015 84.2814V84.2525Z" fill="url(#paint4_radial_4_229194)"/>
<path d="M801.111 74.0647C801.256 75.425 801.487 76.7853 801.863 78.0878C802.21 79.4191 802.643 80.6926 803.192 81.9372C804.262 84.4262 805.765 86.7127 807.673 88.5651C808.627 89.5202 809.696 90.3306 810.823 91.0541C811.372 91.4304 811.979 91.7488 812.558 92.0671C812.847 92.2119 813.165 92.3566 813.483 92.5013C813.801 92.646 814.089 92.7907 814.407 92.9065C816.922 93.8905 819.61 94.4694 822.356 94.7588C819.61 94.8167 816.835 94.4694 814.176 93.5722C811.517 92.7039 809.06 91.2278 807.037 89.2597C805.042 87.2916 803.51 84.8604 802.528 82.2266C801.545 79.6217 801.053 76.8432 801.111 74.0936V74.0647Z" fill="url(#paint5_linear_4_229194)"/>
<path d="M833.918 75.3961C833.918 74.7883 833.398 74.2673 832.791 74.2384C833.398 74.2384 833.918 73.7174 833.947 73.1096C833.947 73.7174 834.468 74.2384 835.075 74.2673C834.468 74.2673 833.947 74.7883 833.918 75.3961Z" fill="white"/>
<path d="M810.13 66.2211C810.13 65.6133 809.609 65.0923 809.002 65.0633C809.609 65.0633 810.129 64.5424 810.158 63.9346C810.158 64.5424 810.679 65.0633 811.286 65.0923C810.679 65.0923 810.158 65.6133 810.13 66.2211Z" fill="white"/>
<path d="M812.933 80.0558C812.933 79.448 812.413 78.927 811.806 78.8981C812.413 78.8981 812.933 78.3771 812.962 77.7693C812.962 78.3771 813.482 78.8981 814.089 78.927C813.482 78.927 812.962 79.448 812.933 80.0558Z" fill="white"/>
<path d="M831.346 82.6027C831.346 81.1266 830.074 79.7952 828.571 79.7663C830.045 79.7663 831.375 78.4928 831.403 76.9878C831.403 78.4639 832.675 79.7952 834.178 79.8242C832.704 79.8242 831.375 81.0977 831.346 82.6027Z" fill="white"/>
<path style="mix-blend-mode:multiply" opacity="0.75" d="M818.223 97.1611C822.617 97.1611 826.663 95.8007 830.016 93.4853C828.658 92.617 827.039 92.125 825.305 92.125H817.414C814.523 92.125 811.98 93.5143 810.361 95.6271C812.789 96.6401 815.448 97.19 818.223 97.19V97.1611Z" fill="url(#paint6_linear_4_229194)"/>
<path d="M1010.01 382.48V271.802H769.865V382.48H1010.01Z" fill="#423C7B"/>
<path d="M1026.4 271.802V260.225H754.401V271.802H1026.4Z" fill="#423C7B"/>
<path d="M879.472 312.67V283.524H786.312V312.67H879.472Z" fill="#605A9A"/>
<path d="M993.56 312.67V283.524H900.4V312.67H993.56Z" fill="#605A9A"/>
<path d="M993.56 367.661V329.457H786.688V367.661H993.56Z" fill="#605A9A"/>
<path d="M987.085 113.253V102.313L793.654 102.313V113.253L987.085 113.253Z" fill="#605A9A"/>
<path d="M987.114 180.835V169.895H793.683V180.835H987.114Z" fill="#605A9A"/>
<path d="M755.441 258.807L773.362 244.741H1007.43L1025.47 259.675L755.441 258.807Z" fill="#605A9A"/>
<path d="M316.318 384.245L165.666 538.655H1517.32L1366.35 384.245H316.318Z" fill="#F8C99D"/>
<path d="M525.156 514.17C672.565 514.17 792.064 486.789 792.064 453.013C792.064 419.238 672.565 391.857 525.156 391.857C377.747 391.857 258.249 419.238 258.249 453.013C258.249 486.789 377.747 514.17 525.156 514.17Z" fill="#E5A971"/>
<path d="M525.937 499.322C664.454 499.322 776.744 475.272 776.744 445.604C776.744 415.937 664.454 391.886 525.937 391.886C387.419 391.886 275.129 415.937 275.129 445.604C275.129 475.272 387.419 499.322 525.937 499.322Z" fill="#AAE0FC"/>
<path d="M281.054 245.464L266.4 257.07L264.926 266.187L274.377 429.975L278.684 432.724H295.709L297.588 426.415L302.907 425.199L338.055 430.062L340.049 432.724L341.206 437.847L356.323 440.51H364.011L372.221 436.371L373.435 425.431L394.998 410.41L397.194 410.149L398.871 412.725H402.513L410.028 405.779L410.577 350.064L404.449 340.252L370.053 324.97L368.607 279.848L366.584 247.143L359.155 240.052L338.778 234.958L315.972 235.218L290.564 240.833L281.054 245.464Z" fill="#F4A9D4"/>
<path d="M366.844 376.836L375.834 373.999L410.028 357.01V405.779L398.871 412.725L397.194 410.149L374.331 423.665L373.666 434.982L366.844 438.774V376.836Z" fill="#EC84C3"/>
<path d="M299.611 326.273C299.611 326.273 339.963 308.126 351.987 307.952C364.011 307.778 369.041 311.454 369.041 311.454L370.053 324.999C370.053 324.999 338.98 329.514 328.112 334.001C317.243 338.487 304.843 350.093 304.843 350.093L300.97 342.539L299.611 326.302V326.273Z" fill="#EC84C3"/>
<path d="M272.065 389.715C272.065 389.715 280.014 408.528 299.611 413.391C319.209 418.253 366.324 415.735 366.324 415.735L366.844 438.774L364.011 440.51L341.205 437.847L338.055 430.062L301.172 424.273L296.634 429.656L295.738 432.724L276.083 431.046L273.713 417.674L272.094 389.744L272.065 389.715Z" fill="#EC84C3"/>
<path d="M301.143 238.547C298.166 240.284 300.161 244.943 303.514 244.191C311.347 242.454 324.932 240.313 337.737 242.512C357.219 245.87 367.914 257.07 367.914 257.07L366.555 243.815C366.555 243.815 349.761 235.219 338.778 234.958C327.794 234.698 305.624 236 301.259 238.489C301.201 238.489 301.172 238.547 301.143 238.576V238.547Z" fill="#FFD9F1"/>
<path d="M722.461 245.464L737.116 257.07L738.59 266.187L729.109 429.975L724.831 432.724H707.806L705.927 426.415L700.609 425.199L665.461 430.062L663.466 432.724L662.31 437.847L647.193 440.51H639.504L631.295 436.371L630.081 425.431L608.518 410.41L606.321 410.149L604.645 412.725H601.003L593.487 405.779L592.938 350.064L599.066 340.252L633.463 324.97L634.908 279.848L636.931 247.143L644.36 240.052L664.738 234.958L687.544 235.218L712.951 240.833L722.461 245.464Z" fill="#F4A9D4"/>
<path d="M636.671 376.836L627.682 373.999L593.487 357.01V405.779L604.645 412.725L606.321 410.149L629.185 423.665L629.85 434.982L636.671 438.774V376.836Z" fill="#EC84C3"/>
<path d="M703.904 326.273C703.904 326.273 663.553 308.126 651.528 307.952C639.504 307.778 634.475 311.454 634.475 311.454L633.463 324.999C633.463 324.999 664.536 329.514 675.404 334.001C686.272 338.487 698.672 350.093 698.672 350.093L702.546 342.539L703.904 326.302V326.273Z" fill="#EC84C3"/>
<path d="M731.451 389.715C731.451 389.715 723.502 408.528 703.904 413.391C684.307 418.253 637.192 415.735 637.192 415.735L636.671 438.774L639.504 440.51L662.31 437.847L665.461 430.062L702.343 424.273L706.881 429.656L707.777 432.724L727.433 431.046L729.803 417.674L731.422 389.744L731.451 389.715Z" fill="#EC84C3"/>
<path d="M702.372 238.547C705.349 240.284 703.355 244.943 700.002 244.191C692.169 242.454 678.583 240.313 665.779 242.512C646.297 245.87 635.602 257.07 635.602 257.07L636.96 243.815C636.96 243.815 653.754 235.219 664.738 234.958C675.722 234.698 697.892 236 702.256 238.489C702.314 238.489 702.343 238.547 702.372 238.576V238.547Z" fill="#FFD9F1"/>
<path d="M501.83 355.042C582.207 355.042 647.366 337.095 647.366 314.956C647.366 292.817 582.207 274.87 501.83 274.87C421.453 274.87 356.294 292.817 356.294 314.956C356.294 337.095 421.453 355.042 501.83 355.042Z" fill="#C5FFCC"/>
<path d="M500.876 437.848C520.352 437.848 536.14 430.513 536.14 421.466C536.14 412.419 520.352 405.084 500.876 405.084C481.401 405.084 465.612 412.419 465.612 421.466C465.612 430.513 481.401 437.848 500.876 437.848Z" fill="#9AE2A3"/>
<path d="M450.379 355.042C450.379 355.042 465.67 363.059 471.249 370.729C476.827 378.399 484.689 400.453 484.689 400.453L488.389 415.127H514.317C514.317 415.127 517.467 397.501 521.254 386.792C525.041 376.083 534.637 367.632 534.637 367.632L553.31 353.363L503.882 356.287L450.35 355.042H450.379Z" fill="#9AE2A3"/>
<path d="M581.174 275.623C581.174 279.067 581.752 300.774 575.075 311.454C571.635 316.982 562.53 315.448 558.223 315.564C553.223 315.68 547.384 317.156 544.407 314.233C535.504 305.521 535.562 279.646 535.562 275.623C535.562 270.413 545.765 266.188 558.368 266.188C570.971 266.188 581.174 270.413 581.174 275.623Z" fill="white"/>
<path d="M1159.99 419.845L1198.44 408.76L1260.55 399.556L1378.26 397.906L1386.2 405.026L1462.69 482.825L1407.19 491.247C1407.19 491.247 1370.91 495.704 1358.74 495.733C1324.49 495.791 1242.43 490.986 1242.43 490.986C1242.43 490.986 1190.55 482.767 1173.75 477.991C1143.75 469.482 1129.93 452.637 1129.93 452.637V441.61L1135.48 433.506L1159.99 419.874V419.845Z" fill="#ADABEB"/>
<path d="M1153.38 421.205L1143.63 426.241L1142.74 327.025C1142.74 324.073 1145.05 323.407 1148.03 323.407L1150.6 324.131C1153.55 324.131 1153.38 324.015 1153.38 326.967V421.205Z" fill="#CADAE2"/>
<path d="M1190.26 411.249L1180.49 413.275L1179.59 317.069C1179.59 314.117 1181.9 313.451 1184.88 313.451L1187.45 314.175C1190.4 314.175 1190.23 314.059 1190.23 317.011V411.249H1190.26Z" fill="#CADAE2"/>
<path d="M1229.8 404.129L1219.1 404.968V309.949C1219.1 306.997 1221.48 306.331 1224.42 306.331L1227 307.055C1229.94 307.055 1229.77 306.939 1229.77 309.891V404.129H1229.8Z" fill="#CADAE2"/>
<path d="M1264.92 399.469L1258.68 400.077V305.694C1258.68 302.742 1261.31 301.671 1264.25 301.671C1264.25 301.671 1265.61 303.205 1265.61 306.158L1264.92 399.469Z" fill="#CADAE2"/>
<path d="M1331.46 397.964L1321.6 396.98L1320.79 303.755C1320.79 300.803 1323.1 300.137 1326.08 300.137L1328.65 300.861C1331.6 300.861 1331.43 300.745 1331.43 303.697V397.935L1331.46 397.964Z" fill="#CADAE2"/>
<path d="M1298.65 495.183L1264.25 492.984L1265.61 267.548C1265.61 264.595 1277.49 261.064 1280.44 261.064L1294.17 264.827C1297.12 264.827 1298.74 269.718 1298.74 272.671L1298.62 495.183H1298.65Z" fill="#CADAE2"/>
<path d="M1148.06 348.79L1179.85 341.699L1191.96 338.979L1229.8 333.277L1275.96 329.109H1326.14L1365.74 331.801V318.516L1324.55 317.561L1296.31 316.895L1230.09 322.279L1187.25 328.241L1153.11 337.589L1148.06 348.79Z" fill="#CADAE2"/>
<path d="M1321.77 361.93H1456.12V370.932H1447.57L1321.6 372.205L1321.77 361.93Z" fill="#CADAE2"/>
<path d="M1309.35 348.79L1309.09 494.778H1321.6V348.79L1319.06 342.539L1313.07 343.233L1309.35 346.706V348.79Z" fill="#CADAE2"/>
<path d="M1366.92 346.706L1366.64 494.083L1378.28 492.984L1377.88 347.227L1374.12 342.741H1370.28L1366.92 346.706Z" fill="#CADAE2"/>
<path d="M1406 348.79L1407.22 491.189L1418.52 490.002L1418.29 345.607L1412.25 342.539H1409.01L1406 348.79Z" fill="#CADAE2"/>
<path d="M1448.9 347.719L1448.93 485.603L1462.72 482.796L1461.56 345.607L1455.81 342.539L1451.38 343.986L1448.9 347.719Z" fill="#CADAE2"/>
<path d="M1156.18 470.466L1171.44 462.738L1187.14 466.616L1204.71 458.976L1211.3 462.738L1237.78 459.497L1243.59 463.404L1265.61 462.738L1311.31 473.389L1339.09 483.519L1366.64 494.083L1333.86 495.704L1269.17 493.678L1201.85 484.966L1156.18 470.466Z" fill="#CADAE2"/>
<path d="M165.666 0H128.812V578.51H165.666V0Z" fill="#465199"/>
<path d="M1536.36 577.063V540.16L156.59 540.16V577.063L1536.36 577.063Z" fill="#465199"/>
<path d="M1553.19 0H1519.54V578.51H1553.19V0Z" fill="#465199"/>
<path d="M1545.04 458.976L1554.5 457.5L1641.52 578.51H1553.22L1545.04 458.976Z" fill="#465199"/>
<path d="M137.464 458.976L128 457.5L40.9793 578.51H129.284L137.464 458.976Z" fill="#465199"/>
<path d="M1554 411.162L1678.8 578.5H1642.5L1553.5 458L1554 411.162Z" fill="#736ADC"/>
<path d="M128.503 411.162L3.69547 578.5H40L129 458L128.503 411.162Z" fill="#736ADC"/>
<path d="M1643.37 577.062H39.8721V579.957H1643.37V577.062Z" fill="black"/>
<path d="M1519.57 538.453H167.487V541.347H1519.57V538.453Z" fill="black"/>
<path d="M1367.18 381.033H1332.18V383.927H1367.18V381.033Z" fill="black"/>
<path d="M1309.37 381.033H1298.65V383.927H1309.37V381.033Z" fill="black"/>
<path d="M1257.35 381.033H1229.83V383.927H1257.35V381.033Z" fill="black"/>
<path d="M1219.51 381.033H1190.32V383.927H1219.51V381.033Z" fill="black"/>
<path d="M1179.56 381.033H1153.38V383.927H1179.56V381.033Z" fill="black"/>
<path d="M1142.65 381.033H732.26V383.927H1142.65V381.033Z" fill="black"/>
<path d="M592.967 381.033H524.202V383.927H592.967V381.033Z" fill="black"/>
<path d="M477.723 381.033H410.028V383.927H477.723V381.033Z" fill="black"/>
<path d="M130.258 0H127.367V578.51H130.258V0Z" fill="black"/>
<path d="M1554.66 0H1551.77V578.51H1554.66V0Z" fill="black"/>
<path d="M1367.18 0H1364.29V383.84H1367.18V0Z" fill="black"/>
<path d="M1379.01 395.42L1376.94 397.435L1405.33 426.752L1407.41 424.737L1379.01 395.42Z" fill="black"/>
<path d="M1419.48 437.213L1417.41 439.228L1448.17 470.997L1450.25 468.982L1419.48 437.213Z" fill="black"/>
<path d="M1517.29 541.347C1516.65 541.347 1516.04 541.087 1515.58 540.623L1460.55 483.78L1462.63 481.754L1516.8 537.7V0H1519.69V538.974C1519.69 539.958 1519.11 540.826 1518.21 541.173C1517.92 541.289 1517.61 541.347 1517.32 541.347H1517.29Z" fill="black"/>
<path d="M317.764 0H314.873V235.219H317.764V0Z" fill="black"/>
<path d="M166.707 541.144C166.389 541.144 166.071 541.087 165.753 540.971C164.799 540.595 164.192 539.668 164.192 538.626V0H167.082V537.7L272.614 427.399L274.695 429.396L168.499 540.363C168.007 540.884 167.371 541.144 166.707 541.144Z" fill="black"/>
<path d="M1682.5 580L1642.5 580L1552.5 457L1553.5 453.5L1644.18 577.38H1676.9L1552.5 409.5L1553 405L1682.5 580Z" fill="black"/>
<path d="M-0.00012207 580L39.9999 580L130 457L129 453.5L38.3161 577.38H5.59576L130 409.5L129.5 405L-0.00012207 580Z" fill="black"/>
<path d="M635.053 255.623H367.914V258.518H635.053V255.623Z" fill="black"/>
<path d="M743.735 258.517H736.595V255.623H740.844V42.6038H341.697V234.871H338.806V39.7095H743.735V258.517Z" fill="black"/>
<path d="M727.404 241.673H708.182V238.779H724.513V59.4487H550.968V238.779H643.435V241.673H548.078V56.5544H727.404V241.673Z" fill="black"/>
<path d="M534.203 241.673H359.531V238.779H531.313V59.4487H357.768V238.75H354.877V56.5544H534.203V241.673Z" fill="black"/>
<path d="M532.758 115.598H356.323V118.492H532.758V115.598Z" fill="black"/>
<path d="M532.758 179.735H356.323V182.629H532.758V179.735Z" fill="black"/>
<path d="M478.012 58.0015H475.122V240.226H478.012V58.0015Z" fill="black"/>
<path d="M413.959 58.0015H411.069V240.226H413.959V58.0015Z" fill="black"/>
<path d="M671.213 58.0015H668.322V234.292H671.213V58.0015Z" fill="black"/>
<path d="M607.13 58.0015H604.24V240.226H607.13V58.0015Z" fill="black"/>
<path d="M725.959 115.598H549.523V118.492H725.959V115.598Z" fill="black"/>
<path d="M725.959 179.735H549.523V182.629H725.959V179.735Z" fill="black"/>
<path d="M410.202 397.443L409.884 394.578C432.227 392.06 456.131 390.265 480.932 389.31L481.047 392.205C456.334 393.16 432.516 394.925 410.23 397.443H410.202Z" fill="black"/>
<path d="M525.561 500.769C383.898 500.769 272.932 476.11 272.932 444.591C272.932 440.366 274.898 436.169 278.8 432.175L280.881 434.201C277.528 437.645 275.823 441.147 275.823 444.591C275.823 473.476 390.199 497.875 525.561 497.875C660.922 497.875 775.299 473.476 775.299 444.591C775.299 433.911 758.968 423.087 729.311 414.085L730.15 411.307C761.598 420.829 778.19 432.348 778.19 444.591C778.19 476.081 667.224 500.769 525.561 500.769Z" fill="black"/>
<path d="M592.88 393.304C571.086 391.973 548.425 391.307 525.561 391.307H521.254V388.413H525.59C548.511 388.413 571.202 389.079 593.083 390.41L592.909 393.304H592.88Z" fill="black"/>
<path d="M500.963 357.734C418.035 357.734 353.085 339.21 353.085 315.564C353.085 291.917 418.035 273.394 500.963 273.394C512.38 273.394 523.74 273.77 534.724 274.465L534.521 277.359C523.595 276.636 512.294 276.288 500.934 276.288C422.342 276.288 355.947 294.262 355.947 315.564C355.947 336.866 422.342 354.839 500.934 354.839C579.526 354.839 645.921 336.866 645.921 315.564C645.921 302.742 620.976 290.239 580.856 282.916L581.376 280.08C624.242 287.894 648.84 300.832 648.84 315.593C648.84 339.239 583.891 357.762 500.963 357.762V357.734Z" fill="black"/>
<path d="M500.963 341.699C435.898 341.699 368.636 330.846 368.636 312.67C368.636 294.493 435.927 283.64 500.963 283.64C513.016 283.64 524.954 283.987 536.458 284.653L536.285 287.547C524.838 286.881 512.958 286.534 500.963 286.534C423.527 286.534 371.527 300.05 371.527 312.67C371.527 325.289 423.556 338.805 500.963 338.805C578.37 338.805 630.399 325.289 630.399 312.67C630.399 306.649 617.103 298.082 579.815 292.12L580.278 289.255C600.078 292.41 633.289 299.674 633.289 312.67C633.289 330.846 565.999 341.699 500.963 341.699Z" fill="black"/>
<path d="M558.224 286.534C543.945 286.534 533.192 281.846 533.192 275.623C533.192 269.4 543.945 264.711 558.224 264.711C572.503 264.711 583.255 269.4 583.255 275.623C583.255 281.846 572.503 286.534 558.224 286.534ZM558.224 267.635C545.187 267.635 536.082 271.86 536.082 275.652C536.082 279.443 545.159 283.669 558.224 283.669C571.289 283.669 580.365 279.443 580.365 275.652C580.365 271.86 571.289 267.635 558.224 267.635Z" fill="black"/>
<path d="M569.93 317.011H548.049C543.424 317.011 539.464 313.711 538.655 309.138L533.221 275.854L536.082 275.391L541.516 308.646C542.094 311.801 544.84 314.117 548.049 314.117H569.93C573.312 314.117 576.144 311.599 576.549 308.241L580.365 275.478L583.226 275.825L579.411 308.589C578.862 313.393 574.786 317.04 569.93 317.04V317.011Z" fill="black"/>
<path d="M362.133 442.392C361.988 442.392 361.815 442.392 361.67 442.392L344.241 441.002C341.206 440.771 338.806 438.195 338.806 435.127V434.085C338.806 432.58 337.679 431.306 336.176 431.104L301.664 426.762C300.797 426.647 299.958 426.907 299.322 427.486C298.658 428.065 298.311 428.875 298.311 429.744C298.311 431.393 297.617 432.956 296.403 434.085C295.189 435.185 293.57 435.764 291.952 435.619L278.106 434.49C275.187 434.259 272.874 431.885 272.701 428.933L263.48 263.814C263.22 259.328 265.041 255.073 268.452 252.15C271.198 249.806 274.695 248.59 278.309 248.735C285.304 249.024 291.027 254.263 291.894 261.238L301.808 340.339C303.022 349.919 310.855 357.386 320.51 358.052L354.126 360.368C361.93 360.917 368.029 367.459 368.029 375.273V436.458C368.029 438.108 367.336 439.671 366.15 440.8C365.052 441.813 363.636 442.363 362.162 442.363L362.133 442.392ZM301.317 423.839C301.548 423.839 301.808 423.839 302.039 423.897L336.552 428.239C339.5 428.615 341.697 431.133 341.697 434.085V435.127C341.697 436.69 342.911 437.992 344.443 438.108L361.873 439.497C362.74 439.584 363.52 439.295 364.156 438.716C364.763 438.137 365.11 437.356 365.11 436.516V375.331C365.11 369.021 360.196 363.725 353.895 363.32L320.278 361.004C309.266 360.252 300.276 351.743 298.918 340.773L289.003 261.672C288.31 256.115 283.743 251.948 278.164 251.716C275.302 251.6 272.499 252.555 270.302 254.437C267.585 256.781 266.14 260.167 266.342 263.727L275.563 428.846C275.649 430.322 276.834 431.538 278.309 431.654L292.154 432.783C292.992 432.869 293.802 432.58 294.437 432.001C295.044 431.422 295.391 430.641 295.391 429.801C295.391 428.123 296.114 426.502 297.386 425.373C298.455 424.418 299.843 423.897 301.288 423.897L301.317 423.839Z" fill="black"/>
<path d="M367.104 379.354L366.006 376.662C366.266 376.547 391.442 366.243 399.854 362.162C404.883 359.731 407.802 357.184 408.756 354.376C409.421 352.408 409.132 350.209 407.889 347.691L410.462 346.388C412.051 349.601 412.398 352.611 411.473 355.303C410.259 358.863 406.877 361.959 401.096 364.767C392.598 368.877 367.336 379.238 367.075 379.325L367.104 379.354Z" fill="black"/>
<path d="M368.261 296.462C367.307 252.15 365.11 246.188 364.474 245.407C361.092 241.615 344.183 231.977 312.156 237.303C282.008 242.339 269.521 255.189 269.377 255.334L267.267 253.337C267.787 252.787 280.447 239.647 311.665 234.437C345.137 228.851 362.653 239.068 366.613 243.467C367.567 244.538 370.082 247.346 371.151 296.404L368.261 296.462Z" fill="black"/>
<path d="M305.075 350.961L302.791 349.167C303.08 348.79 310.017 340.021 325.481 333.306C334.875 329.225 349.097 326.446 359.387 324.826L359.849 327.691C349.733 329.283 335.771 332.004 326.638 335.969C311.896 342.365 305.132 350.874 305.075 350.961Z" fill="black"/>
<path d="M366.064 440.742L364.821 438.137L371.556 434.953C371.758 434.866 371.874 434.664 371.874 434.461V425.72C371.874 424.563 372.452 423.492 373.434 422.826L394.708 408.818C395.778 408.123 397.108 408.065 398.235 408.673C399.362 409.281 400.027 410.439 400.027 411.712C400.027 412.03 400.229 412.146 400.345 412.204C400.461 412.262 400.692 412.32 400.923 412.117L408.352 405.981C408.352 405.981 408.554 405.721 408.554 405.547V351.25H411.444V405.547C411.444 406.589 410.982 407.544 410.202 408.21L402.773 414.346C401.732 415.214 400.345 415.388 399.102 414.809C397.859 414.23 397.136 413.043 397.136 411.683C397.136 411.394 396.963 411.249 396.847 411.191C396.732 411.133 396.529 411.046 396.269 411.191L374.995 425.199C374.851 425.315 374.735 425.489 374.735 425.663V434.403C374.735 435.735 373.955 436.95 372.77 437.529L366.035 440.713L366.064 440.742Z" fill="black"/>
<path d="M640.863 442.391C639.388 442.391 637.943 441.842 636.874 440.829C635.66 439.729 634.995 438.137 634.995 436.487V375.302C634.995 367.487 641.094 360.917 648.898 360.396L682.515 358.081C692.14 357.415 700.002 349.977 701.216 340.368L711.13 261.267C711.998 254.321 717.721 249.053 724.716 248.764C728.329 248.619 731.826 249.835 734.572 252.179C737.983 255.102 739.804 259.357 739.544 263.814L730.323 428.933C730.15 431.856 727.837 434.23 724.918 434.49L711.073 435.619C709.454 435.764 707.806 435.185 706.621 434.085C705.407 432.985 704.714 431.393 704.714 429.743C704.714 428.875 704.367 428.065 703.702 427.486C703.066 426.907 702.199 426.647 701.361 426.762L666.848 431.104C665.345 431.277 664.218 432.58 664.218 434.085V435.127C664.218 438.195 661.848 440.771 658.784 441.002L641.354 442.391C641.209 442.391 641.036 442.391 640.891 442.391H640.863ZM725.265 251.658C725.12 251.658 724.947 251.658 724.802 251.658C719.224 251.89 714.657 256.086 713.963 261.614L704.049 340.715C702.69 351.685 693.701 360.194 682.688 360.946L649.072 363.262C642.799 363.696 637.856 368.963 637.856 375.273V436.458C637.856 437.298 638.203 438.079 638.81 438.658C639.417 439.237 640.227 439.526 641.094 439.439L658.523 438.05C660.084 437.934 661.269 436.603 661.269 435.069V434.027C661.269 431.075 663.495 428.557 666.415 428.181L700.927 423.839C702.603 423.636 704.28 424.157 705.552 425.257C706.824 426.386 707.546 427.978 707.546 429.686C707.546 430.525 707.893 431.306 708.5 431.885C709.107 432.464 709.916 432.753 710.784 432.667L724.629 431.538C726.103 431.422 727.288 430.207 727.375 428.73L736.596 263.611C736.798 260.052 735.353 256.665 732.636 254.321C730.583 252.555 727.953 251.6 725.236 251.6L725.265 251.658Z" fill="black"/>
<path d="M635.862 379.354C635.602 379.238 610.339 368.906 601.841 364.796C596.465 362.191 593.256 359.152 592.042 355.534C591.059 352.611 591.406 349.398 593.141 345.925L595.713 347.227C594.326 350.006 594.037 352.408 594.759 354.608C595.713 357.415 598.517 359.962 603.084 362.191C611.495 366.272 636.671 376.576 636.931 376.691L635.833 379.383L635.862 379.354Z" fill="black"/>
<path d="M634.706 298.14L631.815 298.082C632.856 247.432 635.429 244.538 636.382 243.467C637.741 241.962 639.996 240.341 642.799 238.923C648.407 236.087 664.362 229.951 691.331 234.437C722.548 239.647 735.208 252.787 735.728 253.337L733.618 255.334C733.618 255.334 721.016 242.339 690.839 237.302C664.709 232.932 649.447 238.808 644.1 241.528C640.747 243.236 639.186 244.683 638.521 245.406C637.857 246.188 635.631 252.324 634.677 298.14H634.706Z" fill="black"/>
<path d="M697.892 350.961C697.892 350.961 691.07 342.394 676.329 335.969C661.414 329.486 642.452 327.575 642.25 327.546L642.539 324.652C643.319 324.739 662.137 326.62 677.485 333.277C692.949 339.992 699.915 348.761 700.175 349.138L697.892 350.932V350.961Z" fill="black"/>
<path d="M636.932 440.742L630.197 437.558C628.983 436.979 628.231 435.764 628.231 434.432V425.692C628.231 425.518 628.144 425.344 627.971 425.229L606.697 411.22C606.466 411.047 606.235 411.133 606.119 411.22C606.003 411.278 605.83 411.423 605.83 411.712C605.83 413.073 605.078 414.259 603.864 414.838C602.65 415.417 601.234 415.243 600.193 414.375L592.765 408.239C591.956 407.573 591.522 406.618 591.522 405.576V351.28H594.412V405.576C594.412 405.75 594.499 405.895 594.615 406.01L602.043 412.146C602.275 412.349 602.506 412.262 602.621 412.233C602.737 412.175 602.939 412.031 602.939 411.741C602.939 410.468 603.633 409.31 604.76 408.702C605.888 408.094 607.217 408.152 608.287 408.847L629.561 422.855C630.544 423.492 631.122 424.563 631.122 425.75V434.49C631.122 434.693 631.237 434.895 631.44 434.982L638.174 438.166L636.932 440.771V440.742Z" fill="black"/>
<path d="M506.137 421.639H495.76C490.759 421.639 486.424 418.079 485.441 413.217C483.764 404.882 480.845 392.899 476.394 383.088C474.92 379.846 473.388 377.038 471.798 374.752C461.652 360.136 446.073 354.81 445.928 354.752L446.853 352.003C447.518 352.234 463.473 357.676 474.197 373.102C475.873 375.533 477.521 378.486 479.053 381.901C483.62 391.973 486.597 404.187 488.303 412.667C489.025 416.198 492.176 418.774 495.789 418.774H506.166C509.779 418.774 512.929 416.198 513.652 412.667C515.704 402.537 520.242 383.927 527.758 373.102C538.481 357.676 554.437 352.234 555.102 352.003L556.027 354.752C555.882 354.81 540.302 360.136 530.157 374.752C522.931 385.142 518.508 403.319 516.514 413.217C515.531 418.108 511.195 421.639 506.195 421.639H506.137Z" fill="black"/>
<path d="M500.963 439.295C480.325 439.295 464.196 431.538 464.196 421.639C464.196 414.838 471.971 408.789 484.458 405.837L485.123 408.644C474.168 411.249 467.086 416.343 467.086 421.639C467.086 429.628 482.608 436.4 500.963 436.4C519.317 436.4 534.839 429.657 534.839 421.639C534.839 416.372 527.844 411.307 517.034 408.702L517.699 405.895C530.041 408.876 537.73 414.925 537.73 421.668C537.73 431.567 521.572 439.324 500.963 439.324V439.295Z" fill="black"/>
<path d="M1011.45 383.927H768.42V270.847H1011.45V383.927ZM771.31 381.033H1008.56V273.741H771.31V381.033Z" fill="black"/>
<path d="M1026.92 273.741H752.956V258.228H1026.92V273.741ZM755.846 270.847H1024.03V261.122H755.846V270.847Z" fill="black"/>
<path d="M995.005 369.311H784.896V328.038H995.005V369.311ZM787.757 366.417H992.086V330.933H787.757V366.417Z" fill="black"/>
<path d="M880.918 314.724H784.867V280.225H880.918V314.724ZM787.757 311.83H878.027V283.119H787.757V311.83Z" fill="black"/>
<path d="M1007.95 245.869H771.946V4.48608H1007.95V245.841V245.869ZM774.808 242.975H1005.04V7.38037H774.808V242.946V242.975Z" fill="black"/>
<path d="M988.097 231.109H791.775V43.7615H988.097V231.137V231.109ZM794.665 228.214H985.206V46.6558H794.665V228.243V228.214Z" fill="black"/>
<path d="M988.097 182.629H791.775V168.1H988.097V182.629ZM794.665 179.735H985.206V170.994H794.665V179.735Z" fill="black"/>
<path d="M988.097 115.366H791.775V100.837H988.097V115.366ZM794.665 112.472H985.206V103.731H794.665V112.472Z" fill="black"/>
<path d="M995.005 314.724H898.954V280.225H995.005V314.724ZM901.845 311.83H992.115V283.119H901.845V311.83Z" fill="black"/>
<path d="M772.447 243.232L753.485 258.509L755.297 260.764L774.259 245.487L772.447 243.232Z" fill="black"/>
<path d="M1007.42 243.312L1005.61 245.568L1024.58 260.838L1026.39 258.582L1007.42 243.312Z" fill="black"/>
<path d="M1365.68 399.325C1351.26 398.63 1336.29 398.312 1321.63 398.427V395.533C1336.34 395.417 1351.34 395.707 1365.83 396.43L1365.68 399.325Z" fill="black"/>
<path d="M1298.68 398.919L1298.56 396.025C1302.03 395.909 1305.53 395.793 1309.03 395.707L1309.09 398.601C1305.59 398.688 1302.09 398.774 1298.65 398.919H1298.68Z" fill="black"/>
<path d="M1327.64 497.151C1256.48 497.151 1190.2 487.6 1154.68 472.203C1153.95 471.884 1153.26 471.595 1152.59 471.276C1136 463.722 1127.59 455.329 1127.59 446.357C1127.59 423.984 1181.18 405.055 1264.11 398.109L1264.34 401.003C1185.52 407.602 1130.48 426.241 1130.48 446.357C1130.48 453.998 1138.55 461.696 1153.78 468.643C1154.44 468.932 1155.11 469.25 1155.8 469.54C1190.98 484.793 1256.83 494.257 1327.64 494.257C1377.24 494.257 1424.68 489.684 1461.24 481.377L1461.88 484.214C1425.11 492.549 1377.45 497.151 1327.64 497.151Z" fill="black"/>
<path d="M1281.45 277.012C1270.82 277.012 1262.81 273.278 1262.81 268.329C1262.81 263.38 1270.82 259.646 1281.45 259.646C1292.09 259.646 1300.1 263.38 1300.1 268.329C1300.1 273.278 1292.09 277.012 1281.45 277.012ZM1281.45 262.512C1272.43 262.512 1265.7 265.58 1265.7 268.3C1265.7 271.021 1272.43 274.089 1281.45 274.089C1290.47 274.089 1297.21 271.021 1297.21 268.3C1297.21 265.58 1290.47 262.512 1281.45 262.512Z" fill="black"/>
<path d="M1265.7 267.635H1262.81V492.984H1265.7V267.635Z" fill="black"/>
<path d="M1144.1 326.938H1141.21V428.383H1144.1V326.938Z" fill="black"/>
<path d="M1154.82 326.012H1151.93V423.318H1154.82V326.012Z" fill="black"/>
<path d="M1300.1 267.635H1297.21V495.183H1300.1V267.635Z" fill="black"/>
<path d="M1148.03 331.946C1144.21 331.946 1141.21 329.746 1141.21 326.938C1141.21 324.131 1144.18 321.931 1148.03 321.931C1151.87 321.931 1154.85 324.131 1154.85 326.938C1154.85 329.746 1151.84 331.946 1148.03 331.946ZM1148.03 324.855C1145.77 324.855 1144.1 325.954 1144.1 326.967C1144.1 327.98 1145.77 329.08 1148.03 329.08C1150.28 329.08 1151.96 327.98 1151.96 326.967C1151.96 325.954 1150.28 324.855 1148.03 324.855Z" fill="black"/>
<path d="M1310.53 346.706H1307.64V495.704H1310.53V346.706Z" fill="black"/>
<path d="M1323.05 345.606H1320.16V495.183H1323.05V345.606Z" fill="black"/>
<path d="M1315.33 352.292C1310.99 352.292 1307.61 349.832 1307.61 346.706C1307.61 343.581 1310.99 341.12 1315.33 341.12C1319.67 341.12 1323.05 343.581 1323.05 346.706C1323.05 349.832 1319.67 352.292 1315.33 352.292ZM1315.33 343.986C1312.5 343.986 1310.5 345.404 1310.5 346.677C1310.5 347.951 1312.47 349.369 1315.33 349.369C1318.19 349.369 1320.16 347.951 1320.16 346.677C1320.16 345.404 1318.19 343.986 1315.33 343.986Z" fill="black"/>
<path d="M1367.18 346.706H1364.29V494.807H1367.18V346.706Z" fill="black"/>
<path d="M1379.73 345.606H1376.84V494.083H1379.73V345.606Z" fill="black"/>
<path d="M1372.01 352.292C1367.68 352.292 1364.29 349.832 1364.29 346.706C1364.29 343.581 1367.68 341.12 1372.01 341.12C1376.35 341.12 1379.73 343.581 1379.73 346.706C1379.73 349.832 1376.35 352.292 1372.01 352.292ZM1372.01 343.986C1369.18 343.986 1367.18 345.404 1367.18 346.677C1367.18 347.951 1369.15 349.369 1372.01 349.369C1374.87 349.369 1376.84 347.951 1376.84 346.677C1376.84 345.404 1374.87 343.986 1372.01 343.986Z" fill="black"/>
<path d="M1407.45 346.706H1404.56V491.71H1407.45V346.706Z" fill="black"/>
<path d="M1419.96 345.606H1417.07V490.002H1419.96V345.606Z" fill="black"/>
<path d="M1412.25 352.292C1407.91 352.292 1404.53 349.832 1404.53 346.706C1404.53 343.581 1407.91 341.12 1412.25 341.12C1416.58 341.12 1419.96 343.581 1419.96 346.706C1419.96 349.832 1416.58 352.292 1412.25 352.292ZM1412.25 343.986C1409.41 343.986 1407.42 345.404 1407.42 346.677C1407.42 347.951 1409.39 349.369 1412.25 349.369C1415.11 349.369 1417.07 347.951 1417.07 346.677C1417.07 345.404 1415.11 343.986 1412.25 343.986Z" fill="black"/>
<path d="M1450.37 346.706H1447.48V485.429H1450.37V346.706Z" fill="black"/>
<path d="M1455.17 352.292C1450.84 352.292 1447.45 349.832 1447.45 346.706C1447.45 343.581 1450.84 341.12 1455.17 341.12C1459.51 341.12 1462.89 343.581 1462.89 346.706C1462.89 349.832 1459.51 352.292 1455.17 352.292ZM1455.17 343.986C1452.34 343.986 1450.34 345.404 1450.34 346.677C1450.34 347.951 1452.31 349.369 1455.17 349.369C1458.03 349.369 1460 347.951 1460 346.677C1460 345.404 1458 343.986 1455.17 343.986Z" fill="black"/>
<path d="M1181.01 316.461H1178.12V413.275H1181.01V316.461Z" fill="black"/>
<path d="M1191.76 315.535H1188.87V410.583H1191.76V315.535Z" fill="black"/>
<path d="M1184.94 321.468C1181.12 321.468 1178.12 319.269 1178.12 316.461C1178.12 313.654 1181.12 311.454 1184.94 311.454C1188.75 311.454 1191.76 313.654 1191.76 316.461C1191.76 319.269 1188.78 321.468 1184.94 321.468ZM1184.94 314.348C1182.68 314.348 1181.01 315.448 1181.01 316.461C1181.01 317.474 1182.68 318.574 1184.94 318.574C1187.19 318.574 1188.87 317.474 1188.87 316.461C1188.87 315.448 1187.19 314.348 1184.94 314.348Z" fill="black"/>
<path d="M1220.55 310.528H1217.66V404.968H1220.55V310.528Z" fill="black"/>
<path d="M1231.27 309.602H1228.38V403.347H1231.27V309.602Z" fill="black"/>
<path d="M1224.48 315.535C1220.67 315.535 1217.66 313.335 1217.66 310.528C1217.66 307.72 1220.67 305.521 1224.48 305.521C1228.3 305.521 1231.3 307.72 1231.3 310.528C1231.3 313.335 1228.33 315.535 1224.48 315.535ZM1224.48 308.415C1222.23 308.415 1220.55 309.515 1220.55 310.528C1220.55 311.541 1222.23 312.641 1224.48 312.641C1226.74 312.641 1228.41 311.541 1228.41 310.528C1228.41 309.515 1226.74 308.415 1224.48 308.415Z" fill="black"/>
<path d="M1259.34 305.434H1256.45V400.077H1259.34V305.434Z" fill="black"/>
<path d="M1263.24 310.441C1259.43 310.441 1256.42 308.241 1256.42 305.434C1256.42 302.626 1259.43 300.427 1263.24 300.427V303.321C1260.99 303.321 1259.31 304.421 1259.31 305.434C1259.31 306.447 1260.99 307.547 1263.24 307.547V310.441Z" fill="black"/>
<path d="M1322.01 302.598L1319.12 302.629L1320.17 397.875L1323.06 397.843L1322.01 302.598Z" fill="black"/>
<path d="M1332.73 301.671H1329.84V361.93H1332.73V301.671Z" fill="black"/>
<path d="M1332.73 372.205H1329.84V396.286H1332.73V372.205Z" fill="black"/>
<path d="M1325.94 307.605C1322.12 307.605 1319.12 305.405 1319.12 302.597C1319.12 299.79 1322.12 297.59 1325.94 297.59C1329.75 297.59 1332.76 299.79 1332.76 302.597C1332.76 305.405 1329.75 307.605 1325.94 307.605ZM1325.94 300.514C1323.68 300.514 1322.01 301.613 1322.01 302.626C1322.01 303.639 1323.68 304.739 1325.94 304.739C1328.19 304.739 1329.87 303.639 1329.87 302.626C1329.87 301.613 1328.19 300.514 1325.94 300.514Z" fill="black"/>
<path d="M1179.2 340.306L1153 347.414L1153.75 350.207L1179.95 343.1L1179.2 340.306Z" fill="black"/>
<path d="M1179.2 329.147L1153 336.254L1153.76 339.048L1179.95 331.941L1179.2 329.147Z" fill="black"/>
<path d="M1218.89 323.032L1190.09 326.839L1190.47 329.708L1219.27 325.901L1218.89 323.032Z" fill="black"/>
<path d="M1218.91 333.765L1190.11 337.571L1190.49 340.441L1219.29 336.634L1218.91 333.765Z" fill="black"/>
<path d="M1257.26 318.641L1229.72 320.908L1229.96 323.793L1257.5 321.526L1257.26 318.641Z" fill="black"/>
<path d="M1257.27 329.631L1229.73 331.899L1229.96 334.783L1257.5 332.516L1257.27 329.631Z" fill="black"/>
<path d="M1320.07 315.448H1298.65V318.342H1320.07V315.448Z" fill="black"/>
<path d="M1320.07 327.662H1298.65V330.556H1320.07V327.662Z" fill="black"/>
<path d="M1332.24 327.655L1332.08 330.545L1365.64 332.465L1365.8 329.575L1332.24 327.655Z" fill="black"/>
<path d="M1332.29 316.112L1332.13 319.002L1365.69 320.922L1365.85 318.032L1332.29 316.112Z" fill="black"/>
<path d="M1365.77 360.483H1321.77V363.377H1365.77V360.483Z" fill="black"/>
<path d="M1365.77 370.758H1321.77V373.652H1365.77V370.758Z" fill="black"/>
<path d="M1406 360.483H1378.28V363.377H1406V360.483Z" fill="black"/>
<path d="M1406 370.758H1378.28V373.652H1406V370.758Z" fill="black"/>
<path d="M1447.6 360.483H1419.88V363.377H1447.6V360.483Z" fill="black"/>
<path d="M1447.6 370.758H1419.88V373.652H1447.6V370.758Z" fill="black"/>
<path d="M1263.99 483.375L1171.93 465.604L1155.8 472.203L1154.7 469.511L1171.64 462.594L1183.78 464.938L1203 457.413L1264.77 480.596L1263.99 483.375ZM1189.07 465.98L1247.66 477.297L1203 460.539L1189.07 465.98Z" fill="black"/>
<path d="M1263.53 476.775L1236.65 461.002L1211.45 463.549L1211.16 460.654L1237.29 458.021L1264.98 474.286L1263.53 476.775Z" fill="black"/>
<path d="M1264.25 461.291H1242.46V464.185H1264.25V461.291Z" fill="black"/>
<path d="M1331 496.63L1328.8 494.749L1337.64 484.445L1321.17 476.833L1322.35 474.229L1342.33 483.403L1331 496.63Z" fill="black"/>
<path d="M1356.61 496.225L1354.58 494.199L1356.14 492.636L1338.6 486.327L1339.58 483.606L1361.4 491.449L1356.61 496.225Z" fill="black"/>
<path d="M1462.89 345.606H1460V482.796H1462.89V345.606Z" fill="black"/>
<path d="M1298.93 468.712L1298.51 471.575L1308.94 473.127L1309.37 470.264L1298.93 468.712Z" fill="black"/>
<path d="M565.999 261.036C565.999 268.677 564.958 274.87 557.848 274.87C552.616 274.87 547.731 269.748 553.107 264.335C563.311 254.003 557.848 247.23 557.848 247.23C562.357 247.23 565.999 253.424 565.999 261.065V261.036Z" fill="#F29E26"/>
<path d="M557.819 275.218C554.697 275.218 551.807 273.51 550.766 271.05C549.841 268.821 550.564 266.332 552.789 264.046C562.617 254.089 557.732 247.693 557.53 247.404L557.067 246.825H557.819C562.53 246.825 566.346 253.192 566.346 261.007C566.346 267.866 565.681 275.189 557.819 275.189V275.218ZM558.541 247.635C558.975 248.417 559.582 249.864 559.64 251.89C559.727 254.697 558.686 259.154 553.339 264.596C551.315 266.651 550.65 268.85 551.46 270.789C552.385 272.989 554.986 274.523 557.848 274.523C564.351 274.523 565.652 269.371 565.652 261.065C565.652 254.031 562.53 248.272 558.541 247.664V247.635Z" fill="black"/>
<path d="M559.495 270.5H556.605V284.422H559.495V270.5Z" fill="black"/>
<path d="M893.405 21.6204L890.399 20.0285L887.364 21.6204L887.942 18.2341L885.514 15.8608L888.896 15.3687L890.399 12.3008L891.902 15.3687L895.284 15.8608L892.827 18.2341L893.405 21.6204Z" fill="#FAE690"/>
<path d="M835.826 28.4508L832.82 26.859L829.785 28.4508L830.363 25.0934L827.906 22.7201L831.288 22.2281L832.82 19.1602L834.323 22.2281L837.705 22.7201L835.248 25.0934L835.826 28.4508Z" fill="#FAE690"/>
<path d="M798.221 28.4508L795.215 26.859L792.18 28.4508L792.758 25.0934L790.33 22.7201L793.712 22.2281L795.215 19.1602L796.718 22.2281L800.1 22.7201L797.643 25.0934L798.221 28.4508Z" fill="#FAE690"/>
<path d="M988.126 28.4508L985.12 26.859L982.085 28.4508L982.663 25.0934L980.206 22.7201L983.588 22.2281L985.12 19.1602L986.623 22.2281L990.005 22.7201L987.548 25.0934L988.126 28.4508Z" fill="#FAE690"/>
<path d="M950.521 28.4508L947.515 26.859L944.48 28.4508L945.058 25.0934L942.63 22.7201L946.011 22.2281L947.515 19.1602L949.018 22.2281L952.4 22.7201L949.943 25.0934L950.521 28.4508Z" fill="#FAE690"/>
<path d="M1322.56 62.748H1066.26V232.035H1322.56V62.748Z" fill="#E5A971"/>
<path d="M1324 233.482H1064.81V61.301H1324V233.482ZM1067.7 230.588H1321.11V64.1953H1067.7V230.588Z" fill="#231F20"/>
<path d="M1308.88 74.0068H1079.9V220.747H1308.88V74.0068Z" fill="white"/>
<path d="M1310.33 222.194H1078.45V72.5598H1310.33V222.194ZM1081.34 219.3H1307.44V75.4541H1081.34V219.3Z" fill="#231F20"/>
<path d="M1135.19 150.908H1079.9V152.355H1135.19V150.908Z" fill="#231F20"/>
<path d="M1160.53 73.7795L1159.17 77.9006L1160.54 78.3557L1161.91 74.2346L1160.53 73.7795Z" fill="#231F20"/>
<path d="M1152.16 208.678L1149.59 200.516L1150.98 200.082L1153.55 208.244L1152.16 208.678ZM1146.99 192.325L1144.41 184.163L1145.8 183.729L1148.37 191.891L1146.99 192.325ZM1141.84 176.001L1139.27 167.84L1140.66 167.405L1143.23 175.567L1141.84 176.001ZM1136.7 159.678L1134.47 152.587L1134.96 151.082L1136.32 151.545L1135.97 152.616L1138.06 159.243L1136.67 159.678H1136.7ZM1139.04 143.383L1137.68 142.92L1140.37 134.787L1141.73 135.25L1139.04 143.383ZM1144.41 127.146L1143.06 126.683L1145.74 118.55L1147.1 119.013L1144.41 127.146ZM1149.79 110.88L1148.43 110.417L1151.12 102.284L1152.48 102.747L1149.79 110.88ZM1155.17 94.6141L1153.81 94.151L1156.5 86.0181L1157.86 86.4812L1155.17 94.6141Z" fill="#231F20"/>
<path d="M1156.09 216.373L1154.71 216.808L1156.01 220.949L1157.39 220.513L1156.09 216.373Z" fill="#231F20"/>
<path d="M1142.3 156.812C1139.91 156.812 1137.97 154.526 1137.97 151.718C1137.97 148.911 1139.91 146.653 1142.3 146.653C1144.7 146.653 1146.64 148.94 1146.64 151.718C1146.64 154.497 1144.7 156.812 1142.3 156.812ZM1142.3 148.1C1140.71 148.1 1139.41 149.721 1139.41 151.718C1139.41 153.715 1140.71 155.365 1142.3 155.365C1143.89 155.365 1145.19 153.744 1145.19 151.718C1145.19 149.692 1143.89 148.1 1142.3 148.1Z" fill="#231F20"/>
<path d="M1148.95 154.121H1147.51V158.52H1148.95V154.121Z" fill="#231F20"/>
<path d="M1224.51 141.589C1222.11 141.589 1220.17 139.302 1220.17 136.495C1220.17 133.687 1222.11 131.401 1224.51 131.401C1226.91 131.401 1228.85 133.687 1228.85 136.495C1228.85 139.302 1226.91 141.589 1224.51 141.589ZM1224.51 132.877C1222.92 132.877 1221.62 134.498 1221.62 136.524C1221.62 138.55 1222.92 140.17 1224.51 140.17C1226.1 140.17 1227.4 138.55 1227.4 136.524C1227.4 134.498 1226.1 132.877 1224.51 132.877Z" fill="#231F20"/>
<path d="M1228.5 146.422V145.988L1229.05 145.438C1230.38 144.164 1230.98 143.499 1230.98 142.717C1230.98 142.196 1230.72 141.704 1229.94 141.704C1229.48 141.704 1229.08 141.936 1228.85 142.138L1228.61 141.646C1228.96 141.328 1229.48 141.125 1230.09 141.125C1231.22 141.125 1231.68 141.907 1231.68 142.63C1231.68 143.585 1230.98 144.367 1229.89 145.438L1229.48 145.814H1231.82V146.393H1228.5V146.422Z" fill="black"/>
<path d="M1269.66 87.1181C1267.26 87.1181 1265.32 84.8316 1265.32 82.0241C1265.32 79.2167 1267.26 76.9302 1269.66 76.9302C1272.06 76.9302 1274 79.2167 1274 82.0241C1274 84.8316 1272.06 87.1181 1269.66 87.1181ZM1269.66 78.4063C1268.07 78.4063 1266.77 80.0271 1266.77 82.0531C1266.77 84.0791 1268.07 85.6999 1269.66 85.6999C1271.25 85.6999 1272.55 84.0791 1272.55 82.0531C1272.55 80.0271 1271.25 78.4063 1269.66 78.4063Z" fill="#231F20"/>
<path d="M1273.82 91.112C1274.02 91.2278 1274.49 91.4304 1274.98 91.4304C1275.87 91.4304 1276.16 90.8515 1276.16 90.4174C1276.16 89.6938 1275.5 89.3754 1274.8 89.3754H1274.4V88.8545H1274.8C1275.32 88.8545 1275.96 88.594 1275.96 87.9572C1275.96 87.552 1275.7 87.1758 1275.04 87.1758C1274.63 87.1758 1274.23 87.3494 1274 87.5231L1273.82 87.0021C1274.08 86.7995 1274.63 86.5969 1275.18 86.5969C1276.22 86.5969 1276.68 87.2047 1276.68 87.8415C1276.68 88.3914 1276.37 88.8255 1275.73 89.0571C1276.37 89.2018 1276.89 89.6938 1276.89 90.4174C1276.89 91.2567 1276.25 91.9803 1274.98 91.9803C1274.4 91.9803 1273.88 91.8066 1273.62 91.633L1273.82 91.0831V91.112Z" fill="black"/>
<path d="M1308.88 201.963C1305.96 201.963 1303.02 201.732 1300.13 201.269L1300.36 199.85C1303.16 200.313 1306.02 200.516 1308.88 200.516V201.963ZM1291.63 199.156C1288.85 198.229 1286.14 197.072 1283.56 195.711L1284.23 194.438C1286.74 195.769 1289.4 196.898 1292.09 197.795L1291.63 199.156ZM1276.13 190.994C1273.79 189.228 1271.6 187.26 1269.57 185.147L1270.61 184.134C1272.58 186.189 1274.72 188.1 1277 189.807L1276.13 190.965V190.994ZM1264.02 178.375C1262.38 175.972 1260.87 173.397 1259.63 170.763L1260.93 170.155C1262.14 172.731 1263.59 175.22 1265.21 177.564L1264.02 178.375ZM1256.51 162.543C1255.7 159.736 1255.12 156.841 1254.77 153.918L1256.22 153.744C1256.57 156.581 1257.11 159.388 1257.92 162.138L1256.54 162.543H1256.51ZM1255.87 145.206L1254.43 145.148C1254.54 142.225 1254.89 139.302 1255.47 136.437L1256.88 136.726C1256.31 139.504 1255.99 142.37 1255.87 145.206ZM1259.28 128.506L1257.92 127.985C1258.96 125.236 1260.24 122.573 1261.71 120.055L1262.95 120.778C1261.54 123.239 1260.29 125.843 1259.28 128.506ZM1267.84 113.745L1266.71 112.819C1268.56 110.562 1270.61 108.42 1272.81 106.481L1273.76 107.552C1271.63 109.433 1269.63 111.517 1267.84 113.716V113.745ZM1280.59 102.429L1279.81 101.213C1282.26 99.6502 1284.89 98.2898 1287.58 97.1321L1288.16 98.4635C1285.56 99.5633 1283.01 100.924 1280.59 102.429ZM1296.25 95.7718L1295.91 94.3536C1298.74 93.659 1301.66 93.1959 1304.58 92.9644L1304.69 94.4115C1301.86 94.643 1299.03 95.0772 1296.25 95.7718Z" fill="#231F20"/>
<path d="M1310.07 155.163L1230.26 135.163L1230.61 133.745L1307.73 153.079L1279.92 80.4612L1281.28 79.9402L1310.07 155.163Z" fill="#231F20"/>
<defs>
<linearGradient id="paint0_linear_4_229194" x1="846.116" y1="45.8742" x2="825.534" y2="69.2622" gradientUnits="userSpaceOnUse">
<stop offset="0.13" stop-color="#757487"/>
<stop offset="1" stop-color="#9497AD"/>
</linearGradient>
<linearGradient id="paint1_linear_4_229194" x1="801.771" y1="100.013" x2="834.293" y2="49.907" gradientUnits="userSpaceOnUse">
<stop offset="0.46" stop-color="#9497AD" stop-opacity="0"/>
<stop offset="0.47" stop-color="#9497AD" stop-opacity="0.06"/>
<stop offset="0.52" stop-color="#9497AD" stop-opacity="0.4"/>
<stop offset="0.56" stop-color="#9497AD" stop-opacity="0.66"/>
<stop offset="0.6" stop-color="#9497AD" stop-opacity="0.84"/>
<stop offset="0.63" stop-color="#9497AD" stop-opacity="0.96"/>
<stop offset="0.66" stop-color="#9497AD"/>
</linearGradient>
<linearGradient id="paint2_linear_4_229194" x1="836.057" y1="55.5701" x2="829.893" y2="61.4953" gradientUnits="userSpaceOnUse">
<stop offset="0.3" stop-color="#A7DAF5" stop-opacity="0"/>
<stop offset="0.38" stop-color="#A7DAF5" stop-opacity="0.12"/>
<stop offset="0.81" stop-color="#A7DAF5" stop-opacity="0.75"/>
<stop offset="1" stop-color="#A7DAF5"/>
</linearGradient>
<linearGradient id="paint3_linear_4_229194" x1="838.543" y1="58.1751" x2="832.407" y2="64.1002" gradientUnits="userSpaceOnUse">
<stop offset="0.3" stop-color="#A7DAF5" stop-opacity="0"/>
<stop offset="0.38" stop-color="#A7DAF5" stop-opacity="0.12"/>
<stop offset="0.81" stop-color="#A7DAF5" stop-opacity="0.75"/>
<stop offset="1" stop-color="#A7DAF5"/>
</linearGradient>
<radialGradient id="paint4_radial_4_229194" cx="0" cy="0" r="1" gradientUnits="userSpaceOnUse" gradientTransform="translate(823.859 68.0155) scale(28.3268 28.364)">
<stop offset="0.64" stop-color="#DEA3D7" stop-opacity="0"/>
<stop offset="0.77" stop-color="#DEA3D7"/>
</radialGradient>
<linearGradient id="paint5_linear_4_229194" x1="815.419" y1="79.5638" x2="808.036" y2="89.2214" gradientUnits="userSpaceOnUse">
<stop offset="0.3" stop-color="#A7DAF5" stop-opacity="0"/>
<stop offset="0.38" stop-color="#A7DAF5" stop-opacity="0.12"/>
<stop offset="0.81" stop-color="#A7DAF5" stop-opacity="0.75"/>
<stop offset="1" stop-color="#A7DAF5"/>
</linearGradient>
<linearGradient id="paint6_linear_4_229194" x1="807.875" y1="94.643" x2="827.53" y2="94.643" gradientUnits="userSpaceOnUse">
<stop stop-color="#9497AD" stop-opacity="0"/>
<stop offset="0.04" stop-color="#9497AD" stop-opacity="0.06"/>
<stop offset="0.29" stop-color="#9497AD" stop-opacity="0.4"/>
<stop offset="0.52" stop-color="#9497AD" stop-opacity="0.66"/>
<stop offset="0.72" stop-color="#9497AD" stop-opacity="0.84"/>
<stop offset="0.89" stop-color="#9497AD" stop-opacity="0.96"/>
<stop offset="1" stop-color="#9497AD"/>
</linearGradient>
</defs>
</svg>
