<svg width="1130" height="458" viewBox="0 0 1130 458" fill="none" xmlns="http://www.w3.org/2000/svg">
<g clip-path="url(#clip0_2_196)">
<path d="M55.6632 125.639H33.0901V222.524H0V2.07227H33.0901V90.4082H55.6632V2.07227H88.7534V222.783H55.6632V125.639Z" fill="#687F8A"/>
<path d="M145.699 225.114H139.286C112.866 225.114 98.7573 210.607 98.7573 183.407V139.11H131.591V177.708C131.591 187.811 134.926 193.251 142.364 193.251C150.316 193.251 153.138 187.811 153.138 174.34V169.419C153.138 153.617 151.599 148.176 139.543 132.374L118.765 104.656C104.657 86.2636 100.553 72.0158 100.553 49.9966V43.0023C100.553 13.7296 115.174 0 141.338 0H147.495C174.685 0 185.459 12.1753 185.459 38.3394V74.6063H153.395V42.7432C153.395 35.2308 151.855 29.7907 143.904 29.7907C135.952 29.7907 134.156 34.7127 134.156 45.3337V49.4785C134.156 61.9129 136.465 68.6482 147.751 83.414L168.785 110.873C183.663 130.561 188.537 141.7 188.537 166.569V173.563C188.537 205.945 174.685 225.114 145.699 225.114Z" fill="#687F8A"/>
<path d="M273.443 2.07227V34.1944H231.118V91.9625H264.208V125.38H231.118V189.106H275.238V222.524H198.028V2.07227H273.443Z" fill="#687F8A"/>
<path d="M364.761 181.076H340.649L336.288 222.524H306.533L333.21 1.81348H372.456L400.929 222.524H368.865L364.761 181.076ZM361.17 148.177L352.448 66.5759L343.984 148.177H361.17Z" fill="#687F8A"/>
<path d="M439.662 222.783H406.572V2.07227H460.44C482.5 2.07227 493.53 11.6571 493.53 36.2668V75.3834C493.53 93.7759 485.065 100.77 479.165 103.62C486.604 106.987 493.53 112.946 493.53 127.711V205.167C493.53 213.975 495.326 218.12 496.865 221.487V223.042H464.031C462.492 220.71 460.696 216.825 460.696 204.908V138.073C460.696 128.23 458.901 124.085 448.384 124.085H439.919L439.662 222.783ZM439.662 92.7397H448.384C457.618 92.7397 460.44 86.7815 460.44 76.9377V46.1107C460.44 36.5259 458.388 31.863 448.384 31.863H439.662V92.7397Z" fill="#687F8A"/>
<path d="M560.48 33.9354V222.524H527.646V33.9354H499.687V2.07227H588.44V34.1944L560.48 33.9354Z" fill="#687F8A"/>
<path d="M677.193 181.076H653.081L648.72 222.524H618.965L645.642 1.81348H684.889L713.361 222.524H681.297L677.193 181.076ZM673.602 148.177L664.881 66.5759L656.416 148.177H673.602Z" fill="#687F8A"/>
<path d="M748.76 2.07227L777.233 120.458V2.07227H807.502V222.783H780.568L748.76 95.8483V222.783H718.749V2.07227H748.76Z" fill="#687F8A"/>
<path d="M819.814 2.07227H870.86C899.333 2.07227 908.055 18.3924 908.055 44.5564V179.003C908.055 205.944 898.051 222.783 870.86 222.783H820.071V2.07227H819.814ZM853.161 190.66H861.113C871.117 190.66 873.939 185.22 873.939 173.563V49.2193C873.939 36.5259 870.604 32.122 862.396 32.122H852.905V190.66H853.161Z" fill="#687F8A"/>
<path d="M0 234.181H50.7895C79.2624 234.181 87.9838 250.501 87.9838 276.665V411.112C87.9838 438.053 77.9798 454.892 50.7895 454.892H0V234.181ZM33.0901 423.028H41.042C51.046 423.028 53.8676 417.588 53.8676 405.931V281.587C53.8676 268.894 50.533 264.49 42.3246 264.49H32.8336V423.028H33.0901Z" fill="#687F8A"/>
<path d="M175.454 234.181V266.303H133.13V324.071H166.22V357.489H133.13V421.215H177.25V454.633H99.7832V234.181H175.454Z" fill="#687F8A"/>
<path d="M230.092 457.223H223.679C197.258 457.223 183.15 442.716 183.15 415.516V371.219H215.984V409.817C215.984 419.92 219.318 425.36 226.757 425.36C234.709 425.36 237.531 419.92 237.531 406.449V401.527C237.531 385.725 235.992 380.285 223.935 364.483L202.901 337.283C188.793 318.891 184.689 304.643 184.689 282.624V275.629C184.689 246.357 199.31 232.627 225.474 232.627H231.631C259.078 232.627 269.595 244.802 269.595 270.966V307.233H237.531V275.37C237.531 267.858 235.992 262.418 228.04 262.418C220.088 262.418 218.292 267.34 218.292 277.961V282.105C218.292 294.54 220.601 301.275 231.887 316.041L252.921 343.5C267.799 363.188 272.673 374.327 272.673 399.196V406.19C272.929 438.053 259.078 457.223 230.092 457.223Z" fill="#687F8A"/>
<path d="M315.511 454.892H282.42V234.181H315.511V454.892Z" fill="#687F8A"/>
<path d="M358.604 458C339.109 458 326.797 440.385 326.797 417.589V279.515C326.797 254.905 336.288 232.109 367.582 232.109H373.995C409.65 232.109 413.755 255.423 413.755 281.587V304.125H381.434V279.256C381.434 269.412 379.125 264.231 370.917 264.231C363.991 264.231 360.657 269.671 360.657 279.256V408.263C360.657 418.625 364.761 424.065 371.43 424.065C379.895 424.065 383.743 418.107 383.743 409.817V354.639H368.865V320.704H415.294V454.892H396.568C396.312 453.596 393.747 442.716 390.925 433.131C388.616 440.644 377.33 457.741 360.657 457.741H358.604V458Z" fill="#687F8A"/>
<path d="M456.849 234.181L485.322 352.567V234.181H515.59V454.892H488.656L456.849 327.957V454.892H426.837V234.181H456.849Z" fill="#687F8A"/>
<path d="M602.291 457.223H595.879C569.458 457.223 555.35 442.716 555.35 415.516V371.219H588.183V409.817C588.183 419.92 591.518 425.36 598.957 425.36C606.909 425.36 609.73 419.92 609.73 406.449V401.527C609.73 385.725 608.191 380.285 596.135 364.483L575.101 337.283C560.993 318.891 556.889 304.643 556.889 282.624V275.629C556.889 246.357 571.51 232.627 597.674 232.627H603.83C631.021 232.627 641.794 244.802 641.794 270.966V307.233H609.73V275.37C609.73 267.858 608.191 262.418 600.239 262.418C592.287 262.418 590.492 267.34 590.492 277.961V282.105C590.492 294.54 592.8 301.275 604.087 316.041L625.121 343.5C639.999 363.188 644.872 374.327 644.872 399.196V406.19C645.129 438.053 631.277 457.223 602.291 457.223Z" fill="#687F8A"/>
<path d="M708.744 410.076V358.784H741.321V409.817C741.321 433.649 733.626 457.482 701.562 457.482H694.123C660.52 457.482 653.337 433.131 653.337 410.853V276.147C653.337 253.61 663.085 231.85 693.097 231.85H700.792C737.217 231.85 741.321 256.2 741.321 277.701V317.077H708.744V278.22C708.744 268.635 705.922 263.713 697.458 263.713C689.249 263.713 687.197 268.376 687.197 278.22V409.299C687.197 419.143 690.532 424.324 697.714 424.324C705.922 425.101 708.744 419.143 708.744 410.076Z" fill="#687F8A"/>
<path d="M807.758 358.007H785.185V454.892H752.095V234.181H785.185V322.517H807.758V234.181H840.848V454.892H807.758V358.007Z" fill="#687F8A"/>
<path d="M943.197 405.672C943.197 436.499 932.937 457.482 900.873 457.482H895.229C863.422 457.482 852.392 436.499 852.392 405.672V282.883C852.392 252.315 863.935 232.109 894.973 232.109H900.616C932.937 232.109 943.197 252.315 943.197 282.624V405.672ZM909.337 281.069C909.337 269.412 905.49 264.231 897.794 264.231C889.329 264.231 885.995 269.93 885.995 281.069V408.004C885.995 417.589 888.56 424.842 898.051 424.842C906.772 424.842 909.337 417.329 909.337 408.004V281.069Z" fill="#687F8A"/>
<path d="M1044.52 405.672C1044.52 436.499 1034.26 457.482 1002.19 457.482H996.552C964.744 457.482 953.714 436.499 953.714 405.672V282.883C953.714 252.315 965.257 232.109 996.295 232.109H1001.94C1034.26 232.109 1044.52 252.315 1044.52 282.624V405.672ZM1010.66 281.069C1010.66 269.412 1006.81 264.231 999.117 264.231C990.652 264.231 987.317 269.93 987.317 281.069V408.004C987.317 417.589 989.882 424.842 999.373 424.842C1008.09 424.842 1010.66 417.329 1010.66 408.004V281.069Z" fill="#687F8A"/>
<path d="M1089.15 234.181V420.697H1129.68V454.892H1056.06V234.181H1089.15Z" fill="#687F8A"/>
</g>
<defs>
<clipPath id="clip0_2_196">
<rect width="1130" height="458" fill="white"/>
</clipPath>
</defs>
</svg>
