<svg width="100" height="128" viewBox="0 0 100 128" fill="none" xmlns="http://www.w3.org/2000/svg">
<path d="M49.9816 89.5845C74.9104 89.5845 95.1191 82.638 95.1191 74.0689C95.1191 65.4999 74.9104 58.5533 49.9816 58.5533C25.0528 58.5533 4.84399 65.4999 4.84399 74.0689C4.84399 82.638 25.0528 89.5845 49.9816 89.5845Z" fill="#2E4660" stroke="#221F20" stroke-width="0.903025" stroke-miterlimit="10"/>
<path d="M49.9816 91.5137C74.9104 91.5137 95.1191 71.3049 95.1191 46.3761C95.1191 21.4473 74.9104 1.23853 49.9816 1.23853C25.0528 1.23853 4.84399 21.4473 4.84399 46.3761C4.84399 71.3049 25.0528 91.5137 49.9816 91.5137Z" fill="#8F8CBF" stroke="#221F20" stroke-width="1.28613" stroke-miterlimit="10"/>
<path d="M98.5807 119.877C66.7833 128.675 33.1798 128.675 1.38239 119.877L5.45968 76.6139C5.45968 76.6139 9.11283 82.9761 49.9816 82.9761C90.8503 82.9761 94.5171 76.6139 94.5171 76.6139L98.5807 119.877Z" fill="#4D667F" stroke="#221F20" stroke-width="1.54609" stroke-miterlimit="10"/>
</svg>
