<svg width="495" height="688" viewBox="0 0 495 688" fill="none" xmlns="http://www.w3.org/2000/svg">
<mask id="path-1-inside-1_2126_5" fill="white">
<path fill-rule="evenodd" clip-rule="evenodd" d="M165.914 688C347.34 688 494.414 533.986 494.414 344C494.414 154.014 347.34 0 165.914 0C105.392 0 48.6921 17.1394 7.3124e-06 47.0359C13.3628 45.0352 27.0229 44 40.914 44C199.144 44 327.414 178.315 327.414 344C327.414 509.685 199.144 644 40.914 644C27.0229 644 13.3628 642.965 0 640.964C48.6921 670.861 105.392 688 165.914 688Z"/>
</mask>
<path fill-rule="evenodd" clip-rule="evenodd" d="M165.914 688C347.34 688 494.414 533.986 494.414 344C494.414 154.014 347.34 0 165.914 0C105.392 0 48.6921 17.1394 7.3124e-06 47.0359C13.3628 45.0352 27.0229 44 40.914 44C199.144 44 327.414 178.315 327.414 344C327.414 509.685 199.144 644 40.914 644C27.0229 644 13.3628 642.965 0 640.964C48.6921 670.861 105.392 688 165.914 688Z" fill="#FBE88E"/>
<path d="M7.3124e-06 47.0359L-2.09294 43.6272L0.592301 50.9918L7.3124e-06 47.0359ZM0 640.964L0.592296 637.008L-2.09294 644.373L0 640.964ZM490.414 344C490.414 531.953 344.959 684 165.914 684V692C349.72 692 498.414 536.019 498.414 344H490.414ZM165.914 4C344.959 4 490.414 156.047 490.414 344H498.414C498.414 151.981 349.72 -4 165.914 -4V4ZM2.09295 50.4447C50.1809 20.9191 106.16 4 165.914 4V-4C104.623 -4 47.2033 13.3597 -2.09294 43.6272L2.09295 50.4447ZM0.592301 50.9918C13.7598 49.0203 27.222 48 40.914 48V40C26.8239 40 12.9657 41.05 -0.592286 43.08L0.592301 50.9918ZM40.914 48C196.763 48 323.414 180.348 323.414 344H331.414C331.414 176.281 201.524 40 40.914 40V48ZM323.414 344C323.414 507.652 196.763 640 40.914 640V648C201.524 648 331.414 511.719 331.414 344H323.414ZM40.914 640C27.222 640 13.7598 638.98 0.592296 637.008L-0.592296 644.92C12.9657 646.95 26.8239 648 40.914 648V640ZM165.914 684C106.16 684 50.1809 667.081 2.09294 637.555L-2.09294 644.373C47.2033 674.64 104.623 692 165.914 692V684Z" fill="#C57600" mask="url(#path-1-inside-1_2126_5)"/>
</svg>
