<svg width="57" height="85" viewBox="0 0 57 85" fill="none" xmlns="http://www.w3.org/2000/svg">
<path d="M1.03326 5.21548H50.7407C53.7508 5.21548 56.1999 7.66458 56.1999 10.6747V73.8317C56.1999 76.8418 53.7508 79.2909 50.7407 79.2909H1.03326V5.20178V5.21548Z" fill="#F0CCA3"/>
<path d="M36.7028 5.21552H31.2573V79.3046H36.7028V5.21552Z" fill="#EFB377"/>
<path d="M1.03326 5.21548H50.7407C53.7508 5.21548 56.1999 7.66458 56.1999 10.6747V73.8317C56.1999 76.8418 53.7508 79.2909 50.7407 79.2909H1.03326V5.20178V5.21548Z" stroke="#221F20" stroke-width="1.36822" stroke-miterlimit="10"/>
<path d="M41.56 1.34338H37.1269C36.0841 1.34338 35.2388 2.18874 35.2388 3.23153V81.2885C35.2388 82.3313 36.0841 83.1767 37.1269 83.1767H41.56C42.6028 83.1767 43.4481 82.3313 43.4481 81.2885V3.23153C43.4481 2.18874 42.6028 1.34338 41.56 1.34338Z" fill="white" stroke="#221F20" stroke-width="1.765" stroke-miterlimit="10"/>
</svg>
