<svg width="101" height="102" viewBox="0 0 101 102" fill="none" xmlns="http://www.w3.org/2000/svg">
<path d="M41.9524 62.5331C41.9524 62.5331 39.6805 61.7195 36.4549 61.0742C31.855 60.1484 25.2355 59.5312 20.2989 61.9439C18.1111 63.01 16.2599 64.6933 15.0538 67.1902C12.7258 72.0156 12.7819 76.0836 13.5953 79.0854C14.2685 81.6665 15.4745 83.462 16.1477 84.3317C16.4562 84.7244 16.6526 84.9209 16.6526 84.9209L16.1758 85.1733L15.5307 85.51L13.3428 86.6322L8.06977 83.0692L5.68562 81.4701L2.54419 79.366L4.59168 62.6453V62.3367L5.26491 57.2027L10.0331 53.1627L14.1283 49.684L18.0831 46.3174L24.5062 50.6939L35.2769 58.0162L41.9244 62.5611L41.9524 62.5331Z" fill="#EC84C3"/>
<path d="M13.2868 87.3895L1.84302 79.6744L4.64788 56.8659L18.0551 45.4756L46.4403 64.8054L41.7281 63.1221C41.7281 63.1221 39.4561 62.3365 36.3147 61.6913C31.7428 60.7655 25.3197 60.1763 20.5795 62.5049C18.3356 63.599 16.6807 65.2543 15.6149 67.4425C13.7076 71.3983 13.2307 75.2418 14.1844 78.8889C14.8295 81.3577 16.0075 83.0971 16.6246 83.9107C16.877 84.2474 17.0734 84.4157 17.0734 84.4438L17.6905 85.061L13.2868 87.3334V87.3895ZM3.21737 79.0572L13.371 85.9026L15.6149 84.7524C14.9137 83.8546 13.6515 81.9749 12.9502 79.2817C11.9124 75.326 12.4173 71.1738 14.4649 66.9375C15.6429 64.4968 17.5221 62.6171 20.0185 61.3827C25.0953 58.8858 31.8269 59.503 36.5952 60.4569C37.2123 60.5691 37.7733 60.7094 38.3062 60.8216L18.1672 47.1028L5.91001 57.5392L3.27344 79.0572H3.21737Z" fill="#231F20"/>
<path d="M97.8532 55.996C96.7873 59.1381 95.4411 61.5789 94.4033 63.0097C93.8984 63.7391 92.8325 65.198 91.0093 67.1618C90.5325 67.6668 90.0277 68.1998 89.4667 68.7609C88.0362 70.1917 86.2692 71.7908 84.1375 73.5302C81.9497 75.2977 79.3692 77.2054 76.34 79.1693C75.807 79.534 75.246 79.8706 74.657 80.2353C72.8339 81.3856 70.8424 82.5359 68.7107 83.6861C68.4863 83.8264 68.2339 83.9386 68.0095 84.0789C62.9047 86.8282 56.8742 89.6057 49.8059 92.2989C45.1498 94.0664 40.9706 95.4972 37.2121 96.6194C36.0902 96.956 34.9963 97.2927 33.9305 97.5732C31.911 98.1343 30.0036 98.6113 28.2646 99.004C26.9183 99.3126 25.6561 99.5651 24.45 99.7896C13.0904 101.894 8.29402 100.463 6.89159 100.238C4.73185 99.9018 2.12329 94.3189 2.12329 94.3189L5.96602 89.6898L12.894 81.3295C16.3721 83.658 20.8879 84.5558 25.4037 83.4336C33.6219 81.3856 38.6987 73.418 36.7633 65.6188C35.6414 61.0739 32.3597 57.5951 28.2085 55.8837L45.4865 17.2803L52.0779 2.52344C52.0779 2.52344 52.6389 2.74788 53.5645 3.25287C53.7328 3.33703 53.873 3.44925 54.0413 3.53341C57.0986 5.35698 62.9888 9.73354 66.1583 17.4767C66.9437 19.3844 67.5046 21.3763 67.9254 23.3121C68.1498 24.4343 68.3181 25.5284 68.4583 26.6225C69.3839 34.3376 68.0937 40.8744 68.0937 40.8744L90.3362 34.9548L95.3569 33.6082C95.3569 33.6082 95.3568 33.6082 95.3849 33.6082C95.7495 33.9168 99.3398 37.059 99.5642 44.9424C99.6764 49.0384 98.9191 52.7977 97.8813 55.8837L97.8532 55.996Z" fill="#EC84C3"/>
<path d="M13.4831 101.585C10.2295 101.585 8.26607 101.192 7.22827 100.996C7.03193 100.968 6.86366 100.912 6.72342 100.912C4.33929 100.547 1.92712 95.6093 1.47834 94.6555L1.31006 94.2908L12.6978 80.5439L13.1746 80.8806C16.6245 83.1811 21.0002 83.9385 25.1514 82.9005C33.005 80.9367 37.8854 73.3058 36.0622 65.8712C35.0244 61.663 32.0513 58.2964 27.8721 56.5851L27.255 56.3326L51.6572 1.79395L52.2463 2.01839C52.2463 2.01839 52.8634 2.27089 53.789 2.83198L54.2658 3.11253C57.4914 5.04831 63.4096 9.48098 66.6633 17.3644C67.4206 19.188 68.0096 21.2079 68.4584 23.312C68.6828 24.4061 68.8792 25.5284 68.9913 26.6786C69.7206 32.7104 69.1035 37.9847 68.795 40.1169L95.357 33.047L95.5814 33.1873C96.1143 33.6081 99.8728 36.9467 100.097 45.0826C100.209 48.8139 99.6204 52.5732 98.3862 56.2484C97.0679 60.12 95.4973 62.5607 94.8522 63.4304C94.4314 64.0196 93.3095 65.5626 91.4022 67.6387C90.9253 68.1437 90.4205 68.6767 89.8314 69.2659C88.2046 70.893 86.3814 72.5202 84.4461 74.0913C82.0619 76.0271 79.4254 77.9348 76.5925 79.7864C76.0315 80.1511 75.4705 80.4878 74.9096 80.8525C73.0023 82.0308 70.9827 83.2091 68.9352 84.3313L68.234 84.7241C62.7084 87.6979 56.5377 90.4753 49.9463 92.9722C45.4866 94.6555 41.2512 96.1143 37.2964 97.3207C36.1744 97.6574 35.0525 97.994 34.0147 98.2745C32.0794 98.8076 30.144 99.3126 28.2928 99.7054C26.9465 100.014 25.6562 100.266 24.4502 100.491C19.738 101.361 16.1478 101.641 13.4271 101.641L13.4831 101.585ZM2.8527 94.4591C3.91854 96.6193 5.76973 99.4529 6.94777 99.6212C7.08801 99.6212 7.28439 99.6773 7.50878 99.7334C9.33193 100.098 14.1844 101.052 24.2819 99.1723C25.4599 98.9479 26.722 98.6954 28.0684 98.3868C29.8915 97.9659 31.7989 97.489 33.7062 96.956C34.744 96.6754 35.8379 96.3388 36.9598 96.0021C40.8866 94.8238 45.0939 93.365 49.5256 91.6817C56.0609 89.1848 62.1755 86.4354 67.645 83.4897L68.3462 83.0969C70.3937 81.9747 72.3852 80.8244 74.2644 79.6461C74.8254 79.2814 75.3864 78.9448 75.9473 78.5801C78.7242 76.7565 81.3327 74.8768 83.6888 72.9691C85.5961 71.4261 87.3912 69.8269 88.9899 68.2278C89.5509 67.6667 90.0558 67.1337 90.5046 66.6567C92.3838 64.6368 93.4497 63.1218 93.8704 62.5607C94.4595 61.7472 95.9741 59.4186 97.2082 55.7154C98.3863 52.1804 98.9472 48.5894 98.835 44.9984C98.6387 38.2372 95.946 35.1511 95.1046 34.3376L67.1681 41.7721L67.3645 40.7621C67.3645 40.7621 68.6267 34.1973 67.7291 26.7067C67.5889 25.6125 67.4206 24.5184 67.1962 23.4523C66.7755 21.4043 66.1865 19.4966 65.4853 17.7291C62.3999 10.2104 56.7341 5.94606 53.6207 4.09444L53.1438 3.8139C52.8072 3.61751 52.5268 3.47723 52.3024 3.36501L28.9379 55.519C33.1452 57.4548 36.1745 61.0177 37.2684 65.4223C39.2879 73.5582 33.9867 81.8905 25.4319 84.0227C21.1124 85.0888 16.5685 84.4155 12.8941 82.143L2.76856 94.3749L2.8527 94.4591Z" fill="#231F20"/>
<path d="M68.4301 26.7068L45.4302 17.3364L52.0216 2.57959C52.0216 2.57959 52.5826 2.80403 53.5082 3.30902C53.6765 3.39319 53.8168 3.5054 53.9851 3.58957C57.0423 5.41313 62.9326 9.78969 66.1021 17.5328C66.8874 19.4406 67.4483 21.4325 67.8691 23.3682C68.0934 24.4904 68.2617 25.5846 68.402 26.6787L68.4301 26.7068Z" fill="#EC84C3"/>
<path d="M69.1875 27.7168L44.5608 17.7013L51.7132 1.76611L52.3022 1.99056C52.3022 1.99056 52.9193 2.24305 53.8449 2.80415L54.3217 3.08469C57.5473 5.02048 63.4656 9.45315 66.7193 17.3366C67.4766 19.1601 68.0655 21.1801 68.5143 23.2842C68.7387 24.3783 68.9351 25.5005 69.0473 26.6508L69.1875 27.7449V27.7168ZM46.2998 16.9999L67.6448 25.6969C67.5326 24.9675 67.4204 24.238 67.2521 23.5367C66.8314 21.4887 66.2424 19.5809 65.5412 17.8135C62.4558 10.2948 56.79 6.03045 53.6766 4.17883L53.1998 3.89829C52.8632 3.7019 52.5827 3.56164 52.3583 3.44942L46.2998 16.9999Z" fill="#231F20"/>
<path d="M95.3569 33.7208C95.0764 33.1316 94.7118 32.5986 94.3191 32.0936C89.018 25.5849 74.657 23.8455 67.8973 23.3966C65.7095 23.2563 64.3352 23.2283 64.3352 23.2283C64.3352 23.2283 63.4376 9.34113 54.0413 3.61794C53.873 3.53378 53.7328 3.42156 53.5645 3.3374C53.0877 3.05685 52.5828 2.83241 52.0499 2.60797C49.1889 1.37355 45.6828 0.840517 41.3914 1.42967C20.0464 4.37543 3.69409 47.1029 1.64654 67.3305C-0.036376 83.8548 1.36604 91.4857 1.89897 93.674C2.01116 94.1509 2.09533 94.3754 2.09533 94.3754C2.09533 94.3754 12.305 97.0967 52.078 79.366C89.5228 62.6734 100.181 43.1472 95.3849 33.7208H95.3569ZM25.3476 83.462C20.8318 84.5842 16.3159 83.6865 12.8379 81.3579C9.97695 79.4502 7.81719 76.5605 6.94768 73.0537C5.01233 65.2544 10.0892 57.2869 18.3074 55.2389C21.7293 54.3972 25.1513 54.7058 28.1244 55.9122C32.2756 57.6235 35.5573 61.1023 36.6792 65.6472C38.6146 73.4464 33.5378 81.414 25.3196 83.462H25.3476Z" fill="#F4A9D4" stroke="#231F20" stroke-miterlimit="10"/>
<path d="M64.3071 23.228C64.3071 23.228 58.1644 5.1046 47.2816 3.75797C36.4548 2.41133 23.6366 15.9899 23.4403 16.1863L26.4976 14.8116C26.4976 14.8116 10.1452 33.5522 5.20868 56.5572C0.468468 78.6363 2.45994 92.5515 1.89897 93.6457C1.36604 91.4574 -0.036376 83.8265 1.64654 67.3022C3.69409 47.0746 20.0464 4.37516 41.3914 1.40135C45.7108 0.812197 49.217 1.34523 52.0499 2.57965C52.5828 2.80409 53.0597 3.05659 53.5645 3.30908C53.7328 3.39324 53.873 3.50546 54.0413 3.58962C63.4656 9.34087 64.3352 23.2 64.3352 23.2L64.3071 23.228Z" fill="#FFE6F5"/>
</svg>
