<svg width="101" height="217" viewBox="0 0 101 217" fill="none" xmlns="http://www.w3.org/2000/svg">
<path d="M99.1345 166.919C96.3296 181.732 86.0077 194.132 71.759 200.473C38.2971 216.127 0.711934 195.226 1.69364 158.194C1.74973 156.202 1.86193 154.322 2.00217 152.527C4.4985 123.266 19.6728 120.685 25.6471 98.1285C26.0679 96.5013 26.4606 94.7619 26.7971 92.8822C31.902 63.9296 17.8216 21.9596 17.6252 21.4265C17.6252 21.4265 8.98627 23.1379 8.5375 22.4365C8.22896 22.3804 6.74238 22.0157 6.60214 21.9035C5.4802 21.0057 4.52655 17.6672 5.28386 15.4228C5.28386 15.1142 5.368 14.8336 5.4802 14.6653C5.53629 14.5811 5.64849 14.497 5.81678 14.4128C5.90093 14.3287 5.95702 14.2164 6.06922 14.1323C8.00457 12.1965 41.1861 6.50135 42.6446 7.53938C44.5799 8.94213 44.4958 16.1522 42.7848 16.7414C42.1678 16.9378 34.6227 18.2283 33.641 18.3686C33.7812 21.8754 35.6605 63.8735 49.9933 88.3093C53.3592 94.0325 56.8652 98.1285 60.3994 101.355C72.6285 112.577 85.559 114.064 96.3016 140.716C99.9479 149.777 100.705 158.727 99.1345 166.919Z" fill="#74B9DD"/>
<path d="M48.5909 206.701C38.8861 206.701 29.4618 204.008 21.3277 198.677C7.78022 189.812 0.291242 175.027 0.740019 158.166C0.796117 156.174 0.90831 154.238 1.04855 152.443C2.50708 135.357 8.31314 127.081 13.9229 119.086C17.9899 113.278 22.1972 107.302 24.6935 97.8761C25.1143 96.2489 25.5069 94.5095 25.8155 92.714C30.4715 66.1741 18.8594 28.4684 16.9521 22.5207C10.3326 23.7552 8.64972 23.671 8.03265 23.3063C7.44363 23.1941 6.32169 22.9135 5.98511 22.661C4.55463 21.5108 3.51683 17.8356 4.30219 15.2545C4.33024 14.8057 4.44244 14.469 4.61073 14.1604C4.75097 13.936 4.94731 13.7676 5.14365 13.6554C5.19975 13.5993 5.25584 13.5151 5.33999 13.459C7.55583 11.2427 41.13 5.29506 43.1776 6.75391C44.9727 8.04444 45.2532 12.0563 44.8605 14.4971C44.58 16.2926 43.9629 17.3586 43.0373 17.6392C42.3922 17.8636 36.8105 18.7894 34.5947 19.1542C34.9313 26.5887 37.3154 64.8555 50.7787 87.7763C53.7799 92.8823 57.0336 96.9783 61.0165 100.597C64.3542 103.655 67.8042 106.012 71.1701 108.312C80.0895 114.428 89.2895 120.741 97.1711 140.295C100.705 149.104 101.715 158.362 100.06 167.059C97.2272 182.013 86.7931 194.806 72.1237 201.314C64.4664 204.905 56.4165 206.673 48.5629 206.673L48.5909 206.701ZM18.1021 20.3605L18.5228 21.146C18.6631 21.5669 32.8557 63.8736 27.7228 93.0787C27.3862 94.9303 26.9935 96.6977 26.5728 98.381C23.9923 108.144 19.6728 114.288 15.4936 120.208C9.77167 128.344 4.35829 136.031 2.95586 152.611C2.81562 154.379 2.70342 156.258 2.64732 158.222C2.22659 174.41 9.40704 188.549 22.3655 197.05C36.53 206.336 54.8458 207.29 71.3384 199.575C85.4468 193.319 95.4602 181.031 98.1809 166.723C99.7796 158.278 98.854 149.637 95.376 141.052C87.7187 122.031 79.1359 116.168 70.0762 109.94C66.6823 107.611 63.1482 105.198 59.7262 102.056C55.6592 98.3249 52.1812 94.0045 49.1239 88.7863C34.763 64.3505 32.7996 23.0257 32.6313 18.3967V17.527L33.4447 17.4148C34.6227 17.2464 41.8312 16.012 42.4202 15.8156C42.6166 15.6473 43.0654 14.469 43.0654 12.449C43.0654 10.373 42.5885 8.85803 42.1117 8.40915C38.8581 7.87611 8.59363 13.3187 6.68632 14.8618C6.65827 14.8898 6.60218 14.9459 6.54608 15.0301L6.23755 15.2826C6.23755 15.2826 6.23755 15.3948 6.23755 15.507L6.18145 15.7595C5.53633 17.6953 6.46193 20.585 7.1912 21.1741C7.27534 21.1741 8.39729 21.4547 8.64972 21.5108L9.1546 21.6791C9.88386 21.7352 12.1838 21.5108 17.2606 20.5569L18.1021 20.3886V20.3605Z" fill="#231F20"/>
<path d="M60.5829 213.225C70.2483 211.483 77.736 208.141 77.3072 205.762C76.8785 203.384 68.6956 202.868 59.0302 204.611C49.3649 206.354 41.8771 209.695 42.3059 212.074C42.7347 214.453 50.9176 214.968 60.5829 213.225Z" fill="#74B9DD"/>
<path d="M49.9374 215.23C45.5337 215.23 41.7752 214.528 41.3545 212.256C41.046 210.573 42.785 208.889 46.4874 207.234C49.713 205.803 54.1166 204.541 58.8568 203.671C63.597 202.801 68.1689 202.465 71.7031 202.689C75.7701 202.942 77.9579 203.924 78.2664 205.607C78.575 207.29 76.836 208.973 73.1336 210.629C69.908 212.059 65.5043 213.322 60.7641 214.192C57.8471 214.725 53.6678 215.23 49.9374 215.23ZM69.5153 204.569C66.486 204.569 62.9239 204.934 59.2214 205.579C54.6215 206.42 50.3861 207.627 47.3008 209.001C43.7947 210.544 43.2337 211.695 43.2898 211.919C43.4581 212.929 49.5166 214.248 60.4556 212.284C65.0556 211.442 69.2909 210.236 72.3762 208.861C75.8823 207.318 76.4433 206.168 76.3872 205.943C76.3591 205.719 75.4335 204.849 71.5909 204.625C70.9458 204.597 70.2445 204.569 69.5153 204.569Z" fill="#231F20"/>
<path d="M76.2469 195.17L77.3127 205.775L42.3081 212.087L39.5312 201.371L76.2469 195.17Z" fill="#74B9DD"/>
<path d="M41.6069 213.182L38.3533 200.585L77.1164 194.048L78.3786 206.561L41.6069 213.182ZM40.7374 202.156L43.0093 210.965L76.2469 204.962L75.3774 196.293L40.7374 202.156Z" fill="#231F20"/>
<path d="M9.43508 15.7316C9.43508 15.7316 6.68632 6.30515 7.75217 5.26712C8.81801 4.2291 17.2887 1.90054 24.8899 0.694185C27.1618 0.329472 35.5483 0.0489233 36.5581 0.918623C37.5678 1.78832 38.802 12.1406 38.0166 12.5053C37.2313 12.87 11.0339 17.5832 9.43508 15.7596V15.7316Z" fill="#E5A971"/>
<path d="M9.54736 4.93063C10.9217 4.65008 32.0143 0.778509 33.6692 1.5921C35.324 2.40569 37.2874 9.92439 33.3887 11.5796C29.518 13.2349 12.8571 15.1987 11.4827 13.796C10.1083 12.3932 10.1083 6.86641 10.1083 6.86641L24.2448 4.93063H9.54736Z" fill="#F8C99D"/>
<path d="M7.44354 19.3506C7.44354 19.3506 6.2094 14.3568 7.44354 13.936C8.67768 13.5152 40.3165 7.28702 41.5506 8.94225C42.7848 10.5975 42.7848 14.3568 41.5506 15.1704C40.3165 15.984 30.3312 17.2465 30.3312 17.2465C30.3312 17.2465 33.669 78.8269 54.8737 98.8019C76.0785 118.777 89.8223 121.695 95.2076 146.243C100.593 170.791 73.5821 194.918 73.5821 194.918C73.5821 194.918 74.8163 204.064 73.1614 205.326C71.5065 206.589 54.0323 211.162 54.0323 211.162L69.431 203.25C69.431 203.25 47.8055 208.665 46.1506 208.665C44.4957 208.665 43.6543 203.671 43.6543 203.671C43.6543 203.671 18.2703 199.519 8.70573 171.211C2.14236 151.769 13.2496 128.175 20.8227 115.354C28.2556 102.786 31.958 88.3094 31.2007 73.7209C31.2007 73.3562 31.1727 72.9915 31.1446 72.6268C29.9105 52.2309 20.3179 18.537 20.3179 18.537L7.4155 19.3787L7.44354 19.3506Z" fill="#AAE0FC"/>
<path d="M42.0276 215.734L58.1836 207.43C52.5739 208.777 47.1044 210.039 46.1507 210.039C43.991 210.039 42.9251 207.093 42.4483 204.821C37.5959 203.671 16.0265 197.218 7.38756 171.632C0.599797 151.545 12.1558 127.277 19.6448 114.597C27.0216 102.112 30.5557 87.9726 29.8545 73.7488L29.7984 72.6827C28.7045 54.7276 20.9631 25.9153 19.3363 19.9957L6.40586 20.8373L6.12537 19.7151C4.55465 13.4589 6.43391 12.8417 7.05098 12.6453C7.35951 12.5331 40.5691 5.29495 42.7288 8.12849C43.8788 9.67151 44.1032 12.1123 43.8227 13.7395C43.6264 14.9739 43.1215 15.8716 42.3642 16.3766C41.1861 17.1622 35.7447 18.0038 31.8459 18.5088C32.4911 27.4583 36.9788 80.0331 55.8555 97.7918C61.8019 103.403 67.1872 107.667 71.9274 111.426C83.9322 120.965 92.6273 127.839 96.6102 145.934C101.771 169.304 79.0798 191.719 75.0969 195.451C75.2932 197.022 75.4615 198.705 75.4896 200.276L80.931 198.93L75.4896 201.735C75.4054 203.923 75.0127 205.719 74.0591 206.448C72.3201 207.767 58.6043 211.414 54.4531 212.508L42.0837 215.762L42.0276 215.734ZM21.3838 17.0499L21.6923 18.1441C21.7765 18.4807 31.313 52.2307 32.5472 72.5144L32.6033 73.6085C33.3606 88.3934 29.6862 103.066 22.0289 116.027C14.7924 128.287 3.57295 151.685 10.0241 170.734C19.196 197.835 43.6264 202.212 43.8507 202.24L44.8324 202.408L45.0007 203.39C45.2532 204.961 45.8702 206.701 46.291 207.178C48.3946 206.897 61.2128 203.811 69.0664 201.819L72.6286 200.921C72.6286 199.238 72.4603 197.106 72.1798 195.03L72.0676 194.3L72.6286 193.795C72.881 193.571 98.9943 169.921 93.8334 146.467C90.0748 129.353 82.1371 123.069 70.1603 113.559C65.364 109.743 59.9506 105.451 53.8921 99.7556C32.5191 79.6403 29.0411 19.7993 28.9008 17.2744L28.8447 15.9558L30.135 15.7875C34.6228 15.2264 39.952 14.3567 40.7934 13.9078C41.1581 13.515 41.2703 11.2426 40.5971 9.98011C36.8947 9.50318 12.4083 14.0761 8.28511 15.058C8.22902 15.5911 8.34121 16.6572 8.53755 17.7794L21.3558 16.9658L21.3838 17.0499ZM72.5725 203.194L67.0189 206.055C69.8518 205.186 71.8713 204.512 72.3481 204.176C72.4603 204.007 72.5164 203.671 72.5725 203.194Z" fill="#231F20"/>
<path d="M59.2495 195.956C41.663 201.202 30.5557 196.292 23.5436 187.904C11.062 172.951 11.5388 146.86 11.5388 146.86L67.6079 118.468C67.6079 118.468 69.4311 120.853 71.9555 124.809C82.1371 140.856 103.538 182.798 59.2495 195.984V195.956Z" fill="#F8C99D"/>
<path d="M44.524 138.191C43.963 138.471 43.402 138.78 42.8411 139.061C27.3582 146.916 13.362 150.367 11.5669 146.832C10.2766 144.279 15.6059 138.836 24.4131 133.057C27.9192 130.756 31.9582 128.428 36.3618 126.212C51.8447 118.356 65.8409 114.905 67.636 118.44C69.375 121.863 59.1373 130.56 44.552 138.191H44.524Z" fill="#FAE690"/>
<path d="M59.2493 195.956C41.6629 201.202 30.5556 196.292 23.5435 187.904C31.1446 189.307 48.1421 189.952 62.503 172.474C77.4809 154.238 74.1151 133.141 71.9273 124.809C82.1089 140.856 103.51 182.798 59.2213 195.984L59.2493 195.956Z" fill="#E5A971"/>
</svg>
