<svg width="55" height="94" viewBox="0 0 55 94" fill="none" xmlns="http://www.w3.org/2000/svg">
<g clip-path="url(#clip0_269_305960)">
<path d="M34.8926 70.8757L27.4317 61.5896L13.4915 56.3714L1.62695 61.786L18.0915 5.14323L31.9756 -1.70215L46.3925 3.71244L54.4144 11.4836L34.8926 70.8757Z" fill="#D9F3FF"/>
<path d="M31.9474 -2.09499L46.6168 3.43181L54.835 11.3433L35.0327 71.6051L27.2072 61.87L13.5194 56.736L1.03784 62.4031L17.7829 4.86261L31.9474 -2.12305V-2.09499ZM46.1961 4.02096L32.0034 -1.30946L18.3999 5.39565L2.18784 61.1126L13.4914 55.9785L27.6559 61.2809L34.7803 70.1182L54.0216 11.5677L46.1961 4.02096Z" fill="#231F20"/>
<path d="M27.4316 61.5901L46.3924 3.71293L31.9755 -1.70166L13.4915 56.3719L27.4316 61.5901Z" fill="#AAE0FC"/>
<path d="M31.7511 -2.17871L46.8413 3.48837L27.656 62.0669L13.0427 56.5962L31.7511 -2.17871ZM45.9437 3.93724L32.228 -1.19679L13.9683 56.1754L27.2072 61.1411L45.9437 3.93724Z" fill="#231F20"/>
<path d="M1.62695 61.786L13.4915 56.3714L31.9756 -1.70215L18.0915 5.14323L1.62695 61.786Z" fill="#AAE0FC"/>
<path d="M32.5925 -2.40332L13.7999 56.6521L1.03784 62.4595L17.7829 4.91899L32.5925 -2.37526V-2.40332ZM13.2109 56.1191L31.3864 -0.972523L18.4279 5.42398L2.21584 61.1409L13.239 56.1471L13.2109 56.1191Z" fill="#231F20"/>
<path d="M1.62695 61.786L13.4915 56.3714L31.9756 -1.70215L18.0915 5.14323L1.62695 61.786Z" fill="#AAE0FC"/>
<path d="M32.5925 -2.40332L13.7999 56.6521L1.03784 62.4595L17.7829 4.91899L32.5925 -2.37526V-2.40332ZM13.2109 56.1191L31.3864 -0.972523L18.4279 5.42398L2.21584 61.1409L13.239 56.1471L13.2109 56.1191Z" fill="#231F20"/>
<path d="M34.8923 70.8754L8.52664 92.3093L1.62671 61.7857L13.4913 56.3711L27.4315 61.5893L34.8923 70.8754Z" fill="#AAE0FC"/>
<path d="M13.4914 55.9785L27.6559 61.2809L35.4253 70.9317L8.30235 92.9548L1.20605 61.5614L13.4914 55.9785ZM27.2071 61.8981L13.5193 56.7641L2.04748 61.9823L8.75114 91.6362L34.3875 70.8195L27.2071 61.8981Z" fill="#231F20"/>
<path d="M27.656 60.9445L13.4915 56.3716L8.52686 92.3098L27.4317 61.5898L27.067 77.2444L34.8925 70.8759" fill="#72B8DC"/>
<path d="M27.8242 60.2711L27.4595 76.4868L34.6681 70.6233L35.1168 71.1844L26.6742 78.0298L27.0108 62.9363L7.90967 93.965L13.1828 55.8945L27.6278 60.5516L27.8242 60.243V60.2711ZM9.11582 90.6264L27.2352 61.1969L13.7999 56.8484L9.11582 90.6264Z" fill="#231F20"/>
<path d="M27.4315 61.5896L27.0669 77.2723L34.8924 70.9319L27.6559 60.9443L27.4315 61.5896Z" fill="#AAE0FC"/>
<path d="M27.5157 60.1587L35.3693 70.9879L26.6462 78.0577L27.0389 61.4773L27.4877 60.1587H27.5157ZM34.3876 70.8476L27.7962 61.7578L27.4596 76.4866L34.4157 70.8476H34.3876Z" fill="#231F20"/>
<path d="M4.93642 76.5145L13.4913 56.3711L1.62671 61.7857L4.93642 76.5145Z" fill="#72B8DC"/>
<path d="M14.1926 55.6699L4.82435 77.721L1.17798 61.5895L14.1926 55.6699ZM5.0487 75.3364L12.7901 57.1007L2.01949 61.9823L5.0487 75.3083V75.3364Z" fill="#231F20"/>
<path d="M10.3497 22.7055L31.4984 28.4568L38.4545 20.1245L37.024 -5.88238C37.024 -5.88238 23.5045 -13.6816 22.8875 -14.2988L11.7522 -9.5295L0.813232 7.35951L10.3778 22.7055H10.3497Z" fill="#AAE0FC"/>
<path d="M22.9717 -14.7476L23.14 -14.5792C23.6169 -14.1304 31.807 -9.33297 37.2204 -6.21889L37.3887 -6.10667V-5.91028L38.8472 20.2368L31.6388 28.8777L10.1254 23.0423L0.364502 7.35966L11.4998 -9.83796L22.9717 -14.7476ZM36.6875 -5.7139C34.8082 -6.80804 24.5144 -12.7557 22.8315 -13.934L11.9767 -9.30492L1.20601 7.30355L10.5742 22.3409L31.3583 27.98L38.0618 19.9282L36.6594 -5.74195L36.6875 -5.7139Z" fill="#231F20"/>
<path d="M22.8876 -14.3271C23.5327 -13.7099 37.0241 -5.9107 37.0241 -5.9107L32.1717 9.80002L16.0999 3.76822L22.8876 -14.3271Z" fill="#72B8DC"/>
<path d="M22.7474 -14.9722L23.1401 -14.6075C23.617 -14.1586 31.8071 -9.3612 37.2205 -6.24711L37.4729 -6.10684L32.4242 10.2491L15.623 3.96485L22.7474 -14.9722ZM36.6034 -5.74212C34.5839 -6.89237 25.2438 -12.307 23.056 -13.7378L16.5767 3.57208L31.9474 9.35138L36.6034 -5.71407V-5.74212Z" fill="#231F20"/>
<path d="M22.8876 -14.3271C23.5327 -13.7099 37.0241 -5.9107 37.0241 -5.9107L32.1717 9.80002L16.0999 3.76822L22.8876 -14.3271Z" fill="#72B8DC"/>
<path d="M22.7474 -14.9722L23.1401 -14.6075C23.617 -14.1586 31.8071 -9.3612 37.2205 -6.24711L37.4729 -6.10684L32.4242 10.2491L15.623 3.96485L22.7474 -14.9722ZM36.6034 -5.74212C34.5839 -6.89237 25.2438 -12.307 23.056 -13.7378L16.5767 3.57208L31.9474 9.35138L36.6034 -5.71407V-5.74212Z" fill="#231F20"/>
<path d="M31.4987 28.4288L10.35 22.7056L0.813477 7.33152L16.1 3.76855L32.1999 9.80035L38.4547 20.0965L31.4987 28.4288Z" fill="#AAE0FC"/>
<path d="M16.128 3.37598L32.4242 9.49193L38.9034 20.1247L31.6388 28.8498L10.1255 23.0144L0.224365 7.10727L16.128 3.40403V3.37598ZM31.9473 10.0811L16.0718 4.13346L1.37437 7.55615L10.5743 22.3691L31.3583 28.0081L38.0058 20.0406L31.9193 10.0811H31.9473Z" fill="#231F20"/>
<path d="M10.3499 22.7056L16.0999 3.76855L31.4985 28.4288L10.3499 22.7056Z" fill="#AAE0FC"/>
<path d="M15.9876 2.89893L32.3119 29.046L9.90112 22.9581L15.9876 2.89893ZM30.7131 27.8397L16.24 4.63833L10.8267 22.4532L30.7131 27.8397Z" fill="#231F20"/>
<path d="M38.4546 20.0964L32.1998 9.80029L31.4985 28.4287L38.4546 20.0964Z" fill="#72B8DC"/>
<path d="M31.8632 8.56592L38.9035 20.1245L31.106 29.4948L31.8632 8.56592ZM38.0059 20.0684L32.5084 11.0347L31.9193 27.3907L38.034 20.0684H38.0059Z" fill="#231F20"/>
<path d="M16.1 3.76872L22.8877 -14.3267L11.7524 -9.55734L0.813477 7.33168L16.1 3.76872Z" fill="#D9F3FF"/>
<path d="M23.5327 -15L16.3804 4.07729L0 7.89275L11.4999 -9.86596L23.5327 -15ZM15.8194 3.46009L22.2425 -13.6534L11.9767 -9.27681L1.59871 6.77056L15.8194 3.43203V3.46009Z" fill="#231F20"/>
<path d="M37.0243 -5.9107C37.0243 -5.9107 23.5049 -13.7099 22.8878 -14.3271L16.1001 3.76822" fill="#AAE0FC"/>
<path d="M22.7475 -14.9722L23.1402 -14.6075C23.617 -14.1586 31.8072 -9.3612 37.2206 -6.24711L36.8559 -5.60185C35.5938 -6.33128 25.3561 -12.2508 23.0561 -13.7658L16.4366 3.88069L15.7634 3.62819L22.7475 -14.9722Z" fill="#231F20"/>
<path d="M38.4546 20.0967L37.0241 -5.91016L32.1997 9.80056L38.4546 20.0967Z" fill="#D9F3FF"/>
<path d="M37.2766 -7.98633L38.9034 21.5274L31.7791 9.85655L37.2766 -7.95827V-7.98633ZM38.0058 18.6658L36.7717 -3.86227L32.5644 9.74433L38.0058 18.6658Z" fill="#231F20"/>
<path d="M12.9023 -9.50142C12.9023 -9.50142 13.0145 -9.44531 13.0706 -9.41725C13.5194 -9.1367 13.6597 -8.54755 13.3792 -8.12673L4.15117 6.8265L11.3878 19.4231C11.6402 19.872 11.4999 20.4612 11.0231 20.7137C10.5743 20.9661 9.98533 20.8259 9.7329 20.3489L1.9353 6.77039L11.7523 -9.1367C12.0048 -9.52947 12.4816 -9.66974 12.9023 -9.52947V-9.50142Z" fill="white"/>
<path d="M15.3987 21.3873C15.8475 21.5557 16.0999 22.0326 15.9877 22.5095C15.8474 23.0145 15.3426 23.3231 14.8377 23.1828L10.8548 22.1168C10.35 21.9765 10.0414 21.4715 10.1816 20.9665C10.3218 20.4615 10.8267 20.1529 11.3316 20.2932L15.3145 21.3593C15.3145 21.3593 15.3706 21.3593 15.3987 21.3593V21.3873Z" fill="white"/>
<path d="M20.8961 23.1829C21.3729 23.3512 21.6254 23.8562 21.4571 24.3331C21.3169 24.8381 20.7839 25.1187 20.279 24.9784L16.5766 23.8562C16.0717 23.7159 15.7913 23.1829 15.9315 22.6779C16.0718 22.1729 16.6047 21.8923 17.1095 22.0326L20.812 23.1548C20.812 23.1548 20.84 23.1548 20.868 23.1548L20.8961 23.1829Z" fill="white"/>
<path d="M25.8046 60.6079C26.2814 60.7762 26.5339 61.3093 26.3656 61.7862C26.1973 62.2912 25.6644 62.5437 25.1596 62.3754L13.4072 58.4757L3.33766 63.5256C2.86083 63.7501 2.29991 63.5817 2.07552 63.1048C1.85113 62.6279 2.01941 62.0668 2.49624 61.8423L13.2669 56.4277L25.7765 60.5799C25.7765 60.5799 25.7766 60.5799 25.8046 60.5799V60.6079Z" fill="white"/>
<path d="M9.48051 79.18C9.87319 79.3202 10.1256 79.713 10.0976 80.1619L9.36838 87.5684C9.31228 88.1014 8.86352 88.4661 8.33059 88.41C7.79767 88.3539 7.43299 87.905 7.48908 87.372L8.21838 79.9655C8.27447 79.4325 8.72324 79.0677 9.25616 79.1239C9.34031 79.1239 9.42444 79.1239 9.50859 79.18H9.48051Z" fill="white"/>
<path d="M10.1816 75.1401C10.6023 75.3084 10.8548 75.7573 10.7707 76.2061L10.2938 78.7591C10.2096 79.2641 9.70481 79.6008 9.19994 79.5166C8.69506 79.4044 8.35843 78.9275 8.44257 78.4225L8.91944 75.8695C9.00358 75.3645 9.50841 75.0278 10.0133 75.112C10.0694 75.112 10.1255 75.112 10.1816 75.1681V75.1401Z" fill="white"/>
<path d="M13.9401 24.3046C14.3889 24.473 14.6413 24.9499 14.5291 25.4268L12.706 32.4686C12.5658 32.9736 12.0609 33.2822 11.556 33.1419C11.0511 33.0016 10.7425 32.4967 10.8828 31.9917L12.706 24.9499C12.8462 24.4449 13.351 24.1363 13.8559 24.2766C13.884 24.2766 13.9121 24.2766 13.9401 24.3046Z" fill="white"/>
<path d="M11.4158 33.2826C11.8365 33.4509 12.1171 33.8998 12.0049 34.3767L11.2195 37.9116C11.1073 38.4166 10.6024 38.7533 10.0975 38.6411C9.59263 38.5288 9.25611 38.0239 9.3683 37.5189L10.1537 33.984C10.2659 33.479 10.7707 33.1423 11.2756 33.2545C11.3317 33.2545 11.3597 33.2545 11.4158 33.2826Z" fill="white"/>
</g>
<defs>
<clipPath id="clip0_269_305960">
<rect width="55" height="94" fill="white"/>
</clipPath>
</defs>
</svg>
