<svg width="90" height="133" viewBox="0 0 90 133" fill="none" xmlns="http://www.w3.org/2000/svg">
<path d="M39.05 109.617C39.05 109.029 38.5711 108.55 37.9828 108.55H19.0466L1.91651 107.989C1.42395 107.975 1.01349 108.372 1.01349 108.851V129.442L6.9242 130.729C15.5577 132.617 24.4921 132.617 33.1256 130.729L39.0363 129.442V109.603L39.05 109.617Z" fill="#4D667F" stroke="#221F20" stroke-width="1.50504" stroke-miterlimit="10"/>
<path d="M31.9626 102.817L20.0454 100.778L8.12823 102.817L1.04085 107.961C1.01348 107.961 1.04085 108.55 1.04085 107.961L8.79865 110.451C16.187 112.257 23.9038 112.257 31.2922 110.451L38.9132 109.083C39.1595 109.028 38.7627 108.317 38.5711 108.153L31.9763 102.803L31.9626 102.817Z" fill="#4D667F"/>
<path d="M1.04085 107.961L8.12823 102.817L20.0454 100.778L31.9626 102.817L31.9763 102.803L38.5711 108.153C38.7627 108.317 39.1595 109.028 38.9132 109.083L31.2922 110.451C23.9038 112.257 16.187 112.257 8.79865 110.451L1.04085 107.961ZM1.04085 107.961C1.01348 107.961 1.04085 108.55 1.04085 107.961Z" stroke="#221F20" stroke-width="1.50504" stroke-miterlimit="10"/>
<path d="M8.11456 95.4557V102.817H31.9626V95.4557H20.0318H8.11456Z" fill="#4D667F" stroke="#221F20" stroke-width="1.50504" stroke-miterlimit="10"/>
<path d="M20.0318 97.426C26.6134 97.426 31.949 96.2621 31.949 94.8264C31.949 93.3906 26.6134 92.2267 20.0318 92.2267C13.4501 92.2267 8.11456 93.3906 8.11456 94.8264C8.11456 96.2621 13.4501 97.426 20.0318 97.426Z" fill="#2E4660" stroke="#221F20" stroke-width="1.54609" stroke-miterlimit="10"/>
<path d="M15.7765 97.2481C15.7765 97.2481 10.4678 83.6617 16.8438 62.9468L23.2197 42.2183L24.5058 52.179C24.6016 52.8631 25.5456 52.9588 25.7645 52.2884C27.2559 47.8417 31.7437 40.6859 45.3027 35.7329C66.2502 28.0846 87.8954 2.36206 87.8954 2.36206C87.8954 2.36206 91.7675 23.3369 81.7521 35.7329C76.8949 41.7531 73.3102 45.5978 70.9158 47.9648C69.9854 48.8815 70.8611 50.4276 72.1335 50.1266L78.5642 48.5805C78.5642 48.5805 62.3918 64.5203 53.512 69.7606C49.2158 72.2918 45.2343 74.262 42.279 75.6029C41.157 76.1091 41.5401 77.7783 42.7578 77.7783H51.3229L22.5903 97.1797L15.7765 97.2344V97.2481Z" fill="white" stroke="#221F20" stroke-width="1.50504" stroke-miterlimit="10"/>
<path d="M15.7765 97.2481C15.7765 97.2481 13.4369 77.8878 26.5855 63.8635C39.7341 49.8393 39.0363 55.3258 62.0771 39.3314C69.7255 34.0227 87.8954 2.36206 87.8954 2.36206" fill="white"/>
<path d="M15.7765 97.2481C15.7765 97.2481 13.4369 77.8878 26.5855 63.8635C39.7341 49.8393 39.0363 55.3258 62.0771 39.3314C69.7255 34.0227 87.8954 2.36206 87.8954 2.36206" stroke="#221F20" stroke-width="1.50504" stroke-miterlimit="10"/>
</svg>
