<svg width="1008" height="726" viewBox="0 0 1008 726" fill="none" xmlns="http://www.w3.org/2000/svg">
<g filter="url(#filter0_d_2240_15)">
<rect x="4" width="1000" height="718" rx="20" fill="#0F275E"/>
<rect x="11.5" y="7.5" width="985" height="703" rx="12.5" stroke="white" stroke-width="15"/>
<path d="M199.346 331.864C195.506 331.864 192.53 328.984 192.53 325.528V304.504L175.634 271.48C175.346 270.808 175.058 269.656 175.058 268.696C175.058 265.336 178.418 262.456 181.874 262.456C183.89 262.456 186.194 263.32 187.346 265.336L199.346 289.144L211.25 265.336C212.402 263.32 214.706 262.456 216.818 262.456C220.274 262.456 223.634 265.336 223.634 268.696C223.634 269.56 223.25 270.616 222.962 271.48L206.162 304.504V325.528C206.162 328.888 203.186 331.864 199.346 331.864ZM253.343 331.864C236.734 331.864 228.383 320.632 228.383 306.616V287.608C228.383 273.976 235.391 262.456 253.343 262.456C271.295 262.456 278.302 273.976 278.302 287.608V306.616C278.302 320.632 269.951 331.864 253.343 331.864ZM253.343 274.648C244.895 274.648 241.823 279.832 241.823 287.608V306.616C241.823 314.296 245.471 319.672 253.343 319.672C261.215 319.672 264.863 314.296 264.863 306.616V287.608C264.863 279.832 261.791 274.648 253.343 274.648ZM336.128 307.96C336.128 321.784 327.2 331.864 312.032 331.864C296.576 331.864 287.936 321.688 287.936 307.96V268.792C287.936 265.144 290.912 262.456 294.752 262.456C298.304 262.456 301.376 265.336 301.376 268.792V307.96C301.376 314.872 304.736 319.672 312.032 319.672C319.232 319.672 322.592 314.776 322.592 307.96V268.792C322.592 265.432 325.472 262.456 329.216 262.456C333.152 262.456 336.128 265.432 336.128 268.792V307.96ZM387.019 287.608V306.616C387.019 314.872 389.899 320.056 398.539 320.056C401.611 320.056 404.107 319.288 406.507 317.752L407.467 317.176C408.715 316.408 409.387 315.736 411.595 315.736C415.243 315.736 417.931 318.424 417.931 321.496C417.931 327.064 408.235 331.768 398.059 331.768C381.259 331.768 373.579 321.784 373.579 306.616V287.608C373.579 272.44 381.259 262.456 398.059 262.456C408.235 262.456 417.931 267.16 417.931 272.728C417.931 275.8 415.243 278.488 411.595 278.488C409.387 278.488 408.715 277.816 407.467 277.048L406.507 276.472C404.107 274.936 401.611 274.168 398.539 274.168C389.899 274.168 387.019 279.352 387.019 287.608ZM449.28 331.864C432.672 331.864 424.32 320.632 424.32 306.616V287.608C424.32 273.976 431.328 262.456 449.28 262.456C467.232 262.456 474.24 273.976 474.24 287.608V306.616C474.24 320.632 465.888 331.864 449.28 331.864ZM449.28 274.648C440.832 274.648 437.76 279.832 437.76 287.608V306.616C437.76 314.296 441.408 319.672 449.28 319.672C457.152 319.672 460.8 314.296 460.8 306.616V287.608C460.8 279.832 457.728 274.648 449.28 274.648ZM525.442 324.856C525.442 328.312 522.562 331 518.914 331H491.842C488.002 331 484.642 328.12 484.642 324.376V268.6C484.642 265.336 487.618 262.456 491.362 262.456C495.01 262.456 498.082 265.336 498.082 268.6V318.904H518.914C522.37 318.904 525.442 321.496 525.442 324.856ZM573.723 324.856C573.723 328.312 570.843 331 567.195 331H540.123C536.283 331 532.923 328.12 532.923 324.376V268.6C532.923 265.336 535.899 262.456 539.643 262.456C543.291 262.456 546.363 265.336 546.363 268.6V318.904H567.195C570.651 318.904 573.723 321.496 573.723 324.856ZM622.292 324.76C622.292 328.216 619.22 331 615.572 331H590.132C585.428 331 581.204 329.368 581.204 324.184V270.136C581.204 266.776 584.372 263.32 588.596 263.32H614.612C618.26 263.32 621.332 266.2 621.332 269.56C621.332 273.016 618.26 275.512 614.612 275.512H594.644V290.968H612.788C616.148 290.968 619.412 293.56 619.412 297.016C619.412 300.472 616.532 303.16 612.788 303.16H594.644V318.808H615.572C619.124 318.808 622.292 321.496 622.292 324.76ZM641.269 287.608V306.616C641.269 314.872 644.149 320.056 652.789 320.056C655.861 320.056 658.357 319.288 660.757 317.752L661.717 317.176C662.965 316.408 663.637 315.736 665.845 315.736C669.493 315.736 672.181 318.424 672.181 321.496C672.181 327.064 662.485 331.768 652.309 331.768C635.509 331.768 627.829 321.784 627.829 306.616V287.608C627.829 272.44 635.509 262.456 652.309 262.456C662.485 262.456 672.181 267.16 672.181 272.728C672.181 275.8 669.493 278.488 665.845 278.488C663.637 278.488 662.965 277.816 661.717 277.048L660.757 276.472C658.357 274.936 655.861 274.168 652.789 274.168C644.149 274.168 641.269 279.352 641.269 287.608ZM695.399 325.72V275.512H685.223C681.383 275.512 678.503 272.728 678.503 269.464C678.503 266.776 681.479 263.32 685.223 263.32H719.015C722.471 263.32 725.831 266.008 725.831 269.464C725.831 272.728 722.663 275.512 719.015 275.512H708.839V325.72C708.839 328.984 705.767 331.864 702.119 331.864C698.375 331.864 695.399 328.984 695.399 325.72ZM774.917 324.76C774.917 328.216 771.845 331 768.197 331H742.757C738.053 331 733.829 329.368 733.829 324.184V270.136C733.829 266.776 736.997 263.32 741.221 263.32H767.237C770.885 263.32 773.957 266.2 773.957 269.56C773.957 273.016 770.885 275.512 767.237 275.512H747.269V290.968H765.413C768.773 290.968 772.037 293.56 772.037 297.016C772.037 300.472 769.157 303.16 765.413 303.16H747.269V318.808H768.197C771.749 318.808 774.917 321.496 774.917 324.76ZM830.662 304.984C830.662 318.52 823.27 331 801.478 331H790.63C786.598 331 783.142 327.832 783.142 324.088V270.136C783.142 266.392 786.598 263.224 790.63 263.224H801.478C823.174 263.224 830.662 275.128 830.662 288.472V304.984ZM817.222 304.984V288.472C817.222 281.176 813.478 275.416 803.11 275.416H796.582V318.808H803.11C813.67 318.808 817.222 312.568 817.222 304.984ZM196.825 423.656L193.657 433.352C192.697 436.136 189.625 437.864 187.321 437.864C183.577 437.864 180.409 435.368 180.409 431.72C180.409 431.24 180.505 430.088 180.697 429.608L199.417 374.984C200.665 371.24 202.585 368.456 207.193 368.456C211.801 368.456 213.721 371.144 215.065 374.984L233.785 429.608C233.977 430.088 234.073 431.24 234.073 431.72C234.073 435.368 231.097 437.864 227.161 437.864C224.665 437.864 221.593 436.04 220.633 433.352L217.273 423.656H196.825ZM213.817 412.712L208.921 396.296C208.057 393.512 207.577 389.864 207.193 386.888C206.809 389.864 206.329 393.512 205.465 396.296L200.377 412.712H213.817ZM282.348 430.856C282.348 434.312 279.468 437 275.82 437H248.748C244.908 437 241.548 434.12 241.548 430.376V374.6C241.548 371.336 244.524 368.456 248.268 368.456C251.916 368.456 254.988 371.336 254.988 374.6V424.904H275.82C279.276 424.904 282.348 427.496 282.348 430.856ZM330.629 430.856C330.629 434.312 327.749 437 324.101 437H297.029C293.189 437 289.829 434.12 289.829 430.376V374.6C289.829 371.336 292.805 368.456 296.549 368.456C300.197 368.456 303.269 371.336 303.269 374.6V424.904H324.101C327.557 424.904 330.629 427.496 330.629 430.856ZM379.18 431.72V381.512H369.004C365.164 381.512 362.284 378.728 362.284 375.464C362.284 372.776 365.26 369.32 369.004 369.32H402.796C406.252 369.32 409.612 372.008 409.612 375.464C409.612 378.728 406.444 381.512 402.796 381.512H392.62V431.72C392.62 434.984 389.548 437.864 385.9 437.864C382.156 437.864 379.18 434.984 379.18 431.72ZM464.939 431.624C464.939 434.984 461.867 437.864 458.219 437.864C454.667 437.864 451.499 434.984 451.499 431.624V409.256H431.051V431.624C431.051 434.984 427.979 437.864 424.331 437.864C420.587 437.864 417.611 434.984 417.611 431.624V374.6C417.611 371.336 420.587 368.456 424.331 368.456C427.979 368.456 431.051 371.336 431.051 374.6V396.968H451.499V374.6C451.499 371.336 454.667 368.456 458.219 368.456C461.771 368.456 464.939 371.336 464.939 374.6V431.624ZM518.23 430.76C518.23 434.216 515.158 437 511.51 437H486.07C481.366 437 477.142 435.368 477.142 430.184V376.136C477.142 372.776 480.31 369.32 484.534 369.32H510.55C514.198 369.32 517.27 372.2 517.27 375.56C517.27 379.016 514.198 381.512 510.55 381.512H490.582V396.968H508.726C512.086 396.968 515.35 399.56 515.35 403.016C515.35 406.472 512.47 409.16 508.726 409.16H490.582V424.808H511.51C515.062 424.808 518.23 427.496 518.23 430.76ZM603.044 389.672C603.044 399.176 597.956 405.416 589.7 408.104L602.852 427.88C606.02 432.68 601.316 437.768 596.996 437.768C594.596 437.768 592.58 436.712 591.332 434.792L575.204 409.544H568.676V431.528C568.676 434.888 565.508 437.864 561.859 437.864C558.308 437.864 555.236 434.984 555.236 431.528V376.232C555.236 372.488 558.596 369.32 562.532 369.32H579.236C597.284 369.32 603.044 379.592 603.044 389.672ZM589.604 389.672C589.604 385.64 587.588 381.512 578.852 381.512H568.676V397.448H579.428C586.052 397.448 589.604 394.664 589.604 389.672ZM660.785 413.96C660.785 427.784 651.857 437.864 636.689 437.864C621.233 437.864 612.593 427.688 612.593 413.96V374.792C612.593 371.144 615.569 368.456 619.409 368.456C622.961 368.456 626.033 371.336 626.033 374.792V413.96C626.033 420.872 629.393 425.672 636.689 425.672C643.889 425.672 647.249 420.776 647.249 413.96V374.792C647.249 371.432 650.129 368.456 653.873 368.456C657.809 368.456 660.785 371.432 660.785 374.792V413.96ZM714.286 437.864C711.79 437.864 709.102 436.52 707.854 434.504L685.582 395.72V431.624C685.582 434.984 682.414 437.864 678.766 437.864C675.022 437.864 672.142 434.984 672.142 431.624V374.984C672.142 371.24 675.118 368.456 679.15 368.456C681.742 368.456 684.334 369.896 685.678 372.008C694.222 386.792 699.118 395.528 707.95 410.984V374.696C707.95 371.336 711.118 368.456 714.766 368.456C718.51 368.456 721.39 371.336 721.39 374.696V431.336C721.39 434.888 718.51 437.864 714.286 437.864ZM774.636 430.76C774.636 434.216 771.564 437 767.916 437H742.476C737.772 437 733.548 435.368 733.548 430.184V376.136C733.548 372.776 736.716 369.32 740.94 369.32H766.956C770.604 369.32 773.676 372.2 773.676 375.56C773.676 379.016 770.604 381.512 766.956 381.512H746.988V396.968H765.132C768.492 396.968 771.756 399.56 771.756 403.016C771.756 406.472 768.876 409.16 765.132 409.16H746.988V424.808H767.916C771.468 424.808 774.636 427.496 774.636 430.76ZM812.1 417.416C812.1 413.096 809.892 411.656 808.164 410.888C806.148 410.024 803.748 409.16 801.156 408.296C791.748 405.416 781.572 402.248 781.572 388.328C781.572 375.944 790.212 368.456 803.844 368.456C809.508 368.456 823.14 369.896 823.14 377.096C823.14 380.264 820.644 383.144 816.42 383.144C814.692 383.144 813.348 382.568 811.716 382.088C809.892 381.416 807.78 380.648 804.42 380.648C799.716 380.648 795.3 382.28 795.3 387.944C795.3 392.168 797.7 393.608 799.332 394.376C801.828 395.624 804.132 396.392 806.244 396.968C815.652 399.944 825.924 403.208 825.924 416.84C825.924 430.184 815.748 437.864 802.02 437.864C794.916 437.864 781.476 435.368 781.476 428.648C781.476 425.576 784.26 422.6 787.812 422.6C789.252 422.6 790.788 423.08 792.612 423.752C794.916 424.52 797.988 425.672 802.116 425.672C808.74 425.672 812.1 422.696 812.1 417.416Z" fill="white"/>
<g clip-path="url(#clip0_2240_15)">
<path d="M715.489 86.32L718.498 133.131L756.123 151.591L750.71 162.625L665 120.573L715.489 86.32ZM704.574 108.567L689.401 118.855L705.767 126.885L704.565 108.562L704.574 108.567Z" fill="#4469CA"/>
</g>
<g clip-path="url(#clip1_2240_15)">
<path d="M287.995 501.907L265.153 542.878L286.769 578.784L276.24 585.122L227 503.33L287.995 501.907ZM266.765 514.688L248.438 515.111L257.84 530.729L266.76 514.679L266.765 514.688Z" fill="#4469CA"/>
</g>
<g clip-path="url(#clip2_2240_15)">
<path d="M95.8784 398.056L86.9639 407L48 367.683L76.9235 338.435L85.8585 347.451L65.7369 367.631L95.8886 398.056H95.8784ZM116 347.379L87.015 376.565L78.1619 367.631L98.2836 347.286L68.1728 316.892L76.9849 308L116 347.369V347.379Z" fill="#4469CA"/>
</g>
<g clip-path="url(#clip3_2240_15)">
<path d="M869.879 664.056L860.964 673L822 633.683L850.924 604.435L859.859 613.451L839.737 633.631L869.889 664.056H869.879ZM890 613.379L861.015 642.565L852.162 633.631L872.284 613.286L842.173 582.892L850.985 574L890 613.369V613.379Z" fill="#4469CA"/>
</g>
<path d="M152.347 603.428L93.0957 614.031L79.7346 660.911L64.2413 656.492L98.6091 535.905L114.103 540.324L108.62 559.559L160.225 550.617L162.905 566.432L103.739 576.685L97.9695 596.93L149.59 587.689L152.351 603.416L152.347 603.428Z" fill="#4469CA"/>
<path d="M136.658 78.9988L134.933 96.6314L88.8028 92.3477L156 182.442L141.743 193L74.5006 102.846L65.435 148.127L48.0001 144.687L62.5595 72L136.658 78.9988Z" fill="#4469CA"/>
<path d="M530.689 121.468L465.926 114.407L437.731 159L423 149.696L495.517 35L510.247 44.304L498.681 62.6099L555 69.0666L552.957 86.294L488.396 78.8882L476.226 98.1432L532.631 104.298L530.703 121.468H530.689Z" fill="#4469CA"/>
<path d="M465.533 558.945L463.859 568.403L403.304 557.447L422.96 501.428L431.885 504.59L415.998 550.024L465.54 558.941L465.533 558.945Z" fill="#4469CA"/>
<path d="M644.533 216.945L642.859 226.403L582.304 215.447L601.96 159.428L610.885 162.59L594.998 208.024L644.54 216.941L644.533 216.945Z" fill="#4469CA"/>
<path d="M307.122 183.098L295.224 184L291.983 144.669L261.868 170.446L254 161.474L290.798 130.05L286.905 81.9564L298.85 81L302.036 120.358L332.169 94.5627L340 103.562L303.22 135.041L307.113 183.098H307.122Z" fill="#4469CA"/>
<path d="M944.991 354.251L935.522 358.983L919.5 327.697L903.513 359L894 354.251L913.562 316.061L894.018 277.784L903.513 273L919.509 304.329L935.504 273L945 277.784L925.473 316.009L945 354.26L944.991 354.251Z" fill="#4469CA"/>
<g clip-path="url(#clip4_2240_15)">
<path d="M942 108.465L897 136V57L940.988 78.5036L916.585 96.9564L942.008 108.465H942ZM923.188 80.1733L906.478 72.012V92.8055L923.188 80.1733ZM922.168 109.706L906.486 102.605V119.256L922.168 109.706Z" fill="#4469CA"/>
</g>
<path d="M893.533 207.945L891.859 217.403L831.304 206.447L850.96 150.428L859.885 153.59L843.998 199.024L893.54 207.941L893.533 207.945Z" fill="#4469CA"/>
<g clip-path="url(#clip5_2240_15)">
<path d="M726.943 632.356L715.743 627.297L727.298 601.715L713.912 565.932L691.2 616.21L680 611.151L719.367 524L730.567 529.059L721.021 550.193L734.416 585.981L755.119 540.149L766.319 545.209L726.952 632.36L726.943 632.356Z" fill="#4469CA"/>
</g>
<g clip-path="url(#clip6_2240_15)">
<path d="M553.426 630.714L534.149 635.329L514.293 550.74L577.027 535.461L581.58 554.859L538.075 565.265L553.44 630.723L553.426 630.714ZM621.981 579.563L559.216 594.708L554.704 575.488L598.346 564.861L583.01 499.478L602.107 494.849L621.99 579.549L621.981 579.563Z" fill="#4469CA"/>
</g>
<path d="M359.987 687.097L350.059 698L279 634.683L350.676 578L359.887 589.339L301.826 635.355L360 687.097H359.987Z" fill="#4469CA"/>
<path d="M935.689 479.468L870.926 472.407L842.731 517L828 507.696L900.517 393L915.247 402.304L903.681 420.61L960 427.067L957.957 444.294L893.396 436.888L881.226 456.143L937.631 462.298L935.703 479.468H935.689Z" fill="#4469CA"/>
</g>
<defs>
<filter id="filter0_d_2240_15" x="0" y="0" width="1008" height="726" filterUnits="userSpaceOnUse" color-interpolation-filters="sRGB">
<feFlood flood-opacity="0" result="BackgroundImageFix"/>
<feColorMatrix in="SourceAlpha" type="matrix" values="0 0 0 0 0 0 0 0 0 0 0 0 0 0 0 0 0 0 127 0" result="hardAlpha"/>
<feOffset dy="4"/>
<feGaussianBlur stdDeviation="2"/>
<feComposite in2="hardAlpha" operator="out"/>
<feColorMatrix type="matrix" values="0 0 0 0 0 0 0 0 0 0 0 0 0 0 0 0 0 0 0.25 0"/>
<feBlend mode="normal" in2="BackgroundImageFix" result="effect1_dropShadow_2240_15"/>
<feBlend mode="normal" in="SourceGraphic" in2="effect1_dropShadow_2240_15" result="shape"/>
</filter>
<clipPath id="clip0_2240_15">
<rect width="52.99" height="95.47" fill="white" transform="translate(665 120.573) rotate(-63.866)"/>
</clipPath>
<clipPath id="clip1_2240_15">
<rect width="52.99" height="95.47" fill="white" transform="translate(227 503.33) rotate(-31.0484)"/>
</clipPath>
<clipPath id="clip2_2240_15">
<rect width="68" height="99" fill="white" transform="translate(48 308)"/>
</clipPath>
<clipPath id="clip3_2240_15">
<rect width="68" height="99" fill="white" transform="translate(822 574)"/>
</clipPath>
<clipPath id="clip4_2240_15">
<rect width="45" height="79" fill="white" transform="translate(897 57)"/>
</clipPath>
<clipPath id="clip5_2240_15">
<rect width="51.51" height="95.63" fill="white" transform="translate(719.367 524) rotate(24.3092)"/>
</clipPath>
<clipPath id="clip6_2240_15">
<rect width="106.834" height="155.265" fill="white" transform="translate(563.314 471) rotate(31.5815)"/>
</clipPath>
</defs>
</svg>
