<svg width="1008" height="726" viewBox="0 0 1008 726" fill="none" xmlns="http://www.w3.org/2000/svg">
<g filter="url(#filter0_d_2000_4154)">
<rect x="4" width="1000" height="718" rx="20" fill="#F4A9D4"/>
<rect x="11.5" y="7.5" width="985" height="703" rx="12.5" stroke="white" stroke-width="15"/>
<path d="M343.264 162V152.112C343.264 144.624 346.864 139.728 354.784 139.728C359.488 139.728 364 141.84 364 144.336C364 145.584 362.944 146.64 361.552 146.64C360.64 146.64 360.352 146.304 359.632 145.872L359.392 145.728C358.096 144.816 356.704 144.384 355.024 144.384C350.128 144.384 348.544 147.36 348.544 152.112V162C348.544 166.752 350.128 169.728 355.024 169.728C356.704 169.728 358.096 169.296 359.392 168.432L359.632 168.288C360.352 167.856 360.64 167.52 361.552 167.52C362.944 167.52 364 168.576 364 169.776C364 172.32 359.488 174.384 354.784 174.384C346.864 174.384 343.264 169.488 343.264 162ZM377.294 174.384C370.958 174.384 367.598 170.544 367.598 165.648V158.064C367.598 153.12 370.958 149.328 377.294 149.328C383.63 149.328 386.99 153.12 386.99 158.064V165.648C386.99 170.544 383.63 174.384 377.294 174.384ZM377.294 169.824C380.27 169.824 381.806 168.24 381.806 165.648V158.016C381.806 155.472 380.27 153.888 377.294 153.888C374.318 153.888 372.782 155.472 372.782 158.016V165.648C372.782 168.24 374.318 169.824 377.294 169.824ZM397.796 156.528V171.936C397.796 173.28 396.932 174.336 395.204 174.336C393.476 174.336 392.612 173.28 392.612 171.936V156.528C392.612 154.416 392.276 154.32 391.988 153.84C391.604 153.264 391.412 152.976 391.412 152.4C391.412 151.152 392.468 150.192 393.908 150.192C394.82 150.192 395.588 150.72 396.164 151.584C398.324 150.096 400.676 149.472 402.788 149.472C408.356 149.472 411.14 153.168 411.14 158.688V171.936C411.14 173.28 410.18 174.336 408.548 174.336C406.868 174.336 405.956 173.28 405.956 171.936V158.688C405.956 155.664 404.564 153.888 402.164 153.888C400.724 153.888 399.236 154.416 397.652 155.376C397.748 155.808 397.796 156.192 397.796 156.528ZM425.141 149.376C427.493 149.376 429.557 149.952 431.525 151.008C432.677 149.136 434.357 148.272 435.557 148.272C436.757 148.272 438.005 149.28 438.005 150.528C438.005 151.152 437.669 151.632 437.429 151.872L436.709 152.592C435.461 153.84 435.029 154.368 435.077 155.808V158.64C435.077 163.584 431.957 167.328 425.573 167.328C424.469 167.328 423.317 167.232 422.357 166.896C422.021 167.616 421.925 168.096 421.925 168.576C421.925 170.064 423.077 170.4 423.893 170.4H425.909C431.765 170.4 436.229 172.656 436.229 177.6C436.229 182.544 431.765 185.616 425.669 185.616C419.812 185.616 415.733 182.784 415.733 178.032C415.733 175.92 416.597 174.24 418.517 172.56C417.605 171.312 417.317 169.776 417.317 168.72C417.317 167.664 417.701 166.32 418.901 165.024C417.029 163.344 416.069 161.04 416.069 158.304C416.069 153.216 419.189 149.376 425.141 149.376ZM429.893 157.2C429.893 156.432 429.893 155.616 429.941 154.848C428.549 154.128 427.253 153.696 425.812 153.696C422.789 153.696 421.253 155.376 421.253 158.4C421.253 161.184 422.549 163.008 425.669 163.008C428.549 163.008 429.893 161.376 429.893 158.736V157.2ZM424.997 174.816C423.989 174.816 423.029 174.72 422.165 174.672C421.301 175.536 420.917 176.4 420.917 177.552C420.917 179.856 422.501 181.2 425.765 181.2C428.837 181.2 431.045 180 431.045 177.696C431.045 175.728 429.413 174.816 426.005 174.816H424.997ZM452.95 154.368C450.934 154.32 449.638 154.272 447.622 155.472C447.67 155.904 447.718 156.24 447.718 156.576V171.936C447.718 173.328 446.566 174.384 445.126 174.384C443.638 174.384 442.534 173.328 442.534 171.936V156.576C442.534 155.232 442.342 154.512 441.862 153.792C441.574 153.408 441.382 153.072 441.382 152.496C441.382 151.152 442.534 150.24 443.878 150.24C444.742 150.24 445.51 150.816 446.086 151.632C448.246 150.336 450.694 149.568 452.374 149.568C454.822 149.568 455.59 150.576 455.59 151.92C455.59 153.456 454.39 154.464 452.95 154.368ZM471.357 160.128V158.016C471.357 155.184 469.917 153.792 466.941 153.792C465.693 153.792 464.925 154.08 464.109 154.416L463.197 154.8C462.909 154.944 462.381 155.04 461.949 155.04C460.557 155.04 459.981 153.936 459.981 152.928C459.981 150.384 463.677 149.376 467.421 149.376C473.901 149.376 476.541 152.784 476.541 159.168V168.912C476.541 170.112 477.021 170.304 477.741 170.448C478.749 170.64 479.181 171.264 479.181 172.176C479.181 173.52 478.173 174.192 476.349 174.192C474.669 174.192 473.421 173.52 472.509 172.032C470.733 173.568 468.621 174.336 465.981 174.336C460.749 174.336 458.061 171.408 458.061 166.944V166.8C458.061 162 461.037 159.552 467.037 159.552C468.525 159.552 469.965 159.744 471.357 160.128ZM467.181 163.488C463.821 163.488 463.197 165.024 463.197 166.848V166.992C463.197 168.912 464.157 170.016 466.797 170.016C468.429 170.016 469.869 169.536 471.357 168.336V164.016C469.965 163.68 468.381 163.488 467.181 163.488ZM482.89 164.16V144.816C482.89 143.472 483.802 142.416 485.482 142.416C487.114 142.416 488.074 143.52 488.074 144.816V150.768H492.346C493.69 150.768 494.794 151.776 494.794 153.12C494.794 154.416 493.69 155.424 492.346 155.424H488.074V163.824C488.074 168.048 488.458 169.584 491.338 169.584C491.674 169.584 492.01 169.536 492.202 169.536C494.266 169.536 495.418 170.064 495.418 171.696C495.418 173.904 493.594 174.192 491.722 174.192C484.666 174.192 482.89 170.736 482.89 164.16ZM514.132 172.464C511.972 173.856 509.62 174.384 507.412 174.384C501.988 174.384 499.156 170.64 499.156 165.12V151.872C499.156 150.528 500.068 149.52 501.748 149.52C503.38 149.52 504.34 150.528 504.34 151.872V165.12C504.34 168.192 505.588 169.92 508.084 169.92C509.524 169.92 511.06 169.44 512.596 168.624C512.548 168.192 512.5 167.808 512.5 167.472V151.872C512.5 150.528 513.364 149.52 515.092 149.52C516.82 149.52 517.684 150.528 517.684 151.872V167.952C517.684 169.632 518.068 169.824 518.548 170.496C518.836 170.832 519.076 171.216 519.076 171.792C519.076 173.184 517.876 174.096 516.628 174.096C515.572 174.096 514.756 173.424 514.132 172.464ZM528.354 174.384C526.818 174.384 524.562 173.76 524.562 169.104V141.696C524.562 140.4 525.666 139.296 527.154 139.296C528.594 139.296 529.746 140.352 529.746 141.696V168.816C529.746 169.824 529.794 170.256 530.418 170.928C530.754 171.264 531.042 171.552 531.042 172.224C531.042 173.568 529.986 174.384 528.354 174.384ZM548.372 160.128V158.016C548.372 155.184 546.932 153.792 543.956 153.792C542.708 153.792 541.94 154.08 541.124 154.416L540.212 154.8C539.924 154.944 539.396 155.04 538.964 155.04C537.572 155.04 536.996 153.936 536.996 152.928C536.996 150.384 540.692 149.376 544.436 149.376C550.916 149.376 553.556 152.784 553.556 159.168V168.912C553.556 170.112 554.036 170.304 554.756 170.448C555.764 170.64 556.196 171.264 556.196 172.176C556.196 173.52 555.188 174.192 553.364 174.192C551.684 174.192 550.436 173.52 549.524 172.032C547.748 173.568 545.636 174.336 542.996 174.336C537.764 174.336 535.076 171.408 535.076 166.944V166.8C535.076 162 538.052 159.552 544.052 159.552C545.54 159.552 546.98 159.744 548.372 160.128ZM544.196 163.488C540.836 163.488 540.212 165.024 540.212 166.848V166.992C540.212 168.912 541.172 170.016 543.812 170.016C545.444 170.016 546.884 169.536 548.372 168.336V164.016C546.98 163.68 545.396 163.488 544.196 163.488ZM559.906 164.16V144.816C559.906 143.472 560.818 142.416 562.498 142.416C564.13 142.416 565.09 143.52 565.09 144.816V150.768H569.362C570.706 150.768 571.81 151.776 571.81 153.12C571.81 154.416 570.706 155.424 569.362 155.424H565.09V163.824C565.09 168.048 565.474 169.584 568.354 169.584C568.69 169.584 569.026 169.536 569.218 169.536C571.282 169.536 572.434 170.064 572.434 171.696C572.434 173.904 570.61 174.192 568.738 174.192C561.682 174.192 559.906 170.736 559.906 164.16ZM582.313 142.512C582.265 144.096 580.969 145.344 579.289 145.344C577.561 145.344 576.265 144.048 576.265 142.512C576.265 140.928 577.561 139.68 579.289 139.68C580.969 139.68 582.313 140.976 582.313 142.512ZM581.881 171.936C581.881 173.328 580.729 174.336 579.289 174.336C577.801 174.336 576.697 173.328 576.697 171.936V151.92C576.697 150.624 577.801 149.52 579.289 149.52C580.729 149.52 581.881 150.624 581.881 151.92V171.936ZM597.512 174.384C591.176 174.384 587.816 170.544 587.816 165.648V158.064C587.816 153.12 591.176 149.328 597.512 149.328C603.848 149.328 607.208 153.12 607.208 158.064V165.648C607.208 170.544 603.848 174.384 597.512 174.384ZM597.512 169.824C600.488 169.824 602.024 168.24 602.024 165.648V158.016C602.024 155.472 600.488 153.888 597.512 153.888C594.536 153.888 593 155.472 593 158.016V165.648C593 168.24 594.536 169.824 597.512 169.824ZM618.015 156.528V171.936C618.015 173.28 617.151 174.336 615.423 174.336C613.695 174.336 612.831 173.28 612.831 171.936V156.528C612.831 154.416 612.495 154.32 612.207 153.84C611.823 153.264 611.631 152.976 611.631 152.4C611.631 151.152 612.687 150.192 614.127 150.192C615.039 150.192 615.807 150.72 616.383 151.584C618.543 150.096 620.895 149.472 623.007 149.472C628.575 149.472 631.359 153.168 631.359 158.688V171.936C631.359 173.28 630.399 174.336 628.767 174.336C627.087 174.336 626.175 173.28 626.175 171.936V158.688C626.175 155.664 624.783 153.888 622.383 153.888C620.943 153.888 619.455 154.416 617.871 155.376C617.967 155.808 618.015 156.192 618.015 156.528ZM637.085 156.576C637.085 152.256 639.965 149.376 645.581 149.376C648.413 149.376 652.493 150.096 652.493 152.88C652.493 154.176 651.629 154.848 650.381 154.848C648.845 154.848 648.125 153.792 645.581 153.792C644.381 153.792 642.173 154.032 642.173 156.096C642.173 160.8 653.357 158.496 653.357 167.088C653.357 171.552 650.333 174.336 644.621 174.336C641.885 174.336 636.797 173.712 636.797 171.168C636.797 170.304 637.373 168.336 639.485 168.864C640.349 169.056 642.413 169.968 644.429 169.968C646.589 169.968 648.269 168.912 648.269 167.184C648.269 162.672 637.085 165.072 637.085 156.576ZM658.541 163.68L658.061 142.224C658.061 140.928 659.213 139.728 660.701 139.728C662.141 139.728 663.341 140.928 663.341 142.224L662.861 163.68C662.813 164.832 661.805 165.792 660.701 165.792C659.453 165.792 658.541 164.832 658.541 163.68ZM664.061 171.264C664.061 172.992 662.573 174.48 660.797 174.48C658.925 174.48 657.485 172.992 657.485 171.264C657.485 169.584 658.925 168.144 660.797 168.144C662.573 168.144 664.061 169.584 664.061 171.264ZM167.251 227.48C165.763 227.48 164.563 226.28 164.563 224.888V213.752L156.067 196.424C155.971 196.136 155.827 195.656 155.827 195.272C155.827 193.88 157.171 192.728 158.515 192.728C159.331 192.728 160.195 193.064 160.627 193.832L167.251 207.656L173.875 193.832C174.307 193.064 175.171 192.728 175.987 192.728C177.379 192.728 178.675 193.88 178.675 195.272C178.675 195.608 178.531 196.088 178.435 196.424L169.939 213.8V224.888C169.939 226.232 168.787 227.48 167.251 227.48ZM188.715 227.384C182.379 227.384 179.019 223.544 179.019 218.648V211.064C179.019 206.12 182.379 202.328 188.715 202.328C195.051 202.328 198.411 206.12 198.411 211.064V218.648C198.411 223.544 195.051 227.384 188.715 227.384ZM188.715 222.824C191.691 222.824 193.227 221.24 193.227 218.648V211.016C193.227 208.472 191.691 206.888 188.715 206.888C185.739 206.888 184.203 208.472 184.203 211.016V218.648C184.203 221.24 185.739 222.824 188.715 222.824ZM218.866 225.464C216.706 226.856 214.354 227.384 212.146 227.384C206.722 227.384 203.89 223.64 203.89 218.12V204.872C203.89 203.528 204.802 202.52 206.482 202.52C208.114 202.52 209.074 203.528 209.074 204.872V218.12C209.074 221.192 210.322 222.92 212.818 222.92C214.258 222.92 215.794 222.44 217.33 221.624C217.282 221.192 217.234 220.808 217.234 220.472V204.872C217.234 203.528 218.098 202.52 219.826 202.52C221.554 202.52 222.418 203.528 222.418 204.872V220.952C222.418 222.632 222.802 222.824 223.282 223.496C223.57 223.832 223.81 224.216 223.81 224.792C223.81 226.184 222.61 227.096 221.362 227.096C220.306 227.096 219.49 226.424 218.866 225.464ZM248.823 224.936C248.823 226.328 247.719 227.336 246.279 227.336C244.791 227.336 243.687 226.328 243.687 224.936V194.456C243.687 193.208 244.743 192.008 246.231 192.008C247.671 192.008 248.823 193.064 248.823 194.456V204.008C250.311 203 252.135 202.376 254.103 202.376C259.719 202.376 262.311 205.736 262.311 210.536V224.936C262.311 226.328 261.111 227.336 259.719 227.336C258.231 227.336 257.127 226.328 257.127 224.936V210.344C257.127 208.04 255.975 206.744 253.671 206.744C251.991 206.744 250.071 207.416 248.823 208.904V224.936ZM280.904 213.128V211.016C280.904 208.184 279.464 206.792 276.488 206.792C275.24 206.792 274.472 207.08 273.656 207.416L272.743 207.8C272.456 207.944 271.928 208.04 271.496 208.04C270.104 208.04 269.528 206.936 269.528 205.928C269.528 203.384 273.224 202.376 276.968 202.376C283.448 202.376 286.088 205.784 286.088 212.168V221.912C286.088 223.112 286.568 223.304 287.288 223.448C288.296 223.64 288.728 224.264 288.728 225.176C288.728 226.52 287.72 227.192 285.896 227.192C284.216 227.192 282.968 226.52 282.056 225.032C280.28 226.568 278.168 227.336 275.528 227.336C270.296 227.336 267.608 224.408 267.608 219.944V219.8C267.608 215 270.584 212.552 276.584 212.552C278.072 212.552 279.512 212.744 280.904 213.128ZM276.728 216.488C273.368 216.488 272.743 218.024 272.743 219.848V219.992C272.743 221.912 273.704 223.016 276.344 223.016C277.976 223.016 279.416 222.536 280.904 221.336V217.016C279.512 216.68 277.928 216.488 276.728 216.488ZM309.53 205.112L309.05 206.984C306.938 212.888 305.018 218.84 302.954 224.792C302.33 226.616 301.418 227.336 299.834 227.336C298.106 227.336 297.29 226.616 296.666 224.84C294.65 218.888 292.538 212.888 290.474 206.888L289.946 205.016C289.946 204.92 289.898 204.824 289.898 204.728C289.898 203.432 291.194 202.472 292.49 202.472C293.45 202.472 294.554 203.096 294.89 204.152C295.754 206.984 296.666 209.864 297.578 212.696C298.442 215.528 299.066 218.36 299.834 221.192C300.554 218.36 301.13 215.528 301.994 212.696C302.858 209.864 303.722 207.032 304.634 204.152C304.922 203.192 306.026 202.52 307.034 202.52C308.378 202.52 309.53 203.48 309.53 204.824C309.53 204.92 309.53 205.016 309.53 205.112ZM322.116 217.544C320.772 217.544 319.38 217.448 317.844 217.208V219.416C317.844 221.576 319.332 222.968 322.356 222.968C324.132 222.968 325.428 222.488 327.012 221.768C327.156 221.672 327.492 221.528 328.068 221.528C329.7 221.528 330.42 222.728 330.42 223.688C330.42 226.568 324.756 227.384 321.924 227.384C316.02 227.384 312.66 223.832 312.66 219.176V210.68C312.66 205.976 315.972 202.376 322.164 202.376C327.972 202.376 330.852 205.544 330.852 210.344C330.852 214.856 328.212 217.544 322.116 217.544ZM325.716 210.2C325.716 207.656 324.42 206.648 322.068 206.648C319.38 206.648 317.844 208.088 317.844 210.392V213.224C319.476 213.416 321.348 213.512 322.068 213.512C324.804 213.512 325.716 212.216 325.716 210.2ZM378.361 205.304L372.793 224.888C372.313 226.52 371.545 227.336 369.721 227.336C368.425 227.336 367.081 226.664 366.793 225.368L363.193 210.152C362.041 215.288 360.937 220.328 359.593 225.368C359.209 226.808 358.249 227.336 356.665 227.336C354.937 227.336 353.977 226.424 353.545 224.84L347.977 205.304C347.929 205.112 347.929 204.968 347.929 204.824C347.929 203.624 349.033 202.52 350.521 202.52C351.577 202.52 352.633 203.144 352.921 204.248L355.273 213.272C355.897 215.72 356.233 218.216 356.713 220.712C357.337 217.832 357.769 214.952 358.489 212.12L360.361 204.584C360.649 203.384 361.705 202.52 363.241 202.52C364.729 202.52 365.689 203.384 365.977 204.584L367.849 212.12C368.521 214.952 369.001 217.832 369.673 220.712C370.153 218.216 370.489 215.72 371.113 213.272L373.417 204.248C373.657 203.288 374.809 202.52 375.865 202.52C377.209 202.52 378.409 203.528 378.409 204.92C378.409 204.968 378.361 205.208 378.361 205.304ZM391.215 227.384C384.879 227.384 381.519 223.544 381.519 218.648V211.064C381.519 206.12 384.879 202.328 391.215 202.328C397.551 202.328 400.911 206.12 400.911 211.064V218.648C400.911 223.544 397.551 227.384 391.215 227.384ZM391.215 222.824C394.191 222.824 395.727 221.24 395.727 218.648V211.016C395.727 208.472 394.191 206.888 391.215 206.888C388.239 206.888 386.703 208.472 386.703 211.016V218.648C386.703 221.24 388.239 222.824 391.215 222.824ZM411.718 209.528V224.936C411.718 226.28 410.854 227.336 409.126 227.336C407.398 227.336 406.534 226.28 406.534 224.936V209.528C406.534 207.416 406.198 207.32 405.91 206.84C405.526 206.264 405.334 205.976 405.334 205.4C405.334 204.152 406.39 203.192 407.83 203.192C408.742 203.192 409.51 203.72 410.086 204.584C412.246 203.096 414.598 202.472 416.71 202.472C422.278 202.472 425.062 206.168 425.062 211.688V224.936C425.062 226.28 424.102 227.336 422.47 227.336C420.79 227.336 419.878 226.28 419.878 224.936V211.688C419.878 208.664 418.486 206.888 416.086 206.888C414.646 206.888 413.158 207.416 411.574 208.376C411.67 208.808 411.718 209.192 411.718 209.528ZM458.091 213.128V211.016C458.091 208.184 456.651 206.792 453.675 206.792C452.427 206.792 451.659 207.08 450.843 207.416L449.931 207.8C449.643 207.944 449.115 208.04 448.683 208.04C447.291 208.04 446.715 206.936 446.715 205.928C446.715 203.384 450.411 202.376 454.155 202.376C460.635 202.376 463.275 205.784 463.275 212.168V221.912C463.275 223.112 463.755 223.304 464.475 223.448C465.483 223.64 465.915 224.264 465.915 225.176C465.915 226.52 464.907 227.192 463.083 227.192C461.403 227.192 460.155 226.52 459.243 225.032C457.467 226.568 455.355 227.336 452.715 227.336C447.483 227.336 444.795 224.408 444.795 219.944V219.8C444.795 215 447.771 212.552 453.771 212.552C455.259 212.552 456.699 212.744 458.091 213.128ZM453.915 216.488C450.555 216.488 449.931 218.024 449.931 219.848V219.992C449.931 221.912 450.891 223.016 453.531 223.016C455.163 223.016 456.603 222.536 458.091 221.336V217.016C456.699 216.68 455.115 216.488 453.915 216.488ZM475.609 209.528V224.936C475.609 226.28 474.745 227.336 473.017 227.336C471.289 227.336 470.425 226.28 470.425 224.936V209.528C470.425 207.416 470.089 207.32 469.801 206.84C469.417 206.264 469.225 205.976 469.225 205.4C469.225 204.152 470.281 203.192 471.721 203.192C472.633 203.192 473.401 203.72 473.977 204.584C476.137 203.096 478.489 202.472 480.601 202.472C486.169 202.472 488.953 206.168 488.953 211.688V224.936C488.953 226.28 487.993 227.336 486.361 227.336C484.681 227.336 483.769 226.28 483.769 224.936V211.688C483.769 208.664 482.377 206.888 479.977 206.888C478.537 206.888 477.049 207.416 475.465 208.376C475.561 208.808 475.609 209.192 475.609 209.528ZM518.622 227.384C512.286 227.384 508.926 223.544 508.926 218.648V211.064C508.926 206.12 512.286 202.328 518.622 202.328C524.958 202.328 528.318 206.12 528.318 211.064V218.648C528.318 223.544 524.958 227.384 518.622 227.384ZM518.622 222.824C521.598 222.824 523.134 221.24 523.134 218.648V211.016C523.134 208.472 521.598 206.888 518.622 206.888C515.646 206.888 514.11 208.472 514.11 211.016V218.648C514.11 221.24 515.646 222.824 518.622 222.824ZM548.772 225.464C546.612 226.856 544.26 227.384 542.052 227.384C536.628 227.384 533.796 223.64 533.796 218.12V204.872C533.796 203.528 534.708 202.52 536.388 202.52C538.02 202.52 538.98 203.528 538.98 204.872V218.12C538.98 221.192 540.228 222.92 542.724 222.92C544.164 222.92 545.7 222.44 547.236 221.624C547.188 221.192 547.14 220.808 547.14 220.472V204.872C547.14 203.528 548.004 202.52 549.732 202.52C551.46 202.52 552.324 203.528 552.324 204.872V220.952C552.324 222.632 552.708 222.824 553.188 223.496C553.476 223.832 553.716 224.216 553.716 224.792C553.716 226.184 552.516 227.096 551.268 227.096C550.212 227.096 549.396 226.424 548.772 225.464ZM559.203 217.16V197.816C559.203 196.472 560.115 195.416 561.795 195.416C563.427 195.416 564.387 196.52 564.387 197.816V203.768H568.659C570.003 203.768 571.107 204.776 571.107 206.12C571.107 207.416 570.003 208.424 568.659 208.424H564.387V216.824C564.387 221.048 564.771 222.584 567.651 222.584C567.987 222.584 568.323 222.536 568.515 222.536C570.579 222.536 571.731 223.064 571.731 224.696C571.731 226.904 569.907 227.192 568.035 227.192C560.979 227.192 559.203 223.736 559.203 217.16ZM575.562 224.888V201.464C575.562 195.272 579.594 192.44 584.634 192.296C585.642 192.248 589.77 192.296 589.77 194.984C589.77 196.424 588.57 197.288 587.226 197.288C586.362 197.288 585.45 197 584.346 197C581.898 197 580.746 198.872 580.746 201.128V203.768H585.018C586.362 203.768 587.466 204.776 587.466 206.12C587.466 207.416 586.362 208.424 585.018 208.424H580.746V224.888C580.746 226.184 579.786 227.24 578.154 227.24C576.474 227.24 575.562 226.184 575.562 224.888ZM597.882 195.512C597.834 197.096 596.538 198.344 594.858 198.344C593.13 198.344 591.834 197.048 591.834 195.512C591.834 193.928 593.13 192.68 594.858 192.68C596.538 192.68 597.882 193.976 597.882 195.512ZM597.45 224.936C597.45 226.328 596.298 227.336 594.858 227.336C593.37 227.336 592.266 226.328 592.266 224.936V204.92C592.266 203.624 593.37 202.52 594.858 202.52C596.298 202.52 597.45 203.624 597.45 204.92V224.936ZM604.531 217.16V197.816C604.531 196.472 605.443 195.416 607.123 195.416C608.755 195.416 609.715 196.52 609.715 197.816V203.768H613.987C615.331 203.768 616.435 204.776 616.435 206.12C616.435 207.416 615.331 208.424 613.987 208.424H609.715V216.824C609.715 221.048 610.099 222.584 612.979 222.584C613.315 222.584 613.651 222.536 613.843 222.536C615.907 222.536 617.059 223.064 617.059 224.696C617.059 226.904 615.235 227.192 613.363 227.192C606.307 227.192 604.531 223.736 604.531 217.16ZM635.281 224.888V201.464C635.281 195.272 639.313 192.44 644.353 192.296C645.361 192.248 649.489 192.296 649.489 194.984C649.489 196.424 648.289 197.288 646.945 197.288C646.081 197.288 645.169 197 644.065 197C641.617 197 640.465 198.872 640.465 201.128V203.768H644.737C646.081 203.768 647.185 204.776 647.185 206.12C647.185 207.416 646.081 208.424 644.737 208.424H640.465V224.888C640.465 226.184 639.505 227.24 637.873 227.24C636.193 227.24 635.281 226.184 635.281 224.888ZM662.575 207.368C660.559 207.32 659.263 207.272 657.247 208.472C657.295 208.904 657.343 209.24 657.343 209.576V224.936C657.343 226.328 656.191 227.384 654.751 227.384C653.263 227.384 652.159 226.328 652.159 224.936V209.576C652.159 208.232 651.967 207.512 651.487 206.792C651.199 206.408 651.007 206.072 651.007 205.496C651.007 204.152 652.159 203.24 653.503 203.24C654.367 203.24 655.135 203.816 655.711 204.632C657.871 203.336 660.319 202.568 661.999 202.568C664.447 202.568 665.215 203.576 665.215 204.92C665.215 206.456 664.015 207.464 662.575 207.368ZM677.762 227.384C671.426 227.384 668.066 223.544 668.066 218.648V211.064C668.066 206.12 671.426 202.328 677.762 202.328C684.098 202.328 687.458 206.12 687.458 211.064V218.648C687.458 223.544 684.098 227.384 677.762 227.384ZM677.762 222.824C680.738 222.824 682.274 221.24 682.274 218.648V211.016C682.274 208.472 680.738 206.888 677.762 206.888C674.786 206.888 673.25 208.472 673.25 211.016V218.648C673.25 221.24 674.786 222.824 677.762 222.824ZM719.385 224.936V210.824C719.385 208.664 718.137 206.936 715.785 206.936C714.153 206.936 712.473 207.8 711.225 209.048C711.321 209.576 711.417 210.152 711.417 210.728V224.936C711.417 226.28 710.553 227.336 708.825 227.336C707.097 227.336 706.233 226.28 706.233 224.936V211.784C706.233 208.952 705.753 206.936 702.969 206.936C701.337 206.936 699.561 207.656 698.169 208.52C698.217 208.856 698.265 209.24 698.265 209.528V224.936C698.265 226.28 697.401 227.336 695.673 227.336C693.945 227.336 693.081 226.28 693.081 224.936V209.528C693.081 207.416 692.745 207.32 692.457 206.84C692.073 206.264 691.881 205.928 691.881 205.448C691.881 204.104 692.985 203.192 694.329 203.192C695.289 203.192 696.009 203.72 696.537 204.488C698.697 203.144 701.001 202.376 703.305 202.376C705.609 202.376 707.385 203.144 708.873 204.632C711.177 203.192 713.337 202.376 715.977 202.376C721.401 202.376 724.569 205.736 724.569 210.728V224.936C724.569 226.28 723.705 227.336 721.977 227.336C720.249 227.336 719.385 226.28 719.385 224.936ZM754.937 213.704C752.633 217.736 750.281 221.768 747.929 225.8C747.497 226.52 746.777 227.432 745.48 227.432C744.137 227.432 742.937 226.232 742.937 224.936C742.937 224.456 743.129 223.88 743.321 223.592C746.201 218.84 748.985 214.136 751.865 209.432L744.041 196.52C743.849 196.136 743.705 195.608 743.705 195.176C743.705 193.928 744.857 192.728 746.201 192.728C747.401 192.728 748.312 193.64 748.889 194.648L754.937 205.112L760.985 194.648C761.465 193.832 762.473 192.776 763.721 192.728C765.017 192.728 766.169 193.832 766.169 195.224C766.169 195.608 766.025 196.088 765.833 196.52L758.057 209.432L766.552 223.592C766.745 223.88 766.937 224.456 766.937 224.936C766.937 226.232 765.737 227.432 764.441 227.432C763.145 227.432 762.425 226.616 761.945 225.8L754.937 213.704ZM777.561 209.576C777.721 209.64 777.897 209.704 778.089 209.768C778.281 209.8 778.457 209.816 778.617 209.816C779.257 209.816 779.737 209.592 780.057 209.144C780.409 208.664 780.697 207.96 780.921 207.032H783.321C783.225 208.28 782.969 209.368 782.553 210.296C782.169 211.192 781.657 211.896 781.017 212.408C780.377 212.92 779.609 213.176 778.713 213.176C778.521 213.176 778.313 213.16 778.089 213.128C777.897 213.096 777.721 213.048 777.561 212.984V223.16H791.577V227H773.241V210.68C773.081 210.616 772.905 210.568 772.713 210.536C772.553 210.472 772.393 210.44 772.233 210.44C771.561 210.44 771.049 210.68 770.697 211.16C770.377 211.608 770.121 212.296 769.929 213.224H767.481C767.641 211.336 768.121 209.848 768.921 208.76C769.721 207.64 770.777 207.08 772.089 207.08C772.281 207.08 772.473 207.096 772.665 207.128C772.857 207.16 773.049 207.208 773.241 207.272V192.728H777.561V209.576ZM800.765 219.848L798.989 225.608C798.653 226.76 797.357 227.432 796.493 227.432C795.005 227.432 793.757 226.472 793.757 224.984C793.757 224.744 793.805 224.264 793.853 224.072L803.213 195.608C803.741 193.976 804.557 192.728 806.429 192.728C808.301 192.728 809.069 193.928 809.645 195.608L819.005 224.072C819.101 224.264 819.149 224.744 819.149 224.984C819.149 226.472 817.949 227.432 816.413 227.432C814.685 227.432 814.109 226.232 813.485 224.504L811.949 219.848H800.765ZM806.429 200.648C805.229 205.736 803.693 210.392 802.253 215.24H810.557C809.069 210.392 807.437 205.64 806.429 200.648ZM826.205 224.984V198.104H820.397C818.861 198.104 817.757 196.952 817.757 195.656C817.757 194.552 818.909 193.16 820.397 193.16H837.293C838.637 193.16 839.981 194.264 839.981 195.656C839.981 196.952 838.733 198.104 837.293 198.104H831.485V224.984C831.485 226.28 830.285 227.48 828.845 227.48C827.357 227.48 826.205 226.28 826.205 224.984ZM844.682 216.68L844.202 195.224C844.202 193.928 845.354 192.728 846.842 192.728C848.282 192.728 849.482 193.928 849.482 195.224L849.002 216.68C848.954 217.832 847.946 218.792 846.842 218.792C845.594 218.792 844.682 217.832 844.682 216.68ZM850.202 224.264C850.202 225.992 848.714 227.48 846.938 227.48C845.066 227.48 843.626 225.992 843.626 224.264C843.626 222.584 845.066 221.144 846.938 221.144C848.714 221.144 850.202 222.584 850.202 224.264Z" fill="#0F275E"/>
<path d="M356.917 642.52L354.688 642.378C340.946 641.567 328.056 635.507 318.672 625.454L345.587 565.096L383.833 582.162L356.917 642.52Z" fill="#8F8CBF" stroke="#221F20" stroke-width="1.90518" stroke-miterlimit="10"/>
<path d="M651.755 642.52L653.984 642.378C667.726 641.567 680.616 635.507 690 625.454L663.084 565.096L624.839 582.162L651.755 642.52Z" fill="#8F8CBF" stroke="#221F20" stroke-width="1.90518" stroke-miterlimit="10"/>
<path d="M536.167 291.317C511.622 288.074 505.744 288.358 504.346 288.641C502.947 288.358 497.07 288.074 472.525 291.317C440.867 295.492 406.188 324.131 406.188 324.131L504.346 401.062L602.503 324.131C602.503 324.131 567.825 295.492 536.167 291.317Z" fill="#8F8CBF" stroke="#221F20" stroke-width="2.02679" stroke-miterlimit="10"/>
<path d="M679.299 529.911C673.867 517.973 620.137 371.983 620.137 371.983L571.757 344.723C571.757 344.723 564.785 345.939 548.895 357.329C533.572 368.335 506.211 400.074 504.326 402.243C502.461 400.054 475.099 368.335 459.757 357.329C443.887 345.939 436.894 344.723 436.894 344.723L388.515 371.983C388.515 371.983 336.872 507.758 329.353 529.911C325.137 542.335 342.385 581.472 342.385 581.472C342.385 581.472 359.207 595.031 368.977 595.031C378.746 595.031 399.905 586.884 399.905 586.884L416.383 563.555L412.938 584.066C412.938 584.066 429.456 597.747 445.083 602.085C460.081 606.26 501.022 610.921 504.204 611.286C504.204 611.286 504.245 611.286 504.306 611.286C504.366 611.286 504.407 611.286 504.407 611.286C507.589 610.901 548.53 606.24 563.528 602.064C579.135 597.727 595.673 584.046 595.673 584.046L592.228 563.535L608.706 586.863C608.706 586.863 629.865 595.011 639.634 595.011C649.403 595.011 666.226 581.452 666.226 581.452C666.226 581.452 684.67 541.828 679.258 529.89L679.299 529.911Z" fill="#D3D2E7"/>
<path d="M403.128 394.034C403.128 394.034 416.991 458.04 407.81 501.819C398.628 545.598 381.238 567.163 367.193 565.095C353.147 563.028 329.231 543.571 329.231 543.571C329.231 543.571 326.11 577.033 354.647 592.112C374.266 602.469 393.764 591.707 399.946 586.924C404.628 583.296 413.647 568.723 416.424 563.596C419.038 558.792 418.085 546.773 419.97 540.024C427.834 511.953 431.158 444.582 431.158 444.582L403.128 394.054V394.034Z" fill="#8F8CBF"/>
<path d="M605.807 394.034C605.807 394.034 591.944 458.04 601.125 501.819C610.306 545.598 627.696 567.163 641.742 565.095C655.788 563.028 679.704 543.571 679.704 543.571C679.704 543.571 682.825 577.033 654.288 592.112C634.669 602.469 615.171 591.707 608.989 586.924C604.307 583.296 595.288 568.723 592.511 563.596C589.897 558.792 590.849 546.773 588.964 540.024C581.1 511.953 577.776 444.582 577.776 444.582L605.807 394.054V394.034Z" fill="#8F8CBF"/>
<path d="M592.511 561.063L592.025 542.213C577.837 550.442 562.596 556.766 546.726 561.002L543.341 561.914C518.209 568.643 491.739 568.643 466.607 561.914L463.222 561.002C447.332 556.745 432.091 550.422 417.924 542.213L417.437 561.063C417.437 561.063 411.195 581.351 412.998 584.087C432.111 613.212 498.326 611.064 504.995 610.759C511.642 611.043 577.878 613.212 596.991 584.087L592.552 561.063H592.511Z" fill="#8F8CBF"/>
<path d="M436.225 344.723C436.225 344.723 472.829 402.912 476.113 419.329C479.396 435.746 489.712 448.961 489.712 448.961L503.637 445.637C503.637 445.637 496.745 411.121 488.456 398.433C480.166 385.745 459.797 359.052 459.797 359.052L436.225 344.703V344.723Z" fill="#8F8CBF"/>
<path d="M572.466 344.723C572.466 344.723 535.863 402.912 532.579 419.329C529.296 435.726 518.979 448.961 518.979 448.961L505.055 445.637C505.055 445.637 511.947 411.121 520.236 398.433C528.526 385.745 548.895 359.052 548.895 359.052L572.466 344.703V344.723Z" fill="#8F8CBF"/>
<path d="M679.299 529.911C675.083 517.486 620.136 371.983 620.136 371.983L571.757 344.723C571.757 344.723 564.785 345.939 548.895 357.329C533.572 368.335 506.211 400.074 504.326 402.243C502.461 400.054 475.099 368.335 459.756 357.329C443.887 345.939 436.894 344.723 436.894 344.723L388.515 371.983C388.515 371.983 332.17 517.101 329.353 529.911C323.86 554.921 339.142 578.898 339.142 578.898C339.142 578.898 359.471 592.802 368.976 595.052C382.049 598.132 399.905 586.904 399.905 586.904L416.383 563.576L412.938 584.087C412.938 584.087 427.531 599.47 443.157 603.807C458.155 607.983 501.042 610.942 504.204 611.307C504.204 611.307 504.245 611.307 504.305 611.307C504.366 611.307 504.407 611.307 504.407 611.307C524.715 609.705 550.293 608.996 565.129 604.274C589.654 596.45 596.909 584.087 596.909 584.087L592.836 565.724L608.705 586.904C608.705 586.904 628.081 596.45 637.851 596.45C647.62 596.45 669.914 580.479 669.914 580.479C669.914 580.479 684.71 546.064 679.258 529.911H679.299Z" stroke="#221F20" stroke-width="1.90518" stroke-miterlimit="10"/>
<path d="M388.535 371.983L415.958 417.16" stroke="#221F20" stroke-width="1.90518" stroke-miterlimit="10" stroke-linecap="round"/>
<path d="M416.059 565.724C416.059 565.724 426.132 510.332 428.544 484.733C431.158 457.027 431.158 444.704 431.158 444.704" stroke="#221F20" stroke-width="1.90518" stroke-miterlimit="10" stroke-linecap="round"/>
<path d="M620.38 371.983L592.978 417.16" stroke="#221F20" stroke-width="1.90518" stroke-miterlimit="10" stroke-linecap="round"/>
<path d="M592.876 565.724C592.876 565.724 582.803 510.332 580.391 484.733C577.776 457.027 577.776 444.704 577.776 444.704" stroke="#221F20" stroke-width="1.90518" stroke-miterlimit="10" stroke-linecap="round"/>
<path d="M600.456 324.374C595.592 325.793 581.445 330.981 556.941 348.047C536.43 362.336 519.79 380.334 510.852 390.893C507.447 394.927 501.245 394.927 497.84 390.893C488.922 380.334 472.262 362.336 451.751 348.047C427.247 330.981 413.1 325.793 408.235 324.374C407.871 324.273 407.627 324.759 407.952 324.962C416.039 330.313 451.528 354.371 463.506 371.963C468.37 379.118 472.201 385.076 475.12 389.819C479.943 397.643 483.206 406.338 484.747 415.397L490.422 448.941H518.27L523.945 415.397C525.485 406.317 528.749 397.643 533.572 389.819C536.491 385.097 540.321 379.118 545.186 371.963C557.164 354.35 592.653 330.313 600.74 324.962C601.064 324.759 600.821 324.252 600.456 324.374Z" fill="#D4D3E8" stroke="#221F20" stroke-width="2.02679" stroke-miterlimit="10"/>
<path d="M563.082 439.577L551.55 427.213L539.997 439.557V409.722L551.55 422.086L563.082 409.742V439.597V439.577ZM549.158 424.639L543.504 418.6V430.679L549.158 424.639ZM559.596 430.679V418.579L553.941 424.619L559.596 430.679Z" fill="white"/>
</g>
<defs>
<filter id="filter0_d_2000_4154" x="0" y="0" width="1008" height="726" filterUnits="userSpaceOnUse" color-interpolation-filters="sRGB">
<feFlood flood-opacity="0" result="BackgroundImageFix"/>
<feColorMatrix in="SourceAlpha" type="matrix" values="0 0 0 0 0 0 0 0 0 0 0 0 0 0 0 0 0 0 127 0" result="hardAlpha"/>
<feOffset dy="4"/>
<feGaussianBlur stdDeviation="2"/>
<feComposite in2="hardAlpha" operator="out"/>
<feColorMatrix type="matrix" values="0 0 0 0 0 0 0 0 0 0 0 0 0 0 0 0 0 0 0.25 0"/>
<feBlend mode="normal" in2="BackgroundImageFix" result="effect1_dropShadow_2000_4154"/>
<feBlend mode="normal" in="SourceGraphic" in2="effect1_dropShadow_2000_4154" result="shape"/>
</filter>
</defs>
</svg>
