<svg width="257" height="192" viewBox="0 0 257 192" fill="none" xmlns="http://www.w3.org/2000/svg">
<path d="M25.7579 136.945C26.0665 136.945 26.3469 136.945 26.6555 136.861C33.4713 135.683 38.1274 132.316 39.4457 127.687C41.1286 121.767 37.37 115.315 27.9738 107.936C17.3714 99.604 10.9763 90.6264 10.8922 83.9213C10.8361 81.2 11.8739 79.0118 14.0336 77.2163C25.0287 68.0143 39.1091 80.6109 39.6981 81.1439C41.6334 82.8833 44.7188 82.8552 46.598 81.0878C48.4773 79.2923 48.4492 76.4307 46.5139 74.6633C39.2213 68.0143 21.6628 58.6158 7.4983 70.483C3.23491 74.046 1.01906 78.7592 1.13126 84.0897C1.29955 93.5161 8.78853 104.766 21.6909 114.894C28.9835 120.645 30.3579 124.208 30.0213 125.386C29.7689 126.256 27.9177 127.406 24.8604 127.939C22.1958 128.416 20.4567 130.773 20.9616 133.242C21.4104 135.43 23.4579 136.945 25.7579 136.945Z" fill="#728389"/>
<path d="M25.7579 137.646C23.0933 137.646 20.7652 135.851 20.2884 133.382C20.0079 132.063 20.2884 130.717 21.0738 129.567C21.9152 128.36 23.2335 127.491 24.7481 127.238C27.7213 126.733 29.2078 125.639 29.3481 125.162C29.5444 124.433 28.5066 121.094 21.242 115.399C8.1714 105.131 0.570232 93.7125 0.429989 84.0617C0.345844 78.5068 2.61778 73.5972 7.04946 69.8939C21.6067 57.7181 39.5578 67.3129 46.9907 74.1021C48.0846 75.0841 48.6736 76.4027 48.7016 77.8054C48.7016 79.2082 48.1407 80.5267 47.1029 81.5367C44.9431 83.5847 41.4371 83.6127 39.2493 81.6208C38.6602 81.1158 25.0006 68.9401 14.5104 77.7212C12.5189 79.3765 11.5653 81.3964 11.6214 83.8933C11.7336 90.402 18.0165 99.1832 28.4505 107.375C38.0993 114.95 41.9419 121.655 40.1749 127.883C38.7724 132.793 33.92 136.328 26.8237 137.562C26.4872 137.618 26.1506 137.646 25.7859 137.646H25.7579ZM22.925 65.4893C17.9043 65.4893 12.7153 67.0043 7.94702 70.9881C3.85192 74.4108 1.74827 78.9276 1.83242 84.0617C1.97266 93.2917 9.3775 104.317 22.1116 114.333C29.2079 119.916 31.1993 123.787 30.6944 125.583C30.3298 126.873 28.0298 128.108 25.0006 128.641C23.8506 128.837 22.8408 129.482 22.2238 130.38C21.6628 131.194 21.4664 132.176 21.6628 133.101C22.0835 135.149 24.2432 136.58 26.5432 136.188C33.0786 135.037 37.5383 131.895 38.8005 127.519C40.3992 121.908 36.7249 115.708 27.553 108.497C16.7823 100.053 10.3031 90.879 10.1909 83.9494C10.1348 81.0037 11.2568 78.6471 13.5848 76.6832C25.0006 67.1446 39.5578 80.0779 40.1749 80.6109C41.8297 82.1259 44.4943 82.0978 46.1212 80.5548C46.8785 79.8254 47.2992 78.8715 47.2992 77.8615C47.2992 76.8515 46.8504 75.8977 46.0651 75.1682C41.381 70.932 32.4335 65.4893 22.925 65.4893Z" fill="black"/>
<g style="mix-blend-mode:multiply" opacity="0.75">
<path d="M24.8603 127.939C24.5798 127.995 24.3273 128.08 24.0469 128.164C24.9444 131.082 25.9822 133.943 27.1883 136.749C33.6956 135.486 38.1553 132.204 39.4456 127.687C41.1285 121.767 37.3699 115.315 27.9737 107.936C25.1127 105.692 22.5603 103.363 20.3444 101.091C20.3444 101.764 20.3164 102.437 20.3164 103.111C20.3164 106.926 20.5969 110.686 21.1018 114.389C21.2981 114.557 21.4944 114.726 21.7188 114.894C29.0115 120.645 30.3858 124.208 30.0493 125.386C29.7968 126.256 27.9456 127.406 24.8883 127.939H24.8603Z" fill="url(#paint0_linear_80_230382)"/>
<path d="M28.9835 65.4614C27.6372 68.2389 26.4311 71.1004 25.3933 73.99C32.8823 75.0281 39.3054 80.7513 39.6981 81.116C41.6334 82.8554 44.7188 82.8274 46.598 81.0599C48.4773 79.2644 48.4493 76.4028 46.5139 74.6353C42.7554 71.2126 36.3042 67.0886 28.9835 65.4614Z" fill="url(#paint1_linear_80_230382)"/>
</g>
<path d="M231.522 136.945C231.214 136.945 230.933 136.945 230.625 136.861C223.809 135.683 219.153 132.316 217.835 127.687C216.152 121.767 219.91 115.315 229.306 107.936C239.909 99.604 246.304 90.6264 246.388 83.9213C246.444 81.2 245.406 79.0118 243.247 77.2163C232.252 68.0143 218.171 80.6109 217.582 81.1439C215.647 82.8833 212.561 82.8552 210.682 81.0878C208.803 79.2923 208.831 76.4307 210.766 74.6633C218.059 68.0143 235.617 58.6158 249.782 70.483C254.045 74.046 256.261 78.7592 256.149 84.0897C255.981 93.5161 248.492 104.766 235.589 114.894C228.297 120.645 226.922 124.208 227.259 125.386C227.511 126.256 229.363 127.406 232.42 127.939C235.084 128.416 236.823 130.773 236.319 133.242C235.87 135.43 233.822 136.945 231.522 136.945Z" fill="#728389"/>
<path d="M231.522 137.646C231.186 137.646 230.821 137.646 230.485 137.562C223.388 136.328 218.536 132.793 217.133 127.883C215.366 121.683 219.209 114.978 228.858 107.375C239.292 99.1832 245.575 90.402 245.687 83.8933C245.743 81.3964 244.789 79.3765 242.798 77.7212C232.308 68.9401 218.62 81.1158 218.059 81.6208C215.871 83.6127 212.337 83.5847 210.206 81.5367C209.14 80.5267 208.579 79.2082 208.607 77.8054C208.607 76.4027 209.224 75.0841 210.29 74.1021C217.751 67.3129 235.674 57.7181 250.231 69.8939C254.663 73.5972 256.962 78.5068 256.85 84.0617C256.682 93.7125 249.109 105.131 236.038 115.399C228.774 121.094 227.736 124.433 227.932 125.162C228.072 125.639 229.559 126.705 232.532 127.238C234.047 127.491 235.393 128.36 236.207 129.567C236.992 130.689 237.272 132.063 236.992 133.382C236.487 135.851 234.187 137.646 231.522 137.646ZM234.159 73.1483C237.328 73.1483 240.638 74.1022 243.696 76.6552C246.024 78.619 247.146 80.9756 247.089 83.9213C246.977 90.8509 240.498 100.025 229.727 108.469C220.583 115.651 216.909 121.88 218.48 127.491C219.714 131.867 224.174 135.009 230.709 136.159C233.037 136.58 235.197 135.15 235.589 133.073C235.786 132.12 235.589 131.166 235.028 130.324C234.411 129.426 233.402 128.781 232.252 128.585C229.222 128.052 226.922 126.817 226.558 125.527C226.053 123.759 228.044 119.86 235.141 114.277C247.875 104.261 255.28 93.2356 255.42 84.0055C255.504 78.8715 253.372 74.3827 249.305 70.9319C235.477 59.3733 218.34 68.6034 211.187 75.0841C210.402 75.8135 209.953 76.7674 209.953 77.7773C209.953 78.7873 210.374 79.7412 211.131 80.4707C212.758 82.0137 215.423 82.0417 217.077 80.5267C217.526 80.1059 225.464 73.0922 234.131 73.0922L234.159 73.1483Z" fill="black"/>
<path d="M54.5357 138.404C54.5357 138.404 34.8456 188.987 38.6041 188.987C42.3626 188.987 79.8636 156.724 79.8636 156.724L54.5357 138.404Z" fill="#728389"/>
<path d="M38.5761 189.66C38.2115 189.66 37.9029 189.492 37.7066 189.183C35.5188 185.985 49.5151 149.289 53.8626 138.123L54.1992 137.282L80.9575 156.64L80.2844 157.229C74.0015 162.643 42.3907 189.66 38.5761 189.66ZM54.8443 139.498C46.4017 161.212 38.1554 185.087 38.8005 188.229C42.2785 187.275 64.6052 168.843 78.7137 156.752L54.8443 139.498Z" fill="black"/>
<path d="M207.821 138.404C207.821 138.404 227.511 188.987 223.753 188.987C219.994 188.987 182.493 156.724 182.493 156.724L207.821 138.404Z" fill="#728389"/>
<path d="M223.753 189.66C219.938 189.66 188.327 162.643 182.045 157.229L181.371 156.64L208.13 137.282L208.466 138.123C212.814 149.289 226.838 185.957 224.622 189.183C224.426 189.492 224.089 189.66 223.753 189.66ZM183.643 156.752C197.724 168.843 220.078 187.275 223.556 188.229C224.202 185.087 215.955 161.212 207.513 139.498L183.643 156.752Z" fill="black"/>
<path d="M46.682 47.7305C35.9394 62.4032 29.6846 80.1057 29.6846 99.183C29.6846 149.738 73.777 190.726 128.135 190.726C182.493 190.726 226.586 149.738 226.586 99.183C226.586 80.1057 220.303 62.4032 209.588 47.7305H46.7101H46.682Z" fill="#929FA5"/>
<path d="M128.135 191.427C73.4685 191.427 28.9834 150.046 28.9834 99.183C28.9834 80.5826 34.9017 62.6556 46.1211 47.3376L46.3174 47.0571H209.925L210.121 47.3376C221.341 62.6556 227.259 80.5826 227.259 99.183C227.259 150.046 182.774 191.427 128.107 191.427H128.135ZM47.0467 48.4318C36.1358 63.4411 30.3858 81.0035 30.3858 99.183C30.3858 149.289 74.2258 190.025 128.135 190.025C182.045 190.025 225.885 149.261 225.885 99.183C225.885 81.0035 220.135 63.4692 209.224 48.4318H47.0467Z" fill="black"/>
<path d="M209.7 47.8427C209.7 52.3595 173.181 56.0067 128.135 56.0067C83.0891 56.0067 46.5698 52.3595 46.5698 47.8427C46.5698 43.3259 83.0891 39.6787 128.135 39.6787C173.181 39.6787 209.7 43.3259 209.7 47.8427Z" fill="#728389"/>
<path d="M128.135 56.7082C95.0659 56.7082 45.8687 54.3516 45.8687 47.8429C45.8687 41.3342 95.0659 38.9775 128.135 38.9775C161.204 38.9775 210.402 41.3342 210.402 47.8429C210.402 54.3516 161.204 56.7082 128.135 56.7082ZM128.135 40.3522C78.0404 40.3522 47.2711 44.7007 47.2711 47.8148C47.2711 50.9289 78.0404 55.2774 128.135 55.2774C178.23 55.2774 208.999 50.9289 208.999 47.8148C208.999 44.7007 178.23 40.3522 128.135 40.3522Z" fill="black"/>
<path d="M53.3577 51.0971C65.9515 53.9867 94.6732 56.0067 128.135 56.0067C161.597 56.0067 190.319 53.9867 202.913 51.0971C190.319 48.2074 161.597 46.1875 128.135 46.1875C94.6732 46.1875 65.9515 48.2074 53.3577 51.0971Z" fill="url(#paint2_linear_80_230382)"/>
<mask id="mask0_80_230382" style="mask-type:luminance" maskUnits="userSpaceOnUse" x="50" y="0" width="154" height="57">
<path d="M53.3577 51.0972C65.9516 53.9869 94.6733 56.0068 128.135 56.0068C161.597 56.0068 190.319 53.9869 202.913 51.0972C208.13 32.3846 160.924 0.374023 127.462 0.374023C94.0002 0.374023 37.8469 30.6452 53.3577 51.0972Z" fill="white"/>
</mask>
<g mask="url(#mask0_80_230382)">
<path d="M193.461 45.2897C191.497 45.2897 189.702 45.8227 188.131 46.7204C186.112 37.6868 177.473 30.8695 167.151 30.8695C167.039 30.8695 166.955 30.8695 166.842 30.8695C166.87 30.5329 166.955 30.2242 166.955 29.8876C166.955 24.6694 162.383 20.4331 156.745 20.4331C152.145 20.4331 148.302 23.2666 147.04 27.1663C144.74 26.2124 142.16 25.6793 139.467 25.6793C134.278 25.6793 129.594 27.6432 126.2 30.7853C123.199 24.8938 116.748 20.8259 109.287 20.8259C100.732 20.8259 93.5234 26.1563 91.2795 33.4506C89.4002 31.4867 86.7076 30.2242 83.6783 30.2242C78.0406 30.2242 73.4686 34.4605 73.4686 39.6787C73.4686 40.8009 73.7211 41.867 74.1138 42.8769C72.1784 44.3077 70.5796 46.0752 69.3735 48.0952C67.5504 46.5241 65.1101 45.5422 62.4455 45.5422C56.8078 45.5422 52.2358 49.7785 52.2358 54.9967C52.2358 60.2149 56.8078 64.4511 62.4455 64.4511C64.6333 64.4511 66.6528 63.8059 68.3357 62.7117C71.0284 69.2205 77.8442 73.8495 85.81 73.8495C92.3734 73.8495 98.1514 70.7074 101.489 65.9661C104.911 69.8657 110.156 72.3626 115.99 72.3626C121.011 72.3626 125.527 70.5391 128.893 67.5653C132.315 71.1282 137.279 73.3725 142.833 73.3725C148.386 73.3725 152.986 71.2965 156.408 67.958C159.578 69.6693 163.252 70.6793 167.179 70.6793C175.089 70.6793 181.961 66.6955 185.691 60.804C187.57 62.8801 190.347 64.2547 193.517 64.2547C199.154 64.2547 203.726 60.0184 203.726 54.8002C203.726 49.582 199.154 45.3458 193.517 45.3458L193.461 45.2897Z" fill="#F2B2EB"/>
<path d="M156.745 21.8637C161.597 21.8637 165.552 25.4827 165.552 29.9154C165.552 30.0837 165.552 30.224 165.496 30.3923L165.44 30.7571L165.272 32.3281H166.87L167.179 32.3001C176.659 32.3001 184.906 38.5002 186.813 47.057L187.234 48.9086L188.889 47.9546C190.319 47.1411 191.918 46.7202 193.517 46.7202C198.369 46.7202 202.324 50.3394 202.324 54.772C202.324 59.2047 198.369 62.8238 193.517 62.8238C190.908 62.8238 188.44 61.7296 186.757 59.85L185.523 58.4752L184.541 60.0463C180.951 65.7414 174.331 69.2763 167.235 69.2763C163.701 69.2763 160.195 68.4066 157.11 66.7233L156.212 66.2184L155.483 66.9478C152.173 70.1741 147.685 71.9696 142.889 71.9696C138.093 71.9696 133.24 70.0058 129.959 66.6112L129.033 65.6572L128.023 66.555C124.77 69.4166 120.506 71.0157 116.046 71.0157C110.801 71.0157 105.893 68.8556 102.583 65.0962L101.405 63.7776L100.395 65.2364C97.1697 69.8094 91.7563 72.5307 85.8661 72.5307C78.7418 72.5307 72.2345 68.4066 69.6821 62.2626L69.0369 60.6916L67.6345 61.6174C66.1199 62.5993 64.3528 63.1323 62.5297 63.1323C57.6773 63.1323 53.7224 59.5133 53.7224 55.0806C53.7224 50.6479 57.6773 47.0289 62.5297 47.0289C64.7455 47.0289 66.9053 47.8144 68.5601 49.2452L69.8223 50.3393L70.6918 48.9086C71.7857 47.057 73.2723 45.4578 75.0674 44.1111L75.9369 43.4659L75.5442 42.4559C75.1796 41.5021 75.0113 40.6324 75.0113 39.7627C75.0113 35.33 78.9662 31.7109 83.8186 31.7109C86.3149 31.7109 88.7271 32.7209 90.41 34.4884L92.0648 36.2277L92.7661 33.9273C94.8697 27.0819 101.714 22.2845 109.427 22.2845C116.103 22.2845 122.245 25.9036 125.106 31.4865L125.948 33.1417L127.322 31.8793C130.604 28.8213 134.979 27.138 139.635 27.138C142.076 27.138 144.432 27.6149 146.675 28.5127L148.078 29.0738L148.555 27.643C149.677 24.1922 153.043 21.8917 156.941 21.8917M156.745 20.4609C152.145 20.4609 148.302 23.2945 147.04 27.1941C144.74 26.2402 142.16 25.7072 139.467 25.7072C134.278 25.7072 129.594 27.671 126.2 30.8132C123.199 24.9217 116.748 20.8537 109.287 20.8537C100.732 20.8537 93.5234 26.1841 91.2795 33.4784C89.4002 31.5145 86.7076 30.2521 83.6783 30.2521C78.0406 30.2521 73.4686 34.4884 73.4686 39.7066C73.4686 40.8288 73.7211 41.8948 74.1138 42.9048C72.1784 44.3356 70.5796 46.103 69.3735 48.123C67.5504 46.5519 65.1101 45.5701 62.4455 45.5701C56.8078 45.5701 52.2358 49.8063 52.2358 55.0245C52.2358 60.2427 56.8078 64.479 62.4455 64.479C64.6333 64.479 66.6528 63.8337 68.3357 62.7396C71.0284 69.2483 77.8442 73.8774 85.81 73.8774C92.3734 73.8774 98.1514 70.7352 101.489 65.994C104.911 69.8936 110.156 72.3905 115.99 72.3905C121.011 72.3905 125.527 70.5669 128.893 67.593C132.315 71.156 137.279 73.4004 142.833 73.4004C148.386 73.4004 152.986 71.3244 156.408 67.9858C159.578 69.6972 163.252 70.7072 167.179 70.7072C175.089 70.7072 181.961 66.7234 185.691 60.8319C187.57 62.908 190.347 64.2826 193.517 64.2826C199.154 64.2826 203.726 60.0463 203.726 54.8281C203.726 49.6099 199.154 45.3737 193.517 45.3737C191.553 45.3737 189.758 45.9067 188.187 46.8045C186.168 37.7708 177.529 30.9535 167.207 30.9535C167.095 30.9535 167.011 30.9535 166.899 30.9535C166.927 30.6168 167.011 30.3082 167.011 29.9715C167.011 24.7533 162.439 20.5171 156.801 20.5171L156.745 20.4609Z" fill="black"/>
<g style="mix-blend-mode:multiply" opacity="0.75">
<path d="M67.4943 53.342C66.0077 51.6868 63.8199 50.6207 61.3236 50.6207C56.8919 50.6207 53.2737 53.9592 53.2737 58.0833C53.2737 58.6444 53.3578 59.2054 53.47 59.7104C153.912 52.5845 155.819 68.2391 155.511 67.4255C157.025 66.3033 158.316 64.9006 159.241 63.3295C160.672 64.5639 162.607 65.3495 164.711 65.3495C169.142 65.3495 172.761 62.0109 172.761 57.8869C172.761 53.7628 169.171 50.4243 164.711 50.4243C162.972 50.4243 161.373 50.9574 160.083 51.799C157.951 46.665 152.594 42.9897 146.283 42.9897C141.094 42.9897 136.55 45.4586 133.913 49.2179C131.193 46.1319 127.07 44.1681 122.47 44.1681C118.515 44.1681 114.925 45.6269 112.288 47.9554C109.595 45.1499 105.668 43.3826 101.293 43.3826C96.9173 43.3826 93.271 45.0378 90.5783 47.6469C88.082 46.3002 85.1649 45.5147 82.0796 45.5147C75.8528 45.5147 70.4114 48.6568 67.4663 53.3139L67.4943 53.342Z" fill="#F2B2EB"/>
<path d="M155.09 68.3231L154.754 67.4534C153.8 65.9384 143.338 54.0712 53.5262 60.4116L52.9371 60.4677L52.7969 59.8785C52.6566 59.2333 52.5725 58.6441 52.5725 58.083C52.5725 53.5662 56.4993 49.9191 61.3237 49.9191C63.5956 49.9191 65.7553 50.7607 67.3822 52.2476C70.6358 47.6747 76.1894 44.8692 82.0796 44.8692C84.9967 44.8692 87.8857 45.5706 90.4662 46.8611C93.3832 44.1959 97.1978 42.737 101.293 42.737C105.388 42.737 109.427 44.3081 112.344 47.0575C115.177 44.757 118.739 43.5226 122.498 43.5226C126.845 43.5226 130.968 45.2059 133.885 48.1797C136.802 44.5045 141.402 42.3442 146.311 42.3442C152.454 42.3442 157.923 45.6547 160.419 50.8449C161.738 50.1435 163.224 49.7788 164.739 49.7788C169.563 49.7788 173.49 53.4539 173.49 57.9427C173.49 62.4315 169.563 66.1067 164.739 66.1067C162.832 66.1067 160.98 65.5176 159.438 64.4235C158.596 65.6859 157.53 66.8081 156.296 67.79V68.0145L155.118 68.3791L155.09 68.3231ZM100.171 57.1572C117.084 57.1572 130.548 58.1392 140.505 60.1311C151.219 62.2633 154.641 64.9845 155.735 66.4153C156.913 65.4334 157.895 64.2832 158.652 62.9926L159.073 62.2632L159.718 62.8243C161.093 64.0307 162.888 64.676 164.739 64.676C168.778 64.676 172.088 61.646 172.088 57.9147C172.088 54.1834 168.806 51.1535 164.739 51.1535C163.224 51.1535 161.738 51.6024 160.475 52.416L159.774 52.8929L159.438 52.1074C157.362 47.1136 152.089 43.747 146.311 43.747C141.543 43.747 137.139 45.9634 134.502 49.6666L133.998 50.3961L133.409 49.7227C130.716 46.6647 126.733 44.9253 122.498 44.9253C118.879 44.9253 115.429 46.2159 112.765 48.5444L112.26 48.9933L111.783 48.5163C109.09 45.7389 105.276 44.1679 101.293 44.1679C97.31 44.1679 93.7759 45.6267 91.0832 48.2358L90.7186 48.6005L90.2698 48.348C87.7735 47.0014 84.9686 46.3 82.1077 46.3C76.3577 46.3 71.0004 49.1616 68.1114 53.7626L67.6066 54.5481L66.9895 53.8467C65.5871 52.2757 63.5115 51.3499 61.3517 51.3499C57.3127 51.3499 54.003 54.3798 54.003 58.1111C54.003 58.3917 54.003 58.7002 54.0871 59.0088C71.5334 57.7744 86.932 57.1572 100.199 57.1572H100.171Z" fill="black"/>
</g>
<g style="mix-blend-mode:multiply" opacity="0.75">
<path d="M90.7464 37.3222C89.5404 35.9756 87.7452 35.1059 85.7257 35.1059C82.1075 35.1059 79.1624 37.8272 79.1624 41.1938C79.1624 41.6427 79.2185 42.0915 79.3307 42.5404C161.205 36.7331 162.747 49.4699 162.495 48.8247C163.729 47.8989 164.767 46.7768 165.552 45.4862C166.73 46.4962 168.273 47.1415 170.012 47.1415C173.63 47.1415 176.575 44.4201 176.575 41.0535C176.575 37.6869 173.63 34.9656 170.012 34.9656C168.609 34.9656 167.291 35.3865 166.225 36.0878C164.486 31.9077 160.111 28.9058 154.978 28.9058C150.742 28.9058 147.04 30.9257 144.908 33.9837C142.692 31.4868 139.327 29.8877 135.568 29.8877C132.343 29.8877 129.425 31.066 127.266 32.9737C125.05 30.7013 121.852 29.2424 118.29 29.2424C114.728 29.2424 111.755 30.5891 109.567 32.7212C107.52 31.6271 105.163 30.9818 102.639 30.9818C97.5622 30.9818 93.1306 33.5348 90.7464 37.3222Z" fill="#F2B2EB"/>
<path d="M162.102 49.6947L161.794 48.9091C161.036 47.7308 152.481 38.0518 79.3868 43.242L78.7978 43.2982L78.6575 42.7089C78.5173 42.1759 78.4612 41.699 78.4612 41.194C78.4612 37.4627 81.7148 34.4047 85.7258 34.4047C87.5489 34.4047 89.288 35.05 90.6343 36.2283C93.327 32.525 97.8428 30.2526 102.639 30.2526C105.023 30.2526 107.351 30.8137 109.455 31.8517C111.839 29.6915 114.98 28.5132 118.29 28.5132C121.6 28.5132 124.91 29.7757 127.294 31.992C129.594 30.1404 132.511 29.1585 135.568 29.1585C139.102 29.1585 142.44 30.5051 144.852 32.8897C147.264 29.944 150.995 28.2046 155.006 28.2046C160.027 28.2046 164.486 30.8698 166.562 35.0781C167.628 34.517 168.806 34.2364 170.04 34.2364C174.051 34.2364 177.304 37.2663 177.304 41.0257C177.304 44.785 174.051 47.8149 170.04 47.8149C168.497 47.8149 167.011 47.338 165.748 46.4964C165.075 47.4783 164.262 48.348 163.28 49.1054V49.3299L162.102 49.6947ZM117.533 40.2682C152.93 40.2682 160.896 45.5425 162.691 47.7589C163.589 46.9733 164.346 46.1036 164.935 45.0936L165.356 44.3642L166.001 44.9253C167.095 45.8792 168.525 46.4122 170.012 46.4122C173.237 46.4122 175.874 43.9995 175.874 41.0257C175.874 38.0519 173.237 35.6391 170.012 35.6391C168.806 35.6391 167.628 35.9758 166.618 36.6491L165.917 37.1261L165.58 36.3405C163.897 32.3006 159.662 29.6073 154.978 29.6073C151.135 29.6073 147.573 31.4029 145.469 34.3767L144.964 35.1061L144.375 34.4328C142.216 31.9639 138.99 30.5612 135.568 30.5612C132.651 30.5612 129.846 31.5992 127.743 33.4789L127.238 33.9278L126.761 33.4509C124.601 31.2065 121.516 29.944 118.29 29.944C115.065 29.944 112.232 31.1223 110.044 33.2264L109.679 33.5911L109.231 33.3386C107.211 32.2445 104.939 31.6834 102.639 31.6834C98.0111 31.6834 93.6635 33.9839 91.3355 37.7152L90.8306 38.5007L90.2136 37.7993C89.0916 36.5369 87.4367 35.8075 85.6977 35.8075C82.4721 35.8075 79.8356 38.2202 79.8356 41.194C79.8356 41.3904 79.8356 41.5868 79.8636 41.7832C94.9818 40.7171 107.379 40.2963 117.505 40.2963L117.533 40.2682Z" fill="black"/>
</g>
<path d="M125.499 23.2666C130.071 23.2666 133.801 19.8159 133.801 15.5796C133.801 11.3433 130.099 7.89258 125.499 7.89258C120.899 7.89258 117.196 11.3433 117.196 15.5796C117.196 19.8159 120.899 23.2666 125.499 23.2666Z" fill="#F2B2EB"/>
<path d="M125.499 9.26749C129.313 9.26749 132.399 12.101 132.399 15.5518C132.399 19.0025 129.313 21.8361 125.499 21.8361C121.684 21.8361 118.599 19.0025 118.599 15.5518C118.599 12.101 121.684 9.26749 125.499 9.26749ZM125.499 7.86475C120.927 7.86475 117.196 11.3155 117.196 15.5518C117.196 19.7881 120.899 23.2388 125.499 23.2388C130.099 23.2388 133.801 19.7881 133.801 15.5518C133.801 11.3155 130.099 7.86475 125.499 7.86475Z" fill="black"/>
<path d="M108.978 46.8609C113.915 46.8609 117.926 43.1576 117.926 38.5567C117.926 33.9557 113.915 30.2524 108.978 30.2524C104.042 30.2524 100.031 33.9557 100.031 38.5567C100.031 43.1576 104.042 46.8609 108.978 46.8609Z" fill="#F2B2EB"/>
<path d="M108.978 31.6552C113.129 31.6552 116.523 34.7412 116.523 38.5567C116.523 42.3721 113.129 45.4582 108.978 45.4582C104.827 45.4582 101.433 42.3721 101.433 38.5567C101.433 34.7412 104.827 31.6552 108.978 31.6552ZM108.978 30.2524C104.042 30.2524 100.031 33.9557 100.031 38.5567C100.031 43.1576 104.042 46.8609 108.978 46.8609C113.915 46.8609 117.926 43.1576 117.926 38.5567C117.926 33.9557 113.915 30.2524 108.978 30.2524Z" fill="black"/>
<path d="M89.4284 46.9452C91.7845 46.9452 93.7198 45.1777 93.7198 42.9894C93.7198 40.8012 91.8125 39.0337 89.4284 39.0337C87.0443 39.0337 85.137 40.8012 85.137 42.9894C85.137 45.1777 87.0443 46.9452 89.4284 46.9452Z" fill="#F2B2EB"/>
<path d="M89.4284 40.4086C91.0272 40.4086 92.3174 41.5588 92.3174 42.9616C92.3174 44.3643 91.0272 45.5146 89.4284 45.5146C87.8296 45.5146 86.5394 44.3643 86.5394 42.9616C86.5394 41.5588 87.8296 40.4086 89.4284 40.4086ZM89.4284 39.0059C87.0723 39.0059 85.137 40.7733 85.137 42.9616C85.137 45.1498 87.0443 46.9173 89.4284 46.9173C91.8125 46.9173 93.7198 45.1498 93.7198 42.9616C93.7198 40.7733 91.8125 39.0059 89.4284 39.0059Z" fill="black"/>
<path d="M127.602 54.5199C133.985 54.5199 139.158 49.7217 139.158 43.8029C139.158 37.8841 133.985 33.0859 127.602 33.0859C121.22 33.0859 116.046 37.8841 116.046 43.8029C116.046 49.7217 121.22 54.5199 127.602 54.5199Z" fill="#F2B2EB"/>
<path d="M127.602 34.4887C133.212 34.4887 137.756 38.6689 137.756 43.8029C137.756 48.9369 133.184 53.1171 127.602 53.1171C122.021 53.1171 117.449 48.9369 117.449 43.8029C117.449 38.6689 122.021 34.4887 127.602 34.4887ZM127.602 33.0859C121.207 33.0859 116.046 37.8833 116.046 43.8029C116.046 49.7225 121.235 54.5199 127.602 54.5199C133.969 54.5199 139.158 49.7225 139.158 43.8029C139.158 37.8833 133.969 33.0859 127.602 33.0859Z" fill="black"/>
<path d="M116.776 57.6341C123.158 57.6341 128.332 52.8359 128.332 46.9171C128.332 40.9983 123.158 36.2002 116.776 36.2002C110.394 36.2002 105.22 40.9983 105.22 46.9171C105.22 52.8359 110.394 57.6341 116.776 57.6341Z" fill="#F2B2EB"/>
<path d="M116.776 37.6029C122.385 37.6029 126.929 41.7831 126.929 46.9171C126.929 52.0512 122.357 56.2314 116.776 56.2314C111.194 56.2314 106.622 52.0512 106.622 46.9171C106.622 41.7831 111.194 37.6029 116.776 37.6029ZM116.776 36.2002C110.381 36.2002 105.22 40.9976 105.22 46.9171C105.22 52.8367 110.409 57.6341 116.776 57.6341C123.143 57.6341 128.332 52.8367 128.332 46.9171C128.332 40.9976 123.143 36.2002 116.776 36.2002Z" fill="black"/>
<path d="M109.174 64.5917C115.557 64.5917 120.73 59.7935 120.73 53.8747C120.73 47.9559 115.557 43.1577 109.174 43.1577C102.792 43.1577 97.6184 47.9559 97.6184 53.8747C97.6184 59.7935 102.792 64.5917 109.174 64.5917Z" fill="#F2B2EB"/>
<path d="M109.174 44.5326C114.784 44.5326 119.328 48.7128 119.328 53.8469C119.328 58.9809 114.756 63.1611 109.174 63.1611C103.593 63.1611 99.0208 58.9809 99.0208 53.8469C99.0208 48.7128 103.593 44.5326 109.174 44.5326ZM109.174 43.1299C102.779 43.1299 97.6184 47.9273 97.6184 53.8469C97.6184 59.7664 102.807 64.5638 109.174 64.5638C115.541 64.5638 120.73 59.7664 120.73 53.8469C120.73 47.9273 115.541 43.1299 109.174 43.1299Z" fill="black"/>
<path d="M154.361 50.8167C160.371 50.8167 165.244 46.2949 165.244 40.7169C165.244 35.139 160.371 30.6172 154.361 30.6172C148.35 30.6172 143.478 35.139 143.478 40.7169C143.478 46.2949 148.35 50.8167 154.361 50.8167Z" fill="#F2B2EB"/>
<path d="M154.361 32.0199C159.578 32.0199 163.841 35.9196 163.841 40.7169C163.841 45.5143 159.578 49.414 154.361 49.414C149.144 49.414 144.88 45.5143 144.88 40.7169C144.88 35.9196 149.144 32.0199 154.361 32.0199ZM154.361 30.6172C148.358 30.6172 143.478 35.134 143.478 40.7169C143.478 46.2999 148.358 50.8167 154.361 50.8167C160.363 50.8167 165.244 46.2999 165.244 40.7169C165.244 35.134 160.363 30.6172 154.361 30.6172Z" fill="black"/>
<path d="M160.027 60.9444C164.999 60.9444 169.03 57.2139 169.03 52.6121C169.03 48.0103 164.999 44.2798 160.027 44.2798C155.054 44.2798 151.023 48.0103 151.023 52.6121C151.023 57.2139 155.054 60.9444 160.027 60.9444Z" fill="#F2B2EB"/>
<path d="M160.027 45.6547C164.206 45.6547 167.628 48.7688 167.628 52.5842C167.628 56.3997 164.234 59.5138 160.027 59.5138C155.819 59.5138 152.425 56.3997 152.425 52.5842C152.425 48.7688 155.819 45.6547 160.027 45.6547ZM160.027 44.252C155.062 44.252 151.023 47.9833 151.023 52.5842C151.023 57.1852 155.062 60.9165 160.027 60.9165C164.991 60.9165 169.03 57.1852 169.03 52.5842C169.03 47.9833 164.991 44.252 160.027 44.252Z" fill="black"/>
<path d="M162.635 53.5659C167.608 53.5659 171.639 49.8354 171.639 45.2336C171.639 40.6318 167.608 36.9014 162.635 36.9014C157.663 36.9014 153.632 40.6318 153.632 45.2336C153.632 49.8354 157.663 53.5659 162.635 53.5659Z" fill="#F2B2EB"/>
<path d="M162.635 38.3041C166.814 38.3041 170.236 41.4182 170.236 45.2336C170.236 49.0491 166.843 52.1632 162.635 52.1632C158.428 52.1632 155.034 49.0491 155.034 45.2336C155.034 41.4182 158.428 38.3041 162.635 38.3041ZM162.635 36.9014C157.671 36.9014 153.632 40.6326 153.632 45.2336C153.632 49.8346 157.671 53.5659 162.635 53.5659C167.6 53.5659 171.639 49.8346 171.639 45.2336C171.639 40.6326 167.6 36.9014 162.635 36.9014Z" fill="black"/>
<path d="M154.81 35.7515C158.822 35.7515 162.074 32.737 162.074 29.0183C162.074 25.2997 158.822 22.2852 154.81 22.2852C150.797 22.2852 147.545 25.2997 147.545 29.0183C147.545 32.737 150.797 35.7515 154.81 35.7515Z" fill="#F2B2EB"/>
<path d="M154.81 23.6879C158.035 23.6879 160.672 26.0726 160.672 29.0183C160.672 31.9641 158.035 34.3487 154.81 34.3487C151.584 34.3487 148.947 31.9641 148.947 29.0183C148.947 26.0726 151.584 23.6879 154.81 23.6879ZM154.81 22.2852C150.799 22.2852 147.545 25.2871 147.545 29.0183C147.545 32.7496 150.799 35.7515 154.81 35.7515C158.82 35.7515 162.074 32.7496 162.074 29.0183C162.074 25.2871 158.82 22.2852 154.81 22.2852Z" fill="black"/>
</g>
<path d="M128.36 65.602C172.2 65.8265 215.591 57.0734 214.497 55.2218C213.01 52.6968 211.412 50.256 209.701 47.8994C209.392 52.3882 172.985 56.0073 128.135 56.0073C83.2856 56.0073 46.8785 52.3882 46.5699 47.8994C44.7468 50.3963 43.0639 52.9774 41.5212 55.6426C40.5114 57.3539 78.8819 65.3495 128.36 65.602Z" fill="#728389"/>
<path d="M129.902 66.3031C129.397 66.3031 128.893 66.3031 128.36 66.3031C82.8087 66.0787 42.5029 58.8967 40.9322 56.1473L40.7358 55.8107L40.9322 55.3057C42.5029 52.6124 44.2139 50.0033 46.009 47.5064L47.1309 45.9634L47.2712 47.8711C47.4956 50.9852 78.349 55.3337 128.135 55.3337C177.922 55.3337 208.775 50.9852 208.999 47.8711L209.14 45.9634L210.262 47.5064C211.973 49.8631 213.599 52.3599 215.086 54.8848L215.282 55.2495L215.058 55.7545C213.403 58.6161 169.872 66.3312 129.874 66.3312L129.902 66.3031ZM42.3627 55.5582C46.2895 57.7184 81.9112 64.6479 128.36 64.8723C128.893 64.8723 129.454 64.8723 129.986 64.8723C170.405 64.8723 209.504 57.4378 213.627 55.1373C212.393 53.0893 211.075 51.0693 209.701 49.1055C203.698 54.6323 158.82 56.6804 128.107 56.6804C97.394 56.6804 52.5443 54.6323 46.5138 49.1055C45.0273 51.1816 43.6529 53.3418 42.3346 55.5582H42.3627Z" fill="black"/>
<defs>
<linearGradient id="paint0_linear_80_230382" x1="-1.64565" y1="121.627" x2="37.9592" y2="117.393" gradientUnits="userSpaceOnUse">
<stop offset="0.47" stop-color="#9497AD" stop-opacity="0"/>
<stop offset="0.58" stop-color="#9497AD" stop-opacity="0.24"/>
<stop offset="0.96" stop-color="#9497AD"/>
</linearGradient>
<linearGradient id="paint1_linear_80_230382" x1="-6.46989" y1="78.5069" x2="32.9386" y2="74.3005" gradientUnits="userSpaceOnUse">
<stop offset="0.47" stop-color="#9497AD" stop-opacity="0"/>
<stop offset="0.58" stop-color="#9497AD" stop-opacity="0.24"/>
<stop offset="0.96" stop-color="#9497AD"/>
</linearGradient>
<linearGradient id="paint2_linear_80_230382" x1="127.799" y1="67.6495" x2="128.248" y2="45.7667" gradientUnits="userSpaceOnUse">
<stop offset="0.92" stop-color="#B466CC"/>
<stop offset="0.94" stop-color="#C27BCF"/>
<stop offset="0.98" stop-color="#D698D5"/>
<stop offset="1" stop-color="#DEA3D7"/>
</linearGradient>
</defs>
</svg>
