<svg width="1833" height="397" viewBox="0 0 1833 397" fill="none" xmlns="http://www.w3.org/2000/svg">
<g clip-path="url(#clip0_1933_4153)">
<path d="M1586.94 372.356L1575.74 367.297L1587.3 341.715L1573.91 305.932L1551.2 356.21L1540 351.151L1579.37 264L1590.57 269.059L1581.02 290.193L1594.42 325.981L1615.12 280.149L1626.32 285.209L1586.95 372.36L1586.94 372.356Z" fill="#23459F"/>
</g>
<g clip-path="url(#clip1_1933_4153)">
<path d="M604.489 304.32L607.498 351.131L645.123 369.591L639.71 380.625L554 338.573L604.489 304.32ZM593.574 326.567L578.401 336.855L594.767 344.885L593.565 326.562L593.574 326.567Z" fill="#23459F"/>
</g>
<g clip-path="url(#clip2_1933_4153)">
<path d="M451.995 312.908L429.153 353.878L450.769 389.784L440.24 396.122L391 314.33L451.995 312.908ZM430.765 325.688L412.438 326.111L421.84 341.73L430.76 325.68L430.765 325.688Z" fill="#23459F"/>
</g>
<g clip-path="url(#clip3_1933_4153)">
<path d="M288.878 300.056L279.964 309L241 269.683L269.924 240.435L278.859 249.451L258.737 269.631L288.889 300.056H288.878ZM309 249.379L280.015 278.565L271.162 269.631L291.284 249.286L261.173 218.892L269.985 210L309 249.369V249.379Z" fill="#23459F"/>
</g>
<g clip-path="url(#clip4_1933_4153)">
<path d="M865.878 387.056L856.964 396L818 356.683L846.924 327.435L855.859 336.451L835.737 356.631L865.889 387.056H865.878ZM886 336.379L857.015 365.565L848.162 356.631L868.284 336.286L838.173 305.892L846.985 297L886 336.369V336.379Z" fill="#23459F"/>
</g>
<g clip-path="url(#clip5_1933_4153)">
<path d="M1304.43 159.714L1285.15 164.329L1265.29 79.7399L1328.03 64.4614L1332.58 83.8589L1289.07 94.2647L1304.44 159.723L1304.43 159.714ZM1372.98 108.563L1310.22 123.708L1305.7 104.488L1349.35 93.8614L1334.01 28.4783L1353.11 23.8486L1372.99 108.549L1372.98 108.563Z" fill="#23459F"/>
</g>
<path d="M121.347 307.428L62.0956 318.03L48.7345 364.91L33.2411 360.491L67.609 239.905L83.1024 244.324L77.6203 263.559L129.224 254.617L131.905 270.431L72.7392 280.685L66.9694 300.93L118.59 291.689L121.351 307.415L121.347 307.428Z" fill="#23459F"/>
<path d="M1787.12 136.098L1775.22 137L1771.98 97.6691L1741.87 123.446L1734 114.474L1770.8 83.0498L1766.91 34.9564L1778.85 34L1782.04 73.3582L1812.17 47.5627L1820 56.562L1783.22 88.0413L1787.11 136.098H1787.12Z" fill="#23459F"/>
<path d="M169.658 46.9988L167.933 64.6314L121.803 60.3477L189 150.442L174.743 161L107.501 70.8458L98.435 116.127L81 112.687L95.5594 40L169.658 46.9988Z" fill="#23459F"/>
<path d="M1369.99 363.097L1360.06 374L1289 310.683L1360.68 254L1369.89 265.339L1311.83 311.355L1370 363.097H1369.99Z" fill="#23459F"/>
<path d="M1583.69 172.468L1518.93 165.407L1490.73 210L1476 200.696L1548.52 86L1563.25 95.304L1551.68 113.61L1608 120.067L1605.96 137.294L1541.4 129.888L1529.23 149.143L1585.63 155.298L1583.7 172.468H1583.69Z" fill="#23459F"/>
<path d="M650.689 98.4678L585.926 91.4072L557.731 136L543 126.696L615.517 12L630.247 21.304L618.681 39.6099L675 46.0666L672.957 63.294L608.396 55.8882L596.226 75.1432L652.631 81.2979L650.703 98.4678H650.689Z" fill="#23459F"/>
<path d="M1060.99 112.251L1051.52 116.983L1035.5 85.6971L1019.51 117L1010 112.251L1029.56 74.0611L1010.02 35.7836L1019.51 31L1035.51 62.3291L1051.5 31L1061 35.7836L1041.47 74.0087L1061 112.26L1060.99 112.251Z" fill="#23459F"/>
<path d="M508.533 236.945L506.859 246.403L446.304 235.447L465.96 179.428L474.885 182.591L458.998 228.024L508.54 236.941L508.533 236.945Z" fill="#23459F"/>
<path d="M1832.53 340.945L1830.86 350.403L1770.3 339.447L1789.96 283.428L1798.89 286.591L1783 332.024L1832.54 340.941L1832.53 340.945Z" fill="#23459F"/>
<path d="M873.533 97.9452L871.859 107.403L811.304 96.4473L830.96 40.4282L839.885 43.5906L823.998 89.0243L873.54 97.941L873.533 97.9452Z" fill="#23459F"/>
<g clip-path="url(#clip6_1933_4153)">
<path d="M1138 363.465L1093 391V312L1136.99 333.504L1112.58 351.956L1138.01 363.465H1138ZM1119.19 335.173L1102.48 327.012V347.806L1119.19 335.173ZM1118.17 364.706L1102.49 357.605V374.256L1118.17 364.706Z" fill="#23459F"/>
</g>
<path d="M362.122 160.098L350.223 161L346.982 121.669L316.868 147.446L309 138.474L345.798 107.05L341.905 58.9564L353.85 58L357.036 97.3582L387.168 71.5627L395 80.562L358.22 112.041L362.113 160.098H362.122Z" fill="#23459F"/>
<defs>
<clipPath id="clip0_1933_4153">
<rect width="51.51" height="95.63" fill="white" transform="translate(1579.37 264) rotate(24.3092)"/>
</clipPath>
<clipPath id="clip1_1933_4153">
<rect width="52.99" height="95.47" fill="white" transform="translate(554 338.573) rotate(-63.866)"/>
</clipPath>
<clipPath id="clip2_1933_4153">
<rect width="52.99" height="95.47" fill="white" transform="translate(391 314.33) rotate(-31.0484)"/>
</clipPath>
<clipPath id="clip3_1933_4153">
<rect width="68" height="99" fill="white" transform="translate(241 210)"/>
</clipPath>
<clipPath id="clip4_1933_4153">
<rect width="68" height="99" fill="white" transform="translate(818 297)"/>
</clipPath>
<clipPath id="clip5_1933_4153">
<rect width="106.834" height="155.265" fill="white" transform="translate(1314.31) rotate(31.5815)"/>
</clipPath>
<clipPath id="clip6_1933_4153">
<rect width="45" height="79" fill="white" transform="translate(1093 312)"/>
</clipPath>
</defs>
</svg>
