<svg width="668" height="688" viewBox="0 0 668 688" fill="none" xmlns="http://www.w3.org/2000/svg">
<mask id="path-1-inside-1_2126_2" fill="white">
<path d="M493.419 365.65L550.352 365.785L495.985 354.909L668 344.979L494.635 334.104L550.487 323.161L495.04 323.093L597.019 292.696L489.569 302.963L542.248 281.347L487.881 292.088L581.959 242.371L478.629 273.376L526.039 241.898L474.779 263.041L557.376 195.896L462.015 246.559L502.469 206.366L456.274 237.169L524.216 155.163L440.606 223.389L472.348 176.171L433.109 215.35L483.694 121.658L415.01 204.948L436.959 152.394L406.095 198.463L437.499 96.7321L386.307 191.775L397.653 135.979L376.311 187.182L387.252 81.3306L355.645 184.547L355.848 127.603L344.907 181.981L334.979 0L324.106 183.332L313.233 127.467L313.098 182.926L282.706 80.9253L292.972 188.398L271.36 135.709L282.098 190.087L232.392 95.989L263.391 199.341L231.919 151.921L253.058 203.191L185.927 120.577L236.579 215.891L196.463 175.496L227.192 221.7L145.203 153.745L213.482 237.372L166.206 205.623L205.377 244.87L111.772 194.275L194.977 262.973L142.434 241.02L188.493 271.89L86.8515 240.479L181.875 291.682L126.022 280.334L177.215 301.68L71.3857 290.737L174.581 322.35L117.648 322.147L172.015 333.023L0 343.021L173.433 353.896L117.513 364.772L172.96 364.907L70.9805 395.304L178.43 385.037L125.752 406.653L180.119 395.912L86.041 445.629L189.439 414.624L141.961 446.102L193.221 424.892L110.624 492.036L205.985 441.441L165.599 481.566L211.726 450.831L143.852 532.837L227.462 464.544L195.652 511.829L234.891 472.65L184.306 566.274L252.99 483.052L231.041 535.607L261.905 489.537L230.568 591.2L281.693 496.157L270.415 551.954L291.689 500.751L280.748 606.669L312.355 503.453L312.152 560.397L323.093 506.019L333.021 688L343.894 504.601L354.835 560.533L354.902 505.074L385.294 607.075L375.028 499.602L396.64 552.291L385.901 497.846L435.608 592.011L404.609 488.591L436.081 536.079L414.942 484.809L482.073 567.355L431.421 472.042L471.605 512.437L440.808 466.3L522.797 534.188L454.586 450.561L501.794 482.377L462.623 443.13L556.295 493.725L473.023 425.027L525.566 446.98L479.507 416.11L581.216 447.453L486.193 396.318L541.978 407.599L490.785 386.32L596.614 397.263L493.419 365.65Z"/>
</mask>
<path d="M493.419 365.65L550.352 365.785L495.985 354.909L668 344.979L494.635 334.104L550.487 323.161L495.04 323.093L597.019 292.696L489.569 302.963L542.248 281.347L487.881 292.088L581.959 242.371L478.629 273.376L526.039 241.898L474.779 263.041L557.376 195.896L462.015 246.559L502.469 206.366L456.274 237.169L524.216 155.163L440.606 223.389L472.348 176.171L433.109 215.35L483.694 121.658L415.01 204.948L436.959 152.394L406.095 198.463L437.499 96.7321L386.307 191.775L397.653 135.979L376.311 187.182L387.252 81.3306L355.645 184.547L355.848 127.603L344.907 181.981L334.979 0L324.106 183.332L313.233 127.467L313.098 182.926L282.706 80.9253L292.972 188.398L271.36 135.709L282.098 190.087L232.392 95.989L263.391 199.341L231.919 151.921L253.058 203.191L185.927 120.577L236.579 215.891L196.463 175.496L227.192 221.7L145.203 153.745L213.482 237.372L166.206 205.623L205.377 244.87L111.772 194.275L194.977 262.973L142.434 241.02L188.493 271.89L86.8515 240.479L181.875 291.682L126.022 280.334L177.215 301.68L71.3857 290.737L174.581 322.35L117.648 322.147L172.015 333.023L0 343.021L173.433 353.896L117.513 364.772L172.96 364.907L70.9805 395.304L178.43 385.037L125.752 406.653L180.119 395.912L86.041 445.629L189.439 414.624L141.961 446.102L193.221 424.892L110.624 492.036L205.985 441.441L165.599 481.566L211.726 450.831L143.852 532.837L227.462 464.544L195.652 511.829L234.891 472.65L184.306 566.274L252.99 483.052L231.041 535.607L261.905 489.537L230.568 591.2L281.693 496.157L270.415 551.954L291.689 500.751L280.748 606.669L312.355 503.453L312.152 560.397L323.093 506.019L333.021 688L343.894 504.601L354.835 560.533L354.902 505.074L385.294 607.075L375.028 499.602L396.64 552.291L385.901 497.846L435.608 592.011L404.609 488.591L436.081 536.079L414.942 484.809L482.073 567.355L431.421 472.042L471.605 512.437L440.808 466.3L522.797 534.188L454.586 450.561L501.794 482.377L462.623 443.13L556.295 493.725L473.023 425.027L525.566 446.98L479.507 416.11L581.216 447.453L486.193 396.318L541.978 407.599L490.785 386.32L596.614 397.263L493.419 365.65Z" fill="#FBE88E" stroke="#C57600" stroke-width="6" mask="url(#path-1-inside-1_2126_2)"/>
<path d="M373.097 164.964C472.658 188.174 534.556 287.716 511.351 387.298C488.146 486.88 388.624 548.791 289.064 525.581C189.503 502.371 127.605 402.829 150.81 303.247C174.015 203.665 273.537 141.754 373.097 164.964Z" fill="#FBE88E" stroke="#C57600" stroke-width="3"/>
</svg>
